<?xml version="1.0" encoding="UTF-8"?>
<svg version="1.1" xmlns="http://www.w3.org/2000/svg" width="200" height="200">
<path d="M0 0 C2.59826299 -0.00269887 5.19652499 -0.00658457 7.79478455 -0.01159668 C13.22210317 -0.01747199 18.64913479 -0.00938014 24.07641602 0.00976562 C30.31992411 0.03153868 36.56290962 0.02446572 42.80640513 0.00246 C48.85435602 -0.01798989 54.9020546 -0.01568541 60.95004082 -0.00401306 C63.50513216 -0.00135834 66.060237 -0.00457098 68.61531258 -0.01393127 C72.19449577 -0.02416922 75.77269604 -0.00849384 79.35180664 0.01367188 C80.91153702 0.00152649 80.91153702 0.00152649 82.5027771 -0.01086426 C94.07060764 0.12085364 103.88617851 3.9978269 113.33984375 10.53125 C113.96503906 10.95921875 114.59023437 11.3871875 115.234375 11.828125 C124.50634202 18.94430736 130.44842713 30.12052671 132.33984375 41.53125 C133.10824111 50.38627993 132.90365367 59.31168309 132.87109375 68.19140625 C132.87379262 70.78966924 132.87767832 73.38793124 132.88269043 75.9861908 C132.88856574 81.41350942 132.88047389 86.84054104 132.86132812 92.26782227 C132.83955507 98.51133036 132.84662803 104.75431587 132.86863375 110.99781138 C132.88908364 117.04576227 132.88677916 123.09346085 132.87510681 129.14144707 C132.87245209 131.69653841 132.87566473 134.25164325 132.88502502 136.80671883 C132.89526297 140.38590202 132.87958759 143.96410229 132.85742188 147.54321289 C132.8655188 148.58303314 132.87361572 149.62285339 132.88195801 150.69418335 C132.75024011 162.26201389 128.87326685 172.07758476 122.33984375 181.53125 C121.911875 182.15644531 121.48390625 182.78164062 121.04296875 183.42578125 C113.92678639 192.69774827 102.75056704 198.63983338 91.33984375 200.53125 C82.48481382 201.29964736 73.55941066 201.09505992 64.6796875 201.0625 C62.08142451 201.06519887 59.48316251 201.06908457 56.88490295 201.07409668 C51.45758433 201.07997199 46.03055271 201.07188014 40.60327148 201.05273438 C34.35976339 201.03096132 28.11677788 201.03803428 21.87328237 201.06004 C15.82533148 201.08048989 9.7776329 201.07818541 3.72964668 201.06651306 C1.17455534 201.06385834 -1.3805495 201.06707098 -3.93562508 201.07643127 C-7.51480827 201.08666922 -11.09300854 201.07099384 -14.67211914 201.04882812 C-15.71193939 201.05692505 -16.75175964 201.06502197 -17.8230896 201.07336426 C-29.39092014 200.94164636 -39.20649101 197.0646731 -48.66015625 190.53125 C-49.28535156 190.10328125 -49.91054688 189.6753125 -50.5546875 189.234375 C-59.82665452 182.11819264 -65.76873963 170.94197329 -67.66015625 159.53125 C-68.42855361 150.67622007 -68.22396617 141.75081691 -68.19140625 132.87109375 C-68.19410512 130.27283076 -68.19799082 127.67456876 -68.20300293 125.0763092 C-68.20887824 119.64899058 -68.20078639 114.22195896 -68.18164062 108.79467773 C-68.15986757 102.55116964 -68.16694053 96.30818413 -68.18894625 90.06468862 C-68.20939614 84.01673773 -68.20709166 77.96903915 -68.19541931 71.92105293 C-68.19276459 69.36596159 -68.19597723 66.81085675 -68.20533752 64.25578117 C-68.21557547 60.67659798 -68.19990009 57.09839771 -68.17773438 53.51928711 C-68.1858313 52.47946686 -68.19392822 51.43964661 -68.20227051 50.36831665 C-68.07055261 38.80048611 -64.19357935 28.98491524 -57.66015625 19.53125 C-57.2321875 18.90605469 -56.80421875 18.28085937 -56.36328125 17.63671875 C-42.29907948 -0.68810885 -20.85303366 -0.07646331 0 0 Z " fill="#043974" transform="translate(67.66015625,-0.53125)"/>
<path d="M0 0 C18.86098805 -0.52967366 35.50025521 5.38407878 49.6796875 17.8203125 C60.36577406 28.26234488 68.83297444 42.26892931 69.47265625 57.52734375 C69.48548557 59.36325305 69.47724286 61.19941602 69.44921875 63.03515625 C69.43906738 64.00114746 69.42891602 64.96713867 69.41845703 65.96240234 C69.02382206 84.13702516 61.83129184 98.66590868 48.8359375 111.34375 C32.78188301 125.18531295 14.3980603 129.2517402 -6.2734375 127.94921875 C-22.99539627 126.08431628 -38.42095977 117.1032813 -49.30078125 104.41015625 C-61.41145622 88.10043119 -64.96393147 70.61225176 -62.4921875 50.66015625 C-60.2568529 40.21933873 -54.43237879 28.85267571 -46.92578125 21.16015625 C-46.26578125 21.16015625 -45.60578125 21.16015625 -44.92578125 21.16015625 C-44.59578125 20.17015625 -44.26578125 19.18015625 -43.92578125 18.16015625 C-31.07096214 6.85130386 -17.00269717 0.93072174 0 0 Z " fill="#FAFBFC" transform="translate(96.92578125,35.83984375)"/>
<path d="M0 0 C-0.65781847 5.2676122 -2.66104392 6.97651441 -6.62841797 10.23779297 C-10.59044452 13.18178181 -14.75794563 15.65572054 -19.0625 18.0625 C-19.97990967 18.5790918 -20.89731934 19.09568359 -21.8425293 19.62792969 C-42.01528677 30.78710274 -42.01528677 30.78710274 -53 30 C-55 28 -55 28 -56 26 C-58.2491908 27.82703227 -58.2491908 27.82703227 -58.25 30.5 C-58.2491908 33.17296773 -58.2491908 33.17296773 -56 35 C-49.52125233 37.06547231 -43.2656279 37.41190936 -36.5 37.625 C-34.98019531 37.68300781 -34.98019531 37.68300781 -33.4296875 37.7421875 C-30.95329716 37.83563619 -28.47689849 37.92139873 -26 38 C-26 38.66 -26 39.32 -26 40 C-29.45816686 40.08847317 -32.91603579 40.14087725 -36.375 40.1875 C-37.82326172 40.22520508 -37.82326172 40.22520508 -39.30078125 40.26367188 C-45.77096908 40.32880799 -52.1206189 39.95216155 -58 37 C-59.90453861 34.85466072 -60.88343985 33.47919174 -61.5625 30.6875 C-59.96375913 23.0490714 -52.01579191 18.4113626 -45.890625 14.40625 C-11.18150972 -7.45433981 -11.18150972 -7.45433981 0 0 Z " fill="#1E5189" transform="translate(138,73)"/>
<path d="M0 0 C-0.48405436 4.31180732 -1.62004866 6.0589554 -4.9375 8.8125 C-5.64777344 9.41707031 -6.35804688 10.02164063 -7.08984375 10.64453125 C-9 12 -9 12 -11 12 C-11.495 10.02 -11.495 10.02 -12 8 C-10.68 8 -9.36 8 -8 8 C-8 7.34 -8 6.68 -8 6 C-16.52916856 7.21564879 -24.03673344 10.22167776 -31.9375 13.5625 C-34.342216 14.56435892 -36.74715322 15.56568709 -39.15234375 16.56640625 C-40.20413818 17.00927979 -41.25593262 17.45215332 -42.33959961 17.90844727 C-44.20053827 18.67198372 -46.09173573 19.36391191 -48 20 C-48.33 19.01 -48.66 18.02 -49 17 C-38.79373752 8.84023745 -12.71847423 -8.47898282 0 0 Z " fill="#335C8A" transform="translate(138,73)"/>
<path d="M0 0 C0.66 0.66 1.32 1.32 2 2 C1.81138302 6.80973302 -0.93119564 10.1586911 -3.625 13.9375 C-7.90444783 20.11994941 -11.40214933 26.38529522 -14.625 33.171875 C-16 36 -16 36 -18 39 C-18.60691054 26.10652267 -18.74912288 15.03991638 -10.375 4.375 C-6.92146356 0.92146356 -4.88300248 -0.50082077 0 0 Z " fill="#265489" transform="translate(85,76)"/>
<path d="M0 0 C0.639375 0.20625 1.27875 0.4125 1.9375 0.625 C2.9275 0.295 3.9175 -0.035 4.9375 -0.375 C5.4909764 1.70053648 5.9375 3.46865964 5.9375 5.625 C8.79927057 7.05588528 10.87125773 6.22491697 13.9375 5.625 C14.2675 4.305 14.5975 2.985 14.9375 1.625 C15.2675 2.285 15.5975 2.945 15.9375 3.625 C17.5875 3.625 19.2375 3.625 20.9375 3.625 C15.14472949 8.41950181 6.85930709 11.82278442 -0.6875 12.1875 C-4.0625 11.625 -4.0625 11.625 -6.0625 9.625 C-6.3925 8.965 -6.7225 8.305 -7.0625 7.625 C-9.3116908 9.45203227 -9.3116908 9.45203227 -9.3125 12.125 C-9.3116908 14.79796773 -9.3116908 14.79796773 -7.0625 16.625 C-0.58375233 18.69047231 5.6718721 19.03690936 12.4375 19.25 C13.95730469 19.30800781 13.95730469 19.30800781 15.5078125 19.3671875 C17.98420284 19.46063619 20.46060151 19.54639873 22.9375 19.625 C22.9375 20.285 22.9375 20.945 22.9375 21.625 C19.47933314 21.71347317 16.02146421 21.76587725 12.5625 21.8125 C11.59699219 21.83763672 10.63148437 21.86277344 9.63671875 21.88867188 C3.16653092 21.95380799 -3.1831189 21.57716155 -9.0625 18.625 C-10.96703861 16.47966072 -11.94593985 15.10419174 -12.625 12.3125 C-11.57258316 7.28428619 -7.57271223 4.04637621 -3.9375 0.625 C-2.0625 -0.375 -2.0625 -0.375 0 0 Z " fill="#1E5188" transform="translate(89.0625,91.375)"/>
<path d="M0 0 C0.495 1.98 0.495 1.98 1 4 C0.34 4 -0.32 4 -1 4 C-1 5.98 -1 7.96 -1 10 C-3.475 9.01 -3.475 9.01 -6 8 C-6 8.66 -6 9.32 -6 10 C-7.32 10 -8.64 10 -10 10 C-10.33 10.99 -10.66 11.98 -11 13 C-16.51889132 16.05300371 -21.76259194 16.63604661 -28 17 C-28 17.66 -28 18.32 -28 19 C-31.3 19 -34.6 19 -38 19 C-38 18.34 -38 17.68 -38 17 C-38.92941406 17.0721875 -39.85882813 17.144375 -40.81640625 17.21875 C-42.05261719 17.3115625 -43.28882813 17.404375 -44.5625 17.5 C-46.38974609 17.63921875 -46.38974609 17.63921875 -48.25390625 17.78125 C-55.7969457 18.22171946 -55.7969457 18.22171946 -59 18 C-59.66 17.01 -60.32 16.02 -61 15 C-57.63713115 13.87904372 -55.370935 14.30821234 -51.9140625 14.73046875 C-33.7175498 16.41352421 -16.80162623 12.94814499 -2.02734375 1.74609375 C-1.02380859 0.88177734 -1.02380859 0.88177734 0 0 Z " fill="#284D5B" transform="translate(143,148)"/>
<path d="M0 0 C1.62532383 1.62532383 1.5 3.48622975 1.5 5.6796875 C0.36489018 10.94730652 -3.11672862 15.52063196 -6 20 C-9.16115776 18.63016497 -9.9927092 18.0109362 -12 15 C-12.76579737 8.32662295 -12.76579737 8.32662295 -10.94921875 5.1796875 C-7.46448241 0.92399179 -5.40092946 -0.27697074 0 0 Z " fill="#DCE7EF" transform="translate(130,95)"/>
<path d="M0 0 C1.65 0 3.3 0 5 0 C5.33 0.99 5.66 1.98 6 3 C5.49210937 3.37511719 4.98421875 3.75023437 4.4609375 4.13671875 C3.01974934 5.20816388 1.58386192 6.28676276 0.15234375 7.37109375 C-1.57513525 8.67845989 -3.31661887 9.96731182 -5.0625 11.25 C-11.44562497 16.65913315 -15.53726734 24.52049746 -19 32 C-19.99 32 -20.98 32 -22 32 C-21.45055242 28.08518596 -20.36212038 25.77070839 -18 22.625 C-15.19116323 18.613336 -14.20698226 15.86408307 -14 11 C-13.4225 10.938125 -12.845 10.87625 -12.25 10.8125 C-9.74719306 10.13010122 -9.74719306 10.13010122 -8 7.5 C-5.79037908 4.73797384 -5.22060114 4.7514736 -2 4 C-0.71563266 2.0162233 -0.71563266 2.0162233 0 0 Z " fill="#133B58" transform="translate(58,44)"/>
<path d="M0 0 C0.99 0 1.98 0 3 0 C6 4.22222222 6 4.22222222 6 7 C6.66 7 7.32 7 8 7 C9.68762851 8.6454378 11.3540349 10.31288577 13 12 C13.66 12.33 14.32 12.66 15 13 C16.24935448 15.91099593 17.08035712 18.97058815 18 22 C18.391875 23.19625 18.78375 24.3925 19.1875 25.625 C20.04785946 29.19880082 20.149475 32.3378626 20 36 C18.515 35.505 18.515 35.505 17 35 C16.0078125 32.62890625 16.0078125 32.62890625 15.125 29.5625 C12.1108974 19.98762521 8.17168415 12.72635716 1.57421875 5.12890625 C0 3 0 3 0 0 Z " fill="#2A4E61" transform="translate(148,53)"/>
<path d="M0 0 C0.99 0.33 1.98 0.66 3 1 C2.79503906 1.69222656 2.59007812 2.38445312 2.37890625 3.09765625 C0.0759135 11.46115623 -0.65807068 19.36923242 -1 28 C-1.99 27.67 -2.98 27.34 -4 27 C-4 26.01 -4 25.02 -4 24 C-3.34 24 -2.68 24 -2 24 C-2 23.34 -2 22.68 -2 22 C-3.32 22.33 -4.64 22.66 -6 23 C-6.99 20.03 -7.98 17.06 -9 14 C-8.34 14 -7.68 14 -7 14 C-6.67 13.01 -6.34 12.02 -6 11 C-5.360625 10.608125 -4.72125 10.21625 -4.0625 9.8125 C-0.90539561 7.03807493 -0.80066039 4.07002363 0 0 Z " fill="#144069" transform="translate(35,77)"/>
<path d="M0 0 C0.33 1.32 0.66 2.64 1 4 C0.34 4 -0.32 4 -1 4 C-0.34 6.64 0.32 9.28 1 12 C-0.98 12.99 -0.98 12.99 -3 14 C-3 14.66 -3 15.32 -3 16 C-4.65 16 -6.3 16 -8 16 C-8 15.34 -8 14.68 -8 14 C-8.99 13.67 -9.98 13.34 -11 13 C-10.67 12.01 -10.34 11.02 -10 10 C-9.34 9.67 -8.68 9.34 -8 9 C-8.99 9 -9.98 9 -11 9 C-11 8.34 -11 7.68 -11 7 C-11.99 6.67 -12.98 6.34 -14 6 C-12.8125 4.4375 -12.8125 4.4375 -11 3 C-8.4375 3.3125 -8.4375 3.3125 -6 4 C-5.34 4 -4.68 4 -4 4 C-4 4.66 -4 5.32 -4 6 C-4.66 6 -5.32 6 -6 6 C-6 6.66 -6 7.32 -6 8 C-4.68 8 -3.36 8 -2 8 C-2.04125 7.05125 -2.0825 6.1025 -2.125 5.125 C-2 2 -2 2 0 0 Z " fill="#0D437D" transform="translate(24,156)"/>
<path d="M0 0 C1.32 0 2.64 0 4 0 C4.625 1.8125 4.625 1.8125 5 4 C4.01 5.485 4.01 5.485 3 7 C3.99 7.33 4.98 7.66 6 8 C4.68 8.33 3.36 8.66 2 9 C2 10.98 2 12.96 2 15 C1.01 13.68 0.02 12.36 -1 11 C-2.65 11.66 -4.3 12.32 -6 13 C-5.67 12.01 -5.34 11.02 -5 10 C-6.32 9.34 -7.64 8.68 -9 8 C-8.67 6.68 -8.34 5.36 -8 4 C-5.36 3.34 -2.72 2.68 0 2 C0 1.34 0 0.68 0 0 Z " fill="#0F437B" transform="translate(101,165)"/>
<path d="M0 0 C0.66 0.66 1.32 1.32 2 2 C1.625 4.125 1.625 4.125 1 6 C0.67 5.34 0.34 4.68 0 4 C-2.2491908 5.82703227 -2.2491908 5.82703227 -2.25 8.5 C-2.2491908 11.17296773 -2.2491908 11.17296773 0 13 C6.47874767 15.06547231 12.7343721 15.41190936 19.5 15.625 C21.01980469 15.68300781 21.01980469 15.68300781 22.5703125 15.7421875 C25.04670284 15.83563619 27.52310151 15.92139873 30 16 C30 16.66 30 17.32 30 18 C26.54183314 18.08847317 23.08396421 18.14087725 19.625 18.1875 C18.65949219 18.21263672 17.69398437 18.23777344 16.69921875 18.26367188 C10.22903092 18.32880799 3.8793811 17.95216155 -2 15 C-3.95006247 12.81264996 -4.89470627 11.50014523 -5.5 8.625 C-4.75862839 4.73279905 -2.68029094 2.88131276 0 0 Z " fill="#617892" transform="translate(82,95)"/>
<path d="M0 0 C2.64 0 5.28 0 8 0 C8 0.33 8 0.66 8 1 C6.35 1 4.7 1 3 1 C3 1.66 3 2.32 3 3 C3.66 3 4.32 3 5 3 C5 4.65 5 6.3 5 8 C3.68 8.33 2.36 8.66 1 9 C1 11.64 1 14.28 1 17 C-1.475 16.01 -1.475 16.01 -4 15 C-4 13.68 -4 12.36 -4 11 C-4.66 10.67 -5.32 10.34 -6 10 C-5.67 8.02 -5.34 6.04 -5 4 C-3 4 -1 4 1 4 C0.67 2.68 0.34 1.36 0 0 Z " fill="#0A3E78" transform="translate(16,90)"/>
<path d="M0 0 C-3.35483326 2.81117287 -6.83677925 4.3210668 -10.8828125 5.953125 C-11.53829071 6.21760437 -12.19376892 6.48208374 -12.86911011 6.75457764 C-14.2479543 7.30880987 -15.62803902 7.85996471 -17.00927734 8.40820312 C-19.12891237 9.25155664 -21.24222566 10.10952468 -23.35546875 10.96875 C-24.69756043 11.50609893 -26.03999684 12.04258784 -27.3828125 12.578125 C-28.60371582 13.06700195 -29.82461914 13.55587891 -31.08251953 14.05957031 C-34 15 -34 15 -36 14 C-29.29056515 9.74681298 -22.49763955 6.14900337 -15.1875 3.0625 C-14.48310791 2.75626709 -13.77871582 2.45003418 -13.05297852 2.13452148 C-8.47689549 0.25913064 -4.94157376 -0.3165191 0 0 Z " fill="#DEEEF7" transform="translate(129,76)"/>
<path d="M0 0 C1.67016516 0.99414593 3.33720673 1.9935725 5 3 C5.99 3.33 6.98 3.66 8 4 C8 4.99 8 5.98 8 7 C9.32 7 10.64 7 12 7 C12 8.32 12 9.64 12 11 C12.99 11.33 13.98 11.66 15 12 C14.01 12.66 13.02 13.32 12 14 C11.31035156 13.46890625 10.62070313 12.9378125 9.91015625 12.390625 C4.17674864 8.08073835 -1.27271606 4.5248078 -8 2 C-8 1.01 -8 0.02 -8 -1 C-4.28871422 -2.23709526 -3.45266987 -1.64412851 0 0 Z " fill="#345665" transform="translate(132,39)"/>
<path d="M0 0 C4.13532835 1.49556537 5.29859068 3.82789174 7.3125 7.625 C11.06621794 14.34940225 15.56278864 19.61192007 21 25 C17 25 17 25 14.375 22.75 C12.42334119 20.49018453 11.1132554 18.73253598 10 16 C9.34 16 8.68 16 8 16 C8 15.34 8 14.68 8 14 C7.071875 13.566875 7.071875 13.566875 6.125 13.125 C4 12 4 12 2 10 C1.34 10 0.68 10 0 10 C0 9.34 0 8.68 0 8 C0.99 8 1.98 8 3 8 C2.505 7.05125 2.01 6.1025 1.5 5.125 C0 2 0 2 0 0 Z " fill="#44636F" transform="translate(36,124)"/>
<path d="M0 0 C0.99 0 1.98 0 3 0 C3 1.32 3 2.64 3 4 C2.34 4 1.68 4 1 4 C1 4.66 1 5.32 1 6 C0.34 6 -0.32 6 -1 6 C-2.02977875 10.76272672 -2.39511469 13.65885463 0 18 C-0.66 18.33 -1.32 18.66 -2 19 C-2.99 18.34 -3.98 17.68 -5 17 C-5 16.34 -5 15.68 -5 15 C-8.54518884 16.39759905 -8.54518884 16.39759905 -12 18 C-11.42906273 14.18510094 -9.73941063 12.32534786 -7.125 9.5625 C-4.86589033 7.16584307 -3.05179647 5.09186787 -1.4296875 2.21484375 C-0.95789063 1.48394531 -0.48609375 0.75304687 0 0 Z " fill="#0B395F" transform="translate(157,132)"/>
<path d="M0 0 C1 1 1 1 1.1875 4.4375 C1 8 1 8 -1 10 C-0.67 7.36 -0.34 4.72 0 2 C-3.18462224 2.94677958 -4.73697662 3.66441845 -6.8125 6.3125 C-8.08969508 9.20299412 -8.41019728 10.88250068 -8 14 C-7.01 15.485 -7.01 15.485 -6 17 C-7.32 17.33 -8.64 17.66 -10 18 C-12.45917586 14.3112362 -12.81591937 11.2815571 -12 7 C-8.99802799 1.79955778 -5.95814231 -0.30554576 0 0 Z " fill="#2A5483" transform="translate(130,95)"/>
<path d="M0 0 C0.66 0.33 1.32 0.66 2 1 C2 9.66666667 2 18.33333333 2 27 C0.35 26.67 -1.3 26.34 -3 26 C-2.76796875 24.54013672 -2.76796875 24.54013672 -2.53125 23.05078125 C-1.81061025 18.01264669 -1.62639463 12.95647867 -1.39453125 7.87695312 C-1.10379464 2.20758929 -1.10379464 2.20758929 0 0 Z " fill="#305364" transform="translate(167,91)"/>
<path d="M0 0 C3.79160297 -0.05786668 7.58309311 -0.09355054 11.375 -0.125 C12.45523438 -0.14175781 13.53546875 -0.15851562 14.6484375 -0.17578125 C15.6796875 -0.18222656 16.7109375 -0.18867187 17.7734375 -0.1953125 C19.20308838 -0.21102295 19.20308838 -0.21102295 20.66162109 -0.22705078 C23 0 23 0 25 2 C23.78441406 1.98839844 22.56882812 1.97679687 21.31640625 1.96484375 C19.73177236 1.95546722 18.14713682 1.94636687 16.5625 1.9375 C15.76005859 1.92912109 14.95761719 1.92074219 14.13085938 1.91210938 C12.08704779 1.9034857 10.04316098 1.9477185 8 2 C7.67 2.33 7.34 2.66 7 3 C8.32 3.33 9.64 3.66 11 4 C8.73161744 4.38955051 6.46015313 4.76119129 4.1875 5.125 C2.92292969 5.33382812 1.65835938 5.54265625 0.35546875 5.7578125 C-3 6 -3 6 -6 4 C-4.35 3.67 -2.7 3.34 -1 3 C-0.67 2.01 -0.34 1.02 0 0 Z " fill="#40697B" transform="translate(83,33)"/>
<path d="M0 0 C2.64 0 5.28 0 8 0 C8.33 1.65 8.66 3.3 9 5 C7.68 5.33 6.36 5.66 5 6 C5.309375 7.175625 5.309375 7.175625 5.625 8.375 C5.74875 9.24125 5.8725 10.1075 6 11 C5.34 11.66 4.68 12.32 4 13 C3.01 12.67 2.02 12.34 1 12 C1 9.69 1 7.38 1 5 C0.34 4.67 -0.32 4.34 -1 4 C-0.67 2.68 -0.34 1.36 0 0 Z " fill="#083C77" transform="translate(107,8)"/>
<path d="M0 0 C0.33 0.66 0.66 1.32 1 2 C0.67 2.66 0.34 3.32 0 4 C1.32 4.66 2.64 5.32 4 6 C3.54109375 6.38671875 3.0821875 6.7734375 2.609375 7.171875 C-0.13308934 9.4995128 -2.80090627 11.79552536 -5.3125 14.375 C-7 16 -7 16 -9 16 C-7.51637716 9.73581469 -3.75837844 5.08486495 0 0 Z " fill="#EBF5FA" transform="translate(83,86)"/>
<path d="M0 0 C0.33 0.66 0.66 1.32 1 2 C1.66 2.33 2.32 2.66 3 3 C1.87980469 3.54269531 0.75960937 4.08539063 -0.39453125 4.64453125 C-1.86734492 5.36686662 -3.33999254 6.08954062 -4.8125 6.8125 C-5.55048828 7.16892578 -6.28847656 7.52535156 -7.04882812 7.89257812 C-7.76103516 8.24384766 -8.47324219 8.59511719 -9.20703125 8.95703125 C-9.8616333 9.27647705 -10.51623535 9.59592285 -11.19067383 9.92504883 C-13.11617064 11.06901894 -14.48835511 12.35744135 -16 14 C-16.66 13.01 -17.32 12.02 -18 11 C-12.19623036 6.76610248 -6.52522047 3.0209354 0 0 Z " fill="#385F8B" transform="translate(107,79)"/>
<path d="M0 0 C0.66 0 1.32 0 2 0 C1.37346195 3.37719288 0.09538824 5.58116593 -1.875 8.375 C-4.24822029 11.82643816 -6.24661359 15.20099611 -8 19 C-8.99 19 -9.98 19 -11 19 C-10.42657506 14.7032405 -8.89841036 11.81520279 -6.5625 8.1875 C-5.94503906 7.21167969 -5.32757813 6.23585938 -4.69140625 5.23046875 C-4.13324219 4.49441406 -3.57507812 3.75835937 -3 3 C-2.34 3 -1.68 3 -1 3 C-0.67 2.01 -0.34 1.02 0 0 Z " fill="#43616C" transform="translate(47,57)"/>
<path d="M0 0 C4.55315948 0.61811534 8.28459767 2.46765893 12.3125 4.5625 C13.28026367 5.0565332 13.28026367 5.0565332 14.26757812 5.56054688 C15.84785228 6.36824255 17.42432105 7.18337613 19 8 C19 8.99 19 9.98 19 11 C16.36 10.67 13.72 10.34 11 10 C11 9.34 11 8.68 11 8 C10.4225 7.71125 9.845 7.4225 9.25 7.125 C7.16666667 6.08333333 5.08333333 5.04166667 3 4 C3 3.34 3 2.68 3 2 C2.01 1.67 1.02 1.34 0 1 C0 0.67 0 0.34 0 0 Z " fill="#375B64" transform="translate(57,151)"/>
<path d="M0 0 C2.1640625 0.2421875 2.1640625 0.2421875 4.625 0.875 C5.44226563 1.07867187 6.25953125 1.28234375 7.1015625 1.4921875 C8.04128906 1.74355469 8.04128906 1.74355469 9 2 C9 3.66666667 9 5.33333333 9 7 C4.545 7.495 4.545 7.495 0 8 C-0.33 7.34 -0.66 6.68 -1 6 C-0.67 5.34 -0.34 4.68 0 4 C-0.66 4 -1.32 4 -2 4 C-2 2 -2 2 0 0 Z " fill="#174267" transform="translate(75,160)"/>
<path d="M0 0 C1.98 0 3.96 0 6 0 C6 3.3 6 6.6 6 10 C4.02 10 2.04 10 0 10 C0 6.7 0 3.4 0 0 Z " fill="#456993" transform="translate(62,119)"/>
<path d="M0 0 C1.65 0 3.3 0 5 0 C5.33 3.3 5.66 6.6 6 10 C4.02 10 2.04 10 0 10 C0 6.7 0 3.4 0 0 Z " fill="#52759A" transform="translate(74,119)"/>
<path d="M0 0 C0.99 0.33 1.98 0.66 3 1 C2.67 2.32 2.34 3.64 2 5 C1.34 5 0.68 5 0 5 C-0.226875 5.804375 -0.45375 6.60875 -0.6875 7.4375 C-1.3371875 8.7059375 -1.3371875 8.7059375 -2 10 C-4.625 10.8125 -4.625 10.8125 -7 11 C-7.66 9.35 -8.32 7.7 -9 6 C-8.360625 5.731875 -7.72125 5.46375 -7.0625 5.1875 C-4.66868314 4.11332248 -4.66868314 4.11332248 -4 1 C-3.01 1.33 -2.02 1.66 -1 2 C-0.67 1.34 -0.34 0.68 0 0 Z " fill="#164F87" transform="translate(79,84)"/>
<path d="M0 0 C0 0.33 0 0.66 0 1 C-6.75 2.125 -6.75 2.125 -9 1 C-10.81171098 0.84693099 -12.6283794 0.75053339 -14.4453125 0.68359375 C-15.52167969 0.64169922 -16.59804687 0.59980469 -17.70703125 0.55664062 C-19.39892578 0.49766602 -19.39892578 0.49766602 -21.125 0.4375 C-22.26066406 0.39431641 -23.39632812 0.35113281 -24.56640625 0.30664062 C-27.37747768 0.2003396 -30.18863945 0.09830595 -33 0 C-33 -0.33 -33 -0.66 -33 -1 C-21.76144167 -2.52387232 -11.0957924 -2.49043837 0 0 Z " fill="#BFC6CA" transform="translate(118,38)"/>
<path d="M0 0 C2 0 4 0 6 0 C6 3.3 6 6.6 6 10 C4 10 2 10 0 10 C0 6.7 0 3.4 0 0 Z " fill="#416388" transform="translate(109,119)"/>
<path d="M0 0 C1.32 0 2.64 0 4 0 C5.1577506 3.47325181 5.06866652 6.36067448 5 10 C3 10 1 10 -1 10 C-0.67 6.7 -0.34 3.4 0 0 Z " fill="#476992" transform="translate(98,119)"/>
<path d="M0 0 C2.31 0 4.62 0 7 0 C7.33 1.65 7.66 3.3 8 5 C6.68 5.99 5.36 6.98 4 8 C4 7.34 4 6.68 4 6 C3.01 6 2.02 6 1 6 C1 5.01 1 4.02 1 3 C0.34 3 -0.32 3 -1 3 C-0.67 2.01 -0.34 1.02 0 0 Z " fill="#214F80" transform="translate(130,72)"/>
<path d="M0 0 C1.32 0 2.64 0 4 0 C4.125 5.75 4.125 5.75 3 8 C3.66 8.33 4.32 8.66 5 9 C4.67 9.66 4.34 10.32 4 11 C3.34 11 2.68 11 2 11 C1.34 10.01 0.68 9.02 0 8 C-1.32 8 -2.64 8 -4 8 C-4 7.34 -4 6.68 -4 6 C-2.68 6 -1.36 6 0 6 C-0.33 5.01 -0.66 4.02 -1 3 C-0.67 2.01 -0.34 1.02 0 0 Z " fill="#083B7B" transform="translate(22,101)"/>
<path d="M0 0 C2.475 0.495 2.475 0.495 5 1 C5 3.97 5 6.94 5 10 C3.35 9.67 1.7 9.34 0 9 C0 6.03 0 3.06 0 0 Z " fill="#335881" transform="translate(86,119)"/>
<path d="M0 0 C0.66 0.33 1.32 0.66 2 1 C2 6 2 11 2 16 C1.01 16 0.02 16 -1 16 C-1.02692484 13.70839681 -1.04636124 11.41670454 -1.0625 9.125 C-1.07410156 7.84882812 -1.08570313 6.57265625 -1.09765625 5.2578125 C-1 2 -1 2 0 0 Z " fill="#567382" transform="translate(167,91)"/>
<path d="M0 0 C1 1 1 1 1.1875 4.4375 C1 8 1 8 -1 10 C-0.67 7.36 -0.34 4.72 0 2 C-3.37503669 3.1858237 -5.64722731 4.27573689 -8 7 C-8.99 6.34 -9.98 5.68 -11 5 C-4.74969843 -0.81423402 -4.74969843 -0.81423402 0 0 Z " fill="#4E6884" transform="translate(130,95)"/>
<path d="M0 0 C2.64 0 5.28 0 8 0 C8 0.33 8 0.66 8 1 C6.35 1 4.7 1 3 1 C3 1.66 3 2.32 3 3 C3.66 3 4.32 3 5 3 C5 4.65 5 6.3 5 8 C3.35 8 1.7 8 0 8 C-0.33 6.68 -0.66 5.36 -1 4 C-0.34 4 0.32 4 1 4 C0.67 2.68 0.34 1.36 0 0 Z " fill="#0E437C" transform="translate(16,90)"/>
<path d="M0 0 C0.66 0 1.32 0 2 0 C5 4.38461538 5 4.38461538 5 7 C3.68 6.67 2.36 6.34 1 6 C1 8.97 1 11.94 1 15 C0.67 14.34 0.34 13.68 0 13 C-0.66 12.67 -1.32 12.34 -2 12 C-1.34 12 -0.68 12 0 12 C-0.66 11.01 -1.32 10.02 -2 9 C-1.33333333 7 -0.66666667 5 0 3 C-0.66 2.67 -1.32 2.34 -2 2 C-1.34 2 -0.68 2 0 2 C0 1.34 0 0.68 0 0 Z " fill="#0C385C" transform="translate(169,92)"/>
<path d="M0 0 C5.23147649 -0.6036319 8.49288048 0.36168614 13 3 C9.46145836 5.27477677 7.29052627 4.99082706 3.25 4.125 C2.26515625 3.92132813 1.2803125 3.71765625 0.265625 3.5078125 C-0.85585937 3.25644531 -0.85585937 3.25644531 -2 3 C-1.34 2.01 -0.68 1.02 0 0 Z " fill="#47656D" transform="translate(109,34)"/>
<path d="M0 0 C2.40928735 0.96371494 3.76007009 1.65210163 5.25 3.8125 C6.11949139 6.34851656 6.13675911 8.33319731 6 11 C6 11.99 6 12.98 6 14 C5.38125 13.34 4.7625 12.68 4.125 12 C2.24362573 9.7715451 2.24362573 9.7715451 0 10 C0 9.34 0 8.68 0 8 C0.99 8 1.98 8 3 8 C2.505 7.05125 2.01 6.1025 1.5 5.125 C0 2 0 2 0 0 Z " fill="#2F5669" transform="translate(36,124)"/>
<path d="M0 0 C0.99 0 1.98 0 3 0 C3 1.32 3 2.64 3 4 C2.34 4 1.68 4 1 4 C1 4.66 1 5.32 1 6 C0.34 6 -0.32 6 -1 6 C-1 6.66 -1 7.32 -1 8 C-1.66 8 -2.32 8 -3 8 C-3.33 8.99 -3.66 9.98 -4 11 C-4.66 10.01 -5.32 9.02 -6 8 C-5.07456291 6.65826597 -4.13422595 5.32679841 -3.1875 4 C-2.66542969 3.2575 -2.14335937 2.515 -1.60546875 1.75 C-0.81076172 0.88375 -0.81076172 0.88375 0 0 Z " fill="#325560" transform="translate(157,132)"/>
<path d="M0 0 C0.99 0 1.98 0 3 0 C2.125 5.75 2.125 5.75 1 8 C-0.65 7.67 -2.3 7.34 -4 7 C-2.79618552 4.50638429 -1.54571278 2.31856917 0 0 Z " fill="#0D447E" transform="translate(197,63)"/>
<path d="M0 0 C2.25 0.4375 2.25 0.4375 4.25 2.4375 C4.25 3.7575 4.25 5.0775 4.25 6.4375 C3.59 6.4375 2.93 6.4375 2.25 6.4375 C2.25 5.1175 2.25 3.7975 2.25 2.4375 C-0.22266765 2.78194881 -0.22266765 2.78194881 -2.75 3.4375 C-3.08 4.0975 -3.41 4.7575 -3.75 5.4375 C-4.41 5.4375 -5.07 5.4375 -5.75 5.4375 C-6.08 6.0975 -6.41 6.7575 -6.75 7.4375 C-7.41 6.7775 -8.07 6.1175 -8.75 5.4375 C-3.50394106 0.55744517 -3.50394106 0.55744517 0 0 Z " fill="#3D6189" transform="translate(82.75,75.5625)"/>
<path d="M0 0 C-1.65 0.33 -3.3 0.66 -5 1 C-5 1.66 -5 2.32 -5 3 C-7.64 3.33 -10.28 3.66 -13 4 C-13 3.01 -13 2.02 -13 1 C-11.59054634 0.43983252 -10.1719969 -0.09748502 -8.75 -0.625 C-7.96109375 -0.92664063 -7.1721875 -1.22828125 -6.359375 -1.5390625 C-3.50082285 -2.09752136 -2.41040161 -1.53690745 0 0 Z " fill="#45626C" transform="translate(128,161)"/>
<path d="M0 0 C0.33 0.66 0.66 1.32 1 2 C2.65 2 4.3 2 6 2 C2.63263969 4.82858266 -0.87451958 6.4998253 -5 8 C-5.99 7.67 -6.98 7.34 -8 7 C-7.34 7 -6.68 7 -6 7 C-6 6.34 -6 5.68 -6 5 C-4.35 4.67 -2.7 4.34 -1 4 C-0.67 2.68 -0.34 1.36 0 0 Z " fill="#2B5686" transform="translate(104,93)"/>
<path d="M0 0 C0.33 0.99 0.66 1.98 1 3 C-0.52994792 4.23697917 -2.05989583 5.47395833 -3.58984375 6.7109375 C-5.13266437 7.9666391 -5.13266437 7.9666391 -6 10 C-6.66 10 -7.32 10 -8 10 C-8 10.66 -8 11.32 -8 12 C-8.66 12 -9.32 12 -10 12 C-8.79618552 9.50638429 -7.54571278 7.31856917 -6 5 C-5.34 5 -4.68 5 -4 5 C-3.67 4.01 -3.34 3.02 -3 2 C-2.01 1.34 -1.02 0.68 0 0 Z " fill="#D2DBE6" transform="translate(56,52)"/>
<path d="M0 0 C-0.21484375 1.890625 -0.21484375 1.890625 -1 4 C-3.06640625 5.046875 -3.06640625 5.046875 -5.5625 5.75 C-6.80193359 6.11351562 -6.80193359 6.11351562 -8.06640625 6.484375 C-9.02353516 6.73960937 -9.02353516 6.73960937 -10 7 C-10 6.34 -10 5.68 -10 5 C-9.01 4.34 -8.02 3.68 -7 3 C-6.525625 2.46375 -6.05125 1.9275 -5.5625 1.375 C-4 0 -4 0 0 0 Z " fill="#244B5C" transform="translate(133,157)"/>
<path d="M0 0 C0.99 0.33 1.98 0.66 3 1 C2.01 4.96 1.02 8.92 0 13 C-0.99 13 -1.98 13 -3 13 C-2.45144652 8.428721 -1.58255197 4.32564205 0 0 Z " fill="#44666A" transform="translate(35,77)"/>
<path d="M0 0 C1.65 0 3.3 0 5 0 C5.33 0.99 5.66 1.98 6 3 C3.69 4.32 1.38 5.64 -1 7 C-2 4 -2 4 -1.0625 1.8125 C-0.5365625 0.9153125 -0.5365625 0.9153125 0 0 Z " fill="#375B6E" transform="translate(58,44)"/>
<path d="M0 0 C0.99 0 1.98 0 3 0 C6 4.22222222 6 4.22222222 6 7 C6.66 7 7.32 7 8 7 C8.33 7.99 8.66 8.98 9 10 C5.54537888 9.74410214 4.72618453 8.71373837 2.25 6.125 C0 3 0 3 0 0 Z " fill="#446469" transform="translate(148,53)"/>
<path d="M0 0 C-1.98 0.33 -3.96 0.66 -6 1 C-6 1.66 -6 2.32 -6 3 C-9.4019487 5.09350689 -12.05272412 5.17942163 -16 5 C-14.54987453 2.09974906 -12.68687091 1.91293145 -9.6875 0.8125 C-8.72199219 0.44769531 -7.75648437 0.08289062 -6.76171875 -0.29296875 C-3.9652203 -1.008904 -2.66140462 -0.99249531 0 0 Z " fill="#BAC8D0" transform="translate(85,39)"/>
<path d="M0 0 C1.953125 0.7109375 1.953125 0.7109375 4 2 C4.609375 4.1640625 4.609375 4.1640625 4.75 6.625 C4.80671875 7.44226563 4.8634375 8.25953125 4.921875 9.1015625 C4.94765625 9.72804688 4.9734375 10.35453125 5 11 C4.34 11 3.68 11 3 11 C0 4.5 0 4.5 0 0 Z " fill="#114580" transform="translate(24,92)"/>
<path d="M0 0 C2 1 2 1 3 3 C0.87875034 3.86343824 -1.24713072 4.71550648 -3.375 5.5625 C-5.15003906 6.27599609 -5.15003906 6.27599609 -6.9609375 7.00390625 C-10 8 -10 8 -12 7 C-10.04754815 5.80285445 -8.08785003 4.61751926 -6.125 3.4375 C-5.03445312 2.77621094 -3.94390625 2.11492187 -2.8203125 1.43359375 C-1.88960937 0.96050781 -0.95890625 0.48742187 0 0 Z " fill="#C5DEF2" transform="translate(105,83)"/>
<path d="M0 0 C0.99 0.66 1.98 1.32 3 2 C2.67 3.65 2.34 5.3 2 7 C0.02 7 -1.96 7 -4 7 C-3.67 6.34 -3.34 5.68 -3 5 C-0.9375 4.375 -0.9375 4.375 1 4 C-0.32 4 -1.64 4 -3 4 C-3 3.01 -3 2.02 -3 1 C-2.01 0.67 -1.02 0.34 0 0 Z " fill="#0B407B" transform="translate(53,33)"/>
<path d="M0 0 C0.99 0.33 1.98 0.66 3 1 C2.67 1.66 2.34 2.32 2 3 C2.66 3.33 3.32 3.66 4 4 C4 4.66 4 5.32 4 6 C6.475 6.99 6.475 6.99 9 8 C7 9 7 9 3 9 C3 8.01 3 7.02 3 6 C2.01 6 1.02 6 0 6 C0 4.02 0 2.04 0 0 Z " fill="#123D5A" transform="translate(56,149)"/>
<path d="M0 0 C0.33 0.66 0.66 1.32 1 2 C0.00390625 4.3828125 0.00390625 4.3828125 -1.4375 7.125 C-1.91058594 8.03507812 -2.38367188 8.94515625 -2.87109375 9.8828125 C-3.24363281 10.58148438 -3.61617187 11.28015625 -4 12 C-5.11889609 8.59825551 -4.9845447 7.95657797 -3.6875 4.3125 C-2 1 -2 1 0 0 Z " fill="#47666B" transform="translate(165,119)"/>
<path d="M0 0 C0.33 0.66 0.66 1.32 1 2 C0.22914062 2.20496094 -0.54171875 2.40992187 -1.3359375 2.62109375 C-2.33882812 2.89050781 -3.34171875 3.15992187 -4.375 3.4375 C-5.37273437 3.70433594 -6.37046875 3.97117187 -7.3984375 4.24609375 C-9.95417701 4.90184356 -9.95417701 4.90184356 -12 6 C-12 5.01 -12 4.02 -12 3 C-10.3789897 2.30314502 -8.75303934 1.61777139 -7.125 0.9375 C-6.22007813 0.55464844 -5.31515625 0.17179687 -4.3828125 -0.22265625 C-2 -1 -2 -1 0 0 Z " fill="#2B578B" transform="translate(107,87)"/>
<path d="M0 0 C0.91007812 0.10183594 1.82015625 0.20367187 2.7578125 0.30859375 C3.45648438 0.39238281 4.15515625 0.47617188 4.875 0.5625 C3.555 0.8925 2.235 1.2225 0.875 1.5625 C0.875 2.2225 0.875 2.8825 0.875 3.5625 C-2 3.75 -2 3.75 -5.125 3.5625 C-5.785 2.5725 -6.445 1.5825 -7.125 0.5625 C-4.50184968 -0.74907516 -2.89466564 -0.33399988 0 0 Z " fill="#486874" transform="translate(89.125,162.4375)"/>
<path d="M0 0 C4.38462134 0.50109958 6.8000997 1.98295115 10 5 C10 5.66 10 6.32 10 7 C5.25 5.125 5.25 5.125 3 4 C3 3.34 3 2.68 3 2 C2.01 1.67 1.02 1.34 0 1 C0 0.67 0 0.34 0 0 Z " fill="#4A6C78" transform="translate(57,151)"/>
<path d="M0 0 C-1.49836105 3.11198065 -3.19933758 6.0534615 -5 9 C-5.33 8.34 -5.66 7.68 -6 7 C-6.99 6.67 -7.98 6.34 -9 6 C-8.401875 5.566875 -7.80375 5.13375 -7.1875 4.6875 C-5.01024117 3.09318895 -5.01024117 3.09318895 -3.375 1.3125 C-2 0 -2 0 0 0 Z " fill="#093961" transform="translate(43,62)"/>
<path d="M0 0 C0 0.99 0 1.98 0 3 C-0.99 3 -1.98 3 -3 3 C-3 3.66 -3 4.32 -3 5 C-5.97 4.505 -5.97 4.505 -9 4 C-4.5 0 -4.5 0 0 0 Z " fill="#3D606B" transform="translate(140,153)"/>
<path d="M0 0 C1.32 0 2.64 0 4 0 C4.33 1.65 4.66 3.3 5 5 C3.68 5.33 2.36 5.66 1 6 C0.67 4.02 0.34 2.04 0 0 Z " fill="#144A81" transform="translate(117,15)"/>
<path d="M0 0 C0.66 0.66 1.32 1.32 2 2 C1.625 4.125 1.625 4.125 1 6 C0.67 5.34 0.34 4.68 0 4 C-1.95216435 5.95216435 -2.84826645 7.53199953 -4 10 C-4.8125 8.375 -4.8125 8.375 -5 6 C-3.53181864 3.75390165 -1.84147142 1.97621323 0 0 Z " fill="#5C7695" transform="translate(82,95)"/>
<path d="M0 0 C-0.99 1.485 -0.99 1.485 -2 3 C-4.97 2.505 -4.97 2.505 -8 2 C-8 1.01 -8 0.02 -8 -1 C-4.37673261 -2.2077558 -3.35853631 -1.54311128 0 0 Z " fill="#2A5065" transform="translate(132,39)"/>
<path d="M0 0 C0.66 0 1.32 0 2 0 C2 3.3 2 6.6 2 10 C1.01 10 0.02 10 -1 10 C-0.67 6.7 -0.34 3.4 0 0 Z " fill="#35597B" transform="translate(122,119)"/>
<path d="M0 0 C1.32 0 2.64 0 4 0 C4 1.65 4 3.3 4 5 C3.01 5.33 2.02 5.66 1 6 C0.34 5.01 -0.32 4.02 -1 3 C-0.67 2.01 -0.34 1.02 0 0 Z " fill="#1A4B85" transform="translate(22,101)"/>
<path d="M0 0 C0 3.3 0 6.6 0 10 C-0.99 9.67 -1.98 9.34 -3 9 C-3 8.01 -3 7.02 -3 6 C-2.34 6 -1.68 6 -1 6 C-1 5.34 -1 4.68 -1 4 C-1.66 4 -2.32 4 -3 4 C-3 3.01 -3 2.02 -3 1 C-1 0 -1 0 0 0 Z " fill="#4F7186" transform="translate(34,95)"/>
<path d="M0 0 C1.91635217 -0.05423638 3.83314925 -0.09289963 5.75 -0.125 C7.35101563 -0.15980469 7.35101563 -0.15980469 8.984375 -0.1953125 C11.92470106 -0.00487687 13.52361878 0.47329896 16 2 C10.15659442 3.24327778 5.73303505 2.57300962 0 1 C0 0.67 0 0.34 0 0 Z " fill="#D0D7DE" transform="translate(102,37)"/>
<path d="M0 0 C1.09658936 3.28976808 0.79953138 4.71303767 0 8 C-1.32 8.33 -2.64 8.66 -4 9 C-2.94124926 5.59687262 -1.99097846 2.98646769 0 0 Z " fill="#DDECF5" transform="translate(78,93)"/>
<path d="M0 0 C0.99 0 1.98 0 3 0 C3.33 1.98 3.66 3.96 4 6 C1.525 5.01 1.525 5.01 -1 4 C-0.67 2.68 -0.34 1.36 0 0 Z " fill="#144782" transform="translate(13,101)"/>
<path d="M0 0 C2 1 2 1 3 3 C1.56666979 3.39063507 0.12807321 3.76198474 -1.3125 4.125 C-2.51326172 4.43824219 -2.51326172 4.43824219 -3.73828125 4.7578125 C-6 5 -6 5 -9 3 C-7.88625 2.87625 -6.7725 2.7525 -5.625 2.625 C-1.96896323 2.3534187 -1.96896323 2.3534187 0 0 Z " fill="#3A5861" transform="translate(86,34)"/>
<path d="M0 0 C0.99 0 1.98 0 3 0 C3.66 1.32 4.32 2.64 5 4 C4.34 4.66 3.68 5.32 3 6 C2.01 5.67 1.02 5.34 0 5 C0 3.35 0 1.7 0 0 Z " fill="#144882" transform="translate(108,15)"/>
<path d="M0 0 C0.99 0 1.98 0 3 0 C3.33 1.65 3.66 3.3 4 5 C2.68 5 1.36 5 0 5 C-0.5625 3.0625 -0.5625 3.0625 -1 1 C-0.67 0.67 -0.34 0.34 0 0 Z " fill="#174A82" transform="translate(112,8)"/>
<path d="M0 0 C0.99 0 1.98 0 3 0 C3.625 2.3125 3.625 2.3125 4 5 C3.01 6.485 3.01 6.485 2 8 C0.23537317 4.91190305 0 3.76687864 0 0 Z " fill="#496B77" transform="translate(33,115)"/>
<path d="M0 0 C1.5 1.1875 1.5 1.1875 3 3 C3.1875 5.6875 3.1875 5.6875 3 8 C2.01 7.67 1.02 7.34 0 7 C-1.125 2.25 -1.125 2.25 0 0 Z " fill="#43656C" transform="translate(165,81)"/>
<path d="M0 0 C2.88437779 1.29299694 4.87219421 2.65941363 7 5 C6.01 5.33 5.02 5.66 4 6 C2.35 4.35 0.7 2.7 -1 1 C-0.67 0.67 -0.34 0.34 0 0 Z " fill="#557374" transform="translate(140,47)"/>
<path d="M0 0 C-0.1875 1.8125 -0.1875 1.8125 -1 4 C-3.5625 5.75 -3.5625 5.75 -6 7 C-5.37162381 3.35541809 -4.14650034 0 0 0 Z " fill="#416067" transform="translate(151,143)"/>
<path d="M0 0 C0.99928333 2.698065 1.03624754 3.88010429 0.1875 6.6875 C-1 9 -1 9 -3 10 C-2.49287967 6.28111761 -1.88391785 3.26545761 0 0 Z " fill="#D9E8F2" transform="translate(71,105)"/>
<path d="M0 0 C1.65 0 3.3 0 5 0 C5 1.32 5 2.64 5 4 C3.68 4 2.36 4 1 4 C0.67 2.68 0.34 1.36 0 0 Z " fill="#194D85" transform="translate(15,94)"/>
<path d="M0 0 C0.66 0.99 1.32 1.98 2 3 C0.35 4.32 -1.3 5.64 -3 7 C-3.66 6.34 -4.32 5.68 -5 5 C-3.35 3.35 -1.7 1.7 0 0 Z " fill="#506D71" transform="translate(54,50)"/>
<path d="M0 0 C-1.1875 1.5 -1.1875 1.5 -3 3 C-5.6875 3.1875 -5.6875 3.1875 -8 3 C-6 0 -6 0 -4 -0.75 C-2 -1 -2 -1 0 0 Z " fill="#45656C" transform="translate(76,39)"/>
<path d="M0 0 C0.33 0.66 0.66 1.32 1 2 C0.67 2.66 0.34 3.32 0 4 C-0.66 4 -1.32 4 -2 4 C-2.33 4.99 -2.66 5.98 -3 7 C-3.66 6.01 -4.32 5.02 -5 4 C-3.35 2.68 -1.7 1.36 0 0 Z " fill="#4D6E76" transform="translate(156,136)"/>
<path d="M0 0 C1.32 0 2.64 0 4 0 C4 1.98 4 3.96 4 6 C3.34 5.67 2.68 5.34 2 5 C2 4.34 2 3.68 2 3 C1.34 3 0.68 3 0 3 C0 2.01 0 1.02 0 0 Z " fill="#3E5B85" transform="translate(75,119)"/>
<path d="M0 0 C0.66 0.66 1.32 1.32 2 2 C1.34 2 0.68 2 0 2 C0 2.66 0 3.32 0 4 C-1.32 4.33 -2.64 4.66 -4 5 C-4.33 3.68 -4.66 2.36 -5 1 C-2.625 0.375 -2.625 0.375 0 0 Z " fill="#215590" transform="translate(136,72)"/>
<path d="M0 0 C1.32 0 2.64 0 4 0 C4.66 1.65 5.32 3.3 6 5 C5.01 5.33 4.02 5.66 3 6 C2.34 5.01 1.68 4.02 1 3 C1.33 2.67 1.66 2.34 2 2 C1.34 1.34 0.68 0.68 0 0 Z " fill="#193D5B" transform="translate(144,49)"/>
</svg>
