<?xml version="1.0" encoding="UTF-8"?>
<svg version="1.1" xmlns="http://www.w3.org/2000/svg" width="512" height="512">
<path d="M0 0 C1.39894938 -0.00374268 2.79789668 -0.00834665 4.1968407 -0.01373065 C8.01798616 -0.02590007 11.83904367 -0.02570737 15.66020405 -0.02334189 C19.79060328 -0.02293218 23.92097488 -0.0339877 28.05136108 -0.04345703 C36.13567742 -0.06003552 44.21996458 -0.06556518 52.3042965 -0.06668179 C58.88048021 -0.06763391 65.45665433 -0.07175239 72.03283501 -0.07808304 C90.70240177 -0.09568808 109.37194559 -0.10492325 128.04152072 -0.10342209 C129.54970797 -0.10330222 129.54970797 -0.10330222 131.08836365 -0.10317993 C132.09505838 -0.10309817 133.10175311 -0.10301641 134.13895374 -0.10293217 C150.44191938 -0.10211983 166.74479251 -0.12124627 183.04773141 -0.14945666 C199.81187062 -0.17823473 216.57596479 -0.1919942 233.34012932 -0.19026911 C242.74204698 -0.18960683 252.14386769 -0.1950276 261.54576302 -0.21662521 C269.55304257 -0.23490207 277.56018124 -0.23913135 285.5674727 -0.22560637 C289.64660863 -0.21910892 293.7254748 -0.21884152 297.8045845 -0.23631287 C330.95095521 -0.3692884 358.70491797 5.4512128 383.46800232 28.73129272 C401.32066838 46.58395878 412.14454037 71.12720705 412.28094614 96.37784201 C412.27784893 97.66003998 412.27475173 98.94223795 412.27156067 100.26329041 C412.27530335 101.66223979 412.27990732 103.06118708 412.28529131 104.46013111 C412.29746074 108.28127657 412.29726804 112.10233407 412.29490256 115.92349446 C412.29449285 120.05389368 412.30554837 124.18426528 412.3150177 128.31465149 C412.33159619 136.39896783 412.33712585 144.48325499 412.33824246 152.56758691 C412.33919458 159.14377061 412.34331306 165.71994474 412.34964371 172.29612541 C412.36724875 190.96569218 412.37648392 209.635236 412.37498276 228.30481113 C412.37486289 229.81299838 412.37486289 229.81299838 412.3747406 231.35165405 C412.37465884 232.35834878 412.37457708 233.36504351 412.37449284 234.40224414 C412.3736805 250.70520979 412.39280694 267.00808291 412.42101733 283.31102181 C412.4497954 300.07516103 412.46355487 316.8392552 412.46182978 333.60341972 C412.4611675 343.00533738 412.46658827 352.4071581 412.48818588 361.80905342 C412.50646274 369.81633297 412.51069202 377.82347165 412.49716704 385.83076311 C412.49066959 389.90989904 412.49040219 393.98876521 412.50787354 398.06787491 C412.64084906 431.21424561 406.82034787 458.96820837 383.54026794 483.73129272 C365.68760188 501.58395878 341.14435362 512.40783077 315.89371866 512.54423654 C314.61152069 512.54113934 313.32932272 512.53804213 312.00827026 512.53485107 C310.60932088 512.53859376 309.21037359 512.54319773 307.81142956 512.54858172 C303.9902841 512.56075114 300.1692266 512.56055844 296.34806621 512.55819297 C292.21766699 512.55778325 288.08729538 512.56883878 283.95690918 512.57830811 C275.87259284 512.59488659 267.78830568 512.60041625 259.70397376 512.60153286 C253.12779006 512.60248498 246.55161593 512.60660346 239.97543526 512.61293411 C221.30586849 512.63053915 202.63632467 512.63977432 183.96674954 512.63827316 C182.45856229 512.6381533 182.45856229 512.6381533 180.91990662 512.63803101 C179.91321189 512.63794924 178.90651716 512.63786748 177.86931653 512.63778324 C161.56635088 512.63697091 145.26347775 512.65609734 128.96053886 512.68430774 C112.19639964 512.71308581 95.43230547 512.72684528 78.66814095 512.72512019 C69.26622329 512.72445791 59.86440257 512.72987868 50.46250725 512.75147629 C42.45522769 512.76975315 34.44808902 512.77398242 26.44079756 512.76045744 C22.36166163 512.75395999 18.28279546 512.7536926 14.20368576 512.77116394 C-18.94268494 512.90413947 -46.6966477 507.08363827 -71.45973206 483.80355835 C-89.31239812 465.95089229 -100.1362701 441.40764403 -100.27267587 416.15700907 C-100.26957867 414.87481109 -100.26648146 413.59261312 -100.26329041 412.27156067 C-100.26703309 410.87261129 -100.27163706 409.47366399 -100.27702105 408.07471997 C-100.28919047 404.25357451 -100.28899777 400.432517 -100.2866323 396.61135662 C-100.28622258 392.48095739 -100.29727811 388.35058579 -100.30674744 384.22019958 C-100.32332592 376.13588325 -100.32885559 368.05159609 -100.32997219 359.96726417 C-100.33092431 353.39108046 -100.3350428 346.81490634 -100.34137344 340.23872566 C-100.35897848 321.56915889 -100.36821365 302.89961507 -100.3667125 284.23003995 C-100.36663258 283.22458178 -100.36655267 282.21912362 -100.36647034 281.18319702 C-100.36638858 280.17650229 -100.36630681 279.16980756 -100.36622258 278.13260693 C-100.36541024 261.82964129 -100.38453667 245.52676816 -100.41274707 229.22382926 C-100.44152514 212.45969005 -100.45528461 195.69559588 -100.45355952 178.93143135 C-100.45289724 169.52951369 -100.45831801 160.12769298 -100.47991562 150.72579765 C-100.49819248 142.7185181 -100.50242175 134.71137943 -100.48889677 126.70408797 C-100.48239932 122.62495204 -100.48213193 118.54608586 -100.49960327 114.46697617 C-100.6325788 81.32060546 -94.8120776 53.5666427 -71.53199768 28.80355835 C-52.29087613 9.5624368 -26.93270462 -0.0650571 0 0 Z " fill="#D8D8D7" transform="translate(99.99586486816406,-0.267425537109375)"/>
<path d="M0 0 C1.77602097 -0.0129007 1.77602097 -0.0129007 3.58792114 -0.02606201 C5.51652229 -0.03245193 5.51652229 -0.03245193 7.48408508 -0.03897095 C8.86299338 -0.04688219 10.24189966 -0.05515176 11.62080383 -0.06375122 C16.13942008 -0.08987525 20.65804507 -0.10527934 25.17671204 -0.11953735 C26.740792 -0.12490289 28.30487192 -0.1302804 29.8689518 -0.13566971 C36.38612792 -0.15729331 42.90330169 -0.17602104 49.42050457 -0.1872921 C58.71042763 -0.20347139 67.99992855 -0.23650742 77.28969258 -0.29369295 C83.84716849 -0.33265766 90.40453283 -0.35195641 96.96212131 -0.35721266 C100.8646059 -0.36083301 104.76663938 -0.3724919 108.66899681 -0.4053154 C137.40699368 -0.63510157 161.58649898 2.28510497 183.15327454 23.27108765 C193.57436836 34.31947061 198.91224506 46.77869482 202.97749329 61.15390015 C203.15081838 61.74981398 203.32414347 62.34572781 203.50272083 62.95969963 C204.03502223 65.41977495 204.10638825 67.64397572 204.11120605 70.16125488 C204.11547104 71.17041458 204.11973602 72.17957428 204.12413025 73.21931458 C204.12367706 74.32066238 204.12322388 75.42201019 204.12275696 76.55673218 C204.12779488 78.303787 204.12779488 78.303787 204.13293457 80.08613586 C204.14244917 83.94467226 204.14438818 87.80316525 204.14546204 91.66171265 C204.14786292 93.66665465 204.15026553 95.67159667 204.15292245 97.67653835 C204.1610636 103.98540174 204.16350715 110.29425086 204.16279602 116.6031189 C204.16219656 123.09229558 204.17272272 129.58138878 204.18853968 136.07054436 C204.20166123 141.65460317 204.20697793 147.23863487 204.20634061 152.82270896 C204.2060868 156.15190324 204.20980527 159.48096469 204.21951866 162.81015396 C204.22935715 166.53173914 204.22642475 170.25311206 204.22041321 173.97470093 C204.22603271 175.06390335 204.23165222 176.15310577 204.23744202 177.27531433 C204.14817534 199.11221503 195.12097509 217.68180753 179.97749329 233.15390015 C179.20212219 233.98341187 179.20212219 233.98341187 178.41108704 234.8296814 C174.68308983 238.44087452 170.23420518 240.82366866 165.66499329 243.21640015 C165.08032288 243.53302612 164.49565247 243.8496521 163.89326477 244.1758728 C145.87968526 253.16995905 127.20128724 252.89335462 107.59187269 252.7925961 C103.5141592 252.77598675 99.43648271 252.78505268 95.35874939 252.79011536 C88.51866113 252.79461078 81.67884861 252.77892378 74.83882141 252.75082397 C66.97356708 252.71875794 59.10880883 252.71880619 51.24351919 252.73603874 C43.6188689 252.75199646 35.99439743 252.74511292 28.36975479 252.72810173 C25.15085099 252.7212973 21.9320934 252.72219451 18.71319199 252.72964668 C14.91249585 252.73740582 11.11235277 252.72487639 7.31175041 252.69779778 C5.28252209 252.68782197 3.25322659 252.69699437 1.22399902 252.7071228 C-20.04713489 252.49053831 -37.93551961 244.88845492 -53.19828796 230.03671265 C-67.95173688 214.39519205 -74.14660417 195.68499668 -74.19950867 174.59750366 C-74.20607986 173.45175369 -74.21265106 172.30600372 -74.21942139 171.12553406 C-74.239083 167.34462407 -74.25080302 163.56375373 -74.26078796 159.7828064 C-74.26486349 158.48528883 -74.26893902 157.18777126 -74.27313805 155.85093498 C-74.29182781 149.68610209 -74.30639777 143.52128881 -74.31475002 137.35643345 C-74.32449394 130.28452833 -74.35074883 123.21293856 -74.39125091 116.14114434 C-74.42161672 110.64695328 -74.43623831 105.15285154 -74.43953103 99.65857834 C-74.44185955 96.39060256 -74.45256899 93.12303726 -74.4759922 89.85513496 C-74.58866597 73.08937781 -74.44948041 57.12034043 -66.46000671 41.90390015 C-66.12412537 41.24970093 -65.78824402 40.59550171 -65.44218445 39.92147827 C-61.68769806 32.98595487 -56.66960368 27.5894344 -51.02250671 22.15390015 C-50.29289734 21.4165564 -49.56328796 20.67921265 -48.81156921 19.91952515 C-36.02167615 7.65263886 -17.73135734 0.0964583 0 0 Z " fill="#ECEDED" transform="translate(192.0225067138672,108.84609985351563)"/>
<path d="M0 0 C1.77602097 -0.0129007 1.77602097 -0.0129007 3.58792114 -0.02606201 C5.51652229 -0.03245193 5.51652229 -0.03245193 7.48408508 -0.03897095 C8.86299338 -0.04688219 10.24189966 -0.05515176 11.62080383 -0.06375122 C16.13942008 -0.08987525 20.65804507 -0.10527934 25.17671204 -0.11953735 C26.740792 -0.12490289 28.30487192 -0.1302804 29.8689518 -0.13566971 C36.38612792 -0.15729331 42.90330169 -0.17602104 49.42050457 -0.1872921 C58.71042763 -0.20347139 67.99992855 -0.23650742 77.28969258 -0.29369295 C83.84716849 -0.33265766 90.40453283 -0.35195641 96.96212131 -0.35721266 C100.8646059 -0.36083301 104.76663938 -0.3724919 108.66899681 -0.4053154 C137.40699368 -0.63510157 161.58649898 2.28510497 183.15327454 23.27108765 C193.57436836 34.31947061 198.91224506 46.77869482 202.97749329 61.15390015 C203.15081838 61.74981398 203.32414347 62.34572781 203.50272083 62.95969963 C204.03502223 65.41977495 204.10638825 67.64397572 204.11120605 70.16125488 C204.11547104 71.17041458 204.11973602 72.17957428 204.12413025 73.21931458 C204.12367706 74.32066238 204.12322388 75.42201019 204.12275696 76.55673218 C204.12779488 78.303787 204.12779488 78.303787 204.13293457 80.08613586 C204.14244917 83.94467226 204.14438818 87.80316525 204.14546204 91.66171265 C204.14786292 93.66665465 204.15026553 95.67159667 204.15292245 97.67653835 C204.1610636 103.98540174 204.16350715 110.29425086 204.16279602 116.6031189 C204.16219656 123.09229558 204.17272272 129.58138878 204.18853968 136.07054436 C204.20166123 141.65460317 204.20697793 147.23863487 204.20634061 152.82270896 C204.2060868 156.15190324 204.20980527 159.48096469 204.21951866 162.81015396 C204.22935715 166.53173914 204.22642475 170.25311206 204.22041321 173.97470093 C204.22603271 175.06390335 204.23165222 176.15310577 204.23744202 177.27531433 C204.14817534 199.11221503 195.12097509 217.68180753 179.97749329 233.15390015 C179.20212219 233.98341187 179.20212219 233.98341187 178.41108704 234.8296814 C174.68308983 238.44087452 170.23420518 240.82366866 165.66499329 243.21640015 C165.08032288 243.53302612 164.49565247 243.8496521 163.89326477 244.1758728 C145.87968526 253.16995905 127.20128724 252.89335462 107.59187269 252.7925961 C103.5141592 252.77598675 99.43648271 252.78505268 95.35874939 252.79011536 C88.51866113 252.79461078 81.67884861 252.77892378 74.83882141 252.75082397 C66.97356708 252.71875794 59.10880883 252.71880619 51.24351919 252.73603874 C43.6188689 252.75199646 35.99439743 252.74511292 28.36975479 252.72810173 C25.15085099 252.7212973 21.9320934 252.72219451 18.71319199 252.72964668 C14.91249585 252.73740582 11.11235277 252.72487639 7.31175041 252.69779778 C5.28252209 252.68782197 3.25322659 252.69699437 1.22399902 252.7071228 C-20.04713489 252.49053831 -37.93551961 244.88845492 -53.19828796 230.03671265 C-67.95173688 214.39519205 -74.14660417 195.68499668 -74.19950867 174.59750366 C-74.20607986 173.45175369 -74.21265106 172.30600372 -74.21942139 171.12553406 C-74.239083 167.34462407 -74.25080302 163.56375373 -74.26078796 159.7828064 C-74.26486349 158.48528883 -74.26893902 157.18777126 -74.27313805 155.85093498 C-74.29182781 149.68610209 -74.30639777 143.52128881 -74.31475002 137.35643345 C-74.32449394 130.28452833 -74.35074883 123.21293856 -74.39125091 116.14114434 C-74.42161672 110.64695328 -74.43623831 105.15285154 -74.43953103 99.65857834 C-74.44185955 96.39060256 -74.45256899 93.12303726 -74.4759922 89.85513496 C-74.58866597 73.08937781 -74.44948041 57.12034043 -66.46000671 41.90390015 C-66.12412537 41.24970093 -65.78824402 40.59550171 -65.44218445 39.92147827 C-61.68769806 32.98595487 -56.66960368 27.5894344 -51.02250671 22.15390015 C-50.29289734 21.4165564 -49.56328796 20.67921265 -48.81156921 19.91952515 C-36.02167615 7.65263886 -17.73135734 0.0964583 0 0 Z M-41.02250671 38.15390015 C-41.58711609 38.6953064 -42.15172546 39.23671265 -42.73344421 39.79452515 C-53.17199454 50.7301493 -57.49517097 66.54720007 -57.42655945 81.26229858 C-57.4334227 82.31270325 -57.44028595 83.36310791 -57.44735718 84.44534302 C-57.46551445 87.88479504 -57.46180246 91.32378592 -57.45610046 94.76327515 C-57.46066842 97.17784776 -57.46597581 99.59241907 -57.47198486 102.00698853 C-57.48089496 107.05698949 -57.47851771 112.10683215 -57.46855164 117.15682983 C-57.45708066 123.59316274 -57.47725628 130.02894546 -57.50646877 136.46520615 C-57.52491597 141.44985362 -57.52452109 146.43437141 -57.51883125 151.41904449 C-57.518679 153.79024272 -57.5246433 156.16145027 -57.53712273 158.53261566 C-57.59512743 171.36214094 -57.37354068 182.98128467 -53.02250671 195.15390015 C-52.44000404 196.82183624 -52.44000404 196.82183624 -51.84573364 198.52346802 C-47.14350924 211.41759778 -37.41559178 221.98659068 -25.33500671 228.40390015 C-14.19675565 233.49165794 -3.65789581 235.75691201 8.55366516 235.63973999 C9.83044632 235.64353668 11.10722748 235.64733337 12.42269897 235.65124512 C15.87950868 235.66081629 19.33578992 235.64579054 22.79253578 235.62533903 C26.43877527 235.60756013 30.08500345 235.61129713 33.73127747 235.61206055 C39.85038407 235.61019645 45.96929048 235.59295532 52.08833313 235.56552124 C59.12637916 235.53408012 66.1642065 235.52352567 73.20231771 235.52499235 C80.74841743 235.52635161 88.2944348 235.51242476 95.84050941 235.49409914 C97.99171903 235.48987111 100.14291504 235.48842155 102.29412842 235.48762131 C106.32996061 235.48520716 110.36554435 235.46565996 114.40132141 235.44442749 C115.57264114 235.44533386 116.74396088 235.44624023 117.95077515 235.44717407 C136.73665867 235.30385628 155.03263253 231.73240929 169.16499329 218.46640015 C177.5552759 209.5009772 181.63634779 199.76507105 184.97749329 188.15390015 C185.24968579 187.2104754 185.24968579 187.2104754 185.52737713 186.24799156 C186.03195561 183.90052312 186.1123538 181.76447672 186.12466431 179.36328125 C186.13181961 178.40197296 186.13897491 177.44066467 186.14634705 176.45022583 C186.14903595 175.40191589 186.15172485 174.35360596 186.15449524 173.27352905 C186.16435204 171.60926376 186.16435204 171.60926376 186.17440796 169.91137695 C186.19413774 166.23440481 186.20580617 162.55747361 186.21577454 158.88046265 C186.21985006 157.62182781 186.22392559 156.36319298 186.22812462 155.06641769 C186.24683841 149.08525062 186.2614 143.10410821 186.26973659 137.12291968 C186.27947599 130.25075192 186.30570904 123.37890909 186.34623748 116.50685561 C186.38025185 110.53106672 186.39189953 104.55543312 186.39594078 98.57954025 C186.40078959 96.05120016 186.4123544 93.52286309 186.43097878 90.99458694 C186.57874855 69.59555399 184.80374879 51.70975707 169.39546204 35.31796265 C161.16107326 27.94825121 151.73905492 22.76317326 140.97749329 20.15390015 C140.3094121 19.98878402 139.64133091 19.82366789 138.95300484 19.65354824 C131.83894723 18.04964368 124.97626029 17.85152774 117.7035675 17.84750366 C116.4110759 17.83918015 115.11858429 17.83085663 113.78692627 17.82228088 C110.26795233 17.80050349 106.74906517 17.79155952 103.23003149 17.78645444 C101.02239958 17.78279016 98.8147897 17.77653952 96.60716629 17.76945305 C88.87936167 17.74501442 81.15162361 17.73191929 73.42378235 17.72836304 C66.2630275 17.72473456 59.10270299 17.6948745 51.94207942 17.65295845 C45.75992334 17.61806143 39.57790852 17.60281125 33.3956548 17.602117 C29.7185794 17.6013306 26.04194321 17.59289084 22.36497116 17.56411934 C-2.6796085 17.38018302 -22.49844789 19.69529736 -41.02250671 38.15390015 Z " fill="#191919" transform="translate(192.0225067138672,108.84609985351563)"/>
<path d="M0 0 C5.20117358 4.10194907 10.11323959 8.53228897 15 13 C15.87736816 13.80074951 15.87736816 13.80074951 16.77246094 14.61767578 C19.52643233 17.13784893 22.2679281 19.67095676 25 22.21484375 C29.94394328 26.81580887 34.92125902 31.3958018 40.078125 35.7578125 C50.27061507 44.38531393 59.50960012 54.35693977 62 68 C62.59944211 75.8619138 61.87604249 82.65983939 59 90 C58.74476563 90.66386719 58.48953125 91.32773438 58.2265625 92.01171875 C55.04204668 99.21339901 49.54870469 106.63419687 43 111 C40.03 108.03 37.06 105.06 34 102 C35.62867048 98.74265903 36.48234351 97.36114945 38.875 94.9375 C45.0167529 87.8473882 46.79922532 79.34170798 46.4296875 70.125 C44.41080262 55.4422009 30.24284041 44.94046175 19.5390625 36.00390625 C16.07623081 33.09993134 12.7861261 30.03813919 9.5 26.9375 C-6.45543175 12.03975228 -20.66742824 2.09878413 -43.22265625 2.625 C-56.01641004 3.33449714 -65.48438211 10.15754198 -74.125 19.0625 C-83.94799795 30.51611561 -87.30839384 43.16891004 -87.3359375 57.87890625 C-87.3425943 59.12316879 -87.3492511 60.36743134 -87.35610962 61.6493988 C-87.36621561 64.2793531 -87.37092728 66.90933294 -87.37060547 69.53930664 C-87.37036367 73.52456019 -87.41124925 77.5090686 -87.44921875 81.49414062 C-87.45509157 84.05989209 -87.45905785 86.62564876 -87.4609375 89.19140625 C-87.47530853 90.36586807 -87.48967957 91.5403299 -87.50448608 92.75038147 C-87.41856369 108.63484439 -82.08144954 124.37851881 -71 136 C-59.37587683 146.05436979 -46.03838613 148.78513663 -31 148 C-25.462616 147.22299585 -20.422268 145.06512901 -15.296875 142.90234375 C-14.53890625 142.60457031 -13.7809375 142.30679688 -13 142 C-12.3503125 141.72414063 -11.700625 141.44828125 -11.03125 141.1640625 C-7.83377376 140.9058048 -6.25547624 142.55839282 -3.75 144.4375 C-2.85796875 145.09621094 -1.9659375 145.75492188 -1.046875 146.43359375 C-0.37140625 146.95050781 0.3040625 147.46742188 1 148 C0 151 0 151 -3.28125 152.9375 C-4.68236967 153.63539611 -6.08891647 154.32247614 -7.5 155 C-8.18320313 155.34289062 -8.86640625 155.68578125 -9.5703125 156.0390625 C-18.87653103 160.60503489 -26.76355348 162.56248989 -37.1875 162.5 C-38.29303223 162.49427979 -39.39856445 162.48855957 -40.53759766 162.48266602 C-57.08790233 162.12182029 -71.50965996 154.97005602 -83 143 C-97.99093499 126.00158328 -102.06761855 106.84383276 -102.23828125 84.671875 C-102.246353 83.63919495 -102.25442474 82.60651489 -102.26274109 81.5425415 C-102.27645842 79.37456886 -102.2872347 77.20657575 -102.29516602 75.03857422 C-102.3066846 72.85328699 -102.32713436 70.66802787 -102.35668945 68.48291016 C-102.65536252 46.30768663 -100.31332648 25.8964868 -84.25512695 9.12939453 C-75.99556446 0.85161138 -67.87457524 -4.64202416 -57 -9 C-56.22527344 -9.34160156 -55.45054687 -9.68320313 -54.65234375 -10.03515625 C-36.4202718 -16.94855214 -15.21307124 -10.82801405 0 0 Z " fill="#1B1C1C" transform="translate(250,160)"/>
<path d="M0 0 C10.70278479 8.20693649 17.27175312 18.42041131 22.09765625 30.93359375 C22.35227127 31.59178101 22.60688629 32.24996826 22.86921692 32.92810059 C25.50158035 40.56400298 25.53623213 47.95769693 25.49609375 55.9609375 C25.49812049 57.40003099 25.50103689 58.83912348 25.50479126 60.2782135 C25.5091879 63.27957027 25.50287132 66.28065729 25.48876953 69.28198242 C25.47169449 73.09896598 25.48152473 76.91531567 25.49948692 80.73227596 C25.51041067 83.70000342 25.5068392 86.66758459 25.49910355 89.63531685 C25.49712436 91.04130697 25.49947906 92.44731106 25.50654221 93.85328484 C25.55261044 105.59850747 23.80122401 115.53939626 18.41015625 125.99609375 C17.88687744 127.01896484 17.88687744 127.01896484 17.35302734 128.0625 C8.96774809 143.96704404 -4.46601512 154.6680926 -21.59375 160.10546875 C-26.9208971 161.3278199 -32.27310401 161.30177025 -37.71484375 161.30859375 C-38.73126953 161.33308594 -39.74769531 161.35757813 -40.79492188 161.3828125 C-58.85520807 161.45187669 -71.34404329 150.71135291 -84.22851562 139.38525391 C-86.65596181 137.28000376 -89.15140139 135.2630967 -91.65234375 133.24609375 C-96.03105228 129.69319428 -100.21598293 125.97366144 -104.37890625 122.171875 C-106.94628098 119.89462156 -109.59145644 117.75672048 -112.27734375 115.62109375 C-123.75337631 106.26120903 -136.07648913 95.56747392 -137.90234375 79.93359375 C-139.1464415 66.48178685 -135.24713067 54.52904934 -126.90234375 43.93359375 C-124.6668776 41.68942928 -122.43854645 39.84868558 -119.90234375 37.93359375 C-115.30094734 39.42228082 -112.40007281 41.6798923 -108.90234375 44.93359375 C-108.90234375 45.59359375 -108.90234375 46.25359375 -108.90234375 46.93359375 C-110.06661791 48.06362455 -111.23138103 49.1931554 -112.3984375 50.3203125 C-119.335825 57.76223728 -122.52988963 65.80932853 -122.265625 75.9765625 C-120.4712222 90.58261543 -109.70262668 99.98548327 -98.75390625 108.62109375 C-95.68282125 111.11161748 -92.79163225 113.73754533 -89.90234375 116.43359375 C-85.28309053 120.7264584 -80.53788841 124.79826858 -75.61328125 128.7421875 C-73.78025569 130.22392718 -71.97317208 131.73825106 -70.19140625 133.28125 C-57.72623885 143.9784352 -47.08097089 147.75134398 -30.90234375 146.93359375 C-18.97522713 145.59197742 -8.06506929 139.18047023 -0.33984375 130.05859375 C8.56447302 117.74856607 11.56797309 104.33792843 11.53125 89.375 C11.53649185 88.10945786 11.5417337 86.84391571 11.5471344 85.5400238 C11.55352444 82.87816643 11.55372021 80.21717715 11.54370117 77.55541992 C11.53221724 74.17894215 11.55244672 70.80351127 11.58161831 67.42717075 C11.60459023 64.15977747 11.59750437 60.89245491 11.59375 57.625 C11.61060097 55.83383507 11.61060097 55.83383507 11.62779236 54.00648499 C11.50936019 39.55350101 6.37521939 26.13588958 -3.65234375 15.62109375 C-15.23378903 4.63356875 -27.03329933 1.31050977 -42.80859375 1.5703125 C-47.79388286 1.84403749 -51.90415569 3.53421043 -56.3515625 5.7421875 C-59.02088663 6.98896217 -60.94929587 7.82145269 -63.90234375 7.93359375 C-66.359375 6.28125 -66.359375 6.28125 -68.71484375 3.99609375 C-69.90013672 2.86880859 -69.90013672 2.86880859 -71.109375 1.71875 C-71.70105469 1.12964844 -72.29273438 0.54054687 -72.90234375 -0.06640625 C-71.72693432 -3.59263453 -70.59492101 -4.03809629 -67.39697266 -5.66772461 C-66.47150635 -6.11257202 -66.47150635 -6.11257202 -65.52734375 -6.56640625 C-64.89103027 -6.87392822 -64.2547168 -7.1814502 -63.59912109 -7.49829102 C-41.61264828 -17.84081165 -19.40508596 -13.81600333 0 0 Z " fill="#1A1B1B" transform="translate(339.90234375,161.06640625)"/>
<path d="M0 0 C2.32686039 1.74619722 4.51952853 3.59598522 6.72265625 5.49609375 C7.77583658 6.36900911 8.83063589 7.23997346 9.88671875 8.109375 C15.47469954 12.7366436 20.83472512 17.45153229 25.89453125 22.66015625 C29.54014347 26.32134801 33.46600058 29.73064977 37.53515625 32.9140625 C43.14032731 37.38068319 47.51194942 43.0746801 50.72265625 49.49609375 C51.58709332 59.50088999 50.53401948 65.82717379 44.22265625 73.55859375 C41.72265625 75.49609375 41.72265625 75.49609375 39.80078125 75.33984375 C37.23599451 74.29850176 35.86873483 72.93906148 33.97265625 70.93359375 C33.3590625 70.29292969 32.74546875 69.65226562 32.11328125 68.9921875 C31.654375 68.49847656 31.19546875 68.00476563 30.72265625 67.49609375 C32.04638442 64.60626465 33.19438021 62.98048849 35.41015625 60.55859375 C38.01193913 57.80775733 38.01193913 57.80775733 37.55859375 55.046875 C35.40711645 48.48185314 29.01362699 43.68966721 23.8828125 39.33984375 C21.48898095 37.29664575 19.17077347 35.18175565 16.84765625 33.05859375 C12.78266622 29.39079358 8.60428616 25.92622732 4.30078125 22.54296875 C1.50528627 20.32351516 -1.22648284 18.03554304 -3.96484375 15.74609375 C-5.72917666 14.32133956 -7.4992496 12.9036364 -9.27734375 11.49609375 C-9.86902344 11.01527344 -10.46070313 10.53445312 -11.0703125 10.0390625 C-16.46369205 6.27035531 -23.0333115 6.6116485 -29.27734375 7.49609375 C-32.6398866 8.74348868 -35.37723873 10.40631219 -38.27734375 12.49609375 C-39.18484375 13.05296875 -40.09234375 13.60984375 -41.02734375 14.18359375 C-46.33469832 19.63837484 -49.36032995 27.2465291 -49.48608398 34.78686523 C-49.5053746 35.86906845 -49.52466522 36.95127167 -49.54454041 38.06626892 C-49.60253046 43.04048205 -49.65161471 48.01455175 -49.68237305 52.98901367 C-49.70388865 55.60275537 -49.73791368 58.2164263 -49.78491211 60.82983398 C-49.85230098 64.61344345 -49.87944362 68.39556044 -49.8984375 72.1796875 C-49.92626816 73.33327255 -49.95409882 74.4868576 -49.98277283 75.67539978 C-49.9604672 84.60384275 -47.66112239 92.30565954 -41.80345154 99.24119568 C-35.4198523 104.98709386 -29.045262 105.79219032 -20.90234375 105.74609375 C-13.58381731 105.88054009 -9.0416148 106.72746713 -3.578125 112 C-3.14886719 112.49371094 -2.71960938 112.98742187 -2.27734375 113.49609375 C-7.89907014 119.57638997 -15.58701071 120.47336681 -23.46484375 120.80859375 C-33.8027204 120.66870367 -43.35394375 115.96687042 -51.27734375 109.49609375 C-57.28843831 103.01096992 -60.85293776 95.94727169 -63.27734375 87.49609375 C-63.45262604 86.8978479 -63.62790833 86.29960205 -63.8085022 85.68322754 C-64.35989671 83.11098629 -64.43458618 80.7230169 -64.47021484 78.09179688 C-64.49430923 76.46860535 -64.49430923 76.46860535 -64.51889038 74.81262207 C-64.56364794 69.85100087 -64.60443568 64.88951077 -64.62744141 59.92773438 C-64.64395283 57.32087242 -64.67117832 54.71405484 -64.70947266 52.10742188 C-64.76462081 48.33049244 -64.7861782 44.55462323 -64.80078125 40.77734375 C-64.82345062 39.62689575 -64.84612 38.47644775 -64.86947632 37.2911377 C-64.83756768 24.89344591 -59.94823066 13.62803548 -51.46875 4.5625 C-37.08925526 -8.89115202 -16.46045891 -10.87011438 0 0 Z " fill="#1B1B1C" transform="translate(235.27734375,178.50390625)"/>
<path d="M0 0 C11.54357018 6.9384225 18.93551945 16.52140211 23.203125 29.32421875 C23.30688214 31.27996871 23.35169687 33.23904974 23.36425781 35.19750977 C23.37386536 36.40629288 23.3834729 37.61507599 23.39337158 38.86048889 C23.39762146 40.16980881 23.40187134 41.47912872 23.40625 42.828125 C23.41200723 44.18993632 23.41776488 45.55174764 23.42352295 46.91355896 C23.43402889 49.77253597 23.43987294 52.63148492 23.44335938 55.49047852 C23.4488168 59.12946915 23.47278666 62.76808044 23.50133133 66.40695286 C23.52009408 69.22363815 23.52517068 72.040235 23.52669525 74.85697746 C23.53114364 76.84313689 23.5497311 78.82924871 23.56866455 80.81532288 C23.54044596 92.3886864 21.72092351 100.46714497 14.203125 109.32421875 C13.71199219 110.00484375 13.22085938 110.68546875 12.71484375 111.38671875 C7.09883609 118.74466427 -1.67276123 123.0062912 -10.796875 124.32421875 C-25.09781912 125.3628348 -32.86176853 121.35818906 -43.796875 112.32421875 C-47.18988016 109.38655194 -50.49887933 106.36765215 -53.796875 103.32421875 C-55.02117281 102.23538604 -56.25017848 101.15181829 -57.484375 100.07421875 C-58.12246094 99.51605469 -58.76054687 98.95789063 -59.41796875 98.3828125 C-61.33998195 96.71959254 -63.2709026 95.06855795 -65.20703125 93.421875 C-90.68733309 71.68276779 -90.68733309 71.68276779 -92.08984375 61.1171875 C-92.5464023 53.87394787 -89.97438081 48.82835043 -85.296875 43.44921875 C-82.796875 41.32421875 -82.796875 41.32421875 -78.796875 39.32421875 C-73.351875 43.77921875 -73.351875 43.77921875 -67.796875 48.32421875 C-73.82366071 55.42243304 -73.82366071 55.42243304 -76.796875 58.32421875 C-73.2021352 68.73398609 -63.95481212 76.37339103 -55.796875 83.32421875 C-54.46213059 84.48927079 -53.12871322 85.65584559 -51.796875 86.82421875 C-51.15492188 87.38238281 -50.51296875 87.94054687 -49.8515625 88.515625 C-47.51666609 90.57086652 -45.22107966 92.66664908 -42.921875 94.76171875 C-29.222343 107.09083806 -29.222343 107.09083806 -11.46875 109.625 C-6.72696771 109.23657741 -3.38319922 108.51775508 0.203125 105.32421875 C2.58001336 102.50030093 4.48308187 99.58671944 6.203125 96.32421875 C6.97317871 94.90326904 6.97317871 94.90326904 7.75878906 93.45361328 C10.01905071 88.09408538 9.65123906 82.46709886 9.63671875 76.7421875 C9.6419606 75.53283035 9.64720245 74.32347321 9.65260315 73.07746887 C9.65901165 70.52487961 9.65770161 67.97226078 9.64916992 65.41967773 C9.64067613 61.53510292 9.66941502 57.65200729 9.70117188 53.76757812 C9.70278457 51.27994835 9.70220505 48.792316 9.69921875 46.3046875 C9.71045273 45.15332809 9.72168671 44.00196869 9.73326111 42.8157196 C9.64703395 32.72492036 7.25620778 24.39942485 0.16015625 17.01953125 C-5.72335283 11.92283875 -11.01247153 11.07858183 -18.671875 11.38671875 C-19.94804687 11.48082031 -21.22421875 11.57492188 -22.5390625 11.671875 C-23.61414063 11.55714844 -24.68921875 11.44242188 -25.796875 11.32421875 C-27.57421875 8.92578125 -27.57421875 8.92578125 -28.796875 6.32421875 C-30.44293326 5.29064728 -32.10650942 4.28361543 -33.796875 3.32421875 C-33.796875 2.66421875 -33.796875 2.00421875 -33.796875 1.32421875 C-23.88142637 -4.44476954 -10.44435156 -5.06231326 0 0 Z " fill="#1A1B1B" transform="translate(318.796875,174.67578125)"/>
<path d="M0 0 C3.03531121 -0.00625238 6.07059057 -0.01615917 9.10588837 -0.02705765 C13.96044289 -0.04383464 18.81490301 -0.04985527 23.66948509 -0.04803467 C25.47136589 -0.04882759 27.27324891 -0.05291548 29.0751133 -0.06064606 C56.66474247 -0.17009706 56.66474247 -0.17009706 64.60887909 5.18122482 C63.60887909 8.18122482 63.60887909 8.18122482 61.47936535 9.35327244 C58.09275044 10.33009505 55.2080269 10.43003232 51.68109894 10.42846298 C50.65387758 10.43208461 50.65387758 10.43208461 49.60590428 10.43577939 C47.31814238 10.44140165 45.03066152 10.43276467 42.74291229 10.42414474 C41.10011978 10.42521797 39.45732763 10.42715724 37.81453705 10.42989731 C33.35819194 10.43474125 28.90194709 10.42709639 24.4456141 10.41694427 C19.78472015 10.40815987 15.12382931 10.40992126 10.46292877 10.41030502 C2.63908459 10.40936879 -5.18472077 10.40068881 -13.00855255 10.38703537 C-22.06257245 10.37129383 -31.11654988 10.36603785 -40.17058247 10.36677092 C-48.87428229 10.36738052 -57.57796824 10.36228239 -66.28166389 10.35397911 C-69.98936636 10.35044272 -73.69706392 10.34861536 -77.40476799 10.3480854 C-81.76563835 10.34708339 -86.12647285 10.34099841 -90.48733139 10.33091927 C-92.09098783 10.32799041 -93.6946484 10.32676967 -95.29830742 10.3273468 C-97.48034071 10.32783506 -99.66227249 10.32220599 -101.84429169 10.31493759 C-103.06746943 10.31326175 -104.29064718 10.3115859 -105.55089092 10.30985928 C-108.39112091 10.18122482 -108.39112091 10.18122482 -110.39112091 9.18122482 C-110.14112091 6.80622482 -110.14112091 6.80622482 -109.39112091 4.18122482 C-104.22219195 0.04608166 -94.55356344 0.9929178 -88.18018341 0.86481857 C-86.7990461 0.83344299 -86.7990461 0.83344299 -85.39000702 0.80143356 C-82.26547194 0.7340384 -79.1408701 0.67529686 -76.01612091 0.61872482 C-74.92161621 0.5982106 -73.82711151 0.57769638 -72.69944 0.55656052 C-48.46839966 0.1197815 -24.23442069 0.03956203 0 0 Z " fill="#B7B9B8" transform="translate(283.39112091064453,381.81877517700195)"/>
</svg>
