<?xml version="1.0" encoding="UTF-8"?>
<svg version="1.1" xmlns="http://www.w3.org/2000/svg" width="505" height="494">
<path d="M0 0 C4.29325178 0.00705409 8.58643039 -0.00905256 12.87965989 -0.02199733 C21.26919491 -0.04353982 29.65859377 -0.04353557 38.04814731 -0.03537179 C44.87301134 -0.02904886 51.69783594 -0.03022975 58.52269959 -0.03664386 C59.49738841 -0.03754552 60.47207722 -0.03844717 61.47630206 -0.03937615 C63.4569451 -0.04122752 65.43758813 -0.04309009 67.41823114 -0.04496371 C85.95383244 -0.06150832 104.48935741 -0.05285158 123.0249541 -0.03597813 C139.94693721 -0.02128544 156.86874268 -0.03590947 173.79070292 -0.06474829 C191.20823332 -0.09420837 208.62568193 -0.10509526 226.04323614 -0.09556609 C228.01683901 -0.09454365 229.9904419 -0.09354903 231.96404481 -0.09258258 C232.93485152 -0.09210619 233.90565824 -0.0916298 234.90588333 -0.09113898 C241.71347728 -0.0889835 248.52099302 -0.09873259 255.32856965 -0.11335361 C263.63795545 -0.13095276 271.94711503 -0.13065159 280.25649224 -0.10800195 C284.48785947 -0.09692799 288.71882925 -0.09353977 292.95017838 -0.11230266 C322.03903064 -0.23158275 348.78457255 2.83691381 370.86546922 23.91255772 C388.24623357 42.07721347 397.88087745 61.75235316 397.76486802 87.16702855 C397.76904958 88.61037914 397.77453157 90.05372645 397.78118783 91.49706775 C397.79555367 95.43161377 397.7914257 99.36594874 397.78402102 103.30050588 C397.7792695 107.55626498 397.79181671 111.81197971 397.80203843 116.06772435 C397.81919347 124.39308324 397.82007324 132.71836655 397.81482553 141.04373852 C397.81077618 147.81440318 397.81223646 154.58504559 397.81757379 161.3557092 C397.81832221 162.32112891 397.81907063 163.28654862 397.81984173 164.28122347 C397.82137329 166.2427891 397.82291164 168.20435472 397.8244567 170.16592034 C397.83817001 188.54208364 397.83275244 206.91820431 397.82127149 225.29436662 C397.811342 242.08354839 397.82427696 258.87261992 397.84820568 275.66178469 C397.87262416 292.92544792 397.88219769 310.18905986 397.87555295 327.45274001 C397.87206663 337.13513163 397.87425389 346.81743851 397.89180398 356.49981701 C397.90656044 364.74280117 397.90711661 372.98564092 397.88973307 381.22862235 C397.88124867 385.42903216 397.87901035 389.62918437 397.89438462 393.82958043 C397.90831889 397.68448519 397.90335795 401.53891381 397.88414539 405.39379164 C397.87866044 407.42809962 397.89258363 409.46243238 397.90749949 411.49669307 C397.81226913 423.54475166 395.30715728 435.1326169 389.62718797 445.85005772 C389.11502732 446.84477086 389.11502732 446.84477086 388.59252 447.85957921 C385.50941914 453.65679655 381.72911466 458.62675203 377.37718797 463.53755772 C376.89894578 464.14599522 376.42070359 464.75443272 375.92796922 465.38130772 C362.91006533 481.79356477 342.59951568 490.96363882 322.37718797 494.53755772 C317.27987603 495.03378361 312.24021964 495.08009637 307.12157273 495.04549229 C305.65898133 495.05011608 304.19639459 495.0564788 302.73381734 495.06440127 C298.76456964 495.08091527 294.7957125 495.07293128 290.82646441 495.0604564 C286.52644226 495.05133372 282.22648311 495.06541108 277.92647386 495.07637608 C269.52242778 495.09408953 261.11852524 495.09035348 252.71447372 495.07872552 C245.87954992 495.06966307 239.04466612 495.06847931 232.20973802 495.07282078 C231.23404754 495.07343371 230.25835707 495.07404665 229.25310022 495.07467815 C227.27051845 495.07595716 225.2879367 495.07725401 223.30535495 495.07856852 C204.74886191 495.0899533 186.19244813 495.07689368 167.63596809 495.05536705 C151.74074911 495.03749799 135.84564702 495.04060269 119.95043015 495.0590421 C101.45678211 495.08048603 82.96320339 495.08885486 64.46954465 495.07659304 C62.49457575 495.07531895 60.51960684 495.07406146 58.54463792 495.07282078 C57.08735216 495.07189513 57.08735216 495.07189513 55.60062629 495.07095078 C48.78012761 495.06750843 41.9596732 495.07330207 35.13918138 495.082739 C26.81836254 495.0939996 18.49769449 495.09083402 10.17689276 495.06961602 C5.9378573 495.05915996 1.69907253 495.05488984 -2.53996062 495.06821263 C-6.43115619 495.08025653 -10.32187206 495.07337997 -14.21302497 495.05230242 C-16.26429148 495.04581761 -18.31559212 495.05866422 -20.366822 495.07253134 C-40.13868128 494.90821126 -59.37865528 488.20557016 -74.62281203 475.53755772 C-75.91638625 474.47021397 -75.91638625 474.47021397 -77.23609328 473.38130772 C-94.33599784 458.64269499 -106.10200161 437.72422247 -107.90118277 415.02561045 C-108.0083355 411.34225295 -108.02781646 407.66961752 -108.01049209 403.98474705 C-108.01467655 402.57409405 -108.02016011 401.16344441 -108.0268119 399.75280088 C-108.04113966 395.91784538 -108.03706197 392.08310709 -108.02964509 388.24814034 C-108.02488395 384.09599158 -108.03744915 379.94388785 -108.0476625 375.79175389 C-108.06479884 367.67321063 -108.06570123 359.55474494 -108.06044959 351.4361883 C-108.05639679 344.83244586 -108.0578646 338.22872622 -108.06319785 331.62498486 C-108.06394627 330.68261646 -108.0646947 329.74024807 -108.0654658 328.76932305 C-108.06699739 326.85446796 -108.06853573 324.93961287 -108.07008076 323.02475778 C-108.08378727 305.09489652 -108.07838127 287.16507898 -108.06689555 269.23521874 C-108.05696645 252.86137186 -108.06990156 236.48763804 -108.09382974 220.11380859 C-108.11826038 203.26817669 -108.1278188 186.42259736 -108.12117702 169.57694811 C-108.11769343 160.13261883 -108.11985977 150.68837644 -108.13742805 141.24406064 C-108.15219976 133.20393274 -108.15272093 125.16395292 -108.13535713 117.12382778 C-108.12688523 113.02846785 -108.1246033 108.93337185 -108.14000869 104.83802617 C-108.27416677 66.45184009 -108.27416677 66.45184009 -99.93531203 51.28755772 C-99.59354934 50.63899815 -99.25178664 49.99043858 -98.8996675 49.32222569 C-86.82052911 26.9536536 -69.16050665 11.85716657 -45.34691596 3.37003243 C-30.55082456 -0.7611125 -15.22929614 -0.04056458 0 0 Z " fill="#00005A" transform="translate(107.62281203269958,-0.5375577211380005)"/>
<path d="M0 0 C1.02814316 0.00222061 2.05628632 0.00444122 3.11558533 0.00672913 C4.27671341 0.00680466 5.43784149 0.00688019 6.63415527 0.00695801 C8.52943214 0.01469994 8.52943214 0.01469994 10.46299744 0.02259827 C12.39193092 0.02472069 12.39193092 0.02472069 14.35983276 0.02688599 C17.78427561 0.03071034 21.20867628 0.0405399 24.63310242 0.05158997 C28.12522308 0.06180587 31.61735053 0.06638399 35.10948181 0.07142639 C41.96561897 0.08216225 48.82172806 0.09923767 55.67784119 0.12025452 C57.1078712 3.91651209 58.53562155 7.71362329 59.96299744 11.51087952 C60.36345276 12.57387268 60.76390808 13.63686584 61.17649841 14.73207092 C64.16714539 22.69289561 67.01640199 30.6942359 69.79893494 38.72962952 C72.04755252 45.20898854 74.36525578 51.66351261 76.67784119 58.12025452 C79.53802922 66.1110616 82.38581037 74.10536593 85.17784119 82.12025452 C89.60196931 94.81386686 94.14769737 107.4641863 98.67784119 120.12025452 C100.40779555 124.95330648 102.13714069 129.7865751 103.86534119 134.62025452 C104.49315491 136.37619934 104.49315491 136.37619934 105.13365173 138.1676178 C107.54983314 144.93445344 109.94048963 151.7094576 112.30284119 158.49525452 C117.02160482 172.03846678 121.92705068 185.51463348 126.99034119 198.93275452 C132.67784119 214.06613892 132.67784119 214.06613892 132.67784119 220.12025452 C116.50784119 220.12025452 100.33784119 220.12025452 83.67784119 220.12025452 C73.64310034 192.21542724 73.64310034 192.21542724 69.55284119 180.05775452 C69.25820984 179.19126282 68.96357849 178.32477112 68.66001892 177.43202209 C68.39519714 176.63691223 68.13037537 175.84180237 67.85752869 175.02259827 C67.62791443 174.33673645 67.39830017 173.65087463 67.16172791 172.94422913 C66.67784119 171.12025452 66.67784119 171.12025452 66.67784119 168.12025452 C40.60784119 168.12025452 14.53784119 168.12025452 -12.32215881 168.12025452 C-12.65215881 169.44025452 -12.98215881 170.76025452 -13.32215881 172.12025452 C-13.85537639 173.84287763 -14.40234874 175.5612707 -14.95887756 177.27650452 C-15.44964783 178.79691345 -15.44964783 178.79691345 -15.95033264 180.34803772 C-16.29991028 181.42786926 -16.64948792 182.50770081 -17.00965881 183.62025452 C-19.09972458 190.08708639 -21.17848603 196.55208452 -23.07997131 203.07728577 C-23.34463196 203.98478577 -23.6092926 204.89228577 -23.88197327 205.82728577 C-24.37224571 207.52439493 -24.8555197 209.2235465 -25.33070374 210.92494202 C-25.55089172 211.68677795 -25.77107971 212.44861389 -25.99794006 213.23353577 C-26.18267883 213.89136047 -26.3674176 214.54918518 -26.55775452 215.22694397 C-28.18118501 219.24792879 -28.18118501 219.24792879 -30.32215881 221.12025452 C-33.62615053 221.69415781 -36.8960192 221.58378588 -40.24012756 221.51087952 C-41.2125087 221.50521973 -42.18488983 221.49955994 -43.18673706 221.49372864 C-46.29487681 221.47132381 -49.40186705 221.42111932 -52.50965881 221.37025452 C-54.61576197 221.35019485 -56.72188317 221.33194315 -58.82801819 221.31556702 C-63.99317518 221.27144544 -69.15747206 221.20238912 -74.32215881 221.12025452 C-75.32832539 217.60248186 -75.1743859 215.86985641 -73.91590881 212.40150452 C-73.58784241 211.47974426 -73.259776 210.55798401 -72.92176819 209.60829163 C-72.55889709 208.62223938 -72.196026 207.63618713 -71.82215881 206.62025452 C-71.07208565 204.52783282 -70.32208692 202.43538445 -69.57215881 200.34291077 C-69.19188538 199.29377502 -68.81161194 198.24463928 -68.41981506 197.16371155 C-67.1381218 193.60997752 -65.89582386 190.04366007 -64.65931702 186.47401428 C-61.90086169 178.51238337 -59.03815679 170.59251551 -56.13465881 162.68275452 C-53.58958286 155.74475825 -51.21451105 148.81228848 -49.11512756 141.72572327 C-48.23439698 138.83189421 -47.20147061 136.03077173 -46.10340881 133.21400452 C-45.09804041 130.51961721 -44.21529879 127.79130414 -43.32215881 125.05775452 C-42.26478515 121.84558151 -41.17591867 118.78512085 -39.82215881 115.68275452 C-38.01967033 111.40184436 -36.70933836 107.04553248 -35.38465881 102.59681702 C-32.98854661 94.75659693 -30.25733557 87.03068997 -27.52137756 79.30384827 C-27.16251968 78.28911942 -26.8036618 77.27439056 -26.43392944 76.22891235 C-25.67713264 74.08992017 -24.91989769 71.95108296 -24.1622467 69.81239319 C-23.02180118 66.59204171 -21.88382082 63.3708264 -20.74598694 60.14955139 C-17.11469391 49.88562031 -13.44806915 39.6431459 -9.55506897 29.47523499 C-6.38329507 20.84424153 -3.96939984 12.35911465 -3.49794006 3.13197327 C-3.24348576 0.21988513 -2.93265911 0.15186967 0 0 Z " fill="#9897FD" transform="translate(139.32215881347656,127.87974548339844)"/>
<path d="M0 0 C12.9113758 10.74320225 18.77819469 24.19238027 20.78661728 40.6130085 C21.20097753 45.24822161 21.13832258 49.89045908 21.12939453 54.54077148 C21.13202301 56.23723564 21.13202301 56.23723564 21.13470459 57.9679718 C21.13908673 61.68569497 21.13619933 65.40337015 21.1328125 69.12109375 C21.13348625 71.70801299 21.13445688 74.29493217 21.13571167 76.8818512 C21.13718343 82.29095118 21.13514545 87.70003321 21.13037109 93.10913086 C21.12491067 99.3679232 21.12670708 105.62668305 21.1321975 111.88547462 C21.13727233 117.91149372 21.13674866 123.93749686 21.13381577 129.96351814 C21.13314671 132.52770047 21.13397416 135.09188362 21.13629532 137.65606499 C21.13881917 141.22572955 21.13498596 144.79533045 21.12939453 148.36499023 C21.13141876 149.43351227 21.13344299 150.5020343 21.13552856 151.60293579 C21.13270874 152.56879105 21.12988892 153.5346463 21.12698364 154.5297699 C21.1264181 155.79593722 21.1264181 155.79593722 21.12584114 157.08768368 C21 159 21 159 20 160 C18.62390118 160.09795311 17.24286118 160.12798088 15.86328125 160.12939453 C14.54686646 160.13412277 14.54686646 160.13412277 13.20385742 160.13894653 C12.24970947 160.1369223 11.29556152 160.13489807 10.3125 160.1328125 C8.85324097 160.13424759 8.85324097 160.13424759 7.36450195 160.13571167 C5.303222 160.13639358 3.24193992 160.13453853 1.18066406 160.13037109 C-1.98637688 160.125023 -5.153276 160.13031572 -8.3203125 160.13671875 C-10.31770865 160.13605797 -12.31510471 160.13477681 -14.3125 160.1328125 C-15.26664795 160.13483673 -16.2207959 160.13686096 -17.20385742 160.13894653 C-18.08146729 160.13579437 -18.95907715 160.13264221 -19.86328125 160.12939453 C-20.63969971 160.12859894 -21.41611816 160.12780334 -22.21606445 160.12698364 C-24 160 -24 160 -25 159 C-25.10093201 157.64168002 -25.13350404 156.27819494 -25.13803101 154.9161377 C-25.14348434 154.03586914 -25.14893768 153.15560059 -25.15455627 152.24865723 C-25.1555986 151.27521362 -25.15664093 150.30177002 -25.15771484 149.29882812 C-25.16279556 148.27926025 -25.16787628 147.25969238 -25.17311096 146.20922852 C-25.18384317 143.98569102 -25.19245207 141.76214254 -25.19923019 139.53858948 C-25.21098886 136.01586211 -25.23043663 132.49325903 -25.25234985 128.97058105 C-25.3140483 118.95113283 -25.36792333 108.93169476 -25.40136719 98.91210938 C-25.42235512 92.7900396 -25.45770001 86.66819196 -25.50212479 80.54624939 C-25.51626131 78.21478397 -25.5250019 75.88327919 -25.52817917 73.55177307 C-25.53310742 70.27972335 -25.55631821 67.00825834 -25.58349609 63.73632812 C-25.58048996 62.77907837 -25.57748383 61.82182861 -25.5743866 60.83557129 C-25.69458063 51.05331559 -28.26306742 43.20998596 -35 36 C-42.71476625 29.98248233 -50.59270954 30.4816391 -60 31 C-66.94301632 32.10712963 -74.05179044 34.87936846 -79 40 C-80.30289108 43.85930168 -80.18886567 47.54556836 -80.09765625 51.58911133 C-80.10711777 52.74905609 -80.11657928 53.90900085 -80.12632751 55.10409546 C-80.14721417 58.93128566 -80.10494852 62.75506367 -80.0625 66.58203125 C-80.06561414 69.23917294 -80.07234316 71.8960546 -80.08398438 74.55314636 C-80.10382831 80.82785708 -80.0788916 87.10153058 -80.0370121 93.3761012 C-79.98217064 101.91253376 -79.99102337 110.44884876 -79.99772835 118.98541391 C-79.99927058 121.03207987 -80.00058101 123.07874575 -80.00170898 125.12541199 C-80.00210584 125.78857994 -80.00250269 126.4517479 -80.00291157 127.13501185 C-80.00400636 131.72250389 -79.98776863 136.30974074 -79.96508789 140.89717102 C-79.96054092 142.10901566 -79.95599396 143.32086029 -79.9513092 144.56942749 C-79.94230878 146.84308312 -79.92942749 149.11672771 -79.91209412 151.39033508 C-79.9088765 152.38432312 -79.90565887 153.37831116 -79.90234375 154.40242004 C-79.89710693 155.27125226 -79.89187012 156.14008448 -79.88647461 157.03524494 C-80 159 -80 159 -81 160 C-82.37609882 160.09795311 -83.75713882 160.12798088 -85.13671875 160.12939453 C-86.45313354 160.13412277 -86.45313354 160.13412277 -87.79614258 160.13894653 C-88.75029053 160.1369223 -89.70443848 160.13489807 -90.6875 160.1328125 C-92.14675903 160.13424759 -92.14675903 160.13424759 -93.63549805 160.13571167 C-95.696778 160.13639358 -97.75806008 160.13453853 -99.81933594 160.13037109 C-102.98637688 160.125023 -106.153276 160.13031572 -109.3203125 160.13671875 C-111.31770865 160.13605797 -113.31510471 160.13477681 -115.3125 160.1328125 C-116.26664795 160.13483673 -117.2207959 160.13686096 -118.20385742 160.13894653 C-119.08146729 160.13579437 -119.95907715 160.13264221 -120.86328125 160.12939453 C-121.63969971 160.12859894 -122.41611816 160.12780334 -123.21606445 160.12698364 C-125 160 -125 160 -126 159 C-126.10922433 156.84871846 -126.14692388 154.69380256 -126.15821838 152.53977966 C-126.16315636 151.85697199 -126.16809434 151.17416432 -126.17318195 150.47066551 C-126.18862968 148.16591175 -126.19693711 145.86118599 -126.20532227 143.55639648 C-126.21489509 141.91094717 -126.22490481 140.26550034 -126.23532104 138.62005615 C-126.26244081 134.1388692 -126.28341195 129.65767163 -126.30332303 125.17644763 C-126.32513912 120.49855776 -126.35254915 115.82070084 -126.37937927 111.14283752 C-126.42936554 102.27827221 -126.47428227 93.41368867 -126.51740164 84.54908758 C-126.56672341 74.45975457 -126.62166025 64.37045462 -126.67708123 54.28115356 C-126.79099233 33.52079832 -126.89707003 12.76041279 -127 -8 C-113.8 -8 -100.6 -8 -87 -8 C-83 1 -83 1 -83 5 C-82.14019531 4.40832031 -81.28039062 3.81664062 -80.39453125 3.20703125 C-72.59865185 -2.04840542 -65.04564046 -6.18580075 -56 -9 C-55.23042969 -9.24492187 -54.46085937 -9.48984375 -53.66796875 -9.7421875 C-35.79971727 -14.31095233 -14.74006749 -11.36161399 0 0 Z " fill="#9897FD" transform="translate(422,189)"/>
<path d="M0 0 C1.7969718 2.6954577 2.50529696 4.32005125 3.33203125 7.359375 C3.57066895 8.22030762 3.80930664 9.08124023 4.05517578 9.96826172 C4.30509277 10.88623535 4.55500977 11.80420898 4.8125 12.75 C6.60193607 19.18472874 8.45854366 25.55672795 10.625 31.875 C12.72758422 38.01427636 14.4335457 44.17474234 16.0078125 50.46484375 C16.9072909 53.66967819 17.97229107 56.69699017 19.16601562 59.79760742 C20.77903084 64.05727084 22.22718903 68.37363773 23.6875 72.6875 C24.00783203 73.61111328 24.32816406 74.53472656 24.65820312 75.48632812 C24.96048828 76.38158203 25.26277344 77.27683594 25.57421875 78.19921875 C25.84838623 79.00190186 26.12255371 79.80458496 26.4050293 80.6315918 C27 83 27 83 27 88 C9.84 88 -7.32 88 -25 88 C-23.89385965 80.25701754 -23.89385965 80.25701754 -22.1875 76.0625 C-20.48510843 71.58380677 -19.22227527 67.09465949 -18.125 62.4375 C-16.75384669 56.68043149 -15.11106187 51.0963295 -13.1875 45.5 C-10.704674 38.26088809 -8.45432654 30.97231447 -6.3125 23.625 C-5.88457153 22.16416992 -5.88457153 22.16416992 -5.44799805 20.67382812 C-3.46536232 13.82187616 -1.68787852 6.9301498 0 0 Z " fill="#03035D" transform="translate(165,166)"/>
<path d="M0 0 C2 3 2 3 2 8 C-14.17 8 -30.34 8 -47 8 C-47 7.67 -47 7.34 -47 7 C-32.15 7 -17.3 7 -2 7 C-2.495 4.525 -2.495 4.525 -3 2 C-2.34 2.33 -1.68 2.66 -1 3 C-0.67 2.01 -0.34 1.02 0 0 Z " fill="#8D8CEF" transform="translate(270,340)"/>
<path d="M0 0 C5.96392565 3.60974447 10.89628532 8.27956824 16 13 C14.02 13.99 14.02 13.99 12 15 C12 14.01 12 13.02 12 12 C10.68 12.33 9.36 12.66 8 13 C7.34 11.35 6.68 9.7 6 8 C3.69 8 1.38 8 -1 8 C-0.01 6.35 0.98 4.7 2 3 C1.34 3 0.68 3 0 3 C0 2.01 0 1.02 0 0 Z " fill="#101064" transform="translate(467,15)"/>
<path d="M0 0 C0.66 0.66 1.32 1.32 2 2 C1.59992578 7.1373167 0.17669914 12.3356447 -2 17 C-2.33 17 -2.66 17 -3 17 C-3.3540919 10.48208608 -3.03901852 5.82478551 0 0 Z " fill="#15155D" transform="translate(502,422)"/>
<path d="M0 0 C2.94721162 2.74395564 5.19168608 5.38337216 7 9 C6.67 9.66 6.34 10.32 6 11 C5.01 10.67 4.02 10.34 3 10 C3.33 9.01 3.66 8.02 4 7 C2.35 6.67 0.7 6.34 -1 6 C-0.67 4.02 -0.34 2.04 0 0 Z " fill="#1A1A63" transform="translate(489,37)"/>
<path d="M0 0 C-0.125 1.8125 -0.125 1.8125 -1 4 C-3.9375 5.625 -3.9375 5.625 -7 7 C-7.66 7.66 -8.32 8.32 -9 9 C-9.33 8.01 -9.66 7.02 -10 6 C-8.71283353 4.99421411 -7.42011342 3.99553202 -6.125 3 C-5.40570313 2.443125 -4.68640625 1.88625 -3.9453125 1.3125 C-2 0 -2 0 0 0 Z " fill="#1F1F60" transform="translate(39,16)"/>
<path d="M0 0 C0.33 0.66 0.66 1.32 1 2 C-0.21484375 4.8203125 -0.21484375 4.8203125 -1.9375 8.125 C-2.50339844 9.22070312 -3.06929687 10.31640625 -3.65234375 11.4453125 C-4.09707031 12.28835937 -4.54179687 13.13140625 -5 14 C-5.66 14 -6.32 14 -7 14 C-5.53967505 8.68972746 -3.01679014 4.53669968 0 0 Z " fill="#1C1B5E" transform="translate(14,40)"/>
<path d="M0 0 C5.75 3.625 5.75 3.625 8 7 C6.68 7.33 5.36 7.66 4 8 C4 7.01 4 6.02 4 5 C2.68 5.33 1.36 5.66 0 6 C-0.38218767 4.34385343 -0.71395102 2.67542976 -1 1 C-0.67 0.67 -0.34 0.34 0 0 Z " fill="#1A1A60" transform="translate(475,22)"/>
<path d="M0 0 C0.66 0.33 1.32 0.66 2 1 C-0.97 4.96 -0.97 4.96 -4 9 C-4.66 7.68 -5.32 6.36 -6 5 C-4.68 3.68 -3.36 2.36 -2 1 C-1.34 1.33 -0.68 1.66 0 2 C0 1.34 0 0.68 0 0 Z " fill="#110F5B" transform="translate(490,453)"/>
<path d="M0 0 C-1.78710586 0.86366822 -3.5798465 1.71568594 -5.375 2.5625 C-6.37273437 3.03816406 -7.37046875 3.51382812 -8.3984375 4.00390625 C-9.25695312 4.33261719 -10.11546875 4.66132813 -11 5 C-11.66 4.67 -12.32 4.34 -13 4 C-12.67 3.01 -12.34 2.02 -12 1 C-10.0390625 0.234375 -10.0390625 0.234375 -7.625 -0.25 C-6.83351563 -0.42015625 -6.04203125 -0.5903125 -5.2265625 -0.765625 C-3 -1 -3 -1 0 0 Z " fill="#23226D" transform="translate(462,483)"/>
<path d="M0 0 C0.33 0.66 0.66 1.32 1 2 C1.66 2 2.32 2 3 2 C3.33 1.34 3.66 0.68 4 0 C4.66 1.32 5.32 2.64 6 4 C5 5 5 5 1.9375 5.0625 C0.4834375 5.0315625 0.4834375 5.0315625 -1 5 C-0.67 3.35 -0.34 1.7 0 0 Z " fill="#8F8FF3" transform="translate(65,343)"/>
<path d="M0 0 C0.33 0 0.66 0 1 0 C1.33 3.3 1.66 6.6 2 10 C1.01 10.495 1.01 10.495 0 11 C-0.19406478 9.35492782 -0.38007935 7.70890406 -0.5625 6.0625 C-0.66691406 5.14597656 -0.77132813 4.22945313 -0.87890625 3.28515625 C-0.91886719 2.53105469 -0.95882813 1.77695312 -1 1 C-0.67 0.67 -0.34 0.34 0 0 Z " fill="#27276D" transform="translate(1,412)"/>
<path d="M0 0 C3.465 1.485 3.465 1.485 7 3 C5.68 3.99 4.36 4.98 3 6 C1.5 4.6875 1.5 4.6875 0 3 C0 2.01 0 1.02 0 0 Z " fill="#201F64" transform="translate(455,8)"/>
<path d="M0 0 C1.32 0.33 2.64 0.66 4 1 C4.33 3.31 4.66 5.62 5 8 C2.74754119 5.31158141 1.11786042 3.35358125 0 0 Z " fill="#18185E" transform="translate(9,445)"/>
<path d="M0 0 C0 3.61537605 -0.89229241 5.11165997 -3 8 C-3.99 8 -4.98 8 -6 8 C-4.55746343 4.63408134 -2.66735273 2.48952921 0 0 Z " fill="#2D2E68" transform="translate(26,25)"/>
<path d="M0 0 C1.98 0 3.96 0 6 0 C5.67 1.65 5.34 3.3 5 5 C3.35 3.35 1.7 1.7 0 0 Z " fill="#171661" transform="translate(25,467)"/>
<path d="M0 0 C0.99 0 1.98 0 3 0 C4.75 2.3125 4.75 2.3125 6 5 C5.67 5.99 5.34 6.98 5 8 C4.16382818 6.8562364 3.33113541 5.70992861 2.5 4.5625 C2.0359375 3.92441406 1.571875 3.28632813 1.09375 2.62890625 C0 1 0 1 0 0 Z " fill="#1B1B59" transform="translate(14,453)"/>
<path d="M0 0 C-1 3 -1 3 -3.0625 4.1875 C-3.701875 4.455625 -4.34125 4.72375 -5 5 C-5 4.34 -5 3.68 -5 3 C-5.66 2.67 -6.32 2.34 -7 2 C-4.35261084 0.5393715 -3.10551666 0 0 0 Z " fill="#100F62" transform="translate(57,6)"/>
</svg>
