<?xml version="1.0" encoding="UTF-8"?>
<svg version="1.1" xmlns="http://www.w3.org/2000/svg" width="939" height="768">
<path d="M0 0 C2.90375577 2.29720895 5.84323627 4.54650326 8.78369141 6.79638672 C10.86712495 8.40042324 12.95045929 10.00458862 15.03369141 11.60888672 C17.20013792 13.27583964 19.36691637 14.94236085 21.53369141 16.60888672 C22.61703079 17.44221219 23.70036413 18.27554552 24.78369141 19.10888672 C25.58806641 19.72763672 25.58806641 19.72763672 26.40869141 20.35888672 C31.2836914 24.10888671 31.2836914 24.10888671 32.90771484 25.3581543 C33.9942792 26.19396048 35.08086786 27.02973507 36.16748047 27.86547852 C38.82657688 29.91072308 41.4851908 31.95658663 44.14306641 34.00341797 C50.26472597 38.71648672 56.39529552 43.4176327 62.53369141 48.10888672 C69.71150233 53.59451114 76.87614187 59.09685423 84.03369141 64.60888672 C86.20013792 66.27583964 88.36691637 67.94236085 90.53369141 69.60888672 C91.61703079 70.44221219 92.70036413 71.27554552 93.78369141 72.10888672 C94.31994141 72.52138672 94.85619141 72.93388672 95.40869141 73.35888672 C113.28369141 87.10888672 113.28369141 87.10888672 114.90771484 88.3581543 C115.9942792 89.19396048 117.08086786 90.02973507 118.16748047 90.86547852 C120.82657688 92.91072308 123.4851908 94.95658663 126.14306641 97.00341797 C132.26472597 101.71648672 138.39529552 106.4176327 144.53369141 111.10888672 C151.71150233 116.59451114 158.87614187 122.09685423 166.03369141 127.60888672 C168.20013792 129.27583964 170.36691637 130.94236085 172.53369141 132.60888672 C173.61703079 133.44221219 174.70036413 134.27554552 175.78369141 135.10888672 C176.31994141 135.52138672 176.85619141 135.93388672 177.40869141 136.35888672 C208.2836914 160.10888672 208.2836914 160.10888672 209.90771484 161.3581543 C210.9942792 162.19396048 212.08086786 163.02973507 213.16748047 163.86547852 C215.82657688 165.91072308 218.4851908 167.95658663 221.14306641 170.00341797 C227.26472597 174.71648672 233.39529552 179.4176327 239.53369141 184.10888672 C245.6727208 188.8006249 251.80570046 193.49992604 257.92431641 198.21826172 C260.03384776 199.84016271 262.14705708 201.45534079 264.26806641 203.06201172 C272.07994772 208.99479047 279.60463052 215.20418095 287.03369141 221.60888672 C287.73880859 222.21216797 288.44392578 222.81544922 289.17041016 223.43701172 C291.14348543 225.14121929 293.09244965 226.86846307 295.03369141 228.60888672 C295.51306152 229.03782227 295.99243164 229.46675781 296.48632812 229.90869141 C303.77958184 236.45909319 310.64508219 243.1555093 317.03369141 250.60888672 C317.87158203 251.55892578 318.70947266 252.50896484 319.57275391 253.48779297 C330.73082101 266.25410189 340.5818497 280.04142535 348.97753906 294.77001953 C350.04166029 296.62276134 351.13458695 298.45593797 352.23291016 300.28857422 C371.47579081 332.83273319 382.03465846 370.19164025 386.03369141 407.60888672 C386.16517578 408.79611328 386.29666016 409.98333984 386.43212891 411.20654297 C392.79881825 482.01445286 368.8219829 553.67678119 323.97509766 608.37451172 C321.0677127 611.85251841 318.07100422 615.2441703 315.03369141 618.60888672 C314.48745117 619.21684082 313.94121094 619.82479492 313.37841797 620.45117188 C301.4711017 633.63888125 288.83990583 645.62371492 274.67578125 656.36083984 C273.13641014 657.53081681 271.6099411 658.71771477 270.08447266 659.90576172 C225.09626787 694.52151547 169.15635258 716.46563043 113.03369141 723.60888672 C112.36323792 723.69502228 111.69278442 723.78115784 111.00201416 723.86990356 C97.4362968 725.56015827 83.97123455 725.95107565 70.30908203 725.92456055 C66.93309906 725.9214095 63.55800402 725.9449375 60.18212891 725.97021484 C39.37167105 726.03162353 18.87670643 723.96795796 -1.52880859 719.85888672 C-2.16719666 719.73194427 -2.80558472 719.60500183 -3.46331787 719.47421265 C-58.17369683 708.54203327 -109.95699006 684.53160685 -151.96630859 647.60888672 C-152.66498047 647.00947266 -153.36365234 646.41005859 -154.08349609 645.79248047 C-156.06502359 644.08639351 -158.01902646 642.35399202 -159.96630859 640.60888672 C-160.43504395 640.19058594 -160.9037793 639.77228516 -161.38671875 639.34130859 C-184.67542608 618.48228577 -203.54993071 593.77248536 -218.96630859 566.60888672 C-219.47387695 565.72136719 -219.47387695 565.72136719 -219.99169922 564.81591797 C-243.06794735 524.13465453 -253.34702678 478.0937618 -249.96630859 431.60888672 C-250.86091797 432.38232422 -251.75552734 433.15576172 -252.67724609 433.95263672 C-258.88472094 439.30521569 -265.11434272 444.60177645 -271.54443359 449.68701172 C-276.062926 453.27265408 -280.50699567 456.95012366 -284.96630859 460.60888672 C-286.79941021 462.10916988 -288.63274287 463.6091708 -290.46630859 465.10888672 C-291.38154297 465.85783203 -292.29677734 466.60677734 -293.23974609 467.37841797 C-294.99448644 468.81388607 -296.74966014 470.24882467 -298.50537109 471.68310547 C-304.16971649 476.3121249 -309.82071413 480.95702578 -315.46630859 485.60888672 C-321.95535861 490.95573876 -328.45475692 496.28944989 -334.96630859 501.60888672 C-336.79975895 503.10874367 -338.63309031 504.60874612 -340.46630859 506.10888672 C-344.13297526 509.10888672 -347.79964193 512.10888672 -351.46630859 515.10888672 C-352.38154297 515.85783203 -353.29677734 516.60677734 -354.23974609 517.37841797 C-355.99448644 518.81388607 -357.74966014 520.24882467 -359.50537109 521.68310547 C-365.16971649 526.3121249 -370.82071413 530.95702578 -376.46630859 535.60888672 C-382.95535861 540.95573876 -389.45475692 546.28944989 -395.96630859 551.60888672 C-397.79975895 553.10874367 -399.63309031 554.60874612 -401.46630859 556.10888672 C-402.37896484 556.85525391 -403.29162109 557.60162109 -404.23193359 558.37060547 C-406.01458483 559.82983284 -407.79590135 561.29069274 -409.57568359 562.75341797 C-411.36874071 564.22552847 -413.16576373 565.69281902 -414.96630859 567.15576172 C-417.14960157 568.94105858 -419.31199114 570.74255013 -421.46630859 572.56201172 C-439.98253056 588.03002474 -461.25490627 597.74933625 -485.96630859 595.60888672 C-500.82978214 593.45552129 -513.50927961 587.57492339 -522.96630859 575.60888672 C-527.71476488 568.31017452 -531.20706354 560.33330258 -531.96630859 551.60888672 C-532.04751953 550.71169922 -532.12873047 549.81451172 -532.21240234 548.89013672 C-533.01475677 530.80069156 -525.05481173 511.88850023 -512.96630859 498.60888672 C-512.32048828 497.87154297 -511.67466797 497.13419922 -511.00927734 496.37451172 C-503.45729694 488.28027003 -494.42847823 482.06060421 -485.54589844 475.52587891 C-481.57437701 472.57448895 -477.67442131 469.53439007 -473.77880859 466.48388672 C-465.91840115 460.34098045 -458.00782541 454.26702463 -450.07519531 448.21777344 C-446.53643978 445.51802825 -443.00158136 442.81318983 -439.46630859 440.10888672 C-438.0496604 439.02552922 -436.63299374 437.94219588 -435.21630859 436.85888672 C-434.16443359 436.05451172 -434.16443359 436.05451172 -433.09130859 435.23388672 C-362.96630859 381.60888672 -292.84130859 327.98388672 -205.71630859 261.35888672 C-205.01401123 260.82183105 -204.31171387 260.28477539 -203.58813477 259.73144531 C-202.18206603 258.6562258 -200.77597902 257.58103019 -199.36987305 256.50585938 C-195.66590193 253.67358795 -191.96231923 250.84081048 -188.25927734 248.00732422 C-187.48841797 247.41757812 -186.71755859 246.82783203 -185.92333984 246.22021484 C-184.44796207 245.09146197 -182.97269549 243.96256374 -181.49755859 242.83349609 C-180.49789062 242.06875977 -180.49789062 242.06875977 -179.47802734 241.28857422 C-178.89496826 240.84239746 -178.31190918 240.3962207 -177.71118164 239.93652344 C-175.80310162 238.48470601 -173.88497069 237.04667953 -171.96630859 235.60888672 C-172.93960995 235.60649837 -173.9129113 235.60411001 -174.91570663 235.60164928 C-198.62870364 235.54278205 -222.34159962 235.46685461 -246.05448532 235.37317181 C-257.52199127 235.32825949 -268.98946647 235.28883428 -280.45703125 235.26245117 C-290.45539662 235.23943415 -300.45366435 235.20599473 -310.45195222 235.16018516 C-315.74302496 235.13630294 -321.03400129 235.1175414 -326.32512665 235.11127281 C-331.31231068 235.10519933 -336.29924817 235.08511799 -341.28634071 235.05461121 C-343.10992276 235.04586716 -344.93353707 235.04210081 -346.75713921 235.04387856 C-363.01130249 235.05471437 -377.85279493 233.43531792 -390.34130859 221.85888672 C-398.27995277 213.38230567 -400.30135729 204.46817228 -400.17333984 193.20263672 C-399.4419926 180.50755241 -392.55621564 169.22846285 -383.42333984 160.64013672 C-379.20975847 157.15673081 -374.70720006 154.31594283 -369.96630859 151.60888672 C-369.29986328 151.21958984 -368.63341797 150.83029297 -367.94677734 150.42919922 C-358.35353946 145.21855632 -347.30460513 142.49591173 -336.43397713 142.47022152 C-334.47754805 142.46200985 -334.47754805 142.46200985 -332.48159516 142.4536323 C-331.04112576 142.45255621 -329.60065629 142.4515715 -328.16018677 142.45066833 C-326.62470619 142.44610045 -325.08922686 142.4411001 -323.55374897 142.43570477 C-319.33732388 142.42214005 -315.12090685 142.41471012 -310.90446568 142.40827811 C-306.3564618 142.40026685 -301.80847463 142.38657157 -297.26048279 142.37356567 C-289.38174081 142.35181324 -281.50299714 142.33366423 -273.62424088 142.31796074 C-262.23287311 142.2952509 -250.84152386 142.2671096 -239.45017181 142.23764146 C-220.96857975 142.18997922 -202.48698011 142.14671132 -184.00537109 142.10620117 C-166.05191458 142.06683929 -148.09846479 142.0254114 -130.14501953 141.98120117 C-128.485121 141.97711476 -128.485121 141.97711476 -126.79168917 141.9729458 C-121.24022246 141.95926621 -115.68875585 141.94554596 -110.13728929 141.93180549 C-64.08030975 141.8178622 -18.02331566 141.71104809 28.03369141 141.60888672 C27.10137695 140.88080811 26.1690625 140.15272949 25.20849609 139.40258789 C23.95746854 138.42324221 22.70649487 137.44382771 21.45556641 136.46435547 C20.53880127 135.74886536 20.53880127 135.74886536 19.60351562 135.0189209 C14.86049849 131.30188666 10.24644625 127.4518509 5.66482544 123.53872681 C1.66334581 120.12576038 -2.40887289 116.8185112 -6.52880859 113.55029297 C-10.00374065 110.78259868 -13.43346145 107.96080287 -16.86865234 105.14404297 C-20.45536951 102.2054004 -24.05444422 99.28201476 -27.65380859 96.35888672 C-28.33266113 95.8075708 -29.01151367 95.25625488 -29.7109375 94.68823242 C-31.1025004 93.55822061 -32.49410225 92.42825677 -33.88574219 91.29833984 C-37.24656288 88.56929981 -40.6063975 85.83904647 -43.96630859 83.10888672 C-45.29963695 82.02554725 -46.63297028 80.94221393 -47.96630859 79.85888672 C-50.63297526 77.69222005 -53.29964193 75.52555339 -55.96630859 73.35888672 C-56.62679199 72.82231445 -57.28727539 72.28574219 -57.96777344 71.73291016 C-59.29650301 70.65317535 -60.62495515 69.57309903 -61.953125 68.49267578 C-65.35466209 65.72637053 -68.76131748 62.96678257 -72.17724609 60.21826172 C-99.67417394 38.06956 -99.67417394 38.06956 -101.96630859 26.60888672 C-102.94538699 15.23377586 -100.15475845 6.46833589 -92.96630859 -2.39111328 C-66.20294988 -31.38475189 -27.07534534 -21.48376501 0 0 Z " fill="#EA7600" transform="translate(541.96630859375,26.39111328125)"/>
<path d="M0 0 C9.46426787 8.58202957 17.58505594 17.71432864 25.20703125 27.92578125 C25.84382813 28.76753906 26.480625 29.60929687 27.13671875 30.4765625 C52.83797991 65.71216247 61.94933227 109.21780691 55.76953125 152.11328125 C50.35149458 185.35675192 34.29513434 216.37565916 10.75 240.35205078 C9.15795921 241.97583162 7.58863222 243.61969154 6.01953125 245.265625 C-28.00841865 280.57726095 -78.28752056 301.01605502 -127.07524109 302.19018555 C-130.44260398 302.23928009 -133.80882965 302.2501621 -137.17651367 302.24145508 C-139.72553075 302.23828739 -142.27338984 302.2619069 -144.82226562 302.28710938 C-156.09587532 302.33064573 -166.75232179 301.17060156 -177.79296875 298.92578125 C-178.80061279 298.72702393 -179.80825684 298.5282666 -180.84643555 298.32348633 C-217.90611319 290.63540756 -251.00369074 273.4236838 -278.36083984 247.29052734 C-279.73995928 245.97629658 -281.13532088 244.67917464 -282.53125 243.3828125 C-300.12770459 226.55031397 -313.97895798 204.99571782 -321.79296875 181.92578125 C-322.17509521 180.81638184 -322.17509521 180.81638184 -322.56494141 179.68457031 C-323.38798429 177.27050964 -324.18915794 174.85041998 -324.98046875 172.42578125 C-325.21878418 171.70310059 -325.45709961 170.98041992 -325.70263672 170.23583984 C-330.21687936 155.85678908 -331.33543699 142.25301604 -331.23046875 127.30078125 C-331.22709503 126.37069244 -331.22372131 125.44060364 -331.22024536 124.48233032 C-331.14898713 110.93758332 -330.67175318 97.99057416 -326.79296875 84.92578125 C-326.55690918 84.08466797 -326.32084961 83.24355469 -326.07763672 82.37695312 C-318.00392012 54.07990385 -302.75776019 30.29513088 -282.79296875 8.92578125 C-282.03371094 8.11238281 -281.27445312 7.29898438 -280.4921875 6.4609375 C-253.67518573 -21.3216519 -217.08573023 -38.66339473 -179.79296875 -47.07421875 C-178.60501709 -47.34322998 -178.60501709 -47.34322998 -177.39306641 -47.61767578 C-115.49520437 -60.67678893 -46.96471972 -41.80690205 0 0 Z " fill="#FEFEFE" transform="translate(746.79296875,311.07421875)"/>
<path d="M0 0 C0.81984375 0.66773438 1.6396875 1.33546875 2.484375 2.0234375 C22.02798649 18.53441962 35.35232006 43.78188607 39 69 C39.76014817 82.42467745 39.98341367 96.05849475 36 109 C35.77183594 109.79535156 35.54367187 110.59070313 35.30859375 111.41015625 C34.61873372 113.64530274 33.8345735 115.81493483 33 118 C32.67515625 118.886875 32.3503125 119.77375 32.015625 120.6875 C20.46745732 150.42798664 -2.72743117 171.52539432 -31.31518555 184.609375 C-63.37242519 198.67094966 -101.21701265 199.36201202 -133.83203125 186.76171875 C-149.85691174 180.19489021 -163.42168777 170.86195944 -176 159 C-176.67675781 158.38769531 -177.35351562 157.77539062 -178.05078125 157.14453125 C-192.57618157 143.49240149 -202.36271945 124.24087124 -207 105 C-207.22300781 104.12472656 -207.44601562 103.24945313 -207.67578125 102.34765625 C-213.35018587 75.44248605 -206.81165272 47.6971684 -192.015625 24.91015625 C-177.82883316 4.42728819 -159.64874977 -9.86876628 -137 -20 C-135.92363281 -20.48210937 -134.84726562 -20.96421875 -133.73828125 -21.4609375 C-89.69949096 -39.69531742 -36.16177093 -30.33241441 0 0 Z " fill="#265787" transform="translate(695,346)"/>
</svg>
