<?xml version="1.0" encoding="UTF-8"?>
<svg version="1.1" xmlns="http://www.w3.org/2000/svg" width="1452" height="2050">
<path d="M0 0 C479.16 0 958.32 0 1452 0 C1452 13.49999817 1452 13.49999817 1451.59109789 18.07067758 C1451.49963033 19.1222148 1451.40816276 20.17375203 1451.31392345 21.25715402 C1451.16028036 22.93089442 1451.16028036 22.93089442 1451.00353336 24.63844776 C1450.84173301 26.47161755 1450.84173301 26.47161755 1450.67666396 28.34182107 C1450.37759394 31.71802634 1450.07379776 35.09374423 1449.76795731 38.46933876 C1449.43495952 42.15791541 1449.10818844 45.8470447 1448.78060478 49.53610539 C1448.20447696 56.0144723 1447.62440726 62.49247683 1447.04175186 68.97025979 C1446.1711198 78.6499181 1445.30664254 88.33011935 1444.44338129 98.01043744 C1442.97686186 114.45352785 1441.50535439 130.89616841 1440.03112984 147.33856964 C1438.5455909 163.90743811 1437.06242658 180.4765166 1435.58219719 197.04586029 C1435.48905031 198.08851274 1435.39590343 199.13116519 1435.29993392 200.20541317 C1434.82546722 205.51656105 1434.35104166 210.8277126 1433.87663197 216.13886558 C1430.46215381 254.36412924 1427.04269513 292.588946 1423.62036133 330.81350708 C1420.25486663 368.40340591 1416.89093637 405.99344407 1413.52954102 443.58370972 C1413.42553199 444.74682877 1413.32152296 445.90994783 1413.21436215 447.10831292 C1411.73878002 463.60961471 1410.2633254 480.11092791 1408.7879085 496.61224448 C1408.25859815 502.53212278 1407.72927885 508.45200029 1407.19995952 514.37187779 C1407.0950011 515.5457279 1406.99004267 516.719578 1406.8819037 517.92899932 C1406.3511517 523.86490323 1405.82039867 529.80080703 1405.28964471 535.73671076 C1405.18443694 536.91334535 1405.07922917 538.08997995 1404.97083329 539.30227014 C1404.75818371 541.68052452 1404.54553401 544.0587789 1404.3328842 546.43703327 C1403.80086357 552.38710948 1403.26884847 558.33718618 1402.73684411 564.28726385 C1400.38215949 590.62267389 1398.02718414 616.95805788 1395.67137527 643.29336739 C1385.74164586 754.2968716 1375.82633024 865.30162437 1363.57586211 1003.13336021 C1363.44612986 1004.59330676 1363.44612986 1004.59330676 1363.31377676 1006.08274718 C1363.22746338 1007.05407865 1363.14114999 1008.02541013 1363.05222106 1009.02617589 C1362.87837545 1010.98255186 1362.7045296 1012.9389278 1362.53068352 1014.89530373 C1362.44488441 1015.86084355 1362.3590853 1016.82638337 1362.27068622 1017.82118198 C1360.40646146 1038.79992804 1358.54087718 1059.77855312 1356.67503227 1080.75715513 C1356.26172076 1085.40426243 1355.8484294 1090.05137152 1355.43513733 1094.69848055 C1354.78194627 1102.04301941 1354.12875397 1109.38755817 1353.47555482 1116.73209631 C1353.39543236 1117.63298945 1353.3153099 1118.53388259 1353.23275949 1119.46207551 C1352.75109917 1124.87781284 1352.26941977 1130.29354846 1351.78772803 1135.70928298 C1350.76272192 1147.23361633 1349.73783136 1158.75795995 1348.71310425 1170.28231812 C1348.63596019 1171.14989344 1348.55881614 1172.01746876 1348.47933439 1172.91133424 C1346.0030918 1200.76017524 1343.53180152 1228.60945328 1341.0630188 1256.4589565 C1338.60228531 1284.21753991 1336.13674612 1311.97569169 1333.66432911 1339.73323705 C1333.32583152 1343.53355086 1332.98739735 1347.33387032 1332.64900398 1351.13419342 C1332.58275748 1351.87815612 1332.51651098 1352.62211882 1332.44825701 1353.38862584 C1331.40276954 1365.13149375 1330.36286584 1376.8748491 1329.32539458 1388.61842768 C1328.31433517 1400.06190316 1327.29749754 1411.50484888 1326.27470233 1422.94728227 C1325.72976478 1429.04570523 1325.1874813 1435.14433364 1324.6523248 1441.24362338 C1324.16758802 1446.76778924 1323.67549383 1452.29124604 1323.17727215 1457.81421158 C1322.99899009 1459.80543411 1322.82349224 1461.79690819 1322.65099751 1463.78864041 C1322.41800072 1466.47448165 1322.17510771 1469.15924424 1321.92958069 1471.84396458 C1321.86453908 1472.62167308 1321.79949748 1473.39938158 1321.73248491 1474.200657 C1321.07750859 1481.14147163 1321.07750859 1481.14147163 1319 1484 C1316.48228174 1485.02159083 1314.18417088 1485.76654815 1311.57226562 1486.4440918 C1310.79766495 1486.6586779 1310.02306427 1486.87326401 1309.22499084 1487.09435272 C1306.62264762 1487.81118596 1304.01470335 1488.50497791 1301.40625 1489.19921875 C1299.54977676 1489.70594042 1297.69370592 1490.21413832 1295.8380127 1490.72370911 C1291.83764824 1491.81901025 1287.83474834 1492.90429573 1283.82958984 1493.98193359 C1277.4302312 1495.70393178 1271.03693566 1497.44770117 1264.64453125 1499.1953125 C1258.01315438 1501.00718956 1251.38140125 1502.81762166 1244.74755859 1504.62045288 C1230.49715696 1508.4933693 1216.25787374 1512.4039095 1202.03125 1516.36328125 C1201.11607101 1516.61797369 1200.20089203 1516.87266613 1199.25798035 1517.13507652 C1194.67020951 1518.41218964 1190.08271462 1519.69029058 1185.49536133 1520.96890259 C1176.20672626 1523.5575261 1166.91580725 1526.13793587 1157.625 1528.71875 C1156.23562981 1529.10475593 1156.23562981 1529.10475593 1154.81819153 1529.49855995 C1131.5650136 1535.95864451 1108.30333715 1542.38797129 1085.04174805 1548.81768799 C1055.3551268 1557.02347197 1025.67461986 1565.25092279 996 1573.5 C964.36204052 1582.29485472 932.71672986 1591.06275515 901.0658493 1599.81099319 C878.19934652 1606.13128143 855.3346031 1612.4577588 832.4765625 1618.80859375 C831.46842247 1619.08868916 830.46028244 1619.36878456 829.42159271 1619.65736771 C820.64730457 1622.09531059 811.87318466 1624.53385808 803.09960938 1626.97436523 C802.20912525 1627.22205847 801.31864113 1627.4697517 800.40117264 1627.72495079 C798.62950072 1628.21779204 796.85785088 1628.71071267 795.0862236 1629.20371437 C790.79998484 1630.39614598 786.51315449 1631.58635958 782.22491455 1632.77157593 C774.34834671 1634.94974735 766.4770531 1637.14258757 758.62079048 1639.39308453 C754.93389644 1640.44730171 751.24380587 1641.4900384 747.5532341 1642.53129768 C745.80495732 1643.02774002 744.05817896 1643.52949475 742.31306839 1644.03695488 C739.90167883 1644.73770121 737.48567311 1645.41966639 735.06787109 1646.09790039 C734.36650906 1646.30692301 733.66514702 1646.51594563 732.94253159 1646.73130226 C725.31172087 1648.82833306 719.09174485 1647.18229817 711.62548828 1645.08007812 C710.57928188 1644.7881083 710.57928188 1644.7881083 709.51194 1644.4902401 C707.19651472 1643.84263246 704.88346486 1643.18692553 702.5703125 1642.53125 C700.90268507 1642.0632031 699.23490538 1641.59569839 697.56698608 1641.12869263 C693.97611234 1640.12217126 690.38624497 1639.11216264 686.79711914 1638.09942627 C681.02983249 1636.4722447 675.26026147 1634.85327303 669.49023438 1633.23583984 C667.50213163 1632.67845268 665.51403352 1632.121049 663.52593994 1631.56362915 C662.03441784 1631.14543852 662.03441784 1631.14543852 660.51276398 1630.71879959 C657.45103194 1629.86002654 654.38951575 1629.00048811 651.32806396 1628.14071655 C631.32125947 1622.52266465 611.30098854 1616.95353247 591.27731705 1611.39594269 C588.48098701 1610.61972227 585.68473928 1609.84320609 582.88851929 1609.06658936 C553.09885291 1600.79292352 523.30085098 1592.54955318 493.50080872 1584.31335068 C456.31349426 1574.03521563 419.14227369 1563.69988415 381.97558594 1553.34744263 C380.97530365 1553.06882511 379.97502136 1552.7902076 378.94442749 1552.50314713 C376.9280268 1551.94149817 374.91162868 1551.37983996 372.89523315 1550.81817245 C342.49746683 1542.35109868 312.09246512 1533.91006953 281.68785095 1525.46762657 C268.06581246 1521.6851893 254.44439635 1517.9005175 240.82336998 1514.1144371 C234.76701444 1512.43107778 228.71057841 1510.74800806 222.65414524 1509.06492805 C216.97452213 1507.48652794 211.29501449 1505.90771333 205.61561298 1504.32851601 C202.08315738 1503.34645459 198.55052818 1502.36501831 195.0179081 1501.38354874 C192.45940807 1500.67232437 189.90122026 1499.95998547 187.34306335 1499.24752808 C179.37730907 1497.03136586 171.40734465 1494.83323057 163.42424583 1492.68026924 C159.66578312 1491.66664051 155.90872694 1490.64784563 152.15161514 1489.62922287 C149.49534568 1488.911948 146.83684311 1488.2034127 144.17819214 1487.49502563 C142.57717152 1487.06141449 140.97626366 1486.62738671 139.37548828 1486.19287109 C138.27044134 1485.90286036 138.27044134 1485.90286036 137.14307022 1485.60699081 C135.41094951 1485.13189886 133.70194389 1484.57388286 132 1484 C130.5388224 1481.07764481 130.56691309 1478.2835422 130.27764893 1475.02888393 C130.21154479 1474.29774414 130.14544066 1473.56660434 130.07733337 1472.81330879 C129.8539817 1470.33163567 129.63651002 1467.849481 129.41894531 1465.36729431 C129.25860236 1463.57205178 129.09790102 1461.77684124 128.93687189 1459.98166013 C128.49090408 1454.9980966 128.05007617 1450.01408923 127.61000678 1445.03000186 C127.13032266 1439.60747497 126.64591627 1434.1853697 126.16208839 1428.76321125 C125.30968286 1419.20308678 124.46032208 1409.64269549 123.61287308 1400.08213043 C122.34118376 1385.73580003 121.06470099 1371.38989846 119.78720714 1357.04408397 C117.6103785 1332.59846947 115.43739545 1308.15251434 113.26629639 1283.70639038 C111.08665961 1259.16440648 108.90525634 1234.62258053 106.72149658 1210.08096313 C106.65321533 1209.31359829 106.58493407 1208.54623345 106.51458369 1207.75561513 C105.6782399 1198.35661114 104.84181156 1188.95761467 104.00534672 1179.55862145 C102.78675475 1165.86581736 101.56827542 1152.17300324 100.34979849 1138.48018891 C100.05741495 1135.19448634 99.76502801 1131.90878407 99.47263844 1128.62308203 C97.36297516 1104.91585528 95.25401166 1081.20856636 93.1455052 1057.5012367 C84.73749296 962.96467788 76.31739045 868.42920163 64.32226646 733.91963205 C63.77378904 727.76958137 63.22532249 721.61952972 62.67685795 715.46947789 C58.67627228 670.61009125 54.67538559 625.75073146 50.67431641 580.89138794 C46.70225048 536.35722024 42.73047166 491.82302694 38.75901079 447.28880529 C38.16162664 440.59001496 37.56422743 433.89122597 36.96682215 427.19243753 C33.54225624 388.79221959 30.11820481 350.391956 26.69666532 311.99146827 C26.23395664 306.79841607 25.77122882 301.60536557 25.30849433 296.41231567 C25.23294509 295.56446201 25.15739585 294.71660835 25.07955725 293.84306216 C24.47760387 287.08763945 23.87564105 280.33221758 23.27367272 273.5767962 C22.90522173 269.44194418 22.53678003 265.30709133 22.16835827 261.1722367 C18.6205735 221.35498981 15.06601713 181.53836861 11.49565595 141.72313889 C10.78199316 133.7638103 10.06923401 125.80440126 9.35721016 117.84492588 C9.26139291 116.77382166 9.16557567 115.70271743 9.06685487 114.5991555 C8.60121391 109.39348894 8.13570679 104.18781042 7.67031014 98.982122 C6.73431248 88.51467825 5.79518468 78.0475261 4.85127845 67.58079247 C4.24504272 60.85577346 3.64241082 54.13043846 3.04292104 47.40481474 C2.64894346 42.98649306 2.25087815 38.56857106 1.84910237 34.15095204 C1.5573322 30.92745935 1.27250968 27.70335233 0.98672485 24.47932434 C0.88475119 23.37364678 0.78277753 22.26796921 0.67771375 21.12878627 C0.05540334 14.00429463 0 7.20935683 0 0 Z " fill="#264DE4" transform="translate(0,402)"/>
<path d="M0 0 C299.97 0 599.94 0 909 0 C909 14.62273814 909 14.62273814 908.46850586 20.16699219 C908.35067245 21.42940735 908.23283905 22.69182251 908.11143494 23.99249268 C907.9792812 25.34395769 907.84708266 26.69541832 907.71484375 28.046875 C907.57663216 29.50846771 907.43904215 30.9701193 907.30201721 32.43182373 C907.00757608 35.5628512 906.70974782 38.69352942 906.40917969 41.82397461 C905.67477078 49.47860988 904.95986643 57.13507898 904.24472427 64.79153442 C904.0782391 66.57375879 903.91155801 68.35596487 903.74468613 70.13815308 C901.97255622 89.07506601 900.33213146 108.0224256 898.71562576 126.97315979 C896.4100126 153.99180524 894.01387647 180.99993911 891.5 208 C889.06885018 234.11696948 886.74095685 260.24102218 884.5 286.375 C882.17264495 313.50435548 879.80984319 340.63005921 877.375 367.75 C877.30110046 368.57351582 877.22720093 369.39703163 877.15106201 370.24550247 C875.23103175 391.63512629 873.25359554 413.01825259 871.20443726 434.39593506 C869.14803811 455.90595033 867.30769092 477.43350386 865.46615601 498.96271133 C863.08299339 526.81864748 860.58410696 554.66201099 858 582.5 C855.38066294 610.72117473 852.85179177 638.94803826 850.4375 667.1875 C848.1743797 693.65461772 845.82765999 720.11225013 843.375 746.5625 C843.2258165 748.17211882 843.07663639 749.78173796 842.92745972 751.39135742 C842.63411993 754.55597398 842.3407256 757.72058548 842.04728699 760.88519287 C841.97605307 761.65343132 841.90481915 762.42166977 841.83142662 763.21318817 C841.6890399 764.74861653 841.54662598 766.28404237 841.40418434 767.81946564 C840.07894605 782.10667966 838.77645229 796.3958359 837.5 810.6875 C837.35718597 812.28487503 837.35718597 812.28487503 837.21148682 813.91452026 C835.91691387 828.41977693 834.65869024 842.92805585 833.4130249 857.4375782 C833.17250895 860.23871056 832.93174369 863.03982139 832.69091797 865.84092712 C831.9743928 874.17734792 831.25889112 882.51384659 830.54980087 890.85090351 C830.25560138 894.30486948 829.9594855 897.75866943 829.66294098 901.21243477 C829.5244077 902.83114864 829.38673083 904.44993607 829.24996185 906.06879997 C829.06109445 908.30338536 828.86926219 910.53769807 828.67675781 912.77197266 C828.5697052 914.02869781 828.46265259 915.28542297 828.35235596 916.58023071 C828.02548881 919.75261989 827.56364033 922.86194618 827 926 C817.12031452 928.84318923 807.22231583 931.61571482 797.31445312 934.35888672 C792.78808627 935.61270944 788.26286581 936.87066639 783.73779297 938.12915039 C780.06344766 939.15068345 776.38831583 940.16912308 772.7109375 941.1796875 C764.0736261 943.55851687 755.46875023 946.0305447 746.875 948.5625 C738.94669302 950.8963605 731.01766679 953.03099962 722.984375 954.97265625 C718.27380046 956.15029989 713.64218898 957.58026314 709 959 C702.34781962 961.03362692 695.69262971 962.89413091 688.93310547 964.53344727 C681.66778336 966.3019916 674.47926673 968.33308732 667.28222656 970.35888672 C663.52390951 971.414657 659.76179211 972.45669367 656 973.5 C654.49998134 973.91659949 652.99998135 974.33326619 651.5 974.75 C606.5 987.25 606.5 987.25 604.25146484 987.87451172 C602.74652608 988.29260466 601.24164354 988.7109 599.73681641 989.12939453 C596.06280567 990.15087905 592.38799244 991.16921195 588.7109375 992.1796875 C580.0736261 994.55851687 571.46875023 997.0305447 562.875 999.5625 C554.94669302 1001.8963605 547.01766679 1004.03099962 538.984375 1005.97265625 C534.27380046 1007.15029989 529.64218898 1008.58026314 525 1010 C518.34781962 1012.03362692 511.69262971 1013.89413091 504.93310547 1015.53344727 C497.68528863 1017.29773042 490.51448943 1019.32425266 483.33496094 1021.34570312 C480.9152513 1022.02374807 478.49319769 1022.69277119 476.0703125 1023.359375 C474.85964111 1023.69304077 474.85964111 1023.69304077 473.62451172 1024.03344727 C472.08736294 1024.45685068 470.54994488 1024.87927814 469.01220703 1025.30053711 C468.31208496 1025.49397705 467.61196289 1025.68741699 466.890625 1025.88671875 C466.21966797 1026.07024902 465.54871094 1026.2537793 464.85742188 1026.44287109 C462.78987508 1027.03048178 462.78987508 1027.03048178 460.046875 1028.20703125 C453.18923964 1029.99177481 446.19213544 1027.7083476 439.5625 1025.75 C437.98052318 1025.296685 436.39849032 1024.84356553 434.81640625 1024.390625 C434.01734863 1024.15923828 433.21829102 1023.92785156 432.39501953 1023.68945312 C428.6044354 1022.59825949 424.80202122 1021.55049825 421 1020.5 C419.49993699 1020.08356022 417.99993709 1019.66689308 416.5 1019.25 C415.7575 1019.04375 415.015 1018.8375 414.25 1018.625 C394 1013 373.75 1007.375 353.5 1001.75 C352.75741943 1001.54375 352.01483887 1001.3375 351.24975586 1001.125 C349.75052301 1000.70850124 348.25133675 1000.2918347 346.75219727 999.875 C342.99082511 998.8293802 339.22867541 997.78673435 335.46484375 996.75 C328.22640992 994.75289464 321.0061263 992.7157001 313.8125 990.5625 C306.00158998 988.2282157 298.12241122 986.19033827 290.2277832 984.16040039 C284.27041479 982.61957332 278.39832623 980.92410402 272.53515625 979.0546875 C267.70238004 977.61286476 262.82249689 976.37649843 257.9375 975.125 C249.58033381 972.98283436 241.31543298 970.63967573 233.06811523 968.10986328 C228.07499714 966.58958851 223.07470263 965.21895189 218 964 C211.05604262 962.32001031 204.25213416 960.30141076 197.421875 958.2109375 C192.30751155 956.65780259 187.19520222 955.25690376 182 954 C175.05604262 952.32001031 168.25213416 950.30141076 161.421875 948.2109375 C156.30751155 946.65780259 151.19520222 945.25690376 146 944 C139.05604262 942.32001031 132.25213416 940.30141076 125.421875 938.2109375 C120.30751155 936.65780259 115.19520222 935.25690376 110 934 C103.62795671 932.45427404 97.34487454 930.68963249 91.0625 928.8125 C90.17884766 928.55017578 89.29519531 928.28785156 88.38476562 928.01757812 C87.15983398 927.64729492 87.15983398 927.64729492 85.91015625 927.26953125 C84.81392944 926.93852417 84.81392944 926.93852417 83.69555664 926.60083008 C82 926 82 926 81 925 C80.74021097 922.59857609 80.54075909 920.21674999 80.37792969 917.80810547 C80.32306648 917.0559589 80.26820328 916.30381233 80.21167755 915.52887344 C80.09183197 913.88573049 79.97382513 912.24245266 79.85739899 910.59906387 C79.53906285 906.12598759 79.20290814 901.65426984 78.86523438 897.18261719 C78.79511265 896.25350336 78.72499092 895.32438953 78.65274429 894.36712074 C77.93031182 884.90519153 77.08349672 875.45618635 76.203125 866.0078125 C76.12554836 865.17318356 76.04797173 864.33855461 75.96804428 863.47863388 C75.56576025 859.15518008 75.16117405 854.83194628 74.75506592 850.5088501 C73.86664324 841.04841564 72.99118068 831.5867769 72.1171875 822.125 C72.02804203 821.16049046 71.93889656 820.19598091 71.84704971 819.2022438 C69.93734035 798.5171256 68.14374197 777.82257728 66.375 757.125 C64.03720066 729.77527489 61.61061397 702.43580112 59.04992676 675.10599327 C58.86807361 673.16491209 58.68656654 671.2237985 58.50506592 669.28268433 C58.28761847 666.9602545 58.06917659 664.63791741 57.84942627 662.31570435 C57.15209503 654.87992326 56.57300671 647.44908721 56 640 C116.39 640 176.78 640 239 640 C239.83305715 644.16528574 240.33315871 648.06917934 240.69262695 652.2890625 C240.75469645 653.00837857 240.81676594 653.72769464 240.88071632 654.46880817 C241.08588505 656.85398688 241.28706605 659.23948479 241.48828125 661.625 C241.63275695 663.31270065 241.77750213 665.00037824 241.92250061 666.68803406 C242.22968326 670.26913346 242.53518252 673.85037071 242.83929443 677.43173218 C243.31225583 683.00134634 243.7887138 688.57065725 244.26611328 694.13989258 C244.34473099 695.0570382 244.42334869 695.97418383 244.50434875 696.91912174 C244.662472 698.76359952 244.82061148 700.60807591 244.9787674 702.45255089 C245.21451482 705.20319343 245.44990439 707.95386641 245.6852417 710.70454407 C247.03177281 726.43229964 248.42099145 742.15601081 249.8449707 757.87695312 C250.66012305 766.91285548 251.3950693 775.94705666 252 785 C253.20011719 785.29132812 254.40023437 785.58265625 255.63671875 785.8828125 C264.41169012 788.03354952 273.13961908 790.27955247 281.8125 792.8125 C290.59903176 795.37572722 299.44325767 797.68122311 308.3125 799.9375 C318.72230352 802.58621632 329.05404414 805.42148247 339.34814453 808.49365234 C347.25443001 810.83303541 355.21980673 812.84829908 363.22802734 814.80566406 C369.55034219 816.36024726 375.81410855 818.04685998 382.0625 819.875 C390.91056043 822.46341358 399.81825044 824.78489788 408.75 827.0625 C417.11748016 829.19720066 425.47512164 831.337761 433.75 833.8125 C434.40564941 834.00803467 435.06129883 834.20356934 435.73681641 834.4050293 C438.56689019 835.25464427 441.39070876 836.1221559 444.2109375 837.00390625 C445.65339844 837.43509766 445.65339844 837.43509766 447.125 837.875 C447.91132812 838.11992188 448.69765625 838.36484375 449.5078125 838.6171875 C455.77673608 839.5801256 462.3133889 837.29012963 468.375 835.75 C469.69274414 835.41838867 469.69274414 835.41838867 471.03710938 835.08007812 C477.26088868 833.4938008 483.41693807 831.73448146 489.56396484 829.87597656 C495.8456069 827.99661481 502.19034826 826.43060195 508.55859375 824.875 C513.91895344 823.55349376 519.21589111 822.09808725 524.5 820.5 C530.5446788 818.67308473 536.61559759 817.06032454 542.75 815.5625 C549.71576734 813.86143162 556.61541552 812.00438885 563.5 810 C571.21392098 807.75415681 578.95738455 805.72978713 586.76171875 803.82421875 C592.75501576 802.34719769 598.66009055 800.66131413 604.56738281 798.87475586 C610.83999397 796.99869088 617.17506615 795.43329712 623.53442383 793.8815918 C629.80867677 792.33600839 636.00548039 790.59864511 642.18164062 788.69921875 C645.67953527 787.63387013 649.17002748 786.71150131 652.7434082 785.93041992 C653.54357864 785.75484055 654.34374908 785.57926117 655.16816711 785.39836121 C655.77267197 785.26690201 656.37717682 785.13544281 657 785 C657.04618469 784.34443115 657.09236938 783.6888623 657.13995361 783.01342773 C658.41689583 765.02371367 659.92622175 747.06166114 661.55926514 729.10110474 C661.88884106 725.47054906 662.21579757 721.83975741 662.54296875 718.20898438 C663.0209756 712.90631258 663.49964069 707.60370108 663.9792099 702.30117035 C665.14274877 689.43495582 666.29464027 676.56770585 667.44533634 663.70033741 C667.87568868 658.88831053 668.30668693 654.07634183 668.73803711 649.2644043 C669.91338114 636.15133204 671.08643709 623.03806337 672.25320435 609.92422485 C672.7381761 604.47357531 673.22406636 599.02300775 673.71016121 593.57245827 C674.10637854 589.12872636 674.50136891 584.68488766 674.89542866 580.24096394 C675.08015809 578.16028443 675.26554153 576.07966444 675.45121765 573.99906921 C675.67692714 571.46987954 675.90161993 568.94059884 676.12507629 566.41120911 C676.22600082 565.28397934 676.32692535 564.15674957 676.4309082 562.99536133 C676.56031548 561.53976555 676.56031548 561.53976555 676.69233704 560.05476379 C677.06417316 556.36282925 677.5397552 552.68195838 678 549 C470.1 549 262.2 549 48 549 C46.68 534.48 45.36 519.96 44 505 C43.14323261 495.84069641 42.28547705 486.6815988 41.41903687 477.52322388 C39.40863291 456.24715135 37.42764434 434.96843057 35.51339722 413.68347168 C35.29953842 411.30733408 35.08482496 408.93127321 34.86917114 406.55529785 C34.57020347 403.2571563 34.27481944 399.95871269 33.98046875 396.66015625 C33.89532013 395.72625565 33.81017151 394.79235504 33.72244263 393.83015442 C32.9619437 385.22083884 32.50835283 376.64199819 32 368 C250.46 368 468.92 368 694 368 C694 365.03 694 362.06 694 359 C694.11939215 357.03852556 694.26814338 355.07846094 694.45556641 353.12231445 C694.5565564 352.04487976 694.65754639 350.96744507 694.76159668 349.85736084 C694.8737854 348.70431458 694.98597412 347.55126831 695.1015625 346.36328125 C695.27685486 344.50379852 695.27685486 344.50379852 695.45568848 342.60675049 C695.70921514 339.91857944 695.96410671 337.23057843 696.22125244 334.54275513 C696.919078 327.24309522 697.60041224 319.94188578 698.28125 312.640625 C698.35211948 311.88175554 698.42298897 311.12288609 698.49600601 310.34102058 C699.57548118 298.76772221 700.60544818 287.19080699 701.59375 275.609375 C701.65840832 274.85185125 701.72306664 274.09432751 701.7896843 273.3138485 C702.40719012 266.07041103 703.02008128 258.82658946 703.62623978 251.58219337 C705.01682015 235.02107818 706.50718255 218.47292507 708.09326172 201.92944336 C708.27923515 199.98407353 708.46514351 198.03869749 708.65098572 196.09331512 C709.09990994 191.39547163 709.54970445 186.69771224 710 182 C709.39767746 182.00015598 708.79535493 182.00031196 708.17478019 182.00047267 C642.63348343 182.0174102 577.09218642 182.03311683 511.55088806 182.04234314 C510.08355837 182.04255023 510.08355837 182.04255023 508.58658565 182.04276149 C487.32991371 182.04575404 466.07324175 182.04852427 444.81656975 182.05106533 C434.39309402 182.05231272 423.9696183 182.05360927 413.54614258 182.05493164 C412.50885251 182.0550624 411.47156244 182.05519316 410.40283934 182.05532788 C376.74957247 182.05959321 343.09630728 182.06710748 309.44304143 182.07629722 C274.87504817 182.08571965 240.30705584 182.09188308 205.73906132 182.09391499 C200.86243754 182.09420317 195.98581376 182.0945288 191.10918999 182.09487724 C189.66943147 182.09497838 189.66943147 182.09497838 188.20058692 182.09508156 C172.71720178 182.09626568 157.23381949 182.10091021 141.75043551 182.10683203 C126.2041785 182.11270466 110.65792435 182.11497166 95.11166627 182.11350138 C85.86258164 182.11273777 76.61350738 182.11479539 67.36442461 182.12079754 C61.19796889 182.12452771 55.03152001 182.12467767 48.86506383 182.12183181 C45.34387919 182.12031177 41.82271427 182.12042841 38.30153168 182.12488318 C34.52151304 182.12962945 30.74152338 182.12676648 26.96150303 182.12304783 C25.85071431 182.12567484 24.73992558 182.12830186 23.5954766 182.13100848 C22.09991835 182.12763754 22.09991835 182.12763754 20.57414681 182.1241985 C19.27537414 182.12443247 19.27537414 182.12443247 17.95036364 182.12467116 C16 182 16 182 15 181 C14.74932625 179.18059517 14.56214844 177.35241699 14.39967346 175.52302551 C14.23787094 173.73857529 14.23787094 173.73857529 14.07279968 171.91807556 C13.95673518 170.58707384 13.84075603 169.25606467 13.72485352 167.92504883 C13.60026206 166.53200868 13.47527298 165.13900405 13.34991455 163.74603271 C13.0090331 159.94550077 12.67374438 156.14449318 12.33939099 152.34338212 C11.98723433 148.35083929 11.62993824 144.35875656 11.2731781 140.36662292 C10.59554895 132.77520757 9.9224961 125.18339368 9.25109094 117.5914256 C8.49483548 109.04225095 7.73384252 100.49350041 6.97227967 91.94479716 C6.04074914 81.48816063 5.10979944 71.03147402 4.18299866 60.57441711 C4.11736357 59.83451493 4.05172848 59.09461274 3.98410445 58.33228928 C3.66636335 54.74991582 3.3493966 51.16747769 3.03417301 47.58488178 C2.50248649 41.55528755 1.96060818 35.52733451 1.36911011 29.50326538 C1.27412452 28.52009936 1.17913893 27.53693335 1.08127499 26.52397442 C0.91262495 24.79153109 0.73898392 23.0595585 0.55801487 21.32835865 C-0.13816207 14.12992642 0 7.35478306 0 0 Z " fill="#FEFEFE" transform="translate(271,706)"/>
<path d="M0 0 C195.69 0 391.38 0 593 0 C593 6.2296316 592.93859428 12.23056106 592.4140625 18.40234375 C592.35294281 19.15749771 592.29182312 19.91265167 592.22885132 20.69068909 C592.03187351 23.10666985 591.82872173 25.52207935 591.625 27.9375 C591.48557298 29.6249914 591.3462507 31.31249146 591.20703125 33 C591.06812829 34.66539966 590.92881654 36.33076529 590.7890625 37.99609375 C590.72538483 38.75558823 590.66170715 39.5150827 590.59609985 40.29759216 C590.01362503 47.10336777 589.29307367 53.89191153 588.53125 60.6796875 C587.52820178 70.20472742 586.8710778 79.76929442 586.140625 89.31835938 C586.02085851 90.85026239 585.90106772 92.3821635 585.78125 93.9140625 C585.73230591 94.57528107 585.68336182 95.23649963 585.63293457 95.91775513 C585.25861207 100.66473621 584.71224323 105.37829832 584.12721252 110.10385132 C582.64103383 122.49632951 581.59905316 134.93233694 580.49389648 147.36328125 C580.24938085 150.09683278 580.00415488 152.83032049 579.75897217 155.56381226 C579.16599433 162.17978149 578.57557195 168.79597629 577.98611241 175.41225982 C577.50645746 180.79555497 577.02586897 186.17876605 576.54463387 191.56192017 C576.47580954 192.3318097 576.40698521 193.10169922 576.33607529 193.89491874 C576.19620098 195.4595554 576.05632477 197.02419189 575.91644669 198.58882821 C574.60885191 213.21647588 573.30420147 227.844385 572.00056083 242.47238553 C570.88498791 254.98928987 569.76680278 267.50595863 568.64672852 280.02246094 C567.34200707 294.60235016 566.03898221 309.18238944 564.7385717 323.76266384 C564.59956698 325.32113605 564.46055988 326.87960805 564.32155037 328.43807983 C564.21899227 329.5878958 564.21899227 329.5878958 564.11436228 330.76094037 C563.63536576 336.12982623 563.15517337 341.49860434 562.6744976 346.86734009 C562.08773642 353.4212963 561.50283482 359.97541542 560.9202302 366.52974248 C560.6236581 369.86567291 560.32602457 373.20149893 560.02667427 376.53718185 C558.91972059 388.87755644 557.82897535 401.20379586 557.20195103 413.57910156 C556.87123723 419.18114439 556.21472888 424.74041267 555.5625 430.3125 C554.48825003 439.86657826 553.63003779 449.4065796 553 459 C552.30625765 469.53855689 551.28838523 480.00600827 550.10546875 490.5 C549.20407032 498.65811107 548.53926689 506.81045542 548 515 C547.30605557 525.53854591 546.28838622 536.00599947 545.10546875 546.5 C544.07642399 555.81337478 543.38569466 565.12712848 542.77172852 574.47583008 C542.11773952 584.09938951 541.11409988 593.6649767 540.03735352 603.24926758 C539.20123481 610.79254737 538.62131747 618.29222195 538.26367188 625.87109375 C538.03809294 629.87446609 537.57143505 633.83661784 537.0625 637.8125 C536.02120392 646.30868531 535.34562229 654.81183855 534.73849487 663.34848022 C533.76672564 676.95375498 532.59431047 690.50210497 531.05493164 704.0559082 C530.03639949 713.19189385 529.37339117 722.33117128 528.76928711 731.50268555 C528.13186166 740.86793632 527.15679366 750.17339482 526.10546875 759.5 C525.20407032 767.65811107 524.53926689 775.81045542 524 784 C523.30605557 794.53854591 522.28838622 805.00599947 521.10546875 815.5 C520.20407032 823.65811107 519.53926689 831.81045542 519 840 C518.30712396 850.52232082 517.29412795 860.97410451 516.10986328 871.45166016 C515.02339848 881.26582818 514.27782365 891.08819666 513.64648438 900.94140625 C513.57494141 902.04097656 513.50339844 903.14054687 513.4296875 904.2734375 C513.34050049 905.71855713 513.34050049 905.71855713 513.24951172 907.19287109 C512.98533631 910.16497373 512.50295916 913.05991339 512 916 C511.82762694 918.39407023 511.68422206 920.79032073 511.5625 923.1875 C511.24274228 928.87592465 510.76465945 934.5253293 510.125 940.1875 C509.03334995 949.94090463 508.27338244 959.71744763 507.5 969.5 C506.7066061 979.52301321 505.90747963 989.53263643 504.76953125 999.5234375 C503.81807625 1008.16452065 503.18623962 1016.83474217 502.5 1025.5 C501.70635613 1035.52146858 500.90975735 1045.52998591 499.76953125 1055.51904297 C498.64011101 1065.7601999 497.92638829 1076.04623131 497.140625 1086.31835938 C497.02085851 1087.85026239 496.90106772 1089.3821635 496.78125 1090.9140625 C496.70783386 1091.90589035 496.70783386 1091.90589035 496.63293457 1092.91775513 C496.25741594 1097.67990489 495.71022989 1102.40823786 495.12524414 1107.14916992 C493.58035767 1119.90905156 492.53576858 1132.72122116 491.40699458 1145.52308249 C491.08078064 1149.21750309 490.75194555 1152.91169055 490.42347717 1156.60591125 C489.87302906 1162.80101176 489.32444208 1168.99627476 488.77709961 1175.19165039 C488.14759954 1182.316812 487.51555718 1189.44174443 486.8820619 1196.56655186 C486.20229417 1204.21207047 485.52437923 1211.85775256 484.84699941 1219.50348306 C484.65390059 1221.6816574 484.460465 1223.85980161 484.26695061 1226.03793907 C483.9042968 1230.12111227 483.54372048 1234.20446648 483.18334961 1238.2878418 C483.07787811 1239.47314987 482.97240662 1240.65845795 482.86373901 1241.87968445 C482.15695927 1249.91430767 481.55240789 1257.95332685 481 1266 C475.80824932 1268.0086401 470.63066152 1269.7687041 465.2578125 1271.234375 C464.54166275 1271.43281509 463.825513 1271.63125519 463.08766174 1271.83570862 C460.76775945 1272.47743826 458.446432 1273.11382847 456.125 1273.75 C454.48667064 1274.20183365 452.8484064 1274.6539035 451.21020508 1275.10620117 C441.39048121 1277.81335263 431.55877878 1280.47431991 421.71875 1283.10668945 C396.20211017 1289.95352402 370.74116199 1297.02550897 345.35327148 1304.33496094 C337.29672337 1306.64779892 329.2136821 1308.84577341 321.11547852 1311.00756836 C309.60172756 1314.08943302 298.11290402 1317.26084891 286.625 1320.4375 C285.59648926 1320.7218692 284.56797852 1321.0062384 283.50830078 1321.29922485 C270.43811008 1324.91536067 257.38509438 1328.58295628 244.35327148 1332.33496094 C236.29672337 1334.64779892 228.2136821 1336.84577341 220.11547852 1339.00756836 C208.60172756 1342.08943302 197.11290402 1345.26084891 185.625 1348.4375 C184.59648926 1348.7218692 183.56797852 1349.0062384 182.50830078 1349.29922485 C169.43811008 1352.91536067 156.38509438 1356.58295628 143.35327148 1360.33496094 C135.29672337 1362.64779892 127.2136821 1364.84577341 119.11547852 1367.00756836 C107.60172756 1370.08943302 96.11290402 1373.26084891 84.625 1376.4375 C83.59648926 1376.7218692 82.56797852 1377.0062384 81.50830078 1377.29922485 C69.55312086 1380.60687011 57.60781952 1383.94374662 45.6875 1387.375 C36.704232 1389.95844114 27.7075097 1392.48512767 18.6875 1394.9375 C17.07524536 1395.38005127 17.07524536 1395.38005127 15.43041992 1395.83154297 C14.42599854 1396.10240723 13.42157715 1396.37327148 12.38671875 1396.65234375 C11.51233154 1396.88945068 10.63794434 1397.12655762 9.73706055 1397.37084961 C6.52989551 1398.10805988 3.25772909 1398.53461013 0 1399 C0 1336.96 0 1274.92 0 1211 C8.98425849 1207.63090307 8.98425849 1207.63090307 12.96875 1206.640625 C13.85691406 1206.41568359 14.74507812 1206.19074219 15.66015625 1205.95898438 C16.59730469 1205.72501953 17.53445313 1205.49105469 18.5 1205.25 C26.71702391 1203.15598423 34.87098185 1200.91281346 43 1198.5 C51.99914333 1195.83176465 61.03686833 1193.38895672 70.12890625 1191.05859375 C74.95957122 1189.81412881 79.74512504 1188.51433108 84.5 1187 C90.21951267 1185.1784514 96.00003626 1183.67728154 101.8125 1182.1875 C109.92271714 1180.10686838 117.97254148 1177.87981598 126 1175.5 C134.99924508 1172.83208871 144.0368555 1170.38896001 153.12890625 1168.05859375 C157.95957122 1166.81412881 162.74512504 1165.51433108 167.5 1164 C173.21951267 1162.1784514 179.00003626 1160.67728154 184.8125 1159.1875 C192.92271714 1157.10686838 200.97254148 1154.87981598 209 1152.5 C217.99924508 1149.83208871 227.0368555 1147.38896001 236.12890625 1145.05859375 C241.95893784 1143.55667425 247.70141673 1141.89316487 253.4375 1140.0625 C258.4244352 1138.57516845 263.46028552 1137.2952968 268.5 1136 C275.57805672 1134.1796547 282.58392154 1132.26378375 289.55078125 1130.05078125 C295.02752071 1128.38232948 300.55773714 1126.91471243 306.08447266 1125.421875 C313.21545086 1123.49374099 320.3282452 1121.50659104 327.4375 1119.5 C335.7726852 1117.1548374 344.12261552 1114.87734544 352.5 1112.6875 C353.42482178 1112.44515625 354.34964355 1112.2028125 355.30249023 1111.953125 C360.84560717 1110.51570103 366.40310878 1109.21152219 372 1108 C372.05655258 1106.96215363 372.11310516 1105.92430725 372.17137146 1104.85501099 C372.73385808 1094.78011973 373.47192544 1084.73211443 374.34765625 1074.6796875 C374.48121698 1073.12823699 374.61463 1071.57677376 374.74790955 1070.02529907 C375.10751087 1065.84864369 375.47046229 1061.67228603 375.83435059 1057.4960022 C376.06532645 1054.84252942 376.29535788 1052.18897623 376.52514648 1049.53540039 C379.08203852 1020.02430153 381.77105219 990.52621687 384.50732422 961.03128052 C386.95566519 934.63292216 389.30445253 908.22779792 391.5625 881.8125 C393.78049635 855.86573175 396.0857957 829.92925511 398.5 804 C400.24238725 785.2842571 401.9715509 766.56814804 403.57421875 747.83984375 C403.63936298 747.07863346 403.70450722 746.31742317 403.77162552 745.5331459 C404.17583981 740.80617639 404.57885943 736.07910531 404.98171997 731.35202026 C407.19128612 705.42607276 409.48459631 679.50864562 411.86328125 653.59765625 C411.92650975 652.90890404 411.98973825 652.22015182 412.05488276 651.51052833 C413.03464433 640.84017324 414.01713779 630.17006985 415 619.5 C416.04825884 608.11991874 417.09589727 596.73978105 418.140625 585.359375 C418.20387506 584.67038565 418.26712512 583.9813963 418.33229184 583.27152848 C420.55018043 559.1043137 422.69077162 534.93124242 424.75 510.75 C427.1354976 482.73742203 429.65781912 454.73983013 432.25555038 426.74613571 C434.86649487 398.60553065 437.37069904 370.45781289 439.77731705 342.29901886 C442.16678593 314.34484895 444.66691076 286.40258817 447.28752327 258.46909523 C449.67338878 232.98968415 451.82967878 207.50127428 454 182 C154.03 182 -145.94 182 -455 182 C-455 184.64 -455 187.28 -455 190 C-455.33 190 -455.66 190 -456 190 C-456 187.03 -456 184.06 -456 181 C-305.52 181 -155.04 181 0 181 C0 121.27 0 61.54 0 0 Z " fill="#2965F0" transform="translate(726,524)"/>
<path d="M0 0 C60.39 0 120.78 0 183 0 C183.83305715 4.16528574 184.33315871 8.06917934 184.69262695 12.2890625 C184.75469645 13.00837857 184.81676594 13.72769464 184.88071632 14.46880817 C185.08588505 16.85398688 185.28706605 19.23948479 185.48828125 21.625 C185.63275695 23.31270065 185.77750213 25.00037824 185.92250061 26.68803406 C186.22968326 30.26913346 186.53518252 33.85037071 186.83929443 37.43173218 C187.31225583 43.00134634 187.7887138 48.57065725 188.26611328 54.13989258 C188.34473099 55.0570382 188.42334869 55.97418383 188.50434875 56.91912174 C188.662472 58.76359952 188.82061148 60.60807591 188.9787674 62.45255089 C189.21451482 65.20319343 189.44990439 67.95386641 189.6852417 70.70454407 C191.03177281 86.43229964 192.42099145 102.15601081 193.8449707 117.87695312 C194.66012305 126.91285548 195.3950693 135.94705666 196 145 C197.80017578 145.43699219 197.80017578 145.43699219 199.63671875 145.8828125 C208.41169012 148.03354952 217.13961908 150.27955247 225.8125 152.8125 C234.59903176 155.37572722 243.44325767 157.68122311 252.3125 159.9375 C262.72230352 162.58621632 273.05404414 165.42148247 283.34814453 168.49365234 C291.25443001 170.83303541 299.21980673 172.84829908 307.22802734 174.80566406 C313.55034219 176.36024726 319.81410855 178.04685998 326.0625 179.875 C334.91058602 182.46342107 343.81837745 184.78434377 352.75 187.0625 C363.5709662 189.82574773 374.32689444 192.70609568 385 196 C389.29 197.32 393.58 198.64 398 200 C398 262.37 398 324.74 398 389 C378.7319202 384.46633416 378.7319202 384.46633416 370.9375 382 C364.98812491 380.16518887 359.05203716 378.46272801 353 377 C346.05604262 375.32001031 339.25213416 373.30141076 332.421875 371.2109375 C327.30751155 369.65780259 322.19520222 368.25690376 317 367 C310.92989596 365.53142644 304.97137123 363.82747474 299 362 C293.11098949 360.19872753 287.23636389 358.5094116 281.25 357.0625 C274.58168367 355.44736006 268.01571272 353.57355627 261.4375 351.625 C252.29252384 348.91656011 243.11134534 346.42683741 233.87280273 344.05908203 C228.03302237 342.55455171 222.28133177 340.88680143 216.53515625 339.0546875 C211.70238004 337.61286476 206.82249689 336.37649843 201.9375 335.125 C193.58033381 332.98283436 185.31543298 330.63967573 177.06811523 328.10986328 C172.07499714 326.58958851 167.07470263 325.21895189 162 324 C155.05604262 322.32001031 148.25213416 320.30141076 141.421875 318.2109375 C136.30751155 316.65780259 131.19520222 315.25690376 126 314 C119.05604262 312.32001031 112.25213416 310.30141076 105.421875 308.2109375 C100.30751155 306.65780259 95.19520222 305.25690376 90 304 C83.05604262 302.32001031 76.25213416 300.30141076 69.421875 298.2109375 C64.30751155 296.65780259 59.19520222 295.25690376 54 294 C47.62795671 292.45427404 41.34487454 290.68963249 35.0625 288.8125 C34.17884766 288.55017578 33.29519531 288.28785156 32.38476562 288.01757812 C31.56814453 287.77072266 30.75152344 287.52386719 29.91015625 287.26953125 C29.17933838 287.04885986 28.44852051 286.82818848 27.69555664 286.60083008 C26 286 26 286 25 285 C24.74021097 282.59857609 24.54075909 280.21674999 24.37792969 277.80810547 C24.32306648 277.0559589 24.26820328 276.30381233 24.21167755 275.52887344 C24.09183197 273.88573049 23.97382513 272.24245266 23.85739899 270.59906387 C23.53906285 266.12598759 23.20290814 261.65426984 22.86523438 257.18261719 C22.79511265 256.25350336 22.72499092 255.32438953 22.65274429 254.36712074 C21.93031182 244.90519153 21.08349672 235.45618635 20.203125 226.0078125 C20.12554836 225.17318356 20.04797173 224.33855461 19.96804428 223.47863388 C19.56576025 219.15518008 19.16117405 214.83194628 18.75506592 210.5088501 C17.86664324 201.04841564 16.99118068 191.5867769 16.1171875 182.125 C16.02804203 181.16049046 15.93889656 180.19598091 15.84704971 179.2022438 C13.93734035 158.5171256 12.14374197 137.82257728 10.375 117.125 C8.03720066 89.77527489 5.61061397 62.43580112 3.04992676 35.10599327 C2.86807361 33.16491209 2.68656654 31.2237985 2.50506592 29.28268433 C2.28761847 26.9602545 2.06917659 24.63791741 1.84942627 22.31570435 C1.15209503 14.87992326 0.57300671 7.44908721 0 0 Z " fill="#EAEAEA" transform="translate(327,1346)"/>
<path d="M0 0 C149.82 0 299.64 0 454 0 C454 59.73 454 119.46 454 181 C538.81 181 623.62 181 711 181 C711 182.65 711 184.3 711 186 C710.67 184.68 710.34 183.36 710 182 C709.39767746 182.00015598 708.79535493 182.00031196 708.17478019 182.00047267 C642.63348343 182.0174102 577.09218642 182.03311683 511.55088806 182.04234314 C510.08355837 182.04255023 510.08355837 182.04255023 508.58658565 182.04276149 C487.32991371 182.04575404 466.07324175 182.04852427 444.81656975 182.05106533 C434.39309402 182.05231272 423.9696183 182.05360927 413.54614258 182.05493164 C412.50885251 182.0550624 411.47156244 182.05519316 410.40283934 182.05532788 C376.74957247 182.05959321 343.09630728 182.06710748 309.44304143 182.07629722 C274.87504817 182.08571965 240.30705584 182.09188308 205.73906132 182.09391499 C200.86243754 182.09420317 195.98581376 182.0945288 191.10918999 182.09487724 C189.66943147 182.09497838 189.66943147 182.09497838 188.20058692 182.09508156 C172.71720178 182.09626568 157.23381949 182.10091021 141.75043551 182.10683203 C126.2041785 182.11270466 110.65792435 182.11497166 95.11166627 182.11350138 C85.86258164 182.11273777 76.61350738 182.11479539 67.36442461 182.12079754 C61.19796889 182.12452771 55.03152001 182.12467767 48.86506383 182.12183181 C45.34387919 182.12031177 41.82271427 182.12042841 38.30153168 182.12488318 C34.52151304 182.12962945 30.74152338 182.12676648 26.96150303 182.12304783 C25.85071431 182.12567484 24.73992558 182.12830186 23.5954766 182.13100848 C22.09991835 182.12763754 22.09991835 182.12763754 20.57414681 182.1241985 C19.27537414 182.12443247 19.27537414 182.12443247 17.95036364 182.12467116 C16 182 16 182 15 181 C14.74932625 179.18059517 14.56214844 177.35241699 14.39967346 175.52302551 C14.23787094 173.73857529 14.23787094 173.73857529 14.07279968 171.91807556 C13.95673518 170.58707384 13.84075603 169.25606467 13.72485352 167.92504883 C13.60026206 166.53200868 13.47527298 165.13900405 13.34991455 163.74603271 C13.0090331 159.94550077 12.67374438 156.14449318 12.33939099 152.34338212 C11.98723433 148.35083929 11.62993824 144.35875656 11.2731781 140.36662292 C10.59554895 132.77520757 9.9224961 125.18339368 9.25109094 117.5914256 C8.49483548 109.04225095 7.73384252 100.49350041 6.97227967 91.94479716 C6.04074914 81.48816063 5.10979944 71.03147402 4.18299866 60.57441711 C4.11736357 59.83451493 4.05172848 59.09461274 3.98410445 58.33228928 C3.66636335 54.74991582 3.3493966 51.16747769 3.03417301 47.58488178 C2.50248649 41.55528755 1.96060818 35.52733451 1.36911011 29.50326538 C1.27412452 28.52009936 1.17913893 27.53693335 1.08127499 26.52397442 C0.91262495 24.79153109 0.73898392 23.0595585 0.55801487 21.32835865 C-0.13816207 14.12992642 0 7.35478306 0 0 Z " fill="#EAEAEB" transform="translate(271,706)"/>
<path d="M0 0 C139.26 0 278.52 0 422 0 C422 59.73 422 119.46 422 181 C288.02 181 154.04 181 16 181 C14.68 166.48 13.36 151.96 12 137 C11.14323261 127.84069641 10.28547705 118.6815988 9.41903687 109.52322388 C7.40863291 88.24715135 5.42764434 66.96843057 3.51339722 45.68347168 C3.29953842 43.30733408 3.08482496 40.93127321 2.86917114 38.55529785 C2.57020347 35.2571563 2.27481944 31.95871269 1.98046875 28.66015625 C1.89532013 27.72625565 1.81017151 26.79235504 1.72244263 25.83015442 C0.9619437 17.22083884 0.50835283 8.64199819 0 0 Z " fill="#EAEAEA" transform="translate(303,1074)"/>
<path d="M0 0 C73.26 0 146.52 0 222 0 C222 26.73 222 53.46 222 81 C179.43 81 136.86 81 93 81 C93 85.95 93 90.9 93 96 C135.57 96 178.14 96 222 96 C222 157.05 222 218.1 222 281 C148.74 281 75.48 281 0 281 C0 252.95 0 224.9 0 196 C42.57 196 85.14 196 129 196 C129 191.05 129 186.1 129 181 C86.43 181 43.86 181 0 181 C0 121.27 0 61.54 0 0 Z " fill="#000000" transform="translate(605,0)"/>
<path d="M0 0 C72.93 0 145.86 0 221 0 C221 26.73 221 53.46 221 81 C178.76 81 136.52 81 93 81 C93 85.95 93 90.9 93 96 C135.24 96 177.48 96 221 96 C221 157.05 221 218.1 221 281 C148.07 281 75.14 281 0 281 C0 252.95 0 224.9 0 196 C42.24 196 84.48 196 128 196 C128 191.05 128 186.1 128 181 C85.76 181 43.52 181 0 181 C0 121.27 0 61.54 0 0 Z " fill="#000000" transform="translate(870,0)"/>
<path d="M0 0 C207.9 0 415.8 0 630 0 C629.41882172 11.0423873 628.8412065 21.99267402 627.79466248 32.98712158 C627.71883879 33.78879005 627.6430151 34.59045853 627.56489372 35.41641998 C627.48676004 36.24193108 627.40862637 37.06744217 627.328125 37.91796875 C627.1635111 39.6880979 626.99926006 41.45826083 626.83534241 43.22845459 C626.48945687 46.95685335 626.14137343 50.68503702 625.79141235 54.41305542 C625.24134481 60.27378396 624.69661937 66.13500107 624.15307617 71.99633789 C624.06246886 72.9732833 623.97186155 73.95022871 623.87850857 74.95677853 C623.69607298 76.9239081 623.51365252 78.89103907 623.33124733 80.85817146 C623.05928857 83.7893861 622.78686454 86.72055717 622.514328 89.65171814 C621.08073407 105.07742822 619.68130637 120.50589211 618.3125 135.9375 C618.16832642 137.56211151 618.16832642 137.56211151 618.02124023 139.21954346 C617.64003665 143.51646192 617.25898135 147.81339335 616.87857056 152.11038208 C616.1339246 160.51440346 615.37849373 168.91743201 614.62109375 177.3203125 C614.2755455 181.16153913 613.93014878 185.00277934 613.58480835 188.84402466 C613.36551825 191.279522 613.1456703 193.71496919 612.92520142 196.15036011 C612.62042749 199.51806913 612.31731415 202.88591954 612.015625 206.25390625 C611.92242477 207.29407394 611.82922455 208.33424164 611.73320007 209.40592957 C611.11874141 216.37234015 610.61442378 223.33688032 610.23730469 230.32006836 C610 233 610 233 609 236 C607.27856445 236.84814453 607.27856445 236.84814453 605.05078125 237.5078125 C604.23432129 237.75563477 603.41786133 238.00345703 602.57666016 238.25878906 C601.7263623 238.50338867 600.87606445 238.74798828 600 239 C599.21286621 239.23686523 598.42573242 239.47373047 597.61474609 239.71777344 C595.14401968 240.45550006 592.66742594 241.16883803 590.1875 241.875 C589.2809668 242.134021 588.37443359 242.39304199 587.44042969 242.65991211 C580.40846458 244.64808028 573.33925538 246.44164459 566.2409668 248.17529297 C560.24667911 249.65213789 554.34078248 251.33842183 548.43261719 253.12524414 C542.15197697 255.00371052 535.80847991 256.5696843 529.44140625 258.125 C524.08105344 259.44650454 518.78407002 260.90179357 513.5 262.5 C506.53188606 264.60755809 499.51243092 266.3977268 492.44140625 268.125 C487.08105344 269.44650454 481.78407002 270.90179357 476.5 272.5 C470.37347797 274.35301234 464.21764541 275.98102739 458 277.5 C451.84720193 279.00438167 445.75171853 280.60808726 439.6875 282.4375 C432.71693388 284.52757158 425.71627165 286.48965988 418.6875 288.375 C417.19126099 288.78770142 417.19126099 288.78770142 415.66479492 289.20874023 C414.25870972 289.58107788 414.25870972 289.58107788 412.82421875 289.9609375 C411.57257935 290.29810791 411.57257935 290.29810791 410.2956543 290.64208984 C407.85679073 291.02232743 406.32278538 290.7725924 404 290 C404.99 290 405.98 290 407 290 C407 194.63 407 99.26 407 1 C272.69 1 138.38 1 0 1 C0 0.67 0 0.34 0 0 Z " fill="#2A65F0" transform="translate(319,1255)"/>
<path d="M0 0 C72.93 0 145.86 0 221 0 C221 30.69 221 61.38 221 93 C178.76 93 136.52 93 93 93 C93 123.03 93 153.06 93 184 C135.24 184 177.48 184 221 184 C221 214.69 221 245.38 221 277 C148.07 277 75.14 277 0 277 C0 185.59 0 94.18 0 0 Z " fill="#000000" transform="translate(341,0)"/>
<path d="M0 0 C84.15 0 168.3 0 255 0 C254.4206698 11.00727379 253.84130709 21.92269498 252.8359375 32.8828125 C252.66258401 34.82413634 252.48923263 36.76546038 252.31595421 38.70679092 C252.13187417 40.76210299 251.94614158 42.81725934 251.7598877 44.87237549 C251.15611693 51.53558736 250.56243716 58.1997031 249.9679718 64.86375046 C249.82726811 66.44044555 249.68642834 68.0171285 249.54545593 69.59379959 C248.37597448 82.67485179 247.23904857 95.75853313 246.1171875 108.84375 C245.95955294 110.68032915 245.80190933 112.51690752 245.64425659 114.35348511 C245.02794776 121.53647505 244.4119631 128.71949081 243.80047607 135.90289307 C243.44177531 140.11663222 243.08095452 144.33018518 242.71875381 148.54362488 C242.58672121 150.08439624 242.45547959 151.62523567 242.32516098 153.16615295 C242.26425404 153.88608932 242.20334709 154.6060257 242.14059448 155.34777832 C242.088412 155.96760841 242.03622952 156.58743851 241.98246574 157.22605133 C241.1392028 166.8483975 240.06809448 176.38714971 239 186 C20.54 186 -197.92 186 -423 186 C-423 185.67 -423 185.34 -423 185 C-283.41 185 -143.82 185 0 185 C0 123.95 0 62.9 0 0 Z " fill="#2965F0" transform="translate(726,888)"/>
</svg>
