<?xml version="1.0" encoding="UTF-8"?>
<svg version="1.1" xmlns="http://www.w3.org/2000/svg" width="1322" height="189">
<path d="M0 0 C4.01603469 1.67668279 5.00216138 3.63852856 6.82080078 7.56933594 C9.18410359 12.44077336 12.12972377 17.00051163 14.9375 21.625 C16.29354522 23.87204805 17.64900397 26.11945011 19.00390625 28.3671875 C19.67953613 29.48706055 20.35516602 30.60693359 21.05126953 31.76074219 C23.84854573 36.41048669 26.61676505 41.07701501 29.375 45.75 C29.89392822 46.62889893 30.41285645 47.50779785 30.94750977 48.41333008 C33.99594253 53.58345361 37.03225168 58.76060813 40.0625 63.94140625 C41.49987279 66.39851195 42.93736631 68.85554694 44.375 71.3125 C44.73575623 71.92911499 45.09651245 72.54572998 45.46820068 73.18103027 C51.01907759 82.66469465 56.6441433 92.10105105 62.31567383 101.51318359 C68.0174058 110.99156457 73.61309325 120.53069383 79.19140625 130.08203125 C79.53388901 130.66811661 79.87637177 131.25420197 80.22923279 131.85804749 C81.15226561 133.43809876 82.07434133 135.01870905 82.99633789 136.59936523 C85.63755517 141.08206483 88.32310749 145.53851248 91 150 C91.495 110.4 91.495 110.4 92 70 C94.70966925 69.09677692 96.2558956 68.87479262 99.03567219 68.87415886 C99.85974231 68.87155111 100.68381243 68.86894336 101.53285438 68.86625659 C102.89093098 68.86960268 102.89093098 68.86960268 104.27644348 68.87301636 C105.23885395 68.87145637 106.20126442 68.86989638 107.19283885 68.86828911 C110.43432003 68.86428497 113.67575476 68.86746698 116.91723633 68.87060547 C119.23710152 68.86925079 121.55696649 68.86747047 123.87683105 68.86529541 C130.20392575 68.86071817 136.53100422 68.8625147 142.85809922 68.8656745 C148.84040425 68.86795215 154.8227078 68.86621095 160.80501278 68.8647473 C173.43025741 68.86188988 186.0554948 68.86517867 198.68073823 68.87054767 C209.41175562 68.87497152 220.14276213 68.87427737 230.8737793 68.86962891 C243.38883206 68.86421 255.90387837 68.86221109 268.41893214 68.86524117 C269.770033 68.86555961 271.12113386 68.86587399 272.47223473 68.86618423 C273.1365558 68.86633851 273.80087687 68.86649279 274.48532889 68.86665174 C279.0653889 68.86749865 283.64544454 68.86604219 288.22550392 68.86370468 C320.16926033 68.84957103 352.06482094 69.19074134 384 70 C384.33 84.52 384.66 99.04 385 114 C392.52432774 113.96041166 392.52432774 113.96041166 400.04858398 113.90991211 C400.98001221 113.90741455 401.91144043 113.90491699 402.87109375 113.90234375 C403.82943115 113.89710693 404.78776855 113.89187012 405.77514648 113.88647461 C408 114 408 114 409 115 C409.12221525 116.44184293 409.17772758 117.88943144 409.20532227 119.33618164 C409.22526749 120.2570607 409.24521271 121.17793976 409.26576233 122.12672424 C409.29083107 123.62827309 409.29083107 123.62827309 409.31640625 125.16015625 C409.33718735 126.17975937 409.35796844 127.19936249 409.37937927 128.24986267 C409.44498852 131.52067048 409.50381234 134.79156137 409.5625 138.0625 C409.60567442 140.27409728 409.64928834 142.48568603 409.69335938 144.69726562 C409.8006814 150.13142151 409.90242623 155.56566082 410 161 C407.07917545 162.46041228 404.51698631 162.11928796 401.25537109 162.11352539 C400.21617775 162.11374443 400.21617775 162.11374443 399.1559906 162.1139679 C396.86177459 162.11327018 394.56763936 162.10548442 392.2734375 162.09765625 C390.68445887 162.09579157 389.09547966 162.0943679 387.50650024 162.09336853 C383.32090675 162.08954731 379.13534787 162.07972039 374.94976807 162.06866455 C370.68005847 162.05844194 366.4103433 162.05386909 362.140625 162.04882812 C353.76040077 162.03809778 345.38020469 162.02102608 337 162 C335.85963283 157.90553672 335.86702182 153.96580914 335.88647461 149.74316406 C335.88632858 148.91352646 335.88618256 148.08388885 335.8860321 147.22911072 C335.88672788 144.4912554 335.89450461 141.75346841 335.90234375 139.015625 C335.90420912 137.11562131 335.90563246 135.21561714 335.90663147 133.31561279 C335.91044727 128.31791859 335.92026959 123.32025351 335.93133545 118.3225708 C335.94156969 113.22156162 335.94613341 108.12054774 335.95117188 103.01953125 C335.96189268 93.01300805 335.97895788 83.00650645 336 73 C334.68 72.67 333.36 72.34 332 72 C332 101.37 332 130.74 332 161 C329.58225419 162.20887291 328.06668936 162.12059343 325.36669922 162.11352539 C324.39240967 162.11340454 323.41812012 162.11328369 322.41430664 162.11315918 C321.38813232 162.10804321 320.36195801 162.10292725 319.3046875 162.09765625 C318.36310791 162.09664917 317.42152832 162.09564209 316.45141602 162.09460449 C312.92593166 162.08936287 309.40046464 162.07540166 305.875 162.0625 C297.99625 162.041875 290.1175 162.02125 282 162 C281.505 117.945 281.505 117.945 281 73 C279.515 73.495 279.515 73.495 278 74 C278 102.71 278 131.42 278 161 C275.24903699 162.3754815 273.05617892 162.12408931 269.97547722 162.12304783 C268.68263876 162.12503888 267.3898003 162.12702993 266.05778491 162.12908131 C264.60947647 162.12622788 263.1611682 162.12328228 261.71286011 162.12025452 C260.18495768 162.12069021 258.65705533 162.12156507 257.12915337 162.12284368 C252.91508029 162.12508909 248.70103242 162.12106673 244.48696256 162.11606562 C239.94844133 162.11176196 235.40992162 162.11320749 230.87139893 162.1139679 C223.00294531 162.11449318 215.13449997 162.11134587 207.26604843 162.10573006 C195.8894767 162.09761572 184.51290898 162.0949999 173.13633467 162.09374207 C154.68024298 162.09155144 136.2241557 162.08489107 117.76806641 162.07543945 C99.83577496 162.06626561 81.90348472 162.05918464 63.97119141 162.05493164 C62.86652849 162.05466892 61.76186557 162.05440619 60.62372802 162.05413551 C55.08216293 162.05283051 49.54059784 162.05156679 43.99903274 162.05032361 C-2.0006479 162.03995067 -48.00032372 162.02233207 -94 162 C-93.67 160.35 -93.34 158.7 -93 157 C-92.34 157 -91.68 157 -91 157 C-90.72285156 156.27554688 -90.44570312 155.55109375 -90.16015625 154.8046875 C-86.76081275 146.58674599 -81.84863379 139.01673462 -77.2565918 131.421875 C-74.38955781 126.67409105 -71.6520514 121.87130275 -69 117 C-68.08443922 115.35355122 -67.16777481 113.70771565 -66.25 112.0625 C-65.13079173 110.05430035 -64.02813706 108.05627411 -63 106 C-62.34 106 -61.68 106 -61 106 C-60.566875 104.63875 -60.566875 104.63875 -60.125 103.25 C-59.23468224 100.67797092 -58.28505587 98.38653234 -57 96 C-56.34 96 -55.68 96 -55 96 C-54.9175 95.484375 -54.835 94.96875 -54.75 94.4375 C-53.6660882 90.91478666 -51.95092643 88.13330608 -50 85 C-49.34 84.67 -48.68 84.34 -48 84 C-47.29289322 82.35008418 -46.63437344 80.6792238 -46 79 C-45.01642648 76.99187074 -44.01691264 74.99145391 -43 73 C-42.608125 72.21625 -42.21625 71.4325 -41.8125 70.625 C-41.544375 70.08875 -41.27625 69.5525 -41 69 C-40.34 69 -39.68 69 -39 69 C-38.855625 68.401875 -38.71125 67.80375 -38.5625 67.1875 C-38.1127561 65.43849596 -37.57107659 63.71322977 -37 62 C-36.34 62 -35.68 62 -35 62 C-34.9175 61.278125 -34.835 60.55625 -34.75 59.8125 C-33.82977523 56.36165711 -32.24825733 54.79513074 -30 52 C-28.46957239 49.3400737 -27.0322233 46.63827811 -25.58984375 43.9296875 C-23.57315667 40.21343366 -21.39961799 36.60567256 -19.19921875 32.99609375 C-17.98164072 31.02767324 -17.98164072 31.02767324 -17 29 C-16.34 29 -15.68 29 -15 29 C-14.67 27.02 -14.34 25.04 -14 23 C-13.34 23 -12.68 23 -12 23 C-11.67 21.35 -11.34 19.7 -11 18 C-10.34 18 -9.68 18 -9 18 C-8.62875 17.01 -8.62875 17.01 -8.25 16 C-6.68182955 12.23639093 -4.85494954 8.6288576 -3 5 C-2.34 5 -1.68 5 -1 5 C-0.67 3.35 -0.34 1.7 0 0 Z M229 71 C229 81.56 229 92.12 229 103 C229.99 103 230.98 103 232 103 C232.07407906 98.76419747 232.12856696 94.52873659 232.16479492 90.29248047 C232.17989483 88.85100742 232.20037658 87.40958041 232.22631836 85.96826172 C232.2626513 83.89799657 232.27971329 81.82833793 232.29296875 79.7578125 C232.3086792 78.5114502 232.32438965 77.26508789 232.34057617 75.98095703 C232.22818604 74.99724121 232.1157959 74.01352539 232 73 C231.01 72.34 230.02 71.68 229 71 Z M184 71 C184 71.99 184 72.98 184 74 C182.68 73.67 181.36 73.34 180 73 C169.51983461 86.89037794 159.20049194 100.90304685 149 115 C150.72123562 118.89190498 153.2206548 122.17115396 155.75 125.5625 C156.73570256 126.8945124 157.72137828 128.22654466 158.70703125 129.55859375 C159.23506348 130.26999512 159.7630957 130.98139648 160.30712891 131.71435547 C162.11101006 134.14988119 163.90598202 136.59178377 165.69921875 139.03515625 C166.94529711 140.73178214 168.19139065 142.42839688 169.4375 144.125 C170.32356934 145.33265015 170.32356934 145.33265015 171.22753906 146.56469727 C175.80313981 153.86685907 175.80313981 153.86685907 182.25 158.8125 C183.11625 158.9053125 183.11625 158.9053125 184 159 C185.09034615 154.6016551 185.13487401 150.31501094 185.11352539 145.81323242 C185.11367142 145.00295593 185.11381744 144.19267944 185.1139679 143.35784912 C185.11327347 140.69036138 185.10550312 138.02294423 185.09765625 135.35546875 C185.0957904 133.5017348 185.09436728 131.64800036 185.09336853 129.79426575 C185.08955651 124.92317333 185.07973746 120.05211088 185.06866455 115.18103027 C185.05842215 110.20727951 185.05386485 105.2335239 185.04882812 100.25976562 C185.038114 90.50649727 185.02105338 80.75325113 185 71 C184.67 71 184.34 71 184 71 Z M229 128 C229 138.23 229 148.46 229 159 C229.99 159.33 230.98 159.66 232 160 C232 149.44 232 138.88 232 128 C231.01 128 230.02 128 229 128 Z " fill="#F8F7F1" transform="translate(112,15)"/>
<path d="M0 0 C1.58514252 0.00056958 1.58514252 0.00056958 3.20230812 0.00115067 C4.41652083 -0.00084038 5.63073354 -0.00283143 6.88174057 -0.00488281 C8.24652577 -0.00202922 9.61131079 0.00091638 10.97609562 0.00394398 C12.41238939 0.0035084 13.84868309 0.00263375 15.28497636 0.00135481 C19.25047475 -0.00089284 23.21594639 0.00313481 27.18144137 0.00813287 C31.45072067 0.01243334 35.71999835 0.01099124 39.98927921 0.0102306 C47.39229865 0.00970511 54.7953093 0.01285454 62.19832653 0.01846844 C72.90197431 0.02658002 83.60561783 0.02919831 94.30926835 0.03045643 C111.67334644 0.03264749 129.03741985 0.03930903 146.4014954 0.04875904 C163.27356547 0.05793177 180.14563427 0.06501328 197.01770633 0.06926686 C198.57652394 0.06966094 198.57652394 0.06966094 200.16683281 0.07006299 C205.38001897 0.07136798 210.59320513 0.0726317 215.8063913 0.07387489 C259.08573589 0.08424918 302.36507536 0.10186895 345.64441532 0.1241985 C345.66968477 6.7994019 345.687248 13.47459306 345.69934696 20.14983326 C345.70438857 22.42262441 345.71122169 24.69541229 345.71985477 26.96819264 C345.73192793 30.22723401 345.73764519 33.48623266 345.74207157 36.74529225 C345.74723285 37.76819859 345.75239414 38.79110493 345.75771183 39.84500843 C345.75782512 41.25635815 345.75782512 41.25635815 345.75794071 42.69621998 C345.76016132 43.52894932 345.76238193 44.36167866 345.76466984 45.21964222 C345.64441532 47.1241985 345.64441532 47.1241985 344.64441532 48.1241985 C341.94786678 48.19739471 339.27750074 48.21662387 336.58191532 48.1866985 C335.4439954 48.17993092 335.4439954 48.17993092 334.28308719 48.17302662 C332.40349661 48.1612053 330.52394633 48.14326927 328.64441532 48.1241985 C328.65227054 50.06238453 328.65227054 50.06238453 328.66028446 52.03972584 C328.67834899 56.82178263 328.68985268 61.60383639 328.69934696 66.38591725 C328.70438384 68.45786251 328.71121356 70.5298042 328.71985477 72.60173756 C328.73194853 75.57537931 328.73764999 78.54897419 328.74207157 81.522636 C328.74723285 82.45288594 328.75239414 83.38313587 328.75771183 84.34157521 C328.75782512 85.63268711 328.75782512 85.63268711 328.75794071 86.94988209 C328.76016132 87.70933125 328.76238193 88.46878041 328.76466984 89.25124317 C328.64441532 91.1241985 328.64441532 91.1241985 327.64441532 93.1241985 C312.13441532 93.1241985 296.62441532 93.1241985 280.64441532 93.1241985 C280.64441532 78.2741985 280.64441532 63.4241985 280.64441532 48.1241985 C267.77441532 48.1241985 254.90441532 48.1241985 241.64441532 48.1241985 C241.64441532 62.9741985 241.64441532 77.8241985 241.64441532 93.1241985 C226.13441532 93.1241985 210.62441532 93.1241985 194.64441532 93.1241985 C194.31441532 78.2741985 193.98441532 63.4241985 193.64441532 48.1241985 C187.70441532 48.1241985 181.76441532 48.1241985 175.64441532 48.1241985 C174.95735369 42.62770548 174.53270784 37.86777286 174.58191532 32.413261 C174.58759525 31.37194523 174.58759525 31.37194523 174.59338993 30.30959278 C174.60546882 28.12272708 174.62411791 25.93600235 174.64441532 23.7491985 C174.6709788 20.84555665 174.69094473 17.94197814 174.70691532 15.038261 C174.72431766 13.1194109 174.72431766 13.1194109 174.74207157 11.16179615 C174.85896635 8.20476522 174.85896635 8.20476522 173.64441532 6.1241985 C172.25265953 8.90771007 172.5503151 11.13719135 172.58191532 14.25310475 C172.59055573 15.58928525 172.599009 16.92546698 172.60730594 18.26164967 C172.61350956 18.98017109 172.61971317 19.69869251 172.62610477 20.43898731 C172.82083806 44.34347252 172.17994643 68.22612265 171.64441532 92.1241985 C133.52941532 92.6191985 133.52941532 92.6191985 94.64441532 93.1241985 C94.60703251 86.79490162 94.56964969 80.46560475 94.53113407 73.944511 C94.50087063 69.94318126 94.46973348 65.9418969 94.43543094 61.94060475 C94.38102617 55.58467038 94.32991993 49.22882578 94.29797977 42.87273365 C94.27203709 37.75031732 94.23169952 32.62820095 94.18122905 27.50596958 C94.16449895 25.54831751 94.1530231 23.59061349 94.14680141 21.63289982 C94.13722679 18.89806872 94.10924854 16.16401576 94.07678837 13.42937428 C94.07822345 12.61369984 94.07965854 11.7980254 94.08113712 10.95763355 C94.0745511 8.47813621 94.0745511 8.47813621 93.64441532 5.1241985 C92.65441532 4.4641985 91.66441532 3.8041985 90.64441532 3.1241985 C90.64441532 32.4941985 90.64441532 61.8641985 90.64441532 92.1241985 C87.34893729 93.77193751 83.68534368 93.25315575 80.06384891 93.23772389 C79.17598194 93.23786991 78.28811496 93.23801594 77.37334293 93.23816639 C74.42982163 93.23746805 71.48636311 93.22967931 68.54285282 93.22185475 C66.50546914 93.21999029 64.46808501 93.21856652 62.43070072 93.21756703 C57.06143566 93.21374404 51.69219754 93.20391561 46.32294315 93.19286305 C40.84677091 93.18264423 35.37059434 93.1780684 29.89441532 93.17302662 C19.14440347 93.16229316 8.39441163 93.14521935 -2.35558468 93.1241985 C-3.52122769 88.95127171 -3.49577617 84.91179822 -3.48497921 80.60784107 C-3.48673153 79.75054905 -3.48848385 78.89325703 -3.49028927 78.00998646 C-3.49468677 75.1795469 -3.49177796 72.34916992 -3.48839718 69.51872975 C-3.48907064 67.55386044 -3.49004101 65.58899122 -3.49129635 63.6241222 C-3.49277032 59.50931208 -3.49062772 55.39452367 -3.48595577 51.27971607 C-3.48024741 45.99326218 -3.48354639 40.70685893 -3.48952824 35.42040688 C-3.49313237 31.36538008 -3.49199615 27.3103654 -3.48940045 23.25533825 C-3.48873135 21.30519501 -3.489559 19.35505069 -3.49188 17.40490872 C-3.49440532 14.68736666 -3.49056817 11.96990812 -3.48497921 9.25237232 C-3.48700344 8.43938679 -3.48902767 7.62640126 -3.49111325 6.7887798 C-3.46580498 0.182735 -3.46580498 0.182735 0 0 Z M41.64441532 2.1241985 C41.64441532 12.6841985 41.64441532 23.2441985 41.64441532 34.1241985 C42.63441532 33.7941985 43.62441532 33.4641985 44.64441532 33.1241985 C44.64441532 24.5441985 44.64441532 15.9641985 44.64441532 7.1241985 C44.31441532 7.1241985 43.98441532 7.1241985 43.64441532 7.1241985 C43.31441532 5.4741985 42.98441532 3.8241985 42.64441532 2.1241985 C42.31441532 2.1241985 41.98441532 2.1241985 41.64441532 2.1241985 Z M261.64441532 2.1241985 C261.31441532 3.7741985 260.98441532 5.4241985 260.64441532 7.1241985 C259.98441532 7.1241985 259.32441532 7.1241985 258.64441532 7.1241985 C258.71333275 12.03599352 258.80131785 16.94694052 258.90686649 21.85808522 C258.94008802 23.52823683 258.96812866 25.19849996 258.99085087 26.8688274 C259.02444866 29.27214213 259.07676478 31.67443748 259.13269657 34.0773235 C259.13908649 34.82226063 259.14547642 35.56719776 259.15205997 36.33470875 C259.28392787 41.00090687 259.69561463 42.19246424 262.64441532 46.1241985 C262.64441532 31.6041985 262.64441532 17.0841985 262.64441532 2.1241985 C262.31441532 2.1241985 261.98441532 2.1241985 261.64441532 2.1241985 Z M153.64441532 33.1241985 C153.64441532 33.4541985 153.64441532 33.7841985 153.64441532 34.1241985 C155.62441532 34.1241985 157.60441532 34.1241985 159.64441532 34.1241985 C159.64441532 33.7941985 159.64441532 33.4641985 159.64441532 33.1241985 C157.66441532 33.1241985 155.68441532 33.1241985 153.64441532 33.1241985 Z M258.64441532 42.1241985 C259.64441532 45.1241985 259.64441532 45.1241985 259.64441532 45.1241985 Z M153.64441532 60.1241985 C159.09134846 60.22108071 164.28346199 60.25282025 169.64441532 59.1241985 C169.64441532 58.7941985 169.64441532 58.4641985 169.64441532 58.1241985 C167.35300245 58.07035329 165.06123344 58.03147762 162.76941532 57.9991985 C161.49324344 57.97599537 160.21707157 57.95279225 158.90222782 57.928886 C155.55848194 57.76778326 155.55848194 57.76778326 153.64441532 60.1241985 Z M41.64441532 59.1241985 C41.64441532 69.6841985 41.64441532 80.2441985 41.64441532 91.1241985 C42.63441532 90.7941985 43.62441532 90.4641985 44.64441532 90.1241985 C44.64441532 79.8941985 44.64441532 69.6641985 44.64441532 59.1241985 C43.65441532 59.1241985 42.66441532 59.1241985 41.64441532 59.1241985 Z " fill="#F8F7F2" transform="translate(683.3555846810341,83.8758015036583)"/>
<path d="M0 0 C1.16198914 -0.00043808 2.32397827 -0.00087616 3.5211792 -0.00132751 C7.33582766 0.0007511 11.15002856 0.02403907 14.96459961 0.04760742 C17.61975345 0.05320667 20.27488298 0.05762291 22.93003845 0.06047058 C29.18781633 0.06976229 35.44543534 0.09433666 41.70314354 0.12451905 C48.83257741 0.15815311 55.96201922 0.1745716 63.0915128 0.18960536 C77.74590461 0.22088914 92.40017176 0.27359312 107.05444336 0.34057617 C107.91465726 4.36549288 108.18663479 8.05446354 108.19970703 12.17871094 C108.20306564 12.84601227 108.20642426 13.5133136 108.20988464 14.20083618 C108.21934155 16.3945708 108.22133475 18.58822873 108.22241211 20.78198242 C108.22562715 22.31225109 108.2289914 23.84251945 108.23249817 25.37278748 C108.23847539 28.57454135 108.2403394 31.77626828 108.23974609 34.97802734 C108.23964427 39.0793103 108.25332308 43.1804209 108.2705183 47.28166294 C108.28163582 50.43951715 108.28366542 53.59732956 108.28313637 56.75520134 C108.28431583 58.26746149 108.28873575 59.77972274 108.29646873 61.29196358 C108.30626852 63.40537772 108.30339139 65.51841572 108.29736328 67.63183594 C108.2987883 68.83365005 108.30021332 70.03546417 108.30168152 71.2736969 C108.05444336 74.34057617 108.05444336 74.34057617 106.05444336 78.34057617 C99.78444336 78.67057617 93.51444336 79.00057617 87.05444336 79.34057617 C89.03444336 80.33057617 91.01444336 81.32057617 93.05444336 82.34057617 C100.64518282 88.02506978 107.2102713 94.74749767 109.05444336 104.34057617 C110.55713818 116.94651606 109.98351442 126.34963587 103.05444336 137.34057617 C102.39444336 137.34057617 101.73444336 137.34057617 101.05444336 137.34057617 C100.78760742 137.93870117 100.52077148 138.53682617 100.24584961 139.15307617 C96.73717477 145.59523325 89.75337833 149.03263921 83.05444336 151.34057617 C79.62183363 152.14028507 76.45646521 152.46454874 72.93547058 152.46083069 C71.92731293 152.46220535 70.91915527 152.46358002 69.88044739 152.46499634 C68.78568588 152.46140106 67.69092438 152.45780579 66.56298828 152.45410156 C64.82088074 152.4543206 64.82088074 152.4543206 63.0435791 152.45454407 C59.20733773 152.45384778 55.37114499 152.4460686 51.53491211 152.43823242 C48.87404803 152.43636723 46.21318664 152.43489461 43.55232239 152.4339447 C37.26614634 152.43083956 30.97998772 152.42263719 24.69381934 152.41259521 C16.83291091 152.40031085 8.97199963 152.39484509 1.11108398 152.3894043 C-12.9078098 152.3796713 -26.92666554 152.35963797 -40.94555664 152.34057617 C-40.94555664 126.93057617 -40.94555664 101.52057617 -40.94555664 75.34057617 C-37.31555664 75.34057617 -33.68555664 75.34057617 -29.94555664 75.34057617 C-27.71406631 75.20861898 -25.48360977 75.05004 -23.25805664 74.84057617 C-22.24356445 74.74776367 -21.22907227 74.65495117 -20.18383789 74.55932617 C-19.07588867 74.45104492 -19.07588867 74.45104492 -17.94555664 74.34057617 C-18.53723633 74.08663086 -19.12891602 73.83268555 -19.73852539 73.57104492 C-29.95661779 69.12042393 -38.68475807 63.17456652 -42.94555664 52.34057617 C-43.90299455 48.69684105 -44.50121936 45.07951182 -44.94555664 41.34057617 C-45.07317383 40.28483398 -45.07317383 40.28483398 -45.20336914 39.20776367 C-45.7528685 30.15934096 -40.37764826 21.86060048 -35.94555664 14.34057617 C-35.28555664 14.34057617 -34.62555664 14.34057617 -33.94555664 14.34057617 C-33.7199707 13.75405273 -33.49438477 13.1675293 -33.26196289 12.56323242 C-31.56486124 9.69779967 -29.69507864 8.54597186 -26.88305664 6.77807617 C-25.98458008 6.19928711 -25.08610352 5.62049805 -24.16040039 5.02416992 C-16.11267577 0.80962641 -9.02372059 -0.09008706 0 0 Z M-14.94555664 75.34057617 C-10.94555664 76.34057617 -10.94555664 76.34057617 -10.94555664 76.34057617 Z " fill="#F8F7F1" transform="translate(567.945556640625,24.659423828125)"/>
<path d="M0 0 C3 0 3 0 5.0625 2 C5.49691406 2.45890625 5.93132812 2.9178125 6.37890625 3.390625 C12.48240254 9.44999963 19.71705933 14.32472596 26.88476562 19.03027344 C28.29033004 19.97154491 29.65026054 20.98029088 31 22 C31 22.66 31 23.32 31 24 C32.32 24.33 33.64 24.66 35 25 C35 25.66 35 26.32 35 27 C35.99 27 36.98 27 38 27 C38 27.66 38 28.32 38 29 C39.32 29.33 40.64 29.66 42 30 C42 30.66 42 31.32 42 32 C42.5671875 32.27070312 43.134375 32.54140625 43.71875 32.8203125 C46.08701529 34.04499763 48.27608311 35.40508233 50.5 36.875 C51.2528125 37.36742187 52.005625 37.85984375 52.78125 38.3671875 C55 40 55 40 56.765625 41.84375 C60.57028249 45.51537751 65.10087799 48.21208242 69.5078125 51.109375 C70.21164062 51.58117187 70.91546875 52.05296875 71.640625 52.5390625 C72.28547852 52.96396973 72.93033203 53.38887695 73.59472656 53.82666016 C74.0584668 54.2138623 74.52220703 54.60106445 75 55 C75 55.66 75 56.32 75 57 C75.99580078 56.27683594 75.99580078 56.27683594 77.01171875 55.5390625 C77.89472656 54.90742187 78.77773437 54.27578125 79.6875 53.625 C80.55761719 52.99851563 81.42773438 52.37203125 82.32421875 51.7265625 C85 50 85 50 87.76953125 48.9609375 C88.50558594 48.64382812 89.24164062 48.32671875 90 48 C90.33 47.01 90.66 46.02 91 45 C93.28034235 43.16938383 95.5419668 41.47679016 97.9375 39.8125 C98.58396484 39.34908203 99.23042969 38.88566406 99.89648438 38.40820312 C104.73020987 35 104.73020987 35 107 35 C107 34.34 107 33.68 107 33 C108.43017578 31.75415039 108.43017578 31.75415039 110.4453125 30.34765625 C111.18595947 29.82373291 111.92660645 29.29980957 112.68969727 28.76000977 C113.49334717 28.19983154 114.29699707 27.63965332 115.125 27.0625 C121.05497471 22.86461428 126.89085951 18.60410067 132.5625 14.0625 C136.99650507 10.51289372 141.48953202 7.20194267 146.328125 4.21875 C148.29432342 2.93292385 148.29432342 2.93292385 150 0 C150.99 0 151.98 0 153 0 C153 52.14 153 104.28 153 158 C102.51 158 52.02 158 0 158 C0 105.86 0 53.72 0 0 Z " fill="#F8F7F1" transform="translate(1154,19)"/>
<path d="M0 0 C5.5661988 0.01043443 11.13240254 0.01483961 16.6986084 0.01983643 C27.52023542 0.03039739 38.34184132 0.04734561 49.16345215 0.06866455 C49.49345215 1.05866455 49.82345215 2.04866455 50.16345215 3.06866455 C49.50345215 3.39866455 48.84345215 3.72866455 48.16345215 4.06866455 C47.00239152 5.85798587 47.00239152 5.85798587 45.88220215 8.0413208 C44.11871277 11.31036984 42.32374148 14.54806551 40.44470215 17.7522583 C34.09249321 28.58412718 34.09249321 28.58412718 28.3392334 39.74053955 C26.37358291 43.63265813 24.13097057 47.36137594 21.9095459 51.1116333 C21.33333496 52.08745361 20.75712402 53.06327393 20.16345215 54.06866455 C19.47477051 54.99606445 18.78608887 55.92346436 18.07653809 56.87896729 C14.90979295 62.47327218 15.69348629 68.82603252 15.8079834 75.06085205 C15.81799795 76.41607411 15.82607953 77.77131171 15.83232117 79.1265564 C15.85314858 82.67413807 15.89716877 86.22103331 15.94708252 89.76831055 C16.02270289 95.46637748 16.06028303 101.16486327 16.1025753 106.86325455 C16.12030863 108.85373474 16.1471832 110.84412664 16.17414856 112.83450317 C16.18713486 114.03309967 16.20012115 115.23169617 16.21350098 116.46661377 C16.23492912 118.05710037 16.23492912 118.05710037 16.25679016 119.67971802 C16.16345215 122.06866455 16.16345215 122.06866455 15.16345215 123.06866455 C13.23038717 123.16262512 11.29386377 123.18609973 9.35852051 123.18218994 C8.11730942 123.18211441 6.87609833 123.18203888 5.59727478 123.18196106 C4.23261475 123.17685366 2.86795513 123.17163765 1.5032959 123.1663208 C0.11467032 123.16445655 -1.27395592 123.16303268 -2.6625824 123.16203308 C-6.323759 123.15820842 -9.98489615 123.14837858 -13.64605713 123.1373291 C-17.37947048 123.12711387 -21.11289019 123.12253522 -24.84631348 123.11749268 C-32.17640962 123.10675626 -39.50647322 123.08968047 -46.83654785 123.06866455 C-47.87829223 119.94343143 -47.87170098 118.11963917 -47.69616699 114.86407471 C-47.61958611 113.26164665 -47.61958611 113.26164665 -47.54145813 111.62684631 C-47.4854393 110.46553696 -47.42942047 109.3042276 -47.3717041 108.10772705 C-45.50297173 69.36093123 -45.50297173 69.36093123 -62.03063965 35.38873291 C-64.34913614 32.41013724 -66.04059203 29.39062041 -67.83654785 26.06866455 C-68.82597794 24.35407596 -69.81987478 22.64206104 -70.8170166 20.9319458 C-71.88611444 19.08173589 -72.95512315 17.23147449 -74.02404785 15.38116455 C-74.56996582 14.44466064 -75.11588379 13.50815674 -75.67834473 12.54327393 C-76.19848145 11.64028564 -76.71861816 10.73729736 -77.2545166 9.8069458 C-77.72655518 8.99266113 -78.19859375 8.17837646 -78.68493652 7.3394165 C-79.7612354 5.21716596 -80.30608824 3.37142014 -80.83654785 1.06866455 C-53.88895641 0.01649666 -26.96497672 -0.05610753 0 0 Z " fill="#F8F7F1" transform="translate(1101.8365478515625,54.93133544921875)"/>
<path d="M0 0 C0.99 0 1.98 0 3 0 C3 13.86 3 27.72 3 42 C2.34 42 1.68 42 1 42 C1 78.96 1 115.92 1 154 C0.67 154 0.34 154 0 154 C-0.495 80.74 -0.495 80.74 -1 6 C-1.66 6 -2.32 6 -3 6 C-3 6.66 -3 7.32 -3 8 C-4.32 8.33 -5.64 8.66 -7 9 C-7 8.01 -7 7.02 -7 6 C-5.35666496 4.96210419 -3.68756133 3.96432076 -2 3 C-1.34 2.01 -0.68 1.02 0 0 Z " fill="#FEFEFA" transform="translate(1304,19)"/>
<path d="M0 0 C2.97 0 5.94 0 9 0 C8.34 0.66 7.68 1.32 7 2 C3.375 1.625 3.375 1.625 0 1 C0 0.67 0 0.34 0 0 Z M1 2 C1.99 2.33 2.98 2.66 4 3 C3.67 3.66 3.34 4.32 3 5 C2.87784515 7.5012233 2.81436719 9.97647987 2.79467773 12.47900391 C2.78477814 13.24982803 2.77487854 14.02065216 2.76467896 14.81483459 C2.7330317 17.3687124 2.70829383 19.92260882 2.68359375 22.4765625 C2.663027 24.24490855 2.64203061 26.01324965 2.62062073 27.78158569 C2.56537119 32.44059243 2.51597464 37.09964375 2.46777344 41.75872803 C2.41757944 46.51106747 2.36188242 51.26334202 2.30664062 56.015625 C2.19902381 65.34369459 2.09758667 74.67182047 2 84 C1.67 84 1.34 84 1 84 C0.67 78.72 0.34 73.44 0 68 C-0.33 68 -0.66 68 -1 68 C-1.13068337 60.35917251 -1.26109266 52.71834039 -1.39115143 45.07750225 C-1.45155059 41.52961181 -1.51204438 37.98172304 -1.57275391 34.43383789 C-1.64253379 30.35563627 -1.71190303 26.27742775 -1.78125 22.19921875 C-1.80312378 20.92414963 -1.82499756 19.64908051 -1.84753418 18.33537292 C-1.86755493 17.15437515 -1.88757568 15.97337738 -1.90820312 14.7565918 C-1.92596802 13.71512497 -1.94373291 12.67365814 -1.96203613 11.60063171 C-2.04285542 6.06428313 -2.04285542 6.06428313 0 3 C0.33 2.67 0.66 2.34 1 2 Z " fill="#FEFEFA" transform="translate(771,84)"/>
<path d="M0 0 C1.98 0 3.96 0 6 0 C2.25 3.875 2.25 3.875 0 5 C-0.33 31.07 -0.66 57.14 -1 84 C-1.33 84 -1.66 84 -2 84 C-2.495 76.575 -2.495 76.575 -3 69 C-3.33 69 -3.66 69 -4 69 C-3.99777939 68.2277005 -3.99555878 67.455401 -3.99327087 66.65969849 C-3.97325496 59.3905466 -3.95801921 52.12140802 -3.94818783 44.85223579 C-3.94296356 41.1148575 -3.93587416 37.37750193 -3.92456055 33.64013672 C-3.9137155 30.03510184 -3.90771972 26.43008884 -3.90512276 22.82503891 C-3.90327143 21.44789154 -3.8996564 20.07074541 -3.89426994 18.69360733 C-3.88703819 16.76856906 -3.88659176 14.84350888 -3.88647461 12.91845703 C-3.884254 11.82147491 -3.88203339 10.7244928 -3.87974548 9.5942688 C-3.82368355 7.01486776 -3.82368355 7.01486776 -5 5 C-4.360625 4.731875 -3.72125 4.46375 -3.0625 4.1875 C-0.66868314 3.11332248 -0.66868314 3.11332248 0 0 Z " fill="#FEFEFC" transform="translate(390,84)"/>
<path d="M0 0 C2.64 0 5.28 0 8 0 C8.33 0.66 8.66 1.32 9 2 C7.35 2 5.7 2 4 2 C4 26.75 4 51.5 4 77 C2.68 76.67 1.36 76.34 0 76 C0 50.92 0 25.84 0 0 Z " fill="#FEFDF9" transform="translate(527,100)"/>
<path d="M0 0 C0.66 0 1.32 0 2 0 C2.89059415 6.84909314 3.15621535 13.53444906 3.125 20.4375 C3.12306641 21.47777344 3.12113281 22.51804688 3.11914062 23.58984375 C3.06862609 32.74981264 2.64594718 41.8644613 2 51 C1.01 51 0.02 51 -1 51 C-1.02493457 45.5048047 -1.04296987 40.00964318 -1.05493164 34.5144043 C-1.0599245 32.6494896 -1.06672112 30.78457874 -1.07543945 28.91967773 C-1.16597155 9.03989442 -1.16597155 9.03989442 0 0 Z " fill="#FEFEFD" transform="translate(681,110)"/>
<path d="M0 0 C0.66 0 1.32 0 2 0 C2 14.19 2 28.38 2 43 C0.515 43.495 0.515 43.495 -1 44 C-1.02464513 37.8944529 -1.04283371 31.78893449 -1.05493164 25.68334961 C-1.05997288 23.60456844 -1.06680574 21.52579084 -1.07543945 19.44702148 C-1.08751422 16.46597414 -1.09323024 13.48497351 -1.09765625 10.50390625 C-1.10539818 9.10078941 -1.10539818 9.10078941 -1.11329651 7.66932678 C-1.11337204 6.80850998 -1.11344757 5.94769318 -1.11352539 5.06079102 C-1.115746 4.29912125 -1.11796661 3.53745148 -1.12025452 2.75270081 C-1 1 -1 1 0 0 Z " fill="#FEFEFB" transform="translate(1027,84)"/>
<path d="M0 0 C14.85 0.33 29.7 0.66 45 1 C45 1.33 45 1.66 45 2 C43.37989014 2.029729 43.37989014 2.029729 41.72705078 2.06005859 C37.72746087 2.13601623 33.72823948 2.22474816 29.72900391 2.31738281 C27.99665593 2.35571341 26.26422726 2.39055906 24.53173828 2.421875 C22.04430251 2.46743765 19.55742434 2.52544503 17.0703125 2.5859375 C16.29317902 2.59748871 15.51604553 2.60903992 14.71536255 2.62094116 C10.39349025 2.58793768 10.39349025 2.58793768 7 5 C6.71853096 7.60047934 6.71853096 7.60047934 6.8125 10.5 C6.81894531 11.4796875 6.82539063 12.459375 6.83203125 13.46875 C6.83559274 15.99369384 6.83559274 15.99369384 8 18 C6.68 18.33 5.36 18.66 4 19 C3.67 14.38 3.34 9.76 3 5 C1.68 4.67 0.36 4.34 -1 4 C-0.34 3.67 0.32 3.34 1 3 C0.67 2.01 0.34 1.02 0 0 Z " fill="#FDFDFC" transform="translate(293,84)"/>
<path d="M0 0 C0.33 0 0.66 0 1 0 C1.29321695 4.00729838 0.75668206 5.91278265 -1.625 9.125 C-6.90861552 16.61427577 -10.97024062 24.78549049 -15 33 C-15.99 32.67 -16.98 32.34 -18 32 C-16.85993252 28.05361258 -15.85598116 25.85598116 -13 23 C-11.79950593 19.89992799 -11.79950593 19.89992799 -11 17 C-10.34 17 -9.68 17 -9 17 C-8.731875 16.113125 -8.46375 15.22625 -8.1875 14.3125 C-5.47126437 6.73563218 -5.47126437 6.73563218 -2 5 C-1.27840576 3.35636866 -0.60648579 1.68949614 0 0 Z " fill="#FCFCF9" transform="translate(1148,57)"/>
<path d="M0 0 C1.32 0 2.64 0 4 0 C3.83628906 1.134375 3.67257812 2.26875 3.50390625 3.4375 C2.93678986 7.9744311 2.88606052 12.43375665 2.9375 17 C2.94201172 17.77472656 2.94652344 18.54945313 2.95117188 19.34765625 C2.96280242 21.23180524 2.98073094 23.11591365 3 25 C2.01 25.33 1.02 25.66 0 26 C-0.19421438 23.04196565 -0.38066186 20.08379837 -0.5625 17.125 C-0.61857422 16.28324219 -0.67464844 15.44148437 -0.73242188 14.57421875 C-0.78076172 13.76855469 -0.82910156 12.96289062 -0.87890625 12.1328125 C-0.9260376 11.38918457 -0.97316895 10.64555664 -1.02172852 9.87939453 C-1 8 -1 8 0 6 C-0.66 5.67 -1.32 5.34 -2 5 C-1.34 5 -0.68 5 0 5 C0 4.34 0 3.68 0 3 C-0.66 2.67 -1.32 2.34 -2 2 C-1.34 1.34 -0.68 0.68 0 0 Z " fill="#FDFDF8" transform="translate(339,140)"/>
<path d="M0 0 C1.1875 1.5625 1.1875 1.5625 2 4 C0.69183024 7.92450928 -0.59004897 11.47960141 -4 14 C-4.66 14 -5.32 14 -6 14 C-6.12375 14.94875 -6.2475 15.8975 -6.375 16.875 C-7 20 -7 20 -9 22 C-9.66 21.34 -10.32 20.68 -11 20 C-9.35 17.03 -7.7 14.06 -6 11 C-5.34 11 -4.68 11 -4 11 C-3.67 9.02 -3.34 7.04 -3 5 C-2.34 5 -1.68 5 -1 5 C-0.67 3.35 -0.34 1.7 0 0 Z " fill="#FDFCF9" transform="translate(101,33)"/>
<path d="M0 0 C0.99 0.33 1.98 0.66 3 1 C2.01 1.495 2.01 1.495 1 2 C1.33 2.99 1.66 3.98 2 5 C1.979375 6.134375 1.95875 7.26875 1.9375 8.4375 C1.99585971 11.76400349 2.24937221 13.26464408 4 16 C3.01 16.99 2.02 17.98 1 19 C1.99 19.33 2.98 19.66 4 20 C2.68 20 1.36 20 0 20 C-0.95477011 13.67464804 -1.38235426 7.39881105 -1 1 C-0.67 0.67 -0.34 0.34 0 0 Z " fill="#FDFDFC" transform="translate(859,112)"/>
<path d="M0 0 C1.32 0 2.64 0 4 0 C5.52734375 1.609375 5.52734375 1.609375 6.9375 3.75 C9.2928844 7.13024631 11.6010559 9.60074534 15 12 C12 13 12 13 9.75 12.0625 C5.94994652 9.21245989 2.81820419 5.8252858 0 2 C0 1.34 0 0.68 0 0 Z " fill="#FDFCF9" transform="translate(529,82)"/>
<path d="M0 0 C-0.66 1.32 -1.32 2.64 -2 4 C-2.66 3.67 -3.32 3.34 -4 3 C-6.71760108 2.92818179 -9.40859388 2.90700494 -12.125 2.9375 C-13.25615234 2.94426758 -13.25615234 2.94426758 -14.41015625 2.95117188 C-16.27347127 2.96296501 -18.13674555 2.98090058 -20 3 C-19.67 2.01 -19.34 1.02 -19 0 C-16.20865148 -0.19425873 -13.41716313 -0.38069517 -10.625 -0.5625 C-9.8309375 -0.61857422 -9.036875 -0.67464844 -8.21875 -0.73242188 C-2.2265625 -1.11328125 -2.2265625 -1.11328125 0 0 Z " fill="#FDFEFA" transform="translate(521,130)"/>
<path d="M0 0 C2.475 0.495 2.475 0.495 5 1 C4.49339844 1.76570313 4.49339844 1.76570313 3.9765625 2.546875 C2.62444712 5.94338883 3.0398231 8.63008952 3.375 12.25 C3.48585938 13.51328125 3.59671875 14.7765625 3.7109375 16.078125 C3.85402344 17.52445313 3.85402344 17.52445313 4 19 C3.34 18.67 2.68 18.34 2 18 C0.34844122 12.10740139 -0.27098599 6.09718475 0 0 Z " fill="#FDFDFB" transform="translate(523,59)"/>
<path d="M0 0 C2.1385485 2.1385485 2.42655063 3.13275314 3 6 C3.66 5.34 4.32 4.68 5 4 C5.66 5.32 6.32 6.64 7 8 C4.69 8.66 2.38 9.32 0 10 C-1.2380014 6.42355152 -0.74926071 3.66305234 0 0 Z " fill="#FDFCFA" transform="translate(681,167)"/>
<path d="M0 0 C1.13199353 0.9080162 2.25532363 1.82683826 3.375 2.75 C4.00148438 3.26046875 4.62796875 3.7709375 5.2734375 4.296875 C7.08312318 6.08199481 8.00117455 7.67949644 9 10 C6 10 6 10 4 8.3125 C1.99727793 5.99685261 0.48432083 3.6717775 -1 1 C-0.67 0.67 -0.34 0.34 0 0 Z " fill="#FDFDFB" transform="translate(663,109)"/>
<path d="M0 0 C2 1 4 2 6 3 C6 3.66 6 4.32 6 5 C7.32 5.33 8.64 5.66 10 6 C9.34 6.66 8.68 7.32 8 8 C6.1875 8 6.1875 8 4 7 C2.1543032 5.10171925 0.61598185 3.10975408 -1 1 C-0.67 0.67 -0.34 0.34 0 0 Z " fill="#FCFCF9" transform="translate(1179,38)"/>
<path d="M0 0 C-0.1875 1.8125 -0.1875 1.8125 -1 4 C-3.375 5.5625 -3.375 5.5625 -6 7 C-7.75149165 8.58245275 -7.75149165 8.58245275 -9 10 C-9.33 9.01 -9.66 8.02 -10 7 C-9.34 7 -8.68 7 -8 7 C-7.7525 6.401875 -7.505 5.80375 -7.25 5.1875 C-5.55294333 2.21765083 -3.56508774 0 0 0 Z " fill="#FDFDFA" transform="translate(542,32)"/>
<path d="M0 0 C2.61500768 2.36595933 4.38999603 4.86049226 6 8 C5.67 8.66 5.34 9.32 5 10 C3.02 8.35 1.04 6.7 -1 5 C-0.67 3.35 -0.34 1.7 0 0 Z " fill="#FCFDF9" transform="translate(154,84)"/>
<path d="M0 0 C4.875 4.625 4.875 4.625 6 8 C5.01 8.33 4.02 8.66 3 9 C1.68 6.36 0.36 3.72 -1 1 C-0.67 0.67 -0.34 0.34 0 0 Z " fill="#FDFDF9" transform="translate(138,58)"/>
<path d="M0 0 C0.99 0.33 1.98 0.66 3 1 C1.02 3.97 -0.96 6.94 -3 10 C-3.66 9.67 -4.32 9.34 -5 9 C-3.50163895 5.88801935 -1.80066242 2.9465385 0 0 Z " fill="#FDFCF9" transform="translate(277,104)"/>
<path d="M0 0 C0.99 0 1.98 0 3 0 C1.375 5.75 1.375 5.75 -2 8 C-3 5 -3 5 -1.75 2.3125 C-1.1725 1.549375 -0.595 0.78625 0 0 Z " fill="#FDFCF9" transform="translate(43,132)"/>
<path d="M0 0 C0.66 0.33 1.32 0.66 2 1 C2 1.66 2 2.32 2 3 C-0.31 3 -2.62 3 -5 3 C-5.33 3.99 -5.66 4.98 -6 6 C-6 5.34 -6 4.68 -6 4 C-6.66 4 -7.32 4 -8 4 C-8 3.01 -8 2.02 -8 1 C-6.865625 1.020625 -5.73125 1.04125 -4.5625 1.0625 C-1.18424326 1.41577477 -1.18424326 1.41577477 0 0 Z " fill="#FDFDF9" transform="translate(930,129)"/>
<path d="M0 0 C0.99 0.33 1.98 0.66 3 1 C4.6875 4.5625 4.6875 4.5625 6 8 C5.01 8.495 5.01 8.495 4 9 C1.3144406 6.3144406 0.93950026 3.62378672 0 0 Z " fill="#FCFDFA" transform="translate(143,67)"/>
<path d="M0 0 C0.66 0.33 1.32 0.66 2 1 C2 2.32 2 3.64 2 5 C1.34 5 0.68 5 0 5 C-0.66 6.32 -1.32 7.64 -2 9 C-2.66 9 -3.32 9 -4 9 C-4 8.34 -4 7.68 -4 7 C-3.34 7 -2.68 7 -2 7 C-1.855625 6.401875 -1.71125 5.80375 -1.5625 5.1875 C-1.1127561 3.43849596 -0.57107659 1.71322977 0 0 Z " fill="#FDFCFA" transform="translate(75,77)"/>
<path d="M0 0 C0.99 0.33 1.98 0.66 3 1 C0.525 4.465 0.525 4.465 -2 8 C-2.33 7.01 -2.66 6.02 -3 5 C-1.5625 2.3125 -1.5625 2.3125 0 0 Z " fill="#FDFCFA" transform="translate(84,63)"/>
<path d="M0 0 C1.32 0.33 2.64 0.66 4 1 C4.33 2.32 4.66 3.64 5 5 C4.01 5 3.02 5 2 5 C2 4.34 2 3.68 2 3 C1.34 2.67 0.68 2.34 0 2 C0 1.34 0 0.68 0 0 Z " fill="#FDFCF9" transform="translate(165,106)"/>
</svg>
