<?xml version="1.0" encoding="UTF-8"?>
<svg version="1.1" xmlns="http://www.w3.org/2000/svg" width="1024" height="532">
<path d="M0 0 C6.6087401 5.47440411 10.50498275 11.48040852 13.50390625 19.44140625 C14.88877163 23.0232784 16.4195351 26.53405137 17.96875 30.046875 C18.26749023 30.72645264 18.56623047 31.40603027 18.87402344 32.10620117 C19.80028052 34.21193493 20.72822286 36.31692083 21.65625 38.421875 C25.29346926 46.68424788 28.89722974 54.95266805 32.34375 63.296875 C33.9086744 67.02288547 35.52920761 70.72266828 37.15625 74.421875 C39.63640525 80.06215309 42.05120863 85.72403649 44.40625 91.41796875 C49.18233083 102.89548801 54.01483706 114.34052814 59.65625 125.421875 C60.42974782 123.9023951 61.1998948 122.38120933 61.96875 120.859375 C62.39800781 120.01246094 62.82726562 119.16554688 63.26953125 118.29296875 C64.53852438 115.66561678 65.7088277 113.01208077 66.84594727 110.32543945 C68.34725969 106.79855396 69.91186247 103.29949516 71.46875 99.796875 C71.8184082 99.00925781 72.16806641 98.22164063 72.52832031 97.41015625 C74.61284237 92.7271204 76.73824623 88.06680928 78.90625 83.421875 C81.0142011 78.89262872 82.91560378 74.32315878 84.734375 69.671875 C85.85912496 66.92672255 87.16986019 64.31365829 88.5234375 61.67578125 C92.28594178 54.18969515 95.67816114 46.54643542 98.73046875 38.74609375 C100.25515771 34.91828813 101.95721315 31.17469266 103.65625 27.421875 C104.05972656 26.51050781 104.46320313 25.59914063 104.87890625 24.66015625 C107.22709163 19.39648688 109.69092996 14.36407506 112.65625 9.421875 C113.2440625 8.184375 113.2440625 8.184375 113.84375 6.921875 C118.23568679 0.86403115 124.49444804 -3.34732776 131.74609375 -5.140625 C144.63410623 -7.07815171 160.59653568 -6.21831634 171.65625 1.421875 C177.99103139 7.60933589 178.72708368 14.11836351 178.89675903 22.78114319 C178.90251401 25.25521588 178.89733722 27.72932957 178.88330078 30.20336914 C178.88273562 31.57413729 178.88305527 32.94490603 178.88418579 34.31567383 C178.88475623 38.01135798 178.87305239 41.70691053 178.85903788 45.40256429 C178.84647861 49.27426426 178.84535594 53.14596773 178.84298706 57.01768494 C178.83678749 64.33789453 178.82039743 71.65804392 178.80028808 78.97822708 C178.7778815 87.3168418 178.76692371 95.65545951 178.75689721 103.99409688 C178.73602974 121.13673032 178.69937268 138.27928089 178.65625 155.421875 C167.10625 155.421875 155.55625 155.421875 143.65625 155.421875 C143.32625 113.181875 142.99625 70.941875 142.65625 27.421875 C139.70392504 34.06416457 139.70392504 34.06416457 136.76171875 40.7109375 C133.54719706 47.98259028 130.30099514 55.23234929 126.90625 62.421875 C124.61709238 67.27473663 122.49693503 72.16106167 120.546875 77.16015625 C118.4107428 82.58480777 116.05848212 87.80043828 113.15625 92.859375 C110.99203187 96.67471395 109.32733565 100.5275451 107.75390625 104.6171875 C105.53749668 110.2804689 103.07311421 115.84195627 100.65625 121.421875 C100.16511719 122.57623047 100.16511719 122.57623047 99.6640625 123.75390625 C97.49482317 128.77387161 95.11713012 133.69575634 92.71875 138.609375 C92.23269287 139.62620361 92.23269287 139.62620361 91.73681641 140.66357422 C87.93686767 148.35219379 83.77463092 153.36724511 75.56640625 156.5 C64.72918948 159.50598569 50.13613686 159.29850317 40.0703125 154.1640625 C32.76905194 148.89486798 28.87884571 141.60754006 25.65625 133.421875 C24.83336034 131.56304981 23.99955 129.70902999 23.15625 127.859375 C22.73472656 126.93125 22.31320313 126.003125 21.87890625 125.046875 C20.82795632 122.79052244 19.73161185 120.57262786 18.59375 118.359375 C16.74472326 114.72025464 15.26905114 110.9835285 13.78515625 107.18359375 C12.05655982 102.95481285 10.0899206 98.84118009 8.15625 94.703125 C6.77195235 91.67497389 5.47799321 88.62870707 4.21875 85.546875 C1.783445 79.61913904 -0.91195231 73.83347374 -3.64453125 68.0390625 C-5.13513889 64.86595291 -6.59227203 61.6811199 -8.03125 58.484375 C-9.42214696 55.40258371 -10.86080886 52.36639613 -12.40625 49.359375 C-14.2834738 45.66548301 -15.81928282 41.87339765 -17.31640625 38.01171875 C-18.59481616 34.78895917 -19.97800781 31.60860678 -21.34375 28.421875 C-21.67375 70.331875 -22.00375 112.241875 -22.34375 155.421875 C-33.89375 155.421875 -45.44375 155.421875 -57.34375 155.421875 C-57.43406089 136.61984235 -57.50773809 117.81798543 -57.55099869 99.01579094 C-57.57161965 90.28551338 -57.59973128 81.5553802 -57.64550781 72.82519531 C-57.68538992 65.21552405 -57.71118621 57.60595734 -57.72010398 49.99618447 C-57.72531643 45.96721268 -57.73755764 41.93854003 -57.76667023 37.90966415 C-57.79386121 34.11590837 -57.80218768 30.32257437 -57.79618073 26.52873039 C-57.79727933 25.13797779 -57.80521168 23.7472108 -57.8205719 22.35654259 C-57.95698277 9.3669368 -57.95698277 9.3669368 -53.34375 4.421875 C-48.77902026 -0.14285474 -44.52624957 -1.92117369 -38.34375 -3.578125 C-37.66699219 -3.784375 -36.99023438 -3.990625 -36.29296875 -4.203125 C-24.39462993 -7.42979316 -10.44059212 -7.0299987 0 0 Z " fill="#006089" transform="translate(57.34375,329.578125)"/>
<path d="M0 0 C1.76820983 -0.00389602 3.53641873 -0.00823252 5.30462646 -0.01298523 C8.99950196 -0.02041575 12.69428186 -0.02017988 16.38916016 -0.01489258 C21.08689108 -0.00911107 25.78422604 -0.02601256 30.48189163 -0.04923725 C34.13169583 -0.06408634 37.7814072 -0.06483108 41.43123627 -0.06172752 C43.16131116 -0.06223543 44.89139199 -0.06737158 46.62143707 -0.07753944 C59.82212966 -0.14559808 71.83133212 1.22700253 84.359375 5.73828125 C85.47441406 6.12886719 86.58945312 6.51945312 87.73828125 6.921875 C93.03173432 9.30832319 96.83046305 13.13096356 100.796875 17.30078125 C101.498125 18.00203125 102.199375 18.70328125 102.921875 19.42578125 C109.58372286 29.64061463 108.23630479 42.61871985 108.1953125 54.296875 C108.19733736 56.33748987 108.20025221 58.37810402 108.20401001 60.41871643 C108.20841497 64.68098894 108.20206209 68.94307192 108.18798828 73.20532227 C108.17090857 78.63972052 108.18074175 84.07367377 108.19870567 89.50805569 C108.20960238 93.71795437 108.2060701 97.92774945 108.1983223 102.13765144 C108.19633596 104.14010739 108.1987238 106.14257306 108.20576096 108.14501762 C108.28195837 135.91831655 108.28195837 135.91831655 98.9375 145.453125 C96.05147048 147.94416873 93.23128969 149.65512421 89.796875 151.30078125 C90.77140625 152.13222656 90.77140625 152.13222656 91.765625 152.98046875 C92.6009375 153.70492187 93.43625 154.429375 94.296875 155.17578125 C95.1321875 155.89507812 95.9675 156.614375 96.828125 157.35546875 C97.4778125 157.99742187 98.1275 158.639375 98.796875 159.30078125 C98.796875 159.96078125 98.796875 160.62078125 98.796875 161.30078125 C99.65925781 161.68943359 99.65925781 161.68943359 100.5390625 162.0859375 C102.98057234 163.39962186 104.84668683 164.90375178 106.921875 166.73828125 C107.60507812 167.33511719 108.28828125 167.93195313 108.9921875 168.546875 C110.796875 170.30078125 110.796875 170.30078125 112.796875 173.30078125 C113.415625 173.56890625 114.034375 173.83703125 114.671875 174.11328125 C117.72175471 175.81762579 118.94380605 178.397123 120.796875 181.30078125 C114.92537072 181.42467678 109.05463257 181.51526049 103.18212891 181.57543945 C101.18590027 181.60053397 99.18976307 181.63461751 97.19384766 181.67797852 C94.31910612 181.73885371 91.44558252 181.76704149 88.5703125 181.7890625 C87.68258148 181.81486893 86.79485046 181.84067535 85.88021851 181.86726379 C81.53108546 181.86921814 78.66092405 181.65952693 75.18603516 178.89526367 C72.796875 176.30078125 72.796875 176.30078125 72.796875 174.30078125 C71.93642578 173.9140625 71.93642578 173.9140625 71.05859375 173.51953125 C68.59178207 172.19026485 66.70519404 170.65674108 64.609375 168.80078125 C63.91457031 168.19234375 63.21976563 167.58390625 62.50390625 166.95703125 C60.796875 165.30078125 60.796875 165.30078125 59.796875 163.30078125 C58.559375 162.55828125 58.559375 162.55828125 57.296875 161.80078125 C54.796875 160.30078125 54.796875 160.30078125 53.796875 158.30078125 C52.57242676 158.36934326 51.34797852 158.43790527 50.08642578 158.50854492 C37.02204797 159.20541366 23.97672873 159.54721292 10.89404297 159.59594727 C8.74228367 159.60752288 6.5905543 159.62806142 4.43896484 159.6574707 C-14.90373407 159.91965025 -37.6766828 159.70975666 -52.91796875 145.828125 C-54.83620685 143.70658645 -56.41288696 141.73585789 -57.890625 139.30078125 C-58.48423828 138.34171875 -58.48423828 138.34171875 -59.08984375 137.36328125 C-62.17222463 131.65276509 -62.50964134 127.04556557 -62.52539062 120.65209961 C-62.53532043 119.68553436 -62.54525024 118.71896912 -62.55548096 117.72311401 C-62.58466077 114.52892183 -62.59831999 111.33492853 -62.609375 108.140625 C-62.62088648 105.91207375 -62.63240184 103.68352252 -62.6439209 101.45497131 C-62.66492514 96.78027426 -62.67661964 92.1056458 -62.68359375 87.4309082 C-62.69453714 81.46473383 -62.74254092 75.49947835 -62.79953766 69.53359127 C-62.83694752 64.92736746 -62.84721004 60.32136108 -62.8502655 55.71499825 C-62.85628817 53.51711588 -62.87224196 51.31923596 -62.89863586 49.12150383 C-63.17117521 24.67552249 -63.17117521 24.67552249 -54.0904541 15.06480408 C-48.71269703 10.02713383 -42.9973727 7.04623723 -36.015625 4.73828125 C-34.78457031 4.32449219 -33.55351563 3.91070312 -32.28515625 3.484375 C-21.52557716 0.26093779 -11.14948991 -0.01029051 0 0 Z M-19.703125 30.73828125 C-20.67765625 31.63353516 -20.67765625 31.63353516 -21.671875 32.546875 C-24.91480876 36.2613578 -24.35747988 40.6234684 -24.36425781 45.27294922 C-24.36922272 46.08465576 -24.37418762 46.8963623 -24.37930298 47.73266602 C-24.39391484 50.4194422 -24.40072473 53.10615935 -24.40625 55.79296875 C-24.41200195 57.66000368 -24.41775968 59.52703859 -24.42352295 61.39407349 C-24.43402995 65.30975622 -24.43987469 69.22541843 -24.44335938 73.14111328 C-24.44884559 78.15714126 -24.47287761 83.17289799 -24.50133133 88.18884087 C-24.51995927 92.04587597 -24.52516338 95.90284574 -24.52669525 99.75992203 C-24.5297216 101.60908619 -24.53774955 103.45824921 -24.55088043 105.30736923 C-24.56794537 107.89506401 -24.56605977 110.48209591 -24.55957031 113.06982422 C-24.5687851 113.83259674 -24.57799988 114.59536926 -24.5874939 115.3812561 C-24.54059655 121.35443465 -22.77171638 124.29102354 -19.203125 128.86328125 C-9.98757993 136.35091162 0.76802197 135.80782015 11.984375 135.55078125 C13.5240651 135.53066942 15.0637808 135.51242699 16.60351562 135.49609375 C20.33517708 135.45250586 24.06585658 135.38374241 27.796875 135.30078125 C25.40704433 132.27131398 23.12457192 129.53858546 20.171875 127.05078125 C16.05105337 123.53959428 12.06754293 119.89514123 8.09375 116.21875 C6.04068435 114.50437035 4.23698025 113.3585333 1.796875 112.30078125 C1.796875 111.31078125 1.796875 110.32078125 1.796875 109.30078125 C7.52673287 109.32022906 13.2550608 109.37203059 18.984375 109.45336914 C20.93188127 109.4765152 22.87951211 109.49093688 24.82714844 109.49633789 C27.63294802 109.50565234 30.43679754 109.54669631 33.2421875 109.59375 C34.10804474 109.58981735 34.97390198 109.5858847 35.86599731 109.58183289 C41.91631885 109.72669807 44.55233043 110.96700337 48.796875 115.30078125 C49.415625 115.91953125 50.034375 116.53828125 50.671875 117.17578125 C51.373125 117.87703125 52.074375 118.57828125 52.796875 119.30078125 C54.82015424 121.0889907 56.86051124 122.85536021 58.91015625 124.61328125 C60.796875 126.30078125 60.796875 126.30078125 62.984375 128.80078125 C64.73378236 130.57307579 64.73378236 130.57307579 67.359375 130.30078125 C70.27323981 129.10534953 71.21424638 127.99124991 72.796875 125.30078125 C74.03849342 121.57592599 73.94440385 118.11638288 73.94213867 114.23681641 C73.94549728 113.41535629 73.9488559 112.59389618 73.95231628 111.74754333 C73.96182564 109.02829481 73.96376942 106.30910787 73.96484375 103.58984375 C73.96805645 101.70038833 73.97142053 99.81093316 73.97492981 97.92147827 C73.98092112 93.95871402 73.98276972 89.99597158 73.98217773 86.03320312 C73.98207614 80.95670207 73.99572583 75.88034096 74.01294994 70.80387306 C74.02407175 66.90051634 74.02609688 62.99719342 74.02556801 59.09382248 C74.02674795 57.22233981 74.0311705 55.35085627 74.03890038 53.47938919 C74.04870341 50.86067168 74.04582093 48.24225761 74.03979492 45.62353516 C74.04541443 44.8514119 74.05103394 44.07928864 74.05682373 43.2837677 C74.0223449 37.38391355 73.32577545 33.90426221 69.234375 29.61328125 C61.80065204 23.93135436 51.2975914 25.00768387 42.453125 25.03515625 C41.07507255 25.03380555 39.69702057 25.03186166 38.31896973 25.02935791 C35.44453348 25.02642567 32.57022237 25.03064258 29.69580078 25.04003906 C26.03452846 25.05143254 22.3735495 25.0448628 18.7122879 25.03289413 C15.8707666 25.02562386 13.02931341 25.02798701 10.18778992 25.03314972 C8.18887132 25.03510896 6.18994995 25.02909713 4.19104004 25.02288818 C-8.71506587 24.84054691 -8.71506587 24.84054691 -19.703125 30.73828125 Z " fill="#E48D00" transform="translate(685.203125,326.69921875)"/>
<path d="M0 0 C0.95962646 0.00773437 1.91925293 0.01546875 2.90795898 0.0234375 C18.42354958 0.61426508 32.24769387 8.17072613 44.8125 16.8125 C45.57433594 17.32167969 46.33617187 17.83085937 47.12109375 18.35546875 C51.63122129 21.44994257 51.63122129 21.44994257 52.8125 23.8125 C54.76293315 24.18297349 54.76293315 24.18297349 57.1328125 24.234375 C58.04933594 24.28674316 58.96585938 24.33911133 59.91015625 24.39306641 C60.90917969 24.44897949 61.90820312 24.50489258 62.9375 24.5625 C81.26024149 25.90452012 98.16327766 30.0458769 113.8125 39.8125 C114.86179687 40.45960937 115.91109375 41.10671875 116.9921875 41.7734375 C118.82018145 42.92260081 120.63971605 44.08548747 122.4453125 45.26953125 C125.49387406 47.25662996 128.5559963 49.18424815 131.8125 50.8125 C131.8125 51.4725 131.8125 52.1325 131.8125 52.8125 C132.5034375 53.04195312 133.194375 53.27140625 133.90625 53.5078125 C137.4452817 55.09657136 140.29907247 57.28934306 143.3125 59.6875 C143.86808594 60.12191406 144.42367187 60.55632813 144.99609375 61.00390625 C146.60732171 62.26635075 148.21121666 63.53747464 149.8125 64.8125 C150.70066406 65.51890625 151.58882812 66.2253125 152.50390625 66.953125 C158.65368008 71.90624233 164.34452371 77.24376117 169.9375 82.8125 C170.52329834 83.39370605 171.10909668 83.97491211 171.71264648 84.57373047 C175.61761729 88.49245698 179.26539648 92.56867945 182.8125 96.8125 C183.616875 97.76125 184.42125 98.71 185.25 99.6875 C190.88693971 106.50927418 196.06158559 113.51407798 200.91015625 120.921875 C202.03864184 122.63661696 203.18555291 124.33982291 204.37109375 126.015625 C211.40243215 136.00050663 216.44395809 147.29682959 220.6640625 158.7109375 C224.19994864 168.33669612 224.19994864 168.33669612 228.875 177.4375 C230.41794259 180.12520644 231.52833352 182.50786773 232.625 185.375 C235.21997908 192.08124007 238.54975046 198.41467373 241.8125 204.8125 C242.85619276 206.89481905 243.89797723 208.9780961 244.9375 211.0625 C246.3727298 213.93680741 247.81088727 216.80931367 249.26171875 219.67578125 C249.93654297 221.01189453 249.93654297 221.01189453 250.625 222.375 C251.02332031 223.16003906 251.42164063 223.94507813 251.83203125 224.75390625 C252.8125 226.8125 252.8125 226.8125 253.8125 229.8125 C255.78557109 230.55508663 257.79453568 231.20236521 259.8125 231.8125 C262.78006979 233.03657801 265.69967638 234.36606918 268.625 235.6875 C269.75905273 236.19603516 269.75905273 236.19603516 270.91601562 236.71484375 C272.44438398 237.40019904 273.97197279 238.08729535 275.4987793 238.77612305 C277.06689682 239.47852453 278.63883311 240.17245094 280.21411133 240.85864258 C284.25310158 242.62096648 288.12011307 244.42493279 291.875 246.75 C292.69871094 247.25917969 293.52242187 247.76835937 294.37109375 248.29296875 C295.17675781 248.79441406 295.98242188 249.29585937 296.8125 249.8125 C297.60785156 250.28300781 298.40320313 250.75351563 299.22265625 251.23828125 C299.95355469 251.67527344 300.68445313 252.11226562 301.4375 252.5625 C302.08976562 252.94921875 302.74203125 253.3359375 303.4140625 253.734375 C304.10628906 254.26804688 304.10628906 254.26804688 304.8125 254.8125 C304.8125 255.4725 304.8125 256.1325 304.8125 256.8125 C305.616875 257.18375 305.616875 257.18375 306.4375 257.5625 C310.7304127 259.82192774 314.39511861 262.39511861 317.8125 265.8125 C318.699375 266.328125 319.58625 266.84375 320.5 267.375 C321.6446875 268.0865625 321.6446875 268.0865625 322.8125 268.8125 C322.8125 269.4725 322.8125 270.1325 322.8125 270.8125 C323.4725 270.998125 324.1325 271.18375 324.8125 271.375 C332.50094997 275.05904894 337.64789191 281.78974001 342.83203125 288.359375 C344.65663188 290.78426243 344.65663188 290.78426243 346.63671875 292.328125 C347.02472656 292.81796875 347.41273438 293.3078125 347.8125 293.8125 C347.5 296.5 347.5 296.5 346.8125 298.8125 C337.16720111 302.04818285 328.09435663 304.19945211 317.94482422 304.99902344 C309.5411794 305.75024524 301.78180505 308.13905836 293.8125 310.8125 C297.89621119 320.0057822 309.34365197 325.85180586 318.0859375 329.953125 C319.8125 330.8125 319.8125 330.8125 322.8125 332.8125 C322.8125 333.4725 322.8125 334.1325 322.8125 334.8125 C323.66521484 334.94398438 323.66521484 334.94398438 324.53515625 335.078125 C327.44456686 336.01632259 329.00780799 337.49517565 331.25 339.5625 C332.43529297 340.65304687 332.43529297 340.65304687 333.64453125 341.765625 C338.07212926 345.94591573 342.13636722 350.29722964 346.1171875 354.8984375 C347.50214292 356.46209684 348.96048747 357.96048747 350.4375 359.4375 C359.66964286 368.66964286 359.66964286 368.66964286 359.9375 374.5625 C359.89625 375.305 359.855 376.0475 359.8125 376.8125 C355.84731721 375.46517556 353.34528057 373.74225909 350.3125 370.875 C347.94300653 368.64317077 345.84737189 366.83292357 343.03125 365.18359375 C341.93296875 364.50490234 341.93296875 364.50490234 340.8125 363.8125 C340.8125 363.1525 340.8125 362.4925 340.8125 361.8125 C339.966875 361.585625 339.12125 361.35875 338.25 361.125 C334.98677456 359.8790412 332.69223017 358.31438417 329.91796875 356.23828125 C323.24099958 351.71677151 315.60184683 348.56185187 308.06640625 345.76953125 C302.55142742 343.4278158 297.81681924 339.75775066 293 336.25 C292.30712891 335.75564453 291.61425781 335.26128906 290.90039062 334.75195312 C289.16638604 333.48946111 287.48431494 332.15626069 285.8125 330.8125 C285.8125 330.1525 285.8125 329.4925 285.8125 328.8125 C285.24273438 328.74804688 284.67296875 328.68359375 284.0859375 328.6171875 C276.61178087 325.97169563 271.39532247 314.86803245 267.61328125 308.3203125 C266.8125 305.8125 266.8125 305.8125 267.29296875 303.1796875 C270.89409068 297.56971349 278.7930482 296.45825115 284.875 294.6875 C285.75994141 294.42324219 286.64488281 294.15898437 287.55664062 293.88671875 C293.98314737 291.98721113 299.67594638 290.68402259 306.42578125 290.71484375 C307.67294922 290.71806641 308.92011719 290.72128906 310.20507812 290.72460938 C312.14543945 290.73717773 312.14543945 290.73717773 314.125 290.75 C316.09436523 290.75676758 316.09436523 290.75676758 318.10351562 290.76367188 C321.3398901 290.77544051 324.57617178 290.7918824 327.8125 290.8125 C324.99014511 287.89231652 322.31664554 285.28539928 318.875 283.125 C314.10861313 280.04836901 309.52389781 276.75471248 304.92749023 273.43286133 C301.6667937 271.0910356 298.38489795 268.87604016 294.9375 266.8125 C293.90625 266.1525 292.875 265.4925 291.8125 264.8125 C291.8125 264.1525 291.8125 263.4925 291.8125 262.8125 C290.6059375 262.4721875 290.6059375 262.4721875 289.375 262.125 C286.46105217 261.05144027 284.20691324 259.93440532 281.5625 258.375 C277.53359515 256.06211018 273.62001448 254.7145494 269.15234375 253.49609375 C266.8125 252.8125 266.8125 252.8125 263.25 251.25 C260.46646597 250.08597668 258.34624604 249.47504029 255.4375 248.9375 C247.10306399 247.19110199 240.53260416 242.92126293 235.8125 235.8125 C234.78311676 233.82746344 233.78738751 231.82486039 232.8125 229.8125 C232.18046149 228.55494401 231.54623777 227.29848459 230.91015625 226.04296875 C226.94699545 218.18033563 223.04125312 210.33948117 219.74609375 202.16796875 C217.02217488 195.45256481 213.96220597 188.99381349 210.69116211 182.53393555 C205.70336187 172.67570902 201.5080892 162.49287323 197.375 152.25 C194.42270925 145.75496035 191.13912176 139.49416265 186.8125 133.8125 C186.235 132.760625 185.6575 131.70875 185.0625 130.625 C182.92334268 126.80390982 180.30704975 123.46605611 177.58203125 120.046875 C176.04353936 118.10423182 174.57829843 116.1313235 173.125 114.125 C163.94474822 101.8436444 153.61935468 90.68049126 141.65234375 81.09375 C139.81346157 79.61657367 137.99171177 78.1177046 136.19140625 76.59375 C112.66590327 56.73864496 86.80537958 43.4769292 55.80688477 41.63378906 C47.24165052 41.04785795 42.89983571 38.89983571 36.8125 32.8125 C17.90624207 20.73764405 17.90624207 20.73764405 -2.93359375 16.0859375 C-5.98900668 17.0708713 -7.34165702 18.18572345 -9.1875 20.8125 C-8.35959635 31.57524739 -0.25846997 40.31845818 6.578125 48.12109375 C8.63618104 50.6001158 10.21837871 53.02278775 11.8125 55.8125 C12.80295623 57.31881884 13.80281241 58.81900378 14.8125 60.3125 C15.33457031 61.09625 15.85664062 61.88 16.39453125 62.6875 C17.42524011 64.23214359 18.46108368 65.77336471 19.5 67.3125 C21.98307282 72.04216252 23.31928672 77.18854961 24.8671875 82.28515625 C33.66094567 112.20905062 33.66094567 112.20905062 51.40234375 137.3671875 C53.82586436 139.8511283 55.11458123 142.46371433 55.8125 145.8125 C55.41193318 154.29116425 52.31282207 163.04691715 48.95703125 170.78515625 C40.51184087 190.2905452 43.07569949 219.3645886 50.0625 238.9375 C50.33779541 239.71931641 50.61309082 240.50113281 50.89672852 241.30664062 C53.48863567 248.05914502 57.03119991 253.78741869 63.8125 256.8125 C63.88243164 256.164021 63.95236328 255.51554199 64.02441406 254.84741211 C68.05811364 218.22310602 68.05811364 218.22310602 78.8125 205.8125 C79.8025 205.4825 80.7925 205.1525 81.8125 204.8125 C82.54573796 202.79741642 82.54573796 202.79741642 82.8125 200.8125 C84.1325 200.8125 85.4525 200.8125 86.8125 200.8125 C88.16371815 203.22538955 88.9633251 205.3727075 89.6875 208.0625 C90.74119086 211.57480286 92.06761823 214.43973157 93.75390625 217.6640625 C94.8577388 219.90431307 95.74414335 222.16365061 96.625 224.5 C99.12888118 230.90208049 102.48485314 236.80968606 105.8125 242.8125 C106.83378667 244.70808916 107.85464581 246.60390875 108.875 248.5 C113.25519698 256.49559767 117.93599321 264.14662912 123.2265625 271.57421875 C124.4598773 273.31483298 125.64605646 275.08888333 126.8125 276.875 C133.67126334 286.94880866 141.43778024 296.02052513 150.8125 303.8125 C147.80218256 304.74673645 146.94599732 304.85699911 143.8125 303.8125 C143.8125 303.1525 143.8125 302.4925 143.8125 301.8125 C143.22339844 301.5546875 142.63429688 301.296875 142.02734375 301.03125 C139.62799867 299.71097546 138.22438034 298.32251694 136.375 296.3125 C132.28004715 292.06991128 127.78211305 288.60076735 123.02954102 285.13867188 C121.59051926 284.07357919 120.19680545 282.94779928 118.8125 281.8125 C118.8125 281.1525 118.8125 280.4925 118.8125 279.8125 C118.19375 279.565 117.575 279.3175 116.9375 279.0625 C114.40891373 277.57509631 114.09410996 276.37571991 112.8125 273.8125 C112.21050781 273.52375 111.60851562 273.235 110.98828125 272.9375 C101.73167479 268.15131928 94.50709665 255.23372146 90.8125 245.8125 C90.27625 244.925625 89.74 244.03875 89.1875 243.125 C87.89444292 240.95031309 87.41678114 239.22962456 86.8125 236.8125 C86.1525 236.4825 85.4925 236.1525 84.8125 235.8125 C84.73902344 236.616875 84.73902344 236.616875 84.6640625 237.4375 C84.13275303 243.00708895 83.52566907 248.56820971 82.875 254.125 C82.80039551 254.80626953 82.72579102 255.48753906 82.64892578 256.18945312 C82.18828698 260.02151576 81.43373231 263.30548283 79.8125 266.8125 C79.1525 266.8125 78.4925 266.8125 77.8125 266.8125 C77.585625 267.410625 77.35875 268.00875 77.125 268.625 C75.33223759 271.61293735 74.05256063 272.46247474 70.8125 273.8125 C65.1559742 274.60824854 60.30843232 274.36470861 55.484375 271.16015625 C52.35040088 268.63393879 49.35090604 265.94500107 46.8125 262.8125 C46.8125 262.1525 46.8125 261.4925 46.8125 260.8125 C46.1525 260.8125 45.4925 260.8125 44.8125 260.8125 C44.379375 259.925625 43.94625 259.03875 43.5 258.125 C41.95180378 254.94602002 41.95180378 254.94602002 40.3984375 252.625 C27.96035806 230.56732218 27.2367225 197.77604367 33.36572266 173.63330078 C34.18867511 170.6945537 35.06886039 167.77722902 35.98168945 164.86523438 C39.54351245 154.4130171 39.54351245 154.4130171 38.8125 143.8125 C37.92691406 143.43544922 37.92691406 143.43544922 37.0234375 143.05078125 C33.71042824 141.19526193 32.27612934 138.20247843 30.4375 135 C30.0446582 134.32783447 29.65181641 133.65566895 29.24707031 132.96313477 C22.11035777 120.55863993 17.08582625 107.47164142 13.00390625 93.7890625 C7.96300696 75.93272519 7.96300696 75.93272519 -2.91796875 61.2109375 C-4.1875 59.8125 -4.1875 59.8125 -4.1875 56.8125 C-4.8475 56.8125 -5.5075 56.8125 -6.1875 56.8125 C-15.4451742 46.471661 -24.28687157 34.87904672 -23.9519043 20.49755859 C-23.43255806 13.43686139 -20.82722003 9.19291112 -15.76879883 4.49487305 C-10.77997228 0.37654058 -6.33784516 -0.08057294 0 0 Z " fill="#00608A" transform="translate(664.1875,-0.8125)"/>
<path d="M0 0 C11.88 0 23.76 0 36 0 C36.09044762 16.51643155 36.16406736 33.03265029 36.20724869 49.54926109 C36.22783536 57.21896636 36.25588091 64.88850633 36.30175781 72.55810547 C36.34174549 79.24637043 36.3674611 85.9345156 36.37635398 92.62289679 C36.38154869 96.16128923 36.39367548 99.69933913 36.42292023 103.23762131 C36.45537487 107.19672604 36.45595178 111.15550192 36.45410156 115.11474609 C36.46848267 116.27568787 36.48286377 117.43662964 36.49768066 118.63275146 C36.44657754 128.76998232 34.03848829 136.73429807 26.98046875 144.18359375 C21.75970128 148.97187161 16.2521329 152.35804763 9.42460442 154.2935667 C7.87193598 154.74595253 6.32941929 155.23585803 4.8038044 155.77245045 C-2.02404034 158.10013746 -8.25384785 158.41000835 -15.42626953 158.34057617 C-16.62741898 158.34101425 -17.82856842 158.34145233 -19.06611633 158.34190369 C-22.32797516 158.34018388 -25.58943716 158.32524098 -28.85121775 158.30418181 C-32.27179616 158.28530248 -35.69238412 158.28365578 -39.11300659 158.28010559 C-45.57616144 158.27081792 -52.03916227 158.24624911 -58.5022496 158.21605712 C-65.86628571 158.18241037 -73.23032956 158.1660014 -80.59442353 158.15097082 C-95.72971534 158.11969615 -110.86480734 158.0647257 -126 158 C-126 150.08 -126 142.16 -126 134 C-122.70443115 133.97494385 -119.4088623 133.9498877 -116.01342773 133.92407227 C-105.12092496 133.84056971 -94.22846878 133.75188746 -83.3360281 133.66066074 C-76.73241757 133.60551294 -70.12880255 133.55210601 -63.52514648 133.50268555 C-57.1514463 133.45492185 -50.77779867 133.40257483 -44.40416145 133.34705925 C-41.9733416 133.32669005 -39.54250737 133.30796815 -37.11166191 133.29092598 C-33.70516646 133.26676148 -30.29876936 133.23672358 -26.89233398 133.20532227 C-25.38721252 133.19668907 -25.38721252 133.19668907 -23.85168457 133.18788147 C-12.65025492 133.18615187 -12.65025492 133.18615187 -3 128 C-1.01204963 124.09976518 -0.63791353 120.52557322 -0.375 116.1875 C-0.30023438 115.02605469 -0.22546875 113.86460937 -0.1484375 112.66796875 C-0.07496094 111.34732422 -0.07496094 111.34732422 0 110 C-0.97559875 110.00222061 -1.95119751 110.00444122 -2.95635986 110.00672913 C-12.19435837 110.02708683 -21.43235227 110.04203261 -30.67036819 110.05181217 C-35.4186014 110.0570091 -40.16681636 110.06404815 -44.91503906 110.07543945 C-49.50566535 110.08638253 -54.0962742 110.09230081 -58.68691254 110.09487724 C-60.42979964 110.09671106 -62.1726859 110.1002916 -63.91556549 110.10573006 C-90.38244329 110.18495917 -90.38244329 110.18495917 -101 106.0625 C-101.72316406 105.79759766 -102.44632812 105.53269531 -103.19140625 105.25976562 C-106.55514451 104.01152758 -109.83944481 102.70373678 -113 101 C-113 100.34 -113 99.68 -113 99 C-113.680625 98.835 -114.36125 98.67 -115.0625 98.5 C-120.09913908 95.92809919 -123.92614807 91.60700944 -126.08273315 86.37142944 C-127.14834518 82.45475483 -127.26586824 78.81433022 -127.22705078 74.79150391 C-127.22734283 73.99083496 -127.22763489 73.19016602 -127.22793579 72.36523438 C-127.22654955 69.73556439 -127.21102179 67.1061826 -127.1953125 64.4765625 C-127.19157986 62.64667923 -127.18873407 60.81679395 -127.18673706 58.98690796 C-127.17912039 54.18319123 -127.15948882 49.37959646 -127.1373291 44.57592773 C-127.11682827 39.66912485 -127.10772629 34.76230216 -127.09765625 29.85546875 C-127.07624102 20.23691711 -127.04107494 10.6184878 -127 1 C-115.45 1 -103.9 1 -92 1 C-91.96261719 6.50042969 -91.92523438 12.00085938 -91.88671875 17.66796875 C-91.85643972 21.15432811 -91.82529236 24.64063638 -91.79101562 28.12695312 C-91.73670294 33.65956037 -91.68559252 39.19206654 -91.65356445 44.72485352 C-91.6275389 49.18595208 -91.58714183 53.64671098 -91.53681374 58.10759926 C-91.52013995 59.80877772 -91.50862885 61.51001494 -91.50238609 63.21126366 C-91.49275043 65.59587514 -91.46469866 67.97961666 -91.43237305 70.36401367 C-91.43380814 71.06604416 -91.43524323 71.76807465 -91.4367218 72.49137878 C-91.35375155 76.82422537 -90.65481656 79.55733185 -88 83 C-74.28867423 92.87215455 -46.58451376 88.10940159 -30.4375 88.0625 C-15.3709375 88.0315625 -15.3709375 88.0315625 0 88 C0 58.96 0 29.92 0 0 Z " fill="#006089" transform="translate(390,374)"/>
<path d="M0 0 C1.6691748 -0.00021904 1.6691748 -0.00021904 3.37207031 -0.0004425 C7.04054735 0.0002527 10.70897326 0.00802676 14.37744141 0.01586914 C16.92477389 0.01773471 19.47210673 0.01915796 22.0194397 0.02015686 C28.03288133 0.02358147 34.0463011 0.03145846 40.05973399 0.04150635 C46.90859154 0.05270068 53.75744999 0.05818629 60.60631442 0.06320179 C74.68888954 0.073642 88.77144163 0.09197417 102.85400391 0.11352539 C102.85400391 8.36352539 102.85400391 16.61352539 102.85400391 25.11352539 C98.16141357 25.14325439 98.16141357 25.14325439 93.37402344 25.17358398 C83.01635298 25.24061046 72.6587814 25.31824816 62.30122566 25.40105247 C56.02391884 25.45091315 49.74662802 25.49724401 43.46923828 25.53540039 C37.4067028 25.57238247 31.34430458 25.61877727 25.28188705 25.6715889 C22.97357475 25.6900643 20.6652331 25.70519731 18.35687637 25.71686935 C15.11375239 25.73384941 11.87093807 25.76291241 8.62792969 25.79467773 C7.20911751 25.79791801 7.20911751 25.79791801 5.76164246 25.80122375 C-0.40824189 25.87799023 -6.14146781 26.69834755 -12.14599609 28.11352539 C-15.39426039 37.85831828 -16.15243913 52.47697555 -12.14599609 62.11352539 C-10.08607199 63.75724878 -10.08607199 63.75724878 -7.14599609 64.11352539 C-5.87242154 64.61519597 -4.5995568 65.11866988 -3.32714844 65.62329102 C2.93647408 67.72833961 9.1419645 67.53555961 15.68994141 67.51977539 C17.69995707 67.5363371 19.70997276 67.5529155 21.71998024 67.5704422 C25.2229477 67.59705775 28.7259537 67.60475491 32.22900391 67.61352539 C36.40658582 67.62400397 40.58393614 67.63805081 44.76138306 67.67443848 C47.35357215 67.69576603 49.94590824 67.70438916 52.53817749 67.69812012 C67.74341825 67.82716435 84.4909185 72.50742876 95.85400391 83.11352539 C101.65317803 91.25154805 102.76200031 99.33967906 102.52636719 109.08642578 C102.47895003 111.17840247 102.48531547 113.26528278 102.49853516 115.35766602 C102.45888995 124.67766316 101.42007963 133.79227372 95.60400391 141.42602539 C77.7203993 158.90318444 56.17541738 158.41536043 32.74072266 158.30883789 C30.315497 158.30510186 27.89026983 158.30225768 25.46504211 158.30026245 C19.1210199 158.29267242 12.7770911 158.27306424 6.43310547 158.25085449 C-0.05613949 158.23029572 -6.54539974 158.22123939 -13.03466797 158.21118164 C-25.73849139 158.18981353 -38.44222131 158.15466968 -51.14599609 158.11352539 C-51.14599609 150.19352539 -51.14599609 142.27352539 -51.14599609 134.11352539 C-48.13877441 134.10417969 -45.13155273 134.09483398 -42.03320312 134.08520508 C-32.07461967 134.05137135 -22.11624205 133.99578667 -12.15782356 133.92962265 C-6.12262034 133.89018776 -0.08756216 133.85797954 5.94775391 133.8425293 C11.77697781 133.82733672 17.60580285 133.79284428 23.43484879 133.74521637 C25.65383555 133.73042951 27.87287926 133.72248593 30.09191513 133.72164154 C33.21079308 133.71926208 36.32857748 133.69210267 39.44726562 133.65942383 C40.35573746 133.66445419 41.26420929 133.66948456 42.20021057 133.67466736 C48.8129584 133.56813141 53.86419497 131.81429703 59.85400391 129.11352539 C60.84400391 128.78352539 61.83400391 128.45352539 62.85400391 128.11352539 C66.04834221 123.40090699 65.2225348 117.63918236 65.22900391 112.17602539 C65.26574219 110.54890625 65.26574219 110.54890625 65.30322266 108.88891602 C65.36155806 102.64516185 65.36155806 102.64516185 63.04541016 96.96899414 C55.95064243 90.96183786 47.53453716 90.96467898 38.75244141 90.86743164 C36.71337555 90.8344352 34.67431315 90.80122473 32.63525391 90.76782227 C29.45461938 90.72091957 26.27399237 90.67658932 23.09326172 90.63671875 C12.49555243 90.4976259 1.93453577 90.30306706 -8.61865234 89.25805664 C-9.35705353 89.18905655 -10.09545471 89.12005646 -10.85623169 89.04896545 C-23.75962571 87.61341642 -35.66301652 81.93490174 -45.14599609 73.11352539 C-46.02099609 70.80102539 -46.02099609 70.80102539 -46.14599609 69.11352539 C-46.80599609 69.11352539 -47.46599609 69.11352539 -48.14599609 69.11352539 C-51.6125302 61.79630301 -51.56317542 55.11940062 -51.45849609 47.11352539 C-51.46171875 45.88118164 -51.46494141 44.64883789 -51.46826172 43.37915039 C-51.41696368 34.68646505 -50.69436004 27.56371667 -46.64599609 19.73852539 C-46.22318359 18.90579102 -45.80037109 18.07305664 -45.36474609 17.21508789 C-44.14599609 15.11352539 -44.14599609 15.11352539 -42.14599609 13.11352539 C-41.15599609 13.11352539 -40.16599609 13.11352539 -39.14599609 13.11352539 C-38.81599609 12.12352539 -38.48599609 11.13352539 -38.14599609 10.11352539 C-25.8863246 3.04063799 -14.01874888 -0.04825801 0 0 Z " fill="#E48E00" transform="translate(501.14599609375,326.886474609375)"/>
<path d="M0 0 C11.55 0 23.1 0 35 0 C35.0093457 3.62355469 35.01869141 7.24710937 35.02832031 10.98046875 C35.06210206 22.95869877 35.1174574 34.93673811 35.18390274 46.91482544 C35.22365899 54.17645625 35.25606872 61.43797923 35.27099609 68.69970703 C35.28403044 75.03136333 35.31104018 81.36278201 35.35461307 87.69430447 C35.3771888 91.04483175 35.39082816 94.39480794 35.39188385 97.74545288 C35.39425137 101.4921219 35.42131687 105.23786562 35.45410156 108.984375 C35.4490712 110.08705215 35.44404083 111.18972931 35.43885803 112.32582092 C35.52410379 118.63132249 36.06316199 123.87025704 40 129 C48.97398682 135.62920204 64.24596065 133.60524431 74.828125 133.609375 C77.03059086 133.62437618 79.23304556 133.64110736 81.43548584 133.65948486 C87.19586743 133.70295275 92.95609731 133.72311178 98.71661377 133.73822021 C104.60934341 133.7578657 110.50191097 133.79982717 116.39453125 133.83984375 C127.9296647 133.91492317 139.46468059 133.96328347 151 134 C151 141.92 151 149.84 151 158 C138.12484027 158.04539532 125.24973471 158.08199875 112.37451267 158.10362434 C106.39441997 158.11400962 100.41438542 158.12807151 94.43432617 158.15087891 C88.65064367 158.17279636 82.86701669 158.18460802 77.08329582 158.18975449 C74.88958806 158.19341662 72.69588294 158.20056653 70.50219917 158.21146011 C36.12432032 158.37520548 36.12432032 158.37520548 24 152.8125 C23.29705811 152.50352783 22.59411621 152.19455566 21.86987305 151.8762207 C12.30486334 147.51076578 5.14841277 141.95619065 1 132 C-0.24078938 125.59507378 -0.13397689 119.23643944 -0.11352539 112.73071289 C-0.11367142 111.51049438 -0.11381744 110.29027588 -0.1139679 109.03308105 C-0.11339267 105.70506467 -0.1083947 102.37711115 -0.10139394 99.04910588 C-0.09512139 95.56443166 -0.09455352 92.07975651 -0.09336853 88.59507751 C-0.09026669 82.00439111 -0.08206881 75.4137214 -0.07201904 68.82304233 C-0.06082222 61.3163746 -0.05533847 53.80970605 -0.05032361 46.30303204 C-0.0398852 30.86867673 -0.02155403 15.4343444 0 0 Z " fill="#E38E00" transform="translate(813,327)"/>
<path d="M0 0 C3.25592337 2.61889489 3.96366883 4.30264284 4.875 8.3125 C5.535 8.3125 6.195 8.3125 6.875 8.3125 C6.72153748 15.37177607 5.9996795 19.31922254 0.875 24.3125 C-2.125 23.3125 -2.125 23.3125 -3.22265625 21.67578125 C-3.54105469 20.99902344 -3.85945312 20.32226562 -4.1875 19.625 C-4.52910156 18.90699219 -4.87070312 18.18898438 -5.22265625 17.44921875 C-6.125 15.3125 -6.125 15.3125 -7.125 11.9375 C-8.35201891 8.71657535 -9.12697967 8.7233331 -12.125 7.3125 C-16.125 1.97916667 -16.125 1.97916667 -16.125 -0.6875 C-14.71122218 -1.05302803 -13.29379424 -1.40445495 -11.875 -1.75 C-11.08609375 -1.94722656 -10.2971875 -2.14445312 -9.484375 -2.34765625 C-5.58379311 -2.90949503 -3.44183813 -1.85859259 0 0 Z " fill="#00608A" transform="translate(733.125,65.6875)"/>
</svg>
