<?xml version="1.0" encoding="UTF-8"?>
<svg version="1.1" xmlns="http://www.w3.org/2000/svg" width="400" height="400">
<path d="M0 0 C132 0 264 0 400 0 C400 132 400 264 400 400 C268 400 136 400 0 400 C0 268 0 136 0 0 Z " fill="#000000" transform="translate(0,0)"/>
<path d="M0 0 C7.12222363 0.45731281 13.64510632 2.53353335 20.4375 4.625 C22.84587114 5.35316201 25.25473782 6.07968679 27.6640625 6.8046875 C28.88254883 7.17174805 30.10103516 7.53880859 31.35644531 7.91699219 C38.91407307 10.16341652 46.51609798 12.25167321 54.11328125 14.359375 C65.58077425 17.54397939 77.00943064 20.86476546 88.4375 24.1875 C89.77912323 24.57726727 91.12075761 24.96699619 92.46240234 25.35668945 C98.01211158 26.96877246 103.56158078 28.58168056 109.11083984 30.1953125 C138.4985056 38.75674469 138.4985056 38.75674469 167.97338867 47.01098633 C178.28730485 49.83591714 188.57026292 52.6762773 198.73828125 55.9921875 C201.71451126 56.91178911 204.70057583 57.68096574 207.72583008 58.41943359 C215.5998726 60.42957564 223.37007417 62.87002608 231.16210938 65.17333984 C233.5762298 65.87655834 235.99440757 66.55184514 238.421875 67.20703125 C239.58203125 67.53058594 240.7421875 67.85414063 241.9375 68.1875 C242.91589844 68.44917969 243.89429688 68.71085937 244.90234375 68.98046875 C247 70 247 70 247.82617188 71.8359375 C248 74 248 74 246.77172852 75.81176758 C246.14709717 76.41657959 245.52246582 77.0213916 244.87890625 77.64453125 C244.18990234 78.32193359 243.50089844 78.99933594 242.79101562 79.69726562 C242.05560547 80.39529297 241.32019531 81.09332031 240.5625 81.8125 C239.86189453 82.49892578 239.16128906 83.18535156 238.43945312 83.89257812 C235.0338381 87.20420194 231.5618891 90.40930014 227.96484375 93.51171875 C223.76887627 97.14299335 219.88394621 101.04019546 216 105 C212.13775208 108.93768245 208.28086308 112.81192861 204.09375 116.40625 C199.31299848 120.52404575 194.92361916 125.00537571 190.5 129.5 C185.47065368 134.61007419 180.41931383 139.57362492 174.97851562 144.24414062 C171.31896407 147.49185716 167.92702043 151.01055661 164.5 154.5 C160.50217571 158.5706444 156.5276672 162.6044392 152.1875 166.3125 C146.66221208 171.06631212 141.61535027 176.31514319 136.5 181.5 C130.77677443 187.30099182 125.07802161 193.04776461 118.87695312 198.34570312 C115.41878866 201.39363789 112.22637857 204.71060623 109 208 C105.11716293 211.95867373 101.23659338 215.85058338 97.03125 219.46875 C92.62796818 223.26142048 88.57013076 227.35573206 84.5 231.5 C79.71068055 236.3765566 74.8801025 241.09364583 69.67089844 245.5234375 C67.82855753 247.09496376 67.82855753 247.09496376 65.75 249.5 C64 251 64 251 61.875 251.125 C59.0195452 249.41172712 58.91325737 247.13318955 58 244 C57.55279394 242.04421658 57.13709021 240.08107286 56.74609375 238.11328125 C54.50501231 227.39463751 51.74418066 216.80265559 49.0625 206.1875 C48.01005951 202.01473917 46.95920552 197.84158344 45.91015625 193.66796875 C45.65679001 192.66009308 45.40342377 191.65221741 45.14237976 190.61380005 C43.4785502 183.97187046 41.87446605 177.3184349 40.32214355 170.64964294 C38.967811 164.8326127 37.52914514 159.03954875 36.0625 153.25 C34.11436717 145.51189272 32.21069076 137.76555855 30.375 130 C28.47758926 121.97381779 26.51254832 113.96835373 24.49638367 105.97120667 C23.77830229 103.11960841 23.0646715 100.26690808 22.3515625 97.4140625 C22.10400963 96.42373772 22.10400963 96.42373772 21.85145569 95.41340637 C20.36387652 89.46043514 18.87931954 83.50671106 17.39472961 77.55299377 C16.25038941 72.96464173 15.10536824 68.37645992 13.960042 63.78835392 C13.11116726 60.38762176 12.26274531 56.98677785 11.4152832 53.58569336 C10.42271547 49.6023695 9.42819567 45.61953517 8.43359375 41.63671875 C8.13351913 40.431259 7.83344452 39.22579926 7.52427673 37.98381042 C5.9738514 31.78170133 4.37089832 25.60150429 2.645401 19.44563293 C1.56099123 15.33645393 0.76696958 11.17815807 0 7 C-0.226875 5.824375 -0.45375 4.64875 -0.6875 3.4375 C-0.790625 2.633125 -0.89375 1.82875 -1 1 C-0.67 0.67 -0.34 0.34 0 0 Z " fill="#EFEFEF" transform="translate(96,92)"/>
<path d="M0 0 C0 0.99 0 1.98 0 3 C0.495 3.495 0.495 3.495 1 4 C1.66 4.66 2.32 5.32 3 6 C2.01 7.32 1.02 8.64 0 10 C1.68416016 10.38091797 1.68416016 10.38091797 3.40234375 10.76953125 C11.0688698 12.52510668 18.59650728 14.30782083 26 17 C25.34 18.65 24.68 20.3 24 22 C18.47324097 21.36145015 13.37632649 20.06306646 8.0625 18.4375 C7.28326172 18.20353516 6.50402344 17.96957031 5.70117188 17.72851562 C3.79942813 17.15682579 1.89951774 16.57904309 0 16 C1.79903732 25.75981473 4.24262112 35.36621641 6.61645508 44.99755859 C7.15365041 47.18022785 7.68821792 49.36352933 8.22265625 51.546875 C8.38621109 52.20637146 8.54976593 52.86586792 8.71827698 53.54534912 C9.64793309 57.34514443 10.40662105 61.1335383 11 65 C19.92012076 57.25095654 28.74499648 49.46253154 37 41 C37 44.90838866 35.49432124 46.11594107 33 49 C34.98 49.495 34.98 49.495 37 50 C35.33664694 51.69087177 33.66943461 53.37764845 32 55.0625 C31.54238281 55.52849609 31.08476562 55.99449219 30.61328125 56.47460938 C27.8777552 59.22887191 25.06671035 61.8373946 22.125 64.37109375 C17.87513939 68.05083879 13.93467518 71.9884757 10 76 C6.11716293 79.95867373 2.23659338 83.85058338 -1.96875 87.46875 C-6.37203182 91.26142048 -10.42986924 95.35573206 -14.5 99.5 C-19.28931945 104.3765566 -24.1198975 109.09364583 -29.32910156 113.5234375 C-31.17144247 115.09496376 -31.17144247 115.09496376 -33.25 117.5 C-35 119 -35 119 -37.125 119.125 C-39.98033945 117.41179633 -40.08678249 115.13292074 -41 112 C-41.44588603 110.04941853 -41.86026495 108.09147829 -42.25 106.12890625 C-44.50950085 95.32105513 -47.29626636 84.6409991 -50 73.9375 C-52.01147616 65.96118613 -54.01831082 57.98377416 -56 50 C-56.18224121 49.26630188 -56.36448242 48.53260376 -56.55224609 47.77667236 C-57.00040198 45.9583523 -57.43824543 44.1374985 -57.875 42.31640625 C-58.09929687 41.3838501 -58.32359375 40.45129395 -58.5546875 39.49047852 C-59.01061816 36.9406163 -59.08383446 34.58460487 -59 32 C-58.01 32.66 -57.02 33.32 -56 34 C-55.34 32.68 -54.68 31.36 -54 30 C-53.83564453 30.96099609 -53.83564453 30.96099609 -53.66796875 31.94140625 C-52.67539672 37.3561691 -51.37541347 42.03322639 -49 47 C-41.98721711 40.82680202 -35.30488686 34.40511449 -28.75 27.75 C-18.51595745 17.36229314 -18.51595745 17.36229314 -13 13 C-15.77260299 11.06201737 -15.77260299 11.06201737 -18 10 C-18 8.68 -18 7.36 -18 6 C-15.03 6.33 -12.06 6.66 -9 7 C-8.67 5.68 -8.34 4.36 -8 3 C-5.92446352 2.4465236 -4.15634036 2 -2 2 C-1.34 1.34 -0.68 0.68 0 0 Z " fill="#EEEEEE" transform="translate(195,224)"/>
<path d="M0 0 C5.48800879 0.72873559 10.60511747 2.30485437 15.875 3.9375 C21.22813743 5.58677997 26.56413009 7.17707906 32.00830078 8.49731445 C35.70341077 9.42992434 39.3483966 10.53648044 43 11.625 C43.77472656 11.85445313 44.54945313 12.08390625 45.34765625 12.3203125 C47.23221805 12.87870118 49.11617409 13.43913365 51 14 C49.61587761 17.15728605 48.04237168 19.14643811 45.5078125 21.46875 C44.80841553 22.11666504 44.10901855 22.76458008 43.38842773 23.43212891 C42.64149658 24.11452637 41.89456543 24.79692383 41.125 25.5 C35.78302505 30.44049628 30.52129656 35.41900484 25.4375 40.625 C21.24606759 44.89722769 16.92508112 48.59032846 12 52 C9.08355647 41.20781495 6.3128276 30.38130464 3.66531372 19.52011108 C3.19181041 17.58015983 2.71396672 15.64126966 2.23608398 13.70239258 C1.94548096 12.50251709 1.65487793 11.3026416 1.35546875 10.06640625 C0.96331177 8.4568103 0.96331177 8.4568103 0.56323242 6.81469727 C0 4 0 4 0 0 Z " fill="#040404" transform="translate(148,282)"/>
<path d="M0 0 C2 1 2 1 2.65811157 2.79498291 C2.84908417 3.57710144 3.04005676 4.35921997 3.23681641 5.16503906 C3.56693222 6.49211884 3.56693222 6.49211884 3.90371704 7.8460083 C4.13400604 8.80948181 4.36429504 9.77295532 4.6015625 10.765625 C4.9635524 12.24394806 4.9635524 12.24394806 5.33285522 13.75213623 C5.84274751 15.84274212 6.34853892 17.93435173 6.85058594 20.02685547 C7.6189936 23.2250011 8.40218756 26.41924982 9.1875 29.61328125 C9.68057797 31.64301305 10.17279358 33.67295458 10.6640625 35.703125 C10.89839996 36.65850159 11.13273743 37.61387817 11.37417603 38.59820557 C11.58794891 39.49553406 11.8017218 40.39286255 12.02197266 41.31738281 C12.21135406 42.10268372 12.40073547 42.88798462 12.59585571 43.69708252 C13.03038093 46.17311833 13.06947692 48.49113059 13 51 C4.93811347 50.39975684 -2.6088556 47.93072905 -10.3125 45.625 C-12.35051778 45.02089148 -14.38905466 44.41856323 -16.42770386 43.81658936 C-17.74913707 43.4263737 -19.0703688 43.035475 -20.39138794 42.64385986 C-25.90585537 41.01360513 -31.44324233 39.47897381 -37 38 C-37 37.01 -37 36.02 -37 35 C-36.34 35 -35.68 35 -35 35 C-34.67 34.01 -34.34 33.02 -34 32 C-32.45117188 30.47460938 -32.45117188 30.47460938 -30.46875 28.84375 C-25.89351626 24.9617335 -21.70205736 20.77859757 -17.5 16.5 C-12.66792912 11.57991326 -7.78411359 6.82262358 -2.54882812 2.33007812 C-1.67552924 1.58012032 -0.81396795 0.81396795 0 0 Z " fill="#080808" transform="translate(172,179)"/>
<path d="M0 0 C0.22550537 0.99290039 0.22550537 0.99290039 0.45556641 2.00585938 C3.54521182 15.57881414 6.71840209 29.12149225 10.17041016 42.60742188 C10.53078369 44.0237793 10.53078369 44.0237793 10.8984375 45.46875 C11.21820557 46.71301758 11.21820557 46.71301758 11.54443359 47.98242188 C12 50 12 50 12 52 C3.06296313 50.6595026 -5.44792739 48.22063145 -14.0625 45.5625 C-15.37287373 45.16284332 -16.68342007 44.76375215 -17.99414062 44.36523438 C-20.51020542 43.59946521 -23.0251312 42.83026825 -25.53955078 42.05908203 C-30.02086847 40.6875598 -34.50904241 39.3395704 -39 38 C-37.72740361 35.21192526 -36.41609041 33.16713732 -34.2421875 31.01171875 C-33.70343994 30.47426025 -33.16469238 29.93680176 -32.60961914 29.38305664 C-32.03719482 28.82352295 -31.46477051 28.26398926 -30.875 27.6875 C-29.98832642 26.81049438 -29.98832642 26.81049438 -29.08374023 25.91577148 C-25.58269896 22.47609312 -21.99895598 19.19495321 -18.24609375 16.03125 C-14.24018619 12.40851621 -10.50164861 8.50158162 -6.74633789 4.62133789 C-6.16231201 4.02571045 -5.57828613 3.43008301 -4.9765625 2.81640625 C-4.45143066 2.27443604 -3.92629883 1.73246582 -3.38525391 1.17407227 C-2 0 -2 0 0 0 Z " fill="#080808" transform="translate(234,196)"/>
<path d="M0 0 C10.53669059 2.49471645 20.92670142 5.37600992 31.30859375 8.44946289 C37.85050842 10.38532447 44.4107023 12.231943 51 14 C47.11204437 18.85994453 42.88604111 23.00705181 38.24926758 27.1550293 C32.27931675 32.55096386 26.66989778 38.30745193 21.05566406 44.06958008 C20.31413086 44.82263428 19.57259766 45.57568848 18.80859375 46.3515625 C18.14657959 47.03041504 17.48456543 47.70926758 16.80249023 48.40869141 C15 50 15 50 12 51 C9.00426908 42.12995872 6.81564765 33.18762771 4.83911133 24.04443359 C3.85010431 19.52081564 2.75491822 15.11249133 1.34765625 10.69921875 C0.20013646 7.01946869 -0.30697179 3.8883093 0 0 Z " fill="#050505" transform="translate(118,160)"/>
<path d="M0 0 C7.52998932 1.55241013 14.82933991 3.65560374 22.1875 5.875 C24.58318326 6.59164769 26.97901527 7.30779835 29.375 8.0234375 C30.51582031 8.3647168 31.65664063 8.70599609 32.83203125 9.05761719 C38.54031767 10.75567403 44.26652014 12.38911472 50 14 C48.6489735 17.01015294 47.13664313 19.11967466 44.8125 21.453125 C44.19632812 22.071875 43.58015625 22.690625 42.9453125 23.328125 C42.30335938 23.96234375 41.66140625 24.5965625 41 25.25 C40.35804688 25.8996875 39.71609375 26.549375 39.0546875 27.21875 C38.43851562 27.83234375 37.82234375 28.4459375 37.1875 29.078125 C36.62417969 29.63918945 36.06085938 30.20025391 35.48046875 30.77832031 C34 32 34 32 32 32 C31.67 32.99 31.34 33.98 31 35 C29.46875 36.5078125 29.46875 36.5078125 27.5 38.125 C23.36623806 41.60959716 19.6216851 45.37562826 15.8828125 49.27734375 C14 51 14 51 12 51 C8.93628512 40.50745433 6.21330036 29.96278401 3.75 19.3125 C3.49202637 18.20277832 3.23405273 17.09305664 2.96826172 15.94970703 C1.75618694 10.64577103 0.64931105 5.40319548 0 0 Z " fill="#050505" transform="translate(239,195)"/>
<path d="M0 0 C7.87148279 1.7774316 15.54506149 4.05308793 23.25 6.4375 C32.43713295 9.27775691 41.6357113 11.81182804 51 14 C49.38306713 18.08129442 46.45718788 20.8060183 43.375 23.8125 C42.55878174 24.61905029 42.55878174 24.61905029 41.72607422 25.44189453 C38.35686926 28.74720938 34.88713625 31.8790588 31.2890625 34.93359375 C25.63075288 40.04152171 20.3546765 45.57763798 15 51 C14.01 50.67 13.02 50.34 12 50 C11.18798828 48.12426758 11.18798828 48.12426758 10.5703125 45.64453125 C10.33465576 44.7220459 10.09899902 43.79956055 9.85620117 42.84912109 C9.61490479 41.84703613 9.3736084 40.84495117 9.125 39.8125 C8.86887939 38.78979004 8.61275879 37.76708008 8.34887695 36.71337891 C5.33019051 24.54351235 2.37598312 12.3142351 0 0 Z " fill="#050505" transform="translate(284,151)"/>
<path d="M0 0 C17.14280271 4.18060175 34.08888412 8.96947819 51 14 C49.66196449 17.01343896 48.23196016 18.96803618 45.796875 21.1796875 C45.15250488 21.77257568 44.50813477 22.36546387 43.84423828 22.97631836 C43.15313965 23.6028833 42.46204102 24.22944824 41.75 24.875 C35.43413495 30.67832103 29.30192198 36.6129553 23.34277344 42.78271484 C21.93087651 44.2243227 20.46983018 45.61750755 19 47 C18.34 47 17.68 47 17 47 C16.731875 47.639375 16.46375 48.27875 16.1875 48.9375 C15 51 15 51 12 52 C11.85304688 51.08734375 11.85304688 51.08734375 11.703125 50.15625 C10.69891761 44.26951702 9.44517778 38.478936 8 32.6875 C7.8340332 32.01847656 7.66806641 31.34945312 7.49707031 30.66015625 C6.75172057 27.71975882 5.94426588 24.83512874 4.97265625 21.9609375 C3.8846669 18.64890566 3.14675277 15.35008271 2.4375 11.9375 C2.18871094 10.75027344 1.93992187 9.56304687 1.68359375 8.33984375 C1.11488965 5.561318 0.55216379 2.78185377 0 0 Z " fill="#050505" transform="translate(102,99)"/>
<path d="M0 0 C6.82557357 10.23836035 8.25338332 26.08307566 11 38 C11.19561523 38.82419434 11.39123047 39.64838867 11.59277344 40.49755859 C11.77614258 41.28598145 11.95951172 42.0744043 12.1484375 42.88671875 C12.31263184 43.58369873 12.47682617 44.28067871 12.64599609 44.9987793 C13 47 13 47 13 51 C-3.85717902 47.00881497 -20.41731295 41.99119307 -37 37 C-35.64516031 33.88571545 -34.23691311 32.11484863 -31.609375 29.984375 C-28.01580699 26.94266477 -24.64212153 23.73139798 -21.328125 20.390625 C-20.83405151 19.89324829 -20.33997803 19.39587158 -19.83093262 18.88342285 C-18.30196639 17.34090086 -16.7755645 15.795886 -15.25 14.25 C-13.21648376 12.18976882 -11.17958086 10.13297125 -9.140625 8.078125 C-8.24891602 7.17481445 -7.35720703 6.27150391 -6.43847656 5.34082031 C-4.37701846 3.3619196 -2.33168189 1.64262174 0 0 Z " fill="#070707" transform="translate(157,118)"/>
<path d="M0 0 C1.52307017 4.77228652 2.97038795 9.5056247 3.875 14.4375 C4.6583853 18.66911973 5.73475587 22.77654962 6.87280273 26.92285156 C8.98215016 34.61356963 10.80160616 41.97406751 11 50 C4.23059474 49.38825826 -1.94342678 47.71490266 -8.4375 45.75 C-9.48486328 45.43861084 -10.53222656 45.12722168 -11.61132812 44.80639648 C-13.73103684 44.17595471 -15.85002577 43.54308743 -17.96826172 42.90771484 C-22.30711338 41.60864491 -26.65359186 40.33599994 -31 39.0625 C-33.33356188 38.37577282 -35.66678851 37.68791698 -38 37 C-36.61370756 33.87675456 -35.00488429 31.75809293 -32.5859375 29.35546875 C-31.90660156 28.67806641 -31.22726563 28.00066406 -30.52734375 27.30273438 C-29.81707031 26.60470703 -29.10679687 25.90667969 -28.375 25.1875 C-27.68792969 24.50107422 -27.00085938 23.81464844 -26.29296875 23.10742188 C-22.26501129 19.11347156 -18.11981144 15.31874108 -13.82568359 11.61401367 C-10.3921682 8.57858037 -7.27875997 5.24156028 -4.1015625 1.94140625 C-2 0 -2 0 0 0 Z " fill="#070707" transform="translate(279,153)"/>
<path d="M0 0 C0.66 0.33 1.32 0.66 2 1 C2.724538 3.33800498 3.3273051 5.61950511 3.875 8 C4.04499512 8.70970947 4.21499023 9.41941895 4.39013672 10.15063477 C4.93454197 12.43198771 5.46731245 14.71588577 6 17 C6.35863074 18.50929163 6.71799728 20.01840861 7.078125 21.52734375 C12.0129501 42.26810912 12.0129501 42.26810912 13 50 C7.56510444 50.35595961 3.22825887 49.06846983 -1.875 47.4375 C-3.63767107 46.89079812 -5.40070983 46.34528068 -7.1640625 45.80078125 C-8.09895508 45.51025879 -9.03384766 45.21973633 -9.99707031 44.92041016 C-15.39796308 43.26501457 -20.82488055 41.69879453 -26.25 40.125 C-28.3177096 39.52344186 -30.38541804 38.92187973 -32.453125 38.3203125 C-33.96871724 37.88009553 -35.48432878 37.43994496 -37 37 C-35.19995262 33.07817263 -32.70073269 30.68804376 -29.5 27.875 C-22.70177868 21.77834646 -16.28949034 15.3316053 -9.91796875 8.79248047 C-9.17804688 8.04111816 -8.438125 7.28975586 -7.67578125 6.515625 C-7.01489502 5.83790039 -6.35400879 5.16017578 -5.6730957 4.46191406 C-4 3 -4 3 -2 3 C-2 2.34 -2 1.68 -2 1 C-1.34 0.67 -0.68 0.34 0 0 Z " fill="#080808" transform="translate(187,240)"/>
<path d="M0 0 C8.63788353 1.22614025 16.7636268 3.67258263 25.03076172 6.36083984 C32.96022082 8.93452245 40.82687993 11.33767049 49 13 C49 16 49 16 46.2109375 18.86328125 C44.93894456 20.02037686 43.65977166 21.16960978 42.375 22.3125 C36.17935529 27.93515003 30.20701315 33.71376974 24.39404297 39.73168945 C22.96502611 41.19027651 21.48682407 42.60038592 20 44 C19.34 44 18.68 44 18 44 C17.7525 44.61875 17.505 45.2375 17.25 45.875 C15.77952822 48.37480203 14.58596924 48.83316022 12 50 C9.08357718 42.87919098 7.26167128 35.89275632 5.859375 28.3359375 C4.6824872 22.16166795 3.13289379 16.06946191 1.62524414 9.96923828 C1.41504639 9.1079834 1.20484863 8.24672852 0.98828125 7.359375 C0.79790283 6.59077148 0.60752441 5.82216797 0.41137695 5.03027344 C0 3 0 3 0 0 Z " fill="#050505" transform="translate(133,222)"/>
<path d="M0 0 C7.92527242 1.58505448 15.60464091 3.89883326 23.33984375 6.20996094 C28.57470636 7.76466132 33.81937368 9.28595151 39.0625 10.8125 C41.1575605 11.42314819 43.25261328 12.03382292 45.34765625 12.64453125 C46.89842946 13.09638175 48.44920745 13.54821588 50 14 C45.89931905 18.88591773 41.65180021 23.50804526 37.125 28 C36.50858643 28.61447998 35.89217285 29.22895996 35.25708008 29.86206055 C31.58288612 33.50143261 27.83604239 36.9948611 23.88671875 40.3359375 C20.07517362 43.69767296 16.55494995 47.37098859 13 51 C10.6984222 47.5476333 9.88011203 44.22097948 8.90625 40.25390625 C8.71405884 39.48755356 8.52186768 38.72120087 8.32385254 37.93162537 C7.91763959 36.30579413 7.51435245 34.6792295 7.11376953 33.05200195 C6.5094897 30.60099105 5.8941968 28.15295087 5.27734375 25.70507812 C3.14924931 17.18260688 1.23303155 8.7077464 0 0 Z " fill="#050505" transform="translate(224,134)"/>
<path d="M0 0 C3.43640157 3.43640157 4.00808521 7.88420785 4.87109375 12.53125 C6.15565227 19.05999787 8.01300112 25.40603262 9.87695312 31.7890625 C11.59182481 37.86167545 12.59609908 43.70153655 13 50 C5.30707094 48.39868215 -2.20230401 46.3034659 -9.75 44.125 C-10.9359375 43.78597656 -12.121875 43.44695312 -13.34375 43.09765625 C-21.25877046 40.82511217 -29.13806831 38.44968484 -37 36 C-32.90996599 30.85824296 -28.32604653 26.46203286 -23.46875 22.06225586 C-17.86088817 16.94887959 -12.52367894 11.58060946 -7.20556641 6.16821289 C-6.5563623 5.51071045 -5.9071582 4.85320801 -5.23828125 4.17578125 C-4.66118408 3.58708252 -4.08408691 2.99838379 -3.48950195 2.3918457 C-2 1 -2 1 0 0 Z " fill="#070707" transform="translate(217,136)"/>
<path d="M0 0 C6.20036632 1.26748328 12.17483691 2.90948978 18.1875 4.875 C29.02030489 8.35219663 39.84732492 11.69254998 51 14 C51 14.66 51 15.32 51 16 C49.54882812 17.42773438 49.54882812 17.42773438 47.53125 19.09375 C42.93791178 22.99970486 38.72259253 27.20049322 34.5 31.5 C27.67667249 38.44761398 20.68031772 44.99975178 13 51 C9.15008584 37.6615806 5.83489519 24.22447829 2.64697266 10.71386719 C1.79377512 7.13494498 0.90239388 3.56680803 0 0 Z " fill="#050505" transform="translate(178,177)"/>
<path d="M0 0 C7.77326451 1.01314459 15.00121564 3.18217686 22.42236328 5.60253906 C31.18665749 8.4379951 40.07273431 10.740692 49 13 C48.14655214 17.43629103 46.09641131 19.02880882 42.6875 22 C41.5902263 22.97145475 40.49524246 23.94550093 39.40234375 24.921875 C38.8388623 25.42525391 38.27538086 25.92863281 37.69482422 26.44726562 C34.95481321 28.95756094 32.35482955 31.60084361 29.75 34.25 C24.14575136 39.92125695 18.41617733 45.25821982 12 50 C10.4704486 45.5970408 9.24112336 41.18489499 8.125 36.66015625 C7.95500488 35.97497421 7.78500977 35.28979218 7.60986328 34.58384705 C7.07097492 32.41061827 6.53525851 30.23662538 6 28.0625 C5.46433689 25.89204916 4.92795171 23.72178329 4.39013672 21.55186462 C3.90174855 19.58061946 3.41565152 17.60880707 2.9296875 15.63696289 C2.29440427 13.15171755 1.61238751 10.67807423 0.890625 8.21655273 C0.07783124 5.2810928 -0.18293472 3.01842285 0 0 Z " fill="#040404" transform="translate(164,117)"/>
<path d="M0 0 C0.8751123 0.24645264 1.75022461 0.49290527 2.65185547 0.74682617 C26.31531243 7.41138273 26.31531243 7.41138273 50 14 C48.89513102 17.31460693 48.12376914 17.96976106 45.5 20.125 C40.73495917 24.16806494 36.37886412 28.54641124 32 33 C16.88685524 48.37104825 16.88685524 48.37104825 12 50 C8.63986609 40.23584617 6.36629741 30.26805211 4.10693359 20.20361328 C2.62438894 13.54082324 2.62438894 13.54082324 0.8203125 6.9609375 C0 4 0 4 0 0 Z " fill="#050505" transform="translate(194,239)"/>
<path d="M0 0 C0 3.90838866 -1.50567876 5.11594107 -4 8 C-3.34 8 -2.68 8 -2 8 C-2.58170409 11.2045818 -3.47874021 12.86193181 -5.765625 15.1640625 C-6.60673828 16.01097656 -6.60673828 16.01097656 -7.46484375 16.875 C-8.05394531 17.4525 -8.64304688 18.03 -9.25 18.625 C-9.82363281 19.21023437 -10.39726562 19.79546875 -10.98828125 20.3984375 C-14.06795598 23.45706662 -16.65986118 25.93805114 -21 27 C-21.66 26.67 -22.32 26.34 -23 26 C-25.60931266 26.89363605 -25.60931266 26.89363605 -28 28 C-23.96340392 23.00736801 -19.62569085 18.79557822 -14.8125 14.5546875 C-9.68558333 9.89773819 -4.85869471 4.93382916 0 0 Z " fill="#E8E8E8" transform="translate(207,137)"/>
<path d="M0 0 C0.53625 0.268125 1.0725 0.53625 1.625 0.8125 C1.625 4.8125 1.625 4.8125 -0.203125 6.98828125 C-1.40195313 8.04595703 -1.40195313 8.04595703 -2.625 9.125 C-3.41390625 9.84300781 -4.2028125 10.56101563 -5.015625 11.30078125 C-7.375 12.8125 -7.375 12.8125 -9.671875 12.54296875 C-10.23390625 12.30191406 -10.7959375 12.06085938 -11.375 11.8125 C-10.385 11.4825 -9.395 11.1525 -8.375 10.8125 C-8.375 10.1525 -8.375 9.4925 -8.375 8.8125 C-9.60621385 9.87262706 -10.83485685 10.93574005 -12.0625 12 C-12.74699219 12.59167969 -13.43148437 13.18335938 -14.13671875 13.79296875 C-17.78062519 17.0807517 -21.17521557 20.59999802 -24.56640625 24.14453125 C-25.68997661 25.30481103 -26.81367628 26.46496562 -27.9375 27.625 C-28.78344727 28.5212207 -28.78344727 28.5212207 -29.64648438 29.43554688 C-30.19755859 29.99951172 -30.74863281 30.56347656 -31.31640625 31.14453125 C-31.80826416 31.65733643 -32.30012207 32.1701416 -32.80688477 32.69848633 C-34.375 33.8125 -34.375 33.8125 -38.375 33.8125 C-38.045 32.8225 -37.715 31.8325 -37.375 30.8125 C-36.385 30.8125 -35.395 30.8125 -34.375 30.8125 C-32.34125938 29.02965215 -30.47970761 27.24032558 -28.60546875 25.30078125 C-28.04684647 24.73554245 -27.48822418 24.17030365 -26.91267395 23.5879364 C-25.12207257 21.77389215 -23.34187933 19.95004758 -21.5625 18.125 C-19.7922179 16.3194908 -18.01977804 14.51618077 -16.24446106 12.71562195 C-15.14031026 11.59469733 -14.0392736 10.47069338 -12.94194031 9.34309387 C-3.50278207 -0.27653543 -3.50278207 -0.27653543 0 0 Z " fill="#E5E5E5" transform="translate(167.375,178.1875)"/>
<path d="M0 0 C0 3 0 3 -2.22265625 5.3046875 C-4.11473022 7.01718361 -6.01056815 8.72553027 -7.91015625 10.4296875 C-10.33460317 12.81470238 -10.33460317 12.81470238 -9.80859375 15.8203125 C-9.54175781 16.53960937 -9.27492187 17.25890625 -9 18 C-9.53109375 18.45890625 -10.0621875 18.9178125 -10.609375 19.390625 C-14.18324699 22.49493717 -17.71854059 25.58181312 -21 29 C-21.433125 28.505 -21.86625 28.01 -22.3125 27.5 C-23.99740483 25.66781808 -23.99740483 25.66781808 -27 26 C-25.625 24.5 -25.625 24.5 -24 23 C-23.34 23 -22.68 23 -22 23 C-21.67 22.01 -21.34 21.02 -21 20 C-19.609375 18.6328125 -19.609375 18.6328125 -17.75 17.125 C-11.45909851 11.80987702 -5.77874426 5.85802581 0 0 Z " fill="#E7E7E7" transform="translate(187,308)"/>
<path d="M0 0 C0 0.99 0 1.98 0 3 C-0.680625 3.61875 -1.36125 4.2375 -2.0625 4.875 C-2.701875 5.57625 -3.34125 6.2775 -4 7 C-3.6596875 8.1446875 -3.6596875 8.1446875 -3.3125 9.3125 C-3 12 -3 12 -4.4765625 13.875 C-6.27012192 15.64712246 -8.09359134 17.3503147 -10 19 C-10.99 18.34 -11.98 17.68 -13 17 C-13 16.34 -13 15.68 -13 15 C-13.66 14.67 -14.32 14.34 -15 14 C-14.50371094 13.57589844 -14.00742188 13.15179688 -13.49609375 12.71484375 C-8.79678658 8.65756716 -4.32846012 4.45019806 0 0 Z " fill="#E6E6E6" transform="translate(134,132)"/>
<path d="M0 0 C0.66 0.66 1.32 1.32 2 2 C1.51789063 2.39832031 1.03578125 2.79664063 0.5390625 3.20703125 C-0.09257812 3.73683594 -0.72421875 4.26664063 -1.375 4.8125 C-2.00148438 5.33457031 -2.62796875 5.85664063 -3.2734375 6.39453125 C-5.2221048 8.08225739 -5.2221048 8.08225739 -7 11 C-8.13695275 12.05382648 -9.30618328 13.07355437 -10.5 14.0625 C-12.41991122 15.66107015 -14.23130724 17.23130724 -16 19 C-17.09878951 19.94379653 -18.20358666 20.88061939 -19.3125 21.8125 C-22.36502053 24.41161267 -25.20853269 27.12394277 -28 30 C-28.66 29.67 -29.32 29.34 -30 29 C-16.02776458 14.85114924 -16.02776458 14.85114924 -9.8203125 9.59765625 C-6.37714974 6.57565288 -3.19946046 3.27604329 0 0 Z " fill="#202020" transform="translate(291,216)"/>
<path d="M0 0 C0 3.68558864 -1.22421797 4.6648977 -3.71484375 7.22265625 C-4.22144531 7.72667969 -4.72804687 8.23070312 -5.25 8.75 C-5.74113281 9.26949219 -6.23226562 9.78898438 -6.73828125 10.32421875 C-8.203125 11.796875 -8.203125 11.796875 -11 14 C-13.359375 13.828125 -13.359375 13.828125 -15 13 C-14.34 11.68 -13.68 10.36 -13 9 C-12.34 9 -11.68 9 -11 9 C-10.773125 8.4225 -10.54625 7.845 -10.3125 7.25 C-8.64018419 4.3831729 -6.72780269 2.86288964 -4 1 C-3.01 1 -2.02 1 -1 1 C-0.67 0.67 -0.34 0.34 0 0 Z " fill="#F5F5F5" transform="translate(256,171)"/>
<path d="M0 0 C1.2065625 0.0309375 1.2065625 0.0309375 2.4375 0.0625 C0.84403756 4.20550236 -2.03773211 7.42538759 -5.5625 10.0625 C-8.4375 10.4375 -8.4375 10.4375 -10.5625 10.0625 C-9.00553593 6.24086093 -6.52841316 3.87631505 -3.5625 1.0625 C-2.5625 0.0625 -2.5625 0.0625 0 0 Z " fill="#F6F6F6" transform="translate(238.5625,262.9375)"/>
<path d="M0 0 C0.66 0 1.32 0 2 0 C2.66 1.65 3.32 3.3 4 5 C1.69 6.98 -0.62 8.96 -3 11 C-3 10.34 -3 9.68 -3 9 C-4.32 9.33 -5.64 9.66 -7 10 C-6.57847656 9.52949219 -6.15695313 9.05898437 -5.72265625 8.57421875 C-5.17480469 7.95160156 -4.62695312 7.32898438 -4.0625 6.6875 C-3.51722656 6.07261719 -2.97195312 5.45773438 -2.41015625 4.82421875 C-0.79918441 2.94758042 -0.79918441 2.94758042 0 0 Z " fill="#F4F4F4" transform="translate(208,136)"/>
<path d="M0 0 C0 3 0 3 -2.1875 5.3125 C-3.115625 6.199375 -4.04375 7.08625 -5 8 C-5.90822421 9.09399734 -6.80440547 10.19811881 -7.6875 11.3125 C-8.8321875 12.6428125 -8.8321875 12.6428125 -10 14 C-10.66 14 -11.32 14 -12 14 C-12.2475 14.639375 -12.495 15.27875 -12.75 15.9375 C-14 18 -14 18 -16.078125 18.62890625 C-16.71234375 18.75136719 -17.3465625 18.87382812 -18 19 C-12.44964797 12.21623641 -6.23557973 6.14477032 0 0 Z " fill="#232323" transform="translate(146,128)"/>
<path d="M0 0 C0.99 0.33 1.98 0.66 3 1 C1.8553125 1.8971875 1.8553125 1.8971875 0.6875 2.8125 C-1.86582141 4.81480698 -1.86582141 4.81480698 -3.5 6.5 C-5.52177739 8.52177739 -7.75172548 10.23783889 -10 12 C-10.66 11.67 -11.32 11.34 -12 11 C-10.75323147 9.72599623 -9.5024352 8.45593346 -8.25 7.1875 C-7.55390625 6.47980469 -6.8578125 5.77210938 -6.140625 5.04296875 C-4.15714882 3.14997962 -2.34018946 1.43170127 0 0 Z " fill="#D7D7D7" transform="translate(180,239)"/>
<path d="M0 0 C2.97 0.495 2.97 0.495 6 1 C6 1.99 6 2.98 6 4 C5.01 4.66 4.02 5.32 3 6 C0 1.125 0 1.125 0 0 Z " fill="#242424" transform="translate(176,234)"/>
<path d="M0 0 C0.99 0.33 1.98 0.66 3 1 C3 1.66 3 2.32 3 3 C1.8553125 3.4021875 1.8553125 3.4021875 0.6875 3.8125 C-1.87380884 4.94424112 -3.19692938 5.91223401 -5 8 C-5 5 -5 5 -2.5 2.3125 C-1.675 1.549375 -0.85 0.78625 0 0 Z " fill="#0D0D0D" transform="translate(218,210)"/>
<path d="M0 0 C2.97 0.495 2.97 0.495 6 1 C5.67 1.99 5.34 2.98 5 4 C4.01 4.33 3.02 4.66 2 5 C1.34 4.67 0.68 4.34 0 4 C0 2.68 0 1.36 0 0 Z " fill="#1C1C1C" transform="translate(148,282)"/>
<path d="M0 0 C0.66 0.33 1.32 0.66 2 1 C1.1875 2.9375 1.1875 2.9375 0 5 C-0.99 5.33 -1.98 5.66 -3 6 C-3 4.35 -3 2.7 -3 1 C-2.01 0.67 -1.02 0.34 0 0 Z " fill="#363636" transform="translate(117,145)"/>
<path d="M0 0 C0.33 0 0.66 0 1 0 C1.33 2.97 1.66 5.94 2 9 C0.35 8.67 -1.3 8.34 -3 8 C-2.34 7.34 -1.68 6.68 -1 6 C-0.60235737 4.01178687 -0.26224651 2.01055661 0 0 Z " fill="#313131" transform="translate(168,160)"/>
</svg>
