<?xml version="1.0" encoding="UTF-8"?>
<svg version="1.1" xmlns="http://www.w3.org/2000/svg" width="200" height="200">
<path d="M0 0 C1.46291868 -0.00435443 2.92583509 -0.00954 4.38874817 -0.01548767 C8.33919988 -0.02880939 12.28955551 -0.02946407 16.24002528 -0.02692437 C19.54751392 -0.02585015 22.85498349 -0.03074944 26.16246802 -0.03552979 C33.96965483 -0.04660106 41.77679352 -0.04707562 49.58398438 -0.04101562 C57.61779209 -0.03497532 65.65142469 -0.04729372 73.68520254 -0.06858569 C80.6026918 -0.08623989 87.5201255 -0.0921971 94.43763644 -0.08894795 C98.56041614 -0.08714126 102.68307086 -0.08970974 106.80583 -0.10366249 C110.68423813 -0.11629886 114.56237445 -0.11424232 118.44077873 -0.1012516 C119.8572499 -0.09889897 121.27374056 -0.10157297 122.69018936 -0.10987473 C141.2973615 -0.21099779 141.2973615 -0.21099779 147.30195522 4.93140697 C152.55149833 10.4836704 153.61981014 16.31824317 153.59448242 23.84057617 C153.59477448 24.57297012 153.59506653 25.30536407 153.59536743 26.05995178 C153.59398258 28.4623735 153.57846161 30.86447868 153.56274414 33.2668457 C153.559011 34.9397871 153.55616545 36.61273068 153.5541687 38.28567505 C153.54655594 42.67511092 153.52692783 47.0644131 153.50476074 51.45379639 C153.4842514 55.9383361 153.47515613 60.42289755 153.46508789 64.9074707 C153.4436796 73.69659435 153.40957229 82.48560962 153.36743164 91.2746582 C150.05494977 91.30353967 146.74249997 91.32141619 143.42993164 91.3371582 C142.4844043 91.34553711 141.53887695 91.35391602 140.56469727 91.36254883 C139.21601563 91.36738281 139.21601563 91.36738281 137.84008789 91.37231445 C137.00743408 91.37755127 136.17478027 91.38278809 135.31689453 91.38818359 C133.36743164 91.2746582 133.36743164 91.2746582 132.36743164 90.2746582 C132.36743164 76.7446582 132.36743164 63.2146582 132.36743164 49.2746582 C84.51743164 49.2746582 36.66743164 49.2746582 -12.63256836 49.2746582 C-12.63256836 82.2746582 -12.63256836 115.2746582 -12.63256836 149.2746582 C5.51743164 149.2746582 23.66743164 149.2746582 42.36743164 149.2746582 C42.03743164 153.2346582 41.70743164 157.1946582 41.36743164 161.2746582 C42.17682524 166.30896681 42.17682524 166.30896681 43.36743164 170.2746582 C35.29147671 170.36763795 27.21574816 170.4385638 19.13938904 170.48190689 C15.38854975 170.50271718 11.63807863 170.53091287 7.88745117 170.57641602 C4.26290302 170.6201107 0.63870737 170.64384456 -2.98608398 170.65416718 C-4.3639073 170.66151652 -5.74171291 170.67586767 -7.11938477 170.69757843 C-15.78813525 170.82866579 -22.91487738 170.84210425 -29.47241211 164.4934082 C-29.83463867 163.9262207 -30.19686523 163.3590332 -30.57006836 162.7746582 C-30.9503418 162.2074707 -31.33061523 161.6402832 -31.72241211 161.0559082 C-33.64601405 157.29126235 -33.76219546 153.71308287 -33.77973938 149.53253174 C-33.78689468 148.36061279 -33.79404999 147.18869385 -33.80142212 145.98126221 C-33.80411102 144.69910828 -33.80679993 143.41695435 -33.80957031 142.09594727 C-33.81583835 140.72904285 -33.82248546 139.36214013 -33.82948303 137.99523926 C-33.850485 133.51026589 -33.86088167 129.02529233 -33.87084961 124.5402832 C-33.87489858 122.99391411 -33.87901555 121.44754519 -33.88319969 119.90117645 C-33.90224273 112.63537622 -33.91647572 105.3695861 -33.92481166 98.10376573 C-33.93458169 89.72717152 -33.96089865 81.35084173 -34.00131255 72.97434068 C-34.03150749 66.49265773 -34.04628372 60.01105044 -34.04959267 53.52929854 C-34.05193926 49.66130182 -34.06084843 45.79358785 -34.08605385 41.92566681 C-34.10939914 38.28448991 -34.11354226 34.64378067 -34.10329247 31.00254822 C-34.10256407 29.03838078 -34.12160962 27.07423675 -34.14135742 25.11016846 C-34.09040026 16.42727574 -33.03939185 10.91916705 -26.94506836 4.3996582 C-18.86009964 -0.7869255 -9.2701536 -0.01832508 0 0 Z M-10.32006836 20.8371582 C-12.9673965 23.15507264 -12.9673965 23.15507264 -13.13256836 26.8371582 C-12.85793341 30.13148119 -12.85793341 30.13148119 -11.57006836 32.2121582 C-8.51280659 33.88872111 -6.04193956 33.63994797 -2.63256836 33.2746582 C-0.47933224 31.83916746 0.16003895 30.71907112 1.24243164 28.3996582 C1.42608976 25.27747017 0.18929893 23.74719237 -1.63256836 21.2746582 C-5.35838708 18.79077906 -6.45491418 18.58997554 -10.32006836 20.8371582 Z M32.36743164 22.2746582 C31.1141338 25.12755518 31.1141338 25.12755518 31.36743164 28.2746582 C32.7762126 31.26482251 32.7762126 31.26482251 35.36743164 33.2746582 C39.04534155 33.96426631 40.65251775 33.73293634 43.80493164 31.7121582 C45.6878584 29.25734392 45.6878584 29.25734392 45.36743164 25.7121582 C44.65684482 22.2719434 44.65684482 22.2719434 42.49243164 20.3371582 C38.35584557 18.26886517 35.79959415 19.56505622 32.36743164 22.2746582 Z M10.36743164 22.2746582 C9.11904783 25.67994816 9.11904783 25.67994816 9.36743164 29.2746582 C10.78409831 31.85799154 10.78409831 31.85799154 13.36743164 33.2746582 C16.36743164 34.0246582 16.36743164 34.0246582 19.36743164 33.2746582 C21.95865068 31.26482251 21.95865068 31.26482251 23.36743164 28.2746582 C23.62072949 25.12755518 23.62072949 25.12755518 22.36743164 22.2746582 C17.63421571 18.63372287 15.07552498 18.5323276 10.36743164 22.2746582 Z " fill="#000000" transform="translate(38.632568359375,2.725341796875)"/>
<path d="M0 0 C0.75925781 -0.01933594 1.51851562 -0.03867188 2.30078125 -0.05859375 C6.26561363 -0.02387543 7.9392089 0.12681294 10.984375 2.83203125 C12.56508901 5.74494495 13.07477654 7.65206016 13.25 10.9375 C13.30671875 11.82050781 13.3634375 12.70351562 13.421875 13.61328125 C13.44765625 14.27714844 13.4734375 14.94101563 13.5 15.625 C14.510625 15.851875 15.52125 16.07875 16.5625 16.3125 C19.64311132 17.14928577 21.55573347 18.3408825 24 20.375 C25.68849798 21.74403455 25.68849798 21.74403455 27.5 22.625 C31.00973758 22.01538745 31.00973758 22.01538745 34.5 20.625 C37.42583087 20.15507688 39.47022201 20.28292829 42.5 20.625 C46.96988994 23.87582904 49.76605535 28.41320084 51.5 33.625 C51.75 37.1875 51.75 37.1875 50.5 40.625 C49.17421674 41.64226766 47.81575964 42.61754757 46.4375 43.5625 C43.25789425 46.08663549 42.56296682 47.33267579 41.69140625 51.37890625 C41.30127548 56.53850612 41.03518024 61.69015017 44.27734375 65.97265625 C45.69284998 67.0963583 47.14371413 68.17719215 48.62890625 69.20703125 C50.5 70.625 50.5 70.625 51.875 73.875 C51.31009248 79.52407518 48.72122998 84.0002341 45.5 88.625 C41.78975787 91.09849475 38.80530159 91.08827921 34.5 90.625 C33.365625 90.17125 32.23125 89.7175 31.0625 89.25 C26.82182337 88.50602164 26.277728 89.06965126 22.875 91.4375 C21.80378906 92.28248047 21.80378906 92.28248047 20.7109375 93.14453125 C18.27629855 94.77479302 16.38023361 95.23591581 13.5 95.625 C13.47421875 96.28886719 13.4484375 96.95273438 13.421875 97.63671875 C13.33679688 98.96123047 13.33679688 98.96123047 13.25 100.3125 C13.20359375 101.18261719 13.1571875 102.05273438 13.109375 102.94921875 C12.28939693 106.54976348 11.27154732 108.16285498 8.5 110.625 C5.64629059 111.35118723 2.93078994 111.32463811 0 111.25 C-0.75925781 111.26933594 -1.51851562 111.28867188 -2.30078125 111.30859375 C-6.26561363 111.27387543 -7.9392089 111.12318706 -10.984375 108.41796875 C-12.56508901 105.50505505 -13.07477654 103.59793984 -13.25 100.3125 C-13.30671875 99.42949219 -13.3634375 98.54648438 -13.421875 97.63671875 C-13.44765625 96.97285156 -13.4734375 96.30898437 -13.5 95.625 C-14.510625 95.398125 -15.52125 95.17125 -16.5625 94.9375 C-19.64311132 94.10071423 -21.55573347 92.9091175 -24 90.875 C-25.68849798 89.50596545 -25.68849798 89.50596545 -27.5 88.625 C-31.00973758 89.23461255 -31.00973758 89.23461255 -34.5 90.625 C-37.42583087 91.09492312 -39.47022201 90.96707171 -42.5 90.625 C-46.96039661 87.38107519 -49.75079927 82.82145597 -51.5 77.625 C-51.58236 73.42464016 -50.91544403 72.09510772 -48.125 68.9375 C-45.5 66.625 -45.5 66.625 -43.875 65.46875 C-41.68763409 62.53569117 -41.88375187 59.33711823 -41.875 55.8125 C-41.87193848 55.08708008 -41.86887695 54.36166016 -41.86572266 53.61425781 C-41.97349515 50.38694825 -42.18709586 48.09354136 -44 45.37890625 C-45.81499648 43.84782311 -45.81499648 43.84782311 -47.7734375 42.765625 C-49.9563598 41.32351344 -50.58744341 40.05387536 -51.5 37.625 C-51.5 31.10417592 -48.48572083 26.55164697 -44.5 21.625 C-41.33410591 20.04205296 -37.95786515 20.31581133 -34.5 20.625 C-32.7984375 21.305625 -32.7984375 21.305625 -31.0625 22 C-26.82182337 22.74397836 -26.277728 22.18034874 -22.875 19.8125 C-22.16085938 19.24917969 -21.44671875 18.68585938 -20.7109375 18.10546875 C-18.27629855 16.47520698 -16.38023361 16.01408419 -13.5 15.625 C-13.46132812 14.62919922 -13.46132812 14.62919922 -13.421875 13.61328125 C-13.33679688 12.28876953 -13.33679688 12.28876953 -13.25 10.9375 C-13.20359375 10.06738281 -13.1571875 9.19726562 -13.109375 8.30078125 C-11.35333353 0.58995812 -6.96989243 -0.17750151 0 0 Z M-12.85546875 46.35546875 C-15.47462144 50.83395167 -15.93486432 54.50215015 -15.03515625 59.5859375 C-13.83048321 64.17600557 -12.19022442 66.11423393 -8.375 68.9375 C-3.53002324 71.44176014 1.30514714 71.62927595 6.48828125 70 C10.7492746 67.95618306 13.03860689 65.14911677 14.91015625 60.84375 C16.22492957 55.8981126 15.24036928 51.47592321 13.375 46.8125 C10.26128579 43.17983342 6.97038197 41.05709861 2.2890625 40.23828125 C-3.94513752 39.92976282 -8.91724507 41.32770768 -12.85546875 46.35546875 Z " fill="#000000" transform="translate(143.5,85.375)"/>
</svg>
