<?xml version="1.0" standalone="no"?>
<!DOCTYPE svg PUBLIC "-//W3C//DTD SVG 20010904//EN"
 "http://www.w3.org/TR/2001/REC-SVG-20010904/DTD/svg10.dtd">
<svg version="1.0" xmlns="http://www.w3.org/2000/svg"
 width="512.000000pt" height="512.000000pt" viewBox="0 0 512.000000 512.000000"
 preserveAspectRatio="xMidYMid meet">

<g transform="translate(0.000000,512.000000) scale(0.100000,-0.100000)"
fill="#000000" stroke="none">
<path d="M2621 4484 c-12 -15 -21 -37 -21 -49 0 -12 9 -34 21 -49 l20 -26
-604 0 -604 0 -21 -23 c-40 -42 -24 -105 32 -127 18 -6 230 -10 607 -10 l580
0 -15 -22 c-43 -61 21 -144 91 -117 27 10 196 138 226 172 17 19 23 72 9 93
-4 7 -56 51 -117 98 -93 72 -116 86 -147 86 -28 0 -42 -6 -57 -26z"/>
<path d="M1721 3875 c-61 -47 -115 -94 -121 -105 -13 -25 -12 -61 3 -80 16
-21 196 -164 226 -179 69 -37 141 51 96 116 l-16 22 402 3 401 3 19 24 c26 32
25 82 -4 109 -23 22 -26 22 -420 22 -221 0 -397 4 -397 9 0 5 7 14 15 21 21
18 19 63 -6 94 -38 48 -72 37 -198 -59z"/>
<path d="M3610 3729 l-35 -91 -93 -33 c-51 -19 -116 -47 -144 -63 l-52 -29
-84 38 c-46 22 -89 39 -96 39 -6 0 -60 -49 -119 -108 l-108 -108 41 -89 41
-89 -45 -96 c-24 -52 -50 -115 -57 -140 -7 -25 -17 -50 -23 -56 -6 -6 -50 -26
-99 -44 l-87 -33 2 -155 3 -155 93 -36 94 -36 22 -71 c13 -39 40 -104 60 -145
l37 -75 -41 -94 -41 -94 109 -108 108 -109 94 41 94 41 75 -37 c41 -20 106
-47 145 -60 l71 -22 36 -94 36 -93 155 -3 155 -2 33 87 c19 49 37 93 42 99 5
7 30 17 56 24 26 6 90 32 142 56 l96 45 89 -41 89 -41 108 108 c59 59 108 113
108 119 0 7 -17 50 -39 96 l-38 84 30 53 c16 29 44 94 62 144 l31 92 92 35 92
35 -2 158 -3 159 -92 35 -91 35 -12 46 c-6 26 -31 89 -56 141 -24 51 -44 99
-44 106 0 7 16 47 35 89 19 43 35 82 35 89 0 15 -201 217 -217 217 -6 0 -46
-16 -89 -35 -42 -19 -82 -35 -89 -35 -7 0 -55 20 -106 44 -52 25 -115 50 -141
56 l-46 12 -35 91 -35 92 -159 3 -158 2 -35 -91z m340 -536 c228 -63 392 -276
393 -513 2 -292 -217 -527 -508 -547 -319 -21 -594 253 -572 572 15 216 140
387 345 474 100 42 224 47 342 14z"/>
<path d="M975 3638 c-132 -25 -266 -128 -324 -250 -88 -185 -53 -388 92 -532
147 -146 367 -178 548 -80 61 34 149 122 183 183 146 270 -6 605 -306 676 -70
16 -119 17 -193 3z"/>
<path d="M909 2605 c-343 -65 -619 -307 -718 -629 -29 -93 -28 -129 5 -155 27
-21 32 -21 873 -21 911 1 869 -2 890 53 21 53 -43 225 -132 360 -124 185 -322
324 -539 377 -110 27 -280 34 -379 15z"/>
<path d="M2429 1591 c-32 -33 -36 -53 -15 -93 l15 -28 -385 0 c-318 0 -390 -3
-413 -15 -46 -24 -55 -74 -20 -119 l20 -26 405 0 405 0 -20 -26 c-28 -35 -26
-69 4 -99 40 -41 77 -34 163 32 140 108 162 131 162 169 0 41 -11 53 -130 145
-131 102 -144 106 -191 60z"/>
<path d="M1628 1056 c-31 -16 -157 -114 -205 -159 -36 -34 -42 -69 -19 -103 8
-11 61 -57 119 -102 86 -67 111 -82 140 -82 26 0 41 7 56 26 25 31 27 76 6 94
-8 7 -15 16 -15 21 0 5 262 9 600 9 587 0 600 0 620 20 21 21 26 69 10 100
-20 38 -55 40 -652 40 l-579 0 15 22 c30 42 16 91 -31 116 -28 15 -32 15 -65
-2z"/>
</g>
</svg>
