<?xml version="1.0" encoding="UTF-8"?>
<svg version="1.1" xmlns="http://www.w3.org/2000/svg" width="200" height="200">
<path d="M0 0 C8.67478131 6.8996926 13.45453661 16.30905374 16 27 C17.24915964 40.98768293 14.38214675 52.01913887 7 64 C7.825 65.010625 8.65 66.02125 9.5 67.0625 C9.9640625 67.63097656 10.428125 68.19945312 10.90625 68.78515625 C13.15231406 70.40021712 13.15231406 70.40021712 16.71508789 69.22167969 C19.19956958 68.87342339 20.51267595 68.74172242 22.74813843 69.92649841 C24.50605491 71.4160808 26.07728618 72.98609218 27.65234375 74.66796875 C28.53074669 75.55480095 28.53074669 75.55480095 29.42689514 76.45954895 C30.6566803 77.70944547 31.87565143 78.97006351 33.08422852 80.24047852 C34.93492251 82.18479212 36.81590112 84.09508122 38.70507812 86.00195312 C39.89772729 87.22210995 41.08854799 88.44405726 42.27734375 89.66796875 C42.83767807 90.2410527 43.39801239 90.81413666 43.97532654 91.40458679 C46.59893901 94.17512917 48.47338832 96.17682747 49 100 C47.7421875 102 47.7421875 102 45.875 104 C45.23175781 104.6909375 44.58851563 105.381875 43.92578125 106.09375 C41.74467369 108.25273679 39.48234199 110.19466037 37 112 C32.24494683 110.55300091 29.26043785 107.72791304 25.82421875 104.29296875 C25.25419632 103.73055984 24.68417389 103.16815094 24.09687805 102.58869934 C22.89887137 101.40146431 21.70477977 100.21026716 20.5144043 99.01538086 C18.68986901 97.18987027 16.84502681 95.38674881 14.99804688 93.58398438 C13.83463923 92.42578182 12.67248541 91.26631813 11.51171875 90.10546875 C10.95868576 89.56883102 10.40565277 89.0321933 9.83586121 88.47929382 C7.55323713 86.15455886 6.08640554 84.66007466 5.65551758 81.3684082 C5.82603638 80.19604614 5.82603638 80.19604614 6 79 C6.44160248 75.1691947 6.44160248 75.1691947 4.6875 73.515625 C4.130625 73.09796875 3.57375 72.6803125 3 72.25 C2.01 71.5075 1.02 70.765 0 70 C-0.60585937 70.39832031 -1.21171875 70.79664063 -1.8359375 71.20703125 C-13.62142431 78.65908522 -25.10990825 80.76120082 -38.8984375 78.53125 C-49.045742 75.84237436 -59.48967041 69.45299123 -65.00585938 60.33789062 C-71.69221929 48.27140359 -74.1400169 36.36991046 -71.31640625 22.6875 C-69.20465159 16.51872291 -66.00455601 11.12505222 -62 6 C-61.52175781 5.38382813 -61.04351562 4.76765625 -60.55078125 4.1328125 C-45.04201167 -13.44639735 -17.91106284 -12.89009276 0 0 Z M-57.3125 11.8125 C-63.63255275 20.95902078 -65.97304924 29.94989289 -65 41 C-62.24727896 52.02514695 -56.2971442 60.44973931 -47 67 C-37.89859696 71.60789166 -29.16188595 73.78815522 -18.98046875 71.24609375 C-13.83340787 69.4506074 -9.35995237 67.32186847 -5 64 C-4.175 63.443125 -3.35 62.88625 -2.5 62.3125 C5.40939408 54.99631047 9.0074877 45.76433666 9.4375 35.125 C9.1128353 24.58692508 5.49239174 15.4627189 -2 8 C-10.29661429 0.98943935 -20.13781119 -2.80513023 -31.01953125 -2.3828125 C-41.1090688 -1.08690859 -50.93467729 3.79238795 -57.3125 11.8125 Z " fill="#000000" transform="translate(128,65)"/>
<path d="M0 0 C4.29 0 8.58 0 13 0 C13.20625 1.11375 13.4125 2.2275 13.625 3.375 C14.61012007 7.14172386 14.61012007 7.14172386 17.5625 8.4375 C20.55631868 8.9273976 22.6009591 8.87673098 25.5625 8.625 C27.875 8.55859375 27.875 8.55859375 30 9 C33.22720711 12.05538821 34.74680896 15.54415154 35.5 19.875 C35 22 35 22 32 24 C31.52312697 26.13253645 31.52312697 26.13253645 31.625 28.5 C31.61726563 29.2940625 31.60953125 30.088125 31.6015625 30.90625 C31.79878906 31.94265625 31.79878906 31.94265625 32 33 C32.99 33.66 33.98 34.32 35 35 C35.56872294 38.8970447 34.74466588 41.14250644 32.5 44.3125 C29.70237408 47.84252327 29.70237408 47.84252327 27.03125 48.44140625 C25.67231917 48.39697967 24.31415112 48.30799178 22.9609375 48.17578125 C19.80243184 47.89264827 17.76030428 48.4884048 15 50 C13.53977565 53.52451159 13.53977565 53.52451159 13 57 C8.71 57 4.42 57 0 57 C-0.309375 55.329375 -0.309375 55.329375 -0.625 53.625 C-1.61012007 49.85827614 -1.61012007 49.85827614 -4.5625 48.5625 C-7.55631868 48.0726024 -9.6009591 48.12326902 -12.5625 48.375 C-14.875 48.44140625 -14.875 48.44140625 -17 48 C-20.22720711 44.94461179 -21.74680896 41.45584846 -22.5 37.125 C-22 35 -22 35 -19 33 C-18.52312697 30.86746355 -18.52312697 30.86746355 -18.625 28.5 C-18.61726563 27.7059375 -18.60953125 26.911875 -18.6015625 26.09375 C-18.73304687 25.4028125 -18.86453125 24.711875 -19 24 C-19.99 23.34 -20.98 22.68 -22 22 C-22.84158796 18.42325118 -21.6793007 15.84837334 -20.0625 12.6875 C-17.7370654 9.15310366 -17.7370654 9.15310366 -14.875 8.55859375 C-13.32103379 8.60321778 -11.76777103 8.69255196 -10.21875 8.82421875 C-6.95550091 9.08275081 -4.84958507 8.59854772 -2 7 C-0.53977565 3.47548841 -0.53977565 3.47548841 0 0 Z M-1 21 C-3.5940636 24.02640753 -4.23362622 26.17674616 -3.9375 30.0625 C-3.45236518 32.74084848 -2.93734584 34.09774049 -1.4375 36.4375 C1.95739926 38.61371748 4.98309343 39.20004515 9 39 C12.1806324 37.72774704 13.65883242 36.39802885 15.875 33.8125 C17.42450115 29.93874712 17.19467052 26.96564241 16 23 C14.31926233 20.37804924 13.11491283 19.33587332 10.1328125 18.4375 C5.52983177 17.60375255 2.68507864 17.84136116 -1 21 Z " fill="#000000" transform="translate(31,134)"/>
<path d="M0 0 C4.29 0 8.58 0 13 0 C13.20625 1.11375 13.4125 2.2275 13.625 3.375 C14.61012007 7.14172386 14.61012007 7.14172386 17.5625 8.4375 C20.55631868 8.9273976 22.6009591 8.87673098 25.5625 8.625 C27.875 8.55859375 27.875 8.55859375 30 9 C33.22720711 12.05538821 34.74680896 15.54415154 35.5 19.875 C35 22 35 22 32 24 C31.52312697 26.13253645 31.52312697 26.13253645 31.625 28.5 C31.61726563 29.2940625 31.60953125 30.088125 31.6015625 30.90625 C31.79878906 31.94265625 31.79878906 31.94265625 32 33 C32.99 33.66 33.98 34.32 35 35 C35.56872294 38.8970447 34.74466588 41.14250644 32.5 44.3125 C29.70237408 47.84252327 29.70237408 47.84252327 27.03125 48.44140625 C25.67231917 48.39697967 24.31415112 48.30799178 22.9609375 48.17578125 C19.80243184 47.89264827 17.76030428 48.4884048 15 50 C13.53977565 53.52451159 13.53977565 53.52451159 13 57 C8.71 57 4.42 57 0 57 C-0.309375 55.329375 -0.309375 55.329375 -0.625 53.625 C-1.61012007 49.85827614 -1.61012007 49.85827614 -4.5625 48.5625 C-7.55631868 48.0726024 -9.6009591 48.12326902 -12.5625 48.375 C-14.875 48.44140625 -14.875 48.44140625 -17 48 C-20.22720711 44.94461179 -21.74680896 41.45584846 -22.5 37.125 C-22 35 -22 35 -19 33 C-18.52312697 30.86746355 -18.52312697 30.86746355 -18.625 28.5 C-18.61726562 27.7059375 -18.60953125 26.911875 -18.6015625 26.09375 C-18.73304688 25.4028125 -18.86453125 24.711875 -19 24 C-19.99 23.34 -20.98 22.68 -22 22 C-22.84158796 18.42325118 -21.6793007 15.84837334 -20.0625 12.6875 C-17.7370654 9.15310366 -17.7370654 9.15310366 -14.875 8.55859375 C-13.32103379 8.60321778 -11.76777103 8.69255196 -10.21875 8.82421875 C-6.95550091 9.08275081 -4.84958507 8.59854772 -2 7 C-0.53977565 3.47548841 -0.53977565 3.47548841 0 0 Z M-1 21 C-3.5940636 24.02640753 -4.23362622 26.17674616 -3.9375 30.0625 C-3.45236518 32.74084848 -2.93734584 34.09774049 -1.4375 36.4375 C1.95739926 38.61371748 4.98309343 39.20004515 9 39 C12.1806324 37.72774704 13.65883242 36.39802885 15.875 33.8125 C17.42450115 29.93874712 17.19467052 26.96564241 16 23 C14.31926233 20.37804924 13.11491283 19.33587332 10.1328125 18.4375 C5.52983177 17.60375255 2.68507864 17.84136116 -1 21 Z " fill="#000000" transform="translate(156,9)"/>
<path d="M0 0 C2.53811231 0.61064241 3.74056543 1.17806543 5.57421875 3.01171875 C7.8566885 7.4979524 7.83325921 10.78434967 6.38671875 15.57421875 C5.72671875 16.23421875 5.06671875 16.89421875 4.38671875 17.57421875 C5.23556641 17.86425781 5.23556641 17.86425781 6.1015625 18.16015625 C6.83503906 18.42054687 7.56851563 18.6809375 8.32421875 18.94921875 C9.05511719 19.20445313 9.78601563 19.4596875 10.5390625 19.72265625 C12.38671875 20.57421875 12.38671875 20.57421875 13.38671875 22.57421875 C13.47163375 24.46060995 13.49391175 26.3500039 13.484375 28.23828125 C13.48187744 29.24842285 13.47937988 30.25856445 13.47680664 31.29931641 C13.46770264 32.58628418 13.45859863 33.87325195 13.44921875 35.19921875 C13.42859375 39.28296875 13.40796875 43.36671875 13.38671875 47.57421875 C2.82671875 47.57421875 -7.73328125 47.57421875 -18.61328125 47.57421875 C-18.65453125 43.51109375 -18.69578125 39.44796875 -18.73828125 35.26171875 C-18.75648926 33.98385498 -18.77469727 32.70599121 -18.79345703 31.3894043 C-18.79845215 30.38176025 -18.80344727 29.37411621 -18.80859375 28.3359375 C-18.81906738 27.30428467 -18.82954102 26.27263184 -18.84033203 25.2097168 C-18.61328125 22.57421875 -18.61328125 22.57421875 -16.61328125 19.57421875 C-12.98828125 18.38671875 -12.98828125 18.38671875 -9.61328125 17.57421875 C-10.10828125 17.05859375 -10.60328125 16.54296875 -11.11328125 16.01171875 C-13.21576903 12.59517611 -13.15859428 10.52773823 -12.61328125 6.57421875 C-9.45477508 0.78362411 -6.56780628 -0.44178069 0 0 Z " fill="#000000" transform="translate(102.61328125,74.42578125)"/>
<path d="M0 0 C1.70884005 1.62339805 3.37446717 3.29319053 5 5 C5 5.66 5 6.32 5 7 C2.8125 8.7265625 2.8125 8.7265625 0 10.625 C-0.928125 11.25664063 -1.85625 11.88828125 -2.8125 12.5390625 C-3.534375 13.02117188 -4.25625 13.50328125 -5 14 C-6.65 12.68 -8.3 11.36 -10 10 C-8.5741914 6.54804233 -6.90253666 4.8985744 -3.875 2.75 C-3.15054688 2.22921875 -2.42609375 1.7084375 -1.6796875 1.171875 C-1.12539063 0.78515625 -0.57109375 0.3984375 0 0 Z " fill="#000000" transform="translate(50,23)"/>
<path d="M0 0 C0.66 2.31 1.32 4.62 2 7 C0.58774074 7.67595315 -0.83002905 8.34040059 -2.25 9 C-3.43335938 9.556875 -3.43335938 9.556875 -4.640625 10.125 C-7 11 -7 11 -11 11 C-11.66 8.69 -12.32 6.38 -13 4 C-11.2097939 3.32942113 -9.41778511 2.6636531 -7.625 2 C-6.62726563 1.62875 -5.62953125 1.2575 -4.6015625 0.875 C-2 0 -2 0 0 0 Z " fill="#000000" transform="translate(136,176)"/>
<path d="M0 0 C2.31 0.66 4.62 1.32 7 2 C6.50269348 6.97306516 5.44697666 10.63799813 3 15 C0.69 14.34 -1.62 13.68 -4 13 C-3.52140759 11.39566191 -3.04210442 9.79153584 -2.5625 8.1875 C-2.29566406 7.29417969 -2.02882812 6.40085938 -1.75390625 5.48046875 C-1.19612127 3.64526945 -0.60655425 1.81966274 0 0 Z " fill="#000000" transform="translate(180,123)"/>
<path d="M0 0 C6 2 6 2 7 4 C6.22265625 6.6015625 6.22265625 6.6015625 5.0625 9.625 C4.68222656 10.62789062 4.30195313 11.63078125 3.91015625 12.6640625 C3.60980469 13.43492188 3.30945312 14.20578125 3 15 C-2.75 14.25 -2.75 14.25 -5 12 C-3.35 8.04 -1.7 4.08 0 0 Z " fill="#000000" transform="translate(17,62)"/>
<path d="M0 0 C1.98 1.32 3.96 2.64 6 4 C3.79080336 7.75563429 1.43615728 11.38776679 -1 15 C-5.75 13.125 -5.75 13.125 -8 12 C-6.49087042 7.01987239 -3.44338151 3.75740058 0 0 Z " fill="#000000" transform="translate(31,40)"/>
<path d="M0 0 C2.31 0 4.62 0 7 0 C7.99 3.96 8.98 7.92 10 12 C6 14 6 14 2 14 C0.66416101 9.15758367 -0.25328119 5.06562383 0 0 Z " fill="#000000" transform="translate(10,112)"/>
<path d="M0 0 C2.31 0 4.62 0 7 0 C7.02694851 1.95825873 7.04637218 3.91662226 7.0625 5.875 C7.07410156 6.96554688 7.08570313 8.05609375 7.09765625 9.1796875 C7 12 7 12 6 14 C3.69 14 1.38 14 -1 14 C-0.67 9.38 -0.34 4.76 0 0 Z " fill="#000000" transform="translate(184,99)"/>
<path d="M0 0 C1.98 0 3.96 0 6 0 C7.39151652 4.79300133 6.68662689 9.15135782 6 14 C3.69 14 1.38 14 -1 14 C-1.02694851 12.04174127 -1.04637218 10.08337774 -1.0625 8.125 C-1.07410156 7.03445312 -1.08570313 5.94390625 -1.09765625 4.8203125 C-1 2 -1 2 0 0 Z " fill="#000000" transform="translate(10,87)"/>
<path d="M0 0 C0.33 2.31 0.66 4.62 1 7 C-0.6232687 7.6708712 -2.24867578 8.33657029 -3.875 9 C-4.77992187 9.37125 -5.68484375 9.7425 -6.6171875 10.125 C-9 11 -9 11 -11 11 C-12.32118144 8.82393645 -13.05406753 7.54067526 -12.796875 4.96875 C-12 3 -12 3 -10.29296875 1.953125 C-9.59816406 1.72109375 -8.90335937 1.4890625 -8.1875 1.25 C-7.15689453 0.88648438 -7.15689453 0.88648438 -6.10546875 0.515625 C-4 0 -4 0 0 0 Z " fill="#000000" transform="translate(75,13)"/>
<path d="M0 0 C1.58367747 0.14204741 3.16693318 0.28880153 4.75 0.4375 C5.63171875 0.51871094 6.5134375 0.59992187 7.421875 0.68359375 C9.69350452 0.96238465 11.79851823 1.38790577 14 2 C13.34 4.31 12.68 6.62 12 9 C10.58297487 8.85769192 9.1663904 8.71099254 7.75 8.5625 C6.56664063 8.44068359 6.56664063 8.44068359 5.359375 8.31640625 C3.17635361 8.02365007 1.1226818 7.57935581 -1 7 C-0.67 4.69 -0.34 2.38 0 0 Z " fill="#000000" transform="translate(112,10)"/>
<path d="M0 0 C0.33872513 1.41538717 0.67074624 2.83237963 1 4.25 C1.185625 5.03890625 1.37125 5.8278125 1.5625 6.640625 C2 9 2 9 2 13 C-0.31 13.33 -2.62 13.66 -5 14 C-5.99 9.71 -6.98 5.42 -8 1 C-4 0 -4 0 0 0 Z " fill="#000000" transform="translate(188,74)"/>
<path d="M0 0 C1.92578125 0.05078125 1.92578125 0.05078125 4.3125 0.3125 C5.48232422 0.43044922 5.48232422 0.43044922 6.67578125 0.55078125 C9.08207271 1.01586279 10.87133832 1.80658556 13 3 C12.67 4.98 12.34 6.96 12 9 C10.41632253 8.85795259 8.83306682 8.71119847 7.25 8.5625 C6.36828125 8.48128906 5.4865625 8.40007812 4.578125 8.31640625 C2.30649548 8.03761535 0.20148177 7.61209423 -2 7 C-1.125 1.125 -1.125 1.125 0 0 Z " fill="#000000" transform="translate(76,181)"/>
<path d="M0 0 C0.99386719 0.00902344 1.98773438 0.01804687 3.01171875 0.02734375 C4.15060547 0.04474609 4.15060547 0.04474609 5.3125 0.0625 C5.3125 2.3725 5.3125 4.6825 5.3125 7.0625 C-1.1225 7.5575 -1.1225 7.5575 -7.6875 8.0625 C-8.0175 5.7525 -8.3475 3.4425 -8.6875 1.0625 C-5.53819107 0.01273036 -3.29935544 -0.03881595 0 0 Z " fill="#000000" transform="translate(94.6875,8.9375)"/>
<path d="M0 0 C0 2.31 0 4.62 0 7 C-2.64458379 8.32229189 -4.67761301 8.09677194 -7.625 8.0625 C-8.62789063 8.05347656 -9.63078125 8.04445312 -10.6640625 8.03515625 C-11.43492188 8.02355469 -12.20578125 8.01195312 -13 8 C-13 5.69 -13 3.38 -13 1 C-8.62426048 0.40667939 -4.42471556 -0.13827236 0 0 Z " fill="#000000" transform="translate(113,183)"/>
</svg>
