<?xml version="1.0" encoding="UTF-8"?>
<svg version="1.1" xmlns="http://www.w3.org/2000/svg" width="224" height="225">
<path d="M0 0 C73.92 0 147.84 0 224 0 C224 74.25 224 148.5 224 225 C150.08 225 76.16 225 0 225 C0 150.75 0 76.5 0 0 Z " fill="#FDFDFD" transform="translate(0,0)"/>
<path d="M0 0 C39.27 0 78.54 0 119 0 C119 0.33 119 0.66 119 1 C117.83597656 1.27650391 117.83597656 1.27650391 116.6484375 1.55859375 C99.99655787 6.02956382 86.54976155 16.14215033 77.625 30.99609375 C72.05923171 41.28473753 68.76845357 51.71322775 66 63 C60.72 63 55.44 63 50 63 C49.34 64.32 48.68 65.64 48 67 C47.484375 67.495 46.96875 67.99 46.4375 68.5 C44.60851537 70.16021153 44.60851537 70.16021153 44 74 C50.27 74 56.54 74 63 74 C63 81.87478673 63 81.87478673 62.37670898 85.45849609 C62.2388649 86.26815323 62.10102081 87.07781036 61.95899963 87.91200256 C61.80624069 88.77377609 61.65348175 89.63554962 61.49609375 90.5234375 C61.25831459 91.90667458 61.25831459 91.90667458 61.01573181 93.31785583 C60.49528171 96.3379083 59.96660306 99.35645249 59.4375 102.375 C59.07127545 104.48518314 58.70555913 106.59545454 58.34033203 108.70581055 C57.77956976 111.94545779 57.21833138 115.18501483 56.65478516 118.42417908 C55.44591378 125.38071228 54.27017856 132.34195254 53.12109375 139.30859375 C50.65129346 154.24144366 48.17949 169.16214012 44.875 183.9375 C44.65763184 184.93692627 44.44026367 185.93635254 44.21630859 186.96606445 C42.38392227 194.75201593 40.09485758 203.51051908 33 208 C26.56387127 209.34287648 21.41830976 207.35886171 16 204 C15.01 203.34 14.02 202.68 13 202 C10.63108504 201.24808022 10.63108504 201.24808022 8 202 C5.73486149 204.13681786 3.89811726 206.53968378 2 209 C1.01 209.99 1.01 209.99 0 211 C0 141.37 0 71.74 0 0 Z " fill="#FEFEFE" transform="translate(0,0)"/>
<path d="M0 0 C2.8003279 2.46089422 2.9541443 3.646256 3.4375 7.375 C2.82128574 12.48077533 0.70625069 15.34878966 -2.9375 18.875 C-5.74156058 20.40448759 -6.84308265 20.73416683 -10 20 C-11.90375528 18.35883165 -13.59399994 16.58763769 -15.31640625 14.7578125 C-19.19418172 10.70909101 -22.5235553 9.66879572 -27.9375 9.30859375 C-31.32884791 10.44546606 -33.10291111 13.11513346 -35 16 C-41.04889353 29.27805897 -43.20594163 44.64753306 -45 59 C-36.42 59 -27.84 59 -19 59 C-20.65 62.3 -22.3 65.6 -24 69 C-31.92 69.33 -39.84 69.66 -48 70 C-48.39960937 72.949375 -48.79921875 75.89875 -49.2109375 78.9375 C-50.95866688 91.36623524 -53.21781679 103.68393862 -55.625 116 C-55.84242859 117.11397156 -56.05985718 118.22794312 -56.28387451 119.37567139 C-61.7278526 147.02953443 -67.6065528 176.71023097 -86 199 C-86.67546875 199.84949219 -87.3509375 200.69898438 -88.046875 201.57421875 C-95.54099419 210.50425494 -106.02340425 219.57985031 -118 221 C-124.00283362 221.28194924 -129.99568039 221.17659764 -136 221 C-136.68877551 207.03316327 -136.68877551 207.03316327 -134.25 203.375 C-133.13625 202.199375 -133.13625 202.199375 -132 201 C-131.1028125 199.7934375 -131.1028125 199.7934375 -130.1875 198.5625 C-128 197 -128 197 -124.6875 197 C-120.49742511 198.1362915 -117.66540464 199.70013826 -114 202 C-110.51490899 203.7425455 -106.80265093 203.57336331 -103 203 C-85.59010564 190.51029318 -85.29331784 144.04255077 -82.06738281 124.46728516 C-80.95885484 117.74078669 -79.83582846 111.01674743 -78.7109375 104.29296875 C-76.79971455 92.86322956 -74.89775958 81.43198255 -73 70 C-79.27 70 -85.54 70 -92 70 C-91.03062234 65.1531117 -89.98539973 61.95530099 -86 59 C-83.18313453 58.29812562 -80.56783012 58.42422632 -77.6875 58.625 C-76.57665039 58.66560547 -76.57665039 58.66560547 -75.44335938 58.70703125 C-73.62764002 58.77731716 -71.81343199 58.88492911 -70 59 C-69.88785156 57.96166016 -69.88785156 57.96166016 -69.7734375 56.90234375 C-67.14904835 37.37380095 -57.18882165 19.78825598 -41.85546875 7.3671875 C-29.38960168 -1.81818823 -14.40357165 -8.46063457 0 0 Z " fill="#020202" transform="translate(136,4)"/>
<path d="M0 0 C4.66279303 2.89888373 6.55215739 6.49587244 8.5625 11.4375 C9.00638062 12.49070435 9.00638062 12.49070435 9.45922852 13.56518555 C16 29.40798991 16 29.40798991 16 36 C16.66 36 17.32 36 18 36 C18.21140625 35.33742187 18.4228125 34.67484375 18.640625 33.9921875 C20.4832286 29.93634164 23.04921361 26.64919687 25.75 23.125 C26.26304687 22.44308594 26.77609375 21.76117188 27.3046875 21.05859375 C36.83197474 8.49119224 36.83197474 8.49119224 42.125 4.6875 C42.76695312 4.21699219 43.40890625 3.74648438 44.0703125 3.26171875 C49.35725821 -0.19513037 53.71908145 -0.8347412 60 0 C63.50252011 2.04313673 65.77361702 4.09787233 67 8 C67.47357835 12.26220512 67.29830613 14.4460029 65.25 18.25 C60.71752577 23.78969072 60.71752577 23.78969072 55.9375 24.375 C53 24 53 24 51.5625 22.5 C49.96634257 20.68914323 49.96634257 20.68914323 46.8125 20.4375 C39.1481567 21.56830475 34.24948533 27.439705 29.72460938 33.375 C28.90186523 34.48875 28.90186523 34.48875 28.0625 35.625 C27.48693359 36.37523437 26.91136719 37.12546875 26.31835938 37.8984375 C22.70657239 42.50729251 22.70657239 42.50729251 21 48 C21.3023275 49.96720602 21.3023275 49.96720602 22.00390625 51.94921875 C22.24705566 52.7069458 22.49020508 53.46467285 22.74072266 54.24536133 C23.01190918 55.05126709 23.2830957 55.85717285 23.5625 56.6875 C23.83626465 57.52240967 24.1100293 58.35731934 24.39208984 59.2175293 C25.24973941 61.81573182 26.12403321 64.40792347 27 67 C27.26828613 67.80985352 27.53657227 68.61970703 27.81298828 69.45410156 C28.57242082 71.74421362 29.34560959 74.02911183 30.125 76.3125 C30.35388916 76.99852295 30.58277832 77.6845459 30.81860352 78.39135742 C32.36005246 82.80165964 34.28952915 86.24838262 37 90 C43.15930345 89.56004975 46.53696264 86.75394728 50.48828125 82.3359375 C51.68557197 80.91267923 52.84643365 79.45892215 54 78 C56.67410632 78.98050565 57.83969716 79.75889055 59.43359375 82.15625 C60 85 60 85 58.10546875 88.26953125 C57.15425841 89.46786153 56.18003836 90.64817008 55.1875 91.8125 C54.67848145 92.4297998 54.16946289 93.04709961 53.64501953 93.68310547 C46.48955387 102.19768488 38.58211959 110.48209992 26.9375 111.6875 C21.34726695 110.71142756 18.49849633 108.40523404 15 104 C10.15038044 95.5840864 7.86622059 85.52262651 5.13671875 76.24609375 C4.91717529 75.50029053 4.69763184 74.7544873 4.47143555 73.98608398 C4 72 4 72 4 69 C3.34 69 2.68 69 2 69 C1.67322266 69.97453125 1.67322266 69.97453125 1.33984375 70.96875 C-4.85353971 84.98060296 -17.04353267 103.02176634 -31 110 C-35.07185944 111.35728648 -38.74683089 111.6593499 -43 111 C-46.57522036 109.08285285 -48.69716116 106.90851653 -50 103 C-50.54885106 98.2762819 -50.46596728 94.89865118 -48.25 90.625 C-44.5 86.25 -44.5 86.25 -42 85 C-38.61817878 85.14090922 -36.65032765 85.50732754 -33.9375 87.5625 C-31.37659382 89.46252717 -30.1448477 89.38564556 -27 89 C-19.36217216 83.87860882 -13.55115502 76.21446066 -8 69 C-7.278125 68.14019531 -6.55625 67.28039062 -5.8125 66.39453125 C-5.1525 65.56308594 -4.4925 64.73164062 -3.8125 63.875 C-3.22082031 63.15054688 -2.62914062 62.42609375 -2.01953125 61.6796875 C0.78238538 54.31526295 -5.12118893 43.15713301 -7.5 36.0625 C-7.90347656 34.83208984 -8.30695313 33.60167969 -8.72265625 32.33398438 C-9.11324219 31.16287109 -9.50382812 29.99175781 -9.90625 28.78515625 C-10.26009766 27.72176025 -10.61394531 26.65836426 -10.97851562 25.56274414 C-11.84941281 22.88722937 -11.84941281 22.88722937 -14 21 C-18.60076655 21.19266192 -20.6168658 23.17918697 -23.6875 26.4375 C-24.45449219 27.24058594 -25.22148437 28.04367188 -26.01171875 28.87109375 C-26.66785156 29.57363281 -27.32398438 30.27617188 -28 31 C-28.66 31.66 -29.32 32.32 -30 33 C-31.65 31.35 -33.3 29.7 -35 28 C-31.26215341 17.13871802 -20.91587373 7.66846544 -11.4375 1.5 C-7.04426218 -0.41704923 -4.75734769 -0.61385132 0 0 Z " fill="#020202" transform="translate(157,59)"/>
<path d="M0 0 C0.66 1.32 1.32 2.64 2 4 C3.81601365 5.20003343 3.81601365 5.20003343 6 6 C6.9075 6.37125 7.815 6.7425 8.75 7.125 C9.4925 7.41375 10.235 7.7025 11 8 C11 8.33 11 8.66 11 9 C7.37 9 3.74 9 0 9 C0 6.03 0 3.06 0 0 Z " fill="#F3F3F3" transform="translate(0,216)"/>
</svg>
