<?xml version="1.0" standalone="no"?>
<!DOCTYPE svg PUBLIC "-//W3C//DTD SVG 20010904//EN"
 "http://www.w3.org/TR/2001/REC-SVG-20010904/DTD/svg10.dtd">
<svg version="1.0" xmlns="http://www.w3.org/2000/svg"
 width="512.000000pt" height="512.000000pt" viewBox="0 0 512.000000 512.000000"
 preserveAspectRatio="xMidYMid meet">

<g transform="translate(0.000000,512.000000) scale(0.100000,-0.100000)"
fill="#000000" stroke="none">
<path d="M1036 4317 c-70 -40 -76 -63 -76 -294 l0 -203 1600 0 1600 0 0 203
c0 231 -6 254 -76 294 l-39 23 -1485 0 -1485 0 -39 -23z m2078 -193 c20 -20
21 -68 1 -88 -22 -21 -75 -30 -153 -23 -52 4 -70 10 -84 27 -22 27 -23 49 -2
78 14 20 23 22 119 22 81 0 107 -3 119 -16z m428 -1 c24 -22 23 -66 -3 -89
-18 -16 -37 -19 -114 -19 -77 0 -96 3 -114 19 -25 23 -27 53 -5 84 14 20 23
22 116 22 80 0 105 -3 120 -17z m434 -9 c22 -32 10 -73 -26 -92 -39 -20 -182
-12 -209 12 -25 23 -27 63 -4 88 14 15 32 18 119 18 100 0 104 -1 120 -26z"/>
<path d="M960 2732 c0 -913 1 -959 19 -992 22 -42 90 -80 142 -80 l38 0 3 403
c3 396 3 403 26 444 12 24 41 55 64 70 35 24 54 28 135 33 131 7 133 9 133
186 l0 134 -140 0 c-155 0 -193 10 -210 56 -6 14 -10 117 -10 229 l0 203 26
31 26 31 369 0 370 0 24 -25 25 -24 0 -223 c-1 -240 -2 -248 -54 -268 -15 -5
-88 -10 -162 -10 l-134 0 0 -144 c0 -138 -1 -146 -28 -197 -39 -76 -104 -109
-211 -109 -42 0 -81 -4 -87 -8 -31 -21 -34 -54 -34 -431 l0 -381 605 0 605 0
0 634 0 635 -156 3 -156 3 -24 28 c-24 28 -24 30 -24 248 l0 220 25 24 24 25
371 0 371 0 24 -25 25 -24 0 -220 c0 -218 0 -220 -24 -248 l-24 -28 -156 -3
-156 -3 0 -635 0 -634 605 0 605 0 0 381 c0 377 -3 410 -34 431 -6 4 -45 8
-87 8 -64 0 -86 5 -130 28 -45 23 -59 37 -81 81 -27 52 -28 61 -28 198 l0 143
-134 0 c-74 0 -147 5 -162 10 -52 20 -53 28 -54 272 l0 227 26 20 c26 20 38
21 394 21 l368 0 26 -31 26 -31 0 -203 c0 -112 -4 -215 -10 -229 -17 -46 -55
-56 -210 -56 l-140 0 0 -134 c0 -177 2 -179 133 -186 81 -5 100 -9 135 -33 23
-15 52 -46 64 -70 23 -41 23 -48 26 -444 l3 -403 37 0 c54 0 122 38 144 80 17
33 18 85 18 992 l0 958 -1600 0 -1600 0 0 -958z m1305 -507 c30 -29 32 -58 5
-85 -19 -19 -33 -20 -382 -20 -322 0 -363 2 -380 17 -32 28 -19 91 22 106 8 3
172 6 363 6 l348 1 24 -25z m1351 1 c19 -26 18 -65 -3 -88 -15 -17 -40 -18
-380 -18 -350 0 -364 1 -383 20 -27 27 -25 56 5 86 l25 25 361 -3 c344 -3 361
-4 375 -22z m-1827 -262 c27 -34 26 -50 -4 -79 -23 -24 -30 -25 -140 -25 -102
0 -117 2 -135 20 -24 24 -26 67 -3 92 14 16 33 18 139 18 120 0 123 0 143 -26z
m481 4 c27 -29 25 -54 -5 -83 -23 -24 -30 -25 -140 -25 -102 0 -117 2 -135 20
-11 11 -20 31 -20 45 0 14 9 34 20 45 18 18 33 20 140 20 110 0 121 -2 140
-22z m860 2 c11 -11 20 -31 20 -45 0 -14 -9 -34 -20 -45 -18 -18 -33 -20 -135
-20 -110 0 -117 1 -140 25 -30 29 -32 54 -5 83 19 20 30 22 140 22 107 0 122
-2 140 -20z m478 4 c28 -19 29 -67 2 -94 -18 -18 -33 -20 -135 -20 -110 0
-117 1 -140 25 -30 29 -31 45 -4 79 20 25 23 26 138 26 89 0 122 -4 139 -16z"/>
<path d="M1290 3205 l0 -145 293 2 292 3 3 143 3 142 -296 0 -295 0 0 -145z"/>
<path d="M2270 3205 l0 -145 290 0 290 0 0 145 0 145 -290 0 -290 0 0 -145z"/>
<path d="M3242 3208 l3 -143 293 -3 292 -2 0 145 0 145 -295 0 -296 0 3 -142z"/>
<path d="M1168 1308 l-3 -223 -40 -3 c-45 -4 -65 -17 -64 -41 0 -23 131 -242
152 -255 27 -17 43 0 118 131 61 104 69 124 59 142 -8 17 -20 21 -55 21 l-45
0 0 225 0 225 -60 0 -60 0 -2 -222z"/>
<path d="M2500 1305 l0 -225 -45 0 c-35 0 -47 -4 -56 -21 -9 -18 -1 -38 59
-142 75 -130 92 -148 119 -131 18 11 153 238 153 257 0 24 -24 37 -67 37 l-43
0 0 225 0 225 -60 0 -60 0 0 -225z"/>
<path d="M3830 1305 l0 -225 -45 0 c-35 0 -47 -4 -55 -21 -10 -18 -2 -38 59
-142 75 -131 91 -148 118 -131 21 13 152 232 152 255 1 24 -19 37 -64 41 l-40
3 -3 223 -2 222 -60 0 -60 0 0 -225z"/>
</g>
</svg>
