<?xml version="1.0" encoding="UTF-8"?>
<svg version="1.1" xmlns="http://www.w3.org/2000/svg" width="128" height="128">
<path d="M0 0 C-0.0825 1.134375 -0.165 2.26875 -0.25 3.4375 C-0.21936293 9.1972683 1.52784024 14.36132171 5.5078125 18.609375 C9.87619322 22.06344347 14.56926673 23.17492261 20 24 C24.0955549 39.77276202 23.93516684 52.42483806 16.0859375 67.171875 C15 69 15 69 14 70 C12.14630389 70.08737645 10.28932459 70.10698153 8.43359375 70.09765625 C7.30888672 70.09443359 6.18417969 70.09121094 5.02539062 70.08789062 C3.84138672 70.07951172 2.65738281 70.07113281 1.4375 70.0625 C0.24962891 70.05798828 -0.93824219 70.05347656 -2.16210938 70.04882812 C-5.10812226 70.03699675 -8.05403681 70.02051287 -11 70 C-11 69.34 -11 68.68 -11 68 C-9.96875 67.319375 -8.9375 66.63875 -7.875 65.9375 C-2.31239357 62.11250288 0.85926892 56.79997628 3.375 50.625 C5.12161002 40.49466189 4.02383816 31.94178702 -1.1796875 22.96484375 C-5.87902834 16.63880801 -14.33248547 12.44974014 -22 11 C-31.04765526 10.37602378 -39.06082607 12.41273533 -46.1796875 18.19140625 C-52.52836994 24.49921734 -56.27459 31.72088738 -56.375 40.6875 C-56.22858897 49.4355588 -54.00463878 56.88821594 -47.97265625 63.3984375 C-40.91311576 69.12994562 -32.75320945 72.0489517 -23.75073242 72.20532227 C-22.73005173 72.22526749 -21.70937103 72.24521271 -20.65776062 72.26576233 C-19.5680043 72.28247482 -18.47824799 72.29918732 -17.35546875 72.31640625 C-15.66808342 72.3475779 -15.66808342 72.3475779 -13.9466095 72.37937927 C-10.3603006 72.44465792 -6.77391973 72.50365899 -3.1875 72.5625 C-0.75324783 72.60570583 1.68099712 72.64932078 4.11523438 72.69335938 C10.07674728 72.8003171 16.03833146 72.9021235 22 73 C22 71.02 22 69.04 22 67 C28.00073223 71.31660302 33.54006063 76.02033308 39 81 C35.50392903 84.54072881 31.92753093 87.95799543 28.25 91.3125 C26.80367187 92.63701172 26.80367187 92.63701172 25.328125 93.98828125 C23 96 23 96 22 96 C22 94.02 22 92.04 22 90 C21.32285446 90.00666183 20.64570892 90.01332367 19.94804382 90.02018738 C12.85823344 90.08689832 5.76851319 90.13194833 -1.3215332 90.16479492 C-3.96252061 90.17981981 -6.60348332 90.2002455 -9.24438477 90.22631836 C-13.05491251 90.26297878 -16.86510844 90.27979006 -20.67578125 90.29296875 C-22.4280175 90.31619453 -22.4280175 90.31619453 -24.21565247 90.33988953 C-38.49767612 90.34277814 -50.64655827 86.26928292 -61.25 76.5 C-71.32908089 65.85918689 -75.53240326 52.79908243 -75.24609375 38.33203125 C-74.23055672 24.58198221 -68.61763726 13.63602017 -58.640625 4.2265625 C-42.02926208 -9.78006008 -18.44563698 -11.62877114 0 0 Z " fill="#000000" transform="translate(86,22)"/>
<path d="M0 0 C2.64 0 5.28 0 8 0 C8.33 1.65 8.66 3.3 9 5 C13.13444898 5.14420977 13.13444898 5.14420977 17.125 4.25 C19 4 19 4 21.3125 5.5 C23 8 23 8 22.6875 11.5625 C22.460625 12.696875 22.23375 13.83125 22 15 C22.495 16.485 22.495 16.485 23 18 C24.65 18.33 26.3 18.66 28 19 C28 21.64 28 24.28 28 27 C26.7934375 27.3403125 26.7934375 27.3403125 25.5625 27.6875 C22.80304076 28.7390663 22.80304076 28.7390663 22.125 31.3125 C21.86326188 34.00862487 21.86326188 34.00862487 22.6875 36.5625 C22.8421875 37.7690625 22.8421875 37.7690625 23 39 C21.0625 41.3125 21.0625 41.3125 19 43 C17.63875 42.4740625 17.63875 42.4740625 16.25 41.9375 C13.12241564 41.03531221 11.94791919 40.86618493 9 42 C8.67 43.65 8.34 45.3 8 47 C5.36 47 2.72 47 0 47 C-0.495 44.525 -0.495 44.525 -1 42 C-5.05431692 40.84162374 -7.21812119 41.16308743 -11 43 C-13.0625 41.4375 -13.0625 41.4375 -15 39 C-14.6875 35.5 -14.6875 35.5 -14 32 C-14.34659295 29.67841935 -14.34659295 29.67841935 -15 28 C-16.65 27.67 -18.3 27.34 -20 27 C-20 24.36 -20 21.72 -20 19 C-19.195625 18.7525 -18.39125 18.505 -17.5625 18.25 C-14.89849344 17.27184151 -14.89849344 17.27184151 -14.0625 15.125 C-13.9868288 12.55217933 -14.67831949 11.17688554 -16 9 C-14.125 6.4375 -14.125 6.4375 -11 4 C-7.57256278 3.8534836 -4.35858814 4.34132543 -1 5 C-0.67 3.35 -0.34 1.7 0 0 Z M-1.375 17.0625 C-4.20640644 19.73805344 -4.20640644 19.73805344 -4.625 23 C-3.83863896 26.77453301 -2.91424645 28.45937489 0 31 C4.44071826 31.80740332 6.26790056 31.50331836 10 28.9375 C12.34001955 26.0928825 12.34001955 26.0928825 12 22.375 C10.9303714 18.44214059 10.9303714 18.44214059 8 16 C3.76894093 14.49562344 2.5128372 14.68659949 -1.375 17.0625 Z " fill="#000000" transform="translate(56,40)"/>
<path d="M0 0 C4.39629767 3.98733975 6.35111399 8.08279792 7.1875 13.9375 C6.36721709 19.6794804 4.33473354 23.87061932 0.125 27.875 C-4.54366201 30.86773206 -8.93095715 30.93596194 -14.3125 30.4375 C-19.58572153 28.61215409 -22.10941086 25.83030797 -25.3125 21.4375 C-27.11160157 16.04019529 -27.00718904 11.33701716 -24.6875 6.1875 C-22.30518885 1.88751286 -19.13257688 -0.66467961 -14.3984375 -2.171875 C-9.32451392 -3.12204795 -4.61476621 -2.17677651 0 0 Z M-5.3125 8.4375 C-6.45332901 9.5898235 -7.55200723 10.78425875 -8.625 12 C-10.4921875 13.9453125 -10.4921875 13.9453125 -12.3125 15.4375 C-15.25 15.375 -15.25 15.375 -17.3125 14.4375 C-16.3225 16.0875 -15.3325 17.7375 -14.3125 19.4375 C-10.77430427 18.85823787 -9.06221757 17.59426523 -6.5625 15.0625 C-5.94890625 14.45664062 -5.3353125 13.85078125 -4.703125 13.2265625 C-3.00564905 11.42039137 -3.00564905 11.42039137 -3.3125 8.4375 C-3.9725 8.4375 -4.6325 8.4375 -5.3125 8.4375 Z " fill="#000000" transform="translate(114.3125,12.5625)"/>
<path d="M0 0 C15.58543086 -0.96653835 15.58543086 -0.96653835 19.1953125 1.5 C20.21223346 2.86299354 21.18259357 4.26168241 22.109375 5.6875 C24.7263248 8.88839728 27.84020283 10.54018219 31.4375 12.5 C32.07840576 12.84998047 32.71931152 13.19996094 33.37963867 13.56054688 C34.91330415 14.38580793 36.45576728 15.19468585 38 16 C38 16.33 38 16.66 38 17 C25.46 17 12.92 17 0 17 C0 11.39 0 5.78 0 0 Z " fill="#000000" transform="translate(3,95)"/>
</svg>
