<?xml version="1.0" standalone="no"?>
<!DOCTYPE svg PUBLIC "-//W3C//DTD SVG 20010904//EN"
 "http://www.w3.org/TR/2001/REC-SVG-20010904/DTD/svg10.dtd">
<svg version="1.0" xmlns="http://www.w3.org/2000/svg"
 width="200.000000pt" height="200.000000pt" viewBox="0 0 200.000000 200.000000"
 preserveAspectRatio="xMidYMid meet">

<g transform="translate(0.000000,200.000000) scale(0.100000,-0.100000)"
fill="#000000" stroke="none">
<path d="M745 1887 c-29 -16 -47 -36 -65 -75 -24 -50 -26 -52 -55 -45 -86 22
-178 -12 -228 -84 -24 -34 -30 -51 -29 -96 0 -54 0 -54 -36 -65 -87 -27 -162
-129 -162 -223 0 -31 9 -65 28 -102 26 -52 27 -57 11 -62 -30 -10 -88 -82 -95
-120 -16 -88 23 -177 94 -212 30 -15 38 -23 31 -34 -37 -57 -29 -145 18 -207
24 -32 89 -72 118 -72 12 0 15 -12 15 -55 0 -62 15 -97 57 -136 49 -46 89 -61
154 -57 33 2 59 -1 59 -6 0 -5 9 -29 21 -53 60 -125 258 -125 318 0 18 38 21
62 21 190 l0 147 -42 -22 c-57 -30 -185 -32 -238 -4 -76 40 -130 111 -144 189
l-7 37 54 0 c50 0 55 -2 61 -24 3 -14 18 -39 33 -57 74 -88 216 -77 266 21 14
29 17 57 15 160 l-3 125 -167 3 -168 2 0 50 0 50 168 2 167 3 3 123 c2 97 -1
130 -14 157 -19 40 -68 74 -119 82 l-35 6 0 55 0 55 45 -6 c25 -4 63 -16 85
-27 l40 -20 0 161 c0 158 -1 163 -26 196 -55 72 -168 95 -249 50z m-62 -527
c-3 -8 -11 -30 -17 -47 -10 -32 -13 -33 -63 -33 -45 0 -53 3 -53 19 0 28 28
103 46 123 15 16 18 15 55 -15 26 -21 37 -37 32 -47z m-153 -360 l0 -50 -70 0
-70 0 0 50 0 50 70 0 70 0 0 -50z"/>
<path d="M1483 1861 c-101 -47 -113 -187 -23 -251 30 -21 30 -23 30 -110 l0
-90 -172 -2 -173 -3 -3 -52 -3 -53 215 0 c264 0 246 -13 246 171 0 125 0 126
26 139 32 17 64 78 64 121 0 40 -34 101 -68 121 -46 27 -93 30 -139 9z"/>
<path d="M1694 1136 c-17 -8 -44 -30 -60 -50 l-29 -36 -232 0 -233 0 0 -50 0
-50 232 0 231 0 34 -40 c81 -94 219 -64 252 55 19 70 -29 156 -97 175 -47 13
-60 12 -98 -4z"/>
<path d="M1147 703 c-4 -3 -7 -28 -7 -55 l0 -48 175 0 175 0 0 -94 c0 -94 0
-95 -30 -116 -61 -43 -79 -134 -40 -198 27 -44 96 -75 146 -66 65 12 124 80
124 144 0 42 -33 103 -64 120 -26 13 -26 13 -26 147 0 184 16 173 -243 173
-112 0 -207 -3 -210 -7z"/>
</g>
</svg>
