<?xml version="1.0" standalone="no"?>
<!DOCTYPE svg PUBLIC "-//W3C//DTD SVG 20010904//EN"
 "http://www.w3.org/TR/2001/REC-SVG-20010904/DTD/svg10.dtd">
<svg version="1.0" xmlns="http://www.w3.org/2000/svg"
 width="200.000000pt" height="200.000000pt" viewBox="0 0 200.000000 200.000000"
 preserveAspectRatio="xMidYMid meet">

<g transform="translate(0.000000,200.000000) scale(0.100000,-0.100000)"
fill="#000000" stroke="none">
<path d="M113 1930 c-66 -40 -63 10 -63 -932 0 -838 0 -854 20 -886 36 -58 63
-63 325 -60 233 3 233 3 261 28 56 52 54 20 54 925 0 921 2 886 -62 925 -31
18 -50 20 -268 20 -215 0 -238 -2 -267 -20z m333 -1456 c26 -18 44 -56 44 -95
0 -116 -149 -156 -210 -57 -25 42 -25 74 0 116 35 58 108 73 166 36z"/>
<path d="M798 1377 c1 -293 3 -599 5 -680 l2 -148 219 527 c232 560 237 577
197 633 -23 32 -34 38 -221 114 -74 31 -151 62 -170 70 l-35 15 3 -531z"/>
<path d="M1337 1602 c-3 -16 -115 -292 -248 -613 -133 -321 -244 -591 -246
-599 -3 -8 177 167 401 390 285 284 409 415 417 438 22 67 10 87 -160 256
-156 156 -158 158 -164 128z"/>
<path d="M1275 681 c-264 -266 -473 -481 -465 -478 88 32 1039 430 1057 442
31 21 56 80 50 115 -3 14 -41 111 -84 216 l-78 189 -480 -484z"/>
<path d="M1915 565 c-17 -11 -297 -130 -622 -265 l-591 -245 575 -3 c538 -2
578 -1 607 16 63 37 67 55 64 299 l-3 219 -30 -21z"/>
</g>
</svg>
