<?xml version="1.0" encoding="UTF-8"?>
<svg version="1.1" xmlns="http://www.w3.org/2000/svg" width="360" height="360">
<path d="M0 0 C118.8 0 237.6 0 360 0 C360 118.8 360 237.6 360 360 C241.2 360 122.4 360 0 360 C0 241.2 0 122.4 0 0 Z " fill="#010101" transform="translate(0,0)"/>
<path d="M0 0 C0.68844925 -0.00367669 1.37689849 -0.00735338 2.08620983 -0.01114148 C4.39277236 -0.02215286 6.69928979 -0.0260179 9.00587463 -0.02983093 C10.6602289 -0.03609776 12.31458177 -0.04274476 13.96893311 -0.04974365 C19.40384443 -0.07076936 24.83875598 -0.08114817 30.2736969 -0.09111023 C32.14808225 -0.09515906 34.02246745 -0.09927602 35.89685249 -0.10346031 C44.70840828 -0.12251276 53.51995571 -0.13674079 62.33152813 -0.14507228 C72.48241765 -0.15482975 82.63308824 -0.18111002 92.78390068 -0.22157317 C100.64144615 -0.25181271 108.49892918 -0.26654877 116.35653168 -0.26985329 C121.04347551 -0.27219584 125.73018549 -0.28105148 130.41706657 -0.30631447 C134.83386794 -0.32973617 139.25028386 -0.33377229 143.66713142 -0.32355309 C145.27908237 -0.32306094 146.8910532 -0.3292855 148.50294495 -0.34310913 C164.1450033 -0.46963498 175.8546803 2.21452372 187.34010315 13.24873352 C195.67145275 21.9170127 198.25812612 31.30375949 198.29977417 43.15914917 C198.30345086 43.84114016 198.30712755 44.52313115 198.31091565 45.22578853 C198.3218801 47.49850001 198.32578395 49.77116566 198.3296051 52.04389954 C198.33587531 53.67884463 198.34252261 55.31378832 198.34951782 56.94873047 C198.37049739 62.30783609 198.38091572 67.6669418 198.3908844 73.02607727 C198.39493448 74.87632194 198.39905148 76.72656646 198.40323448 78.57681084 C198.42227415 87.27302956 198.43650675 95.96923988 198.44484645 104.66547543 C198.4546092 114.67824488 198.48090872 124.6907927 198.52134734 134.70348412 C198.55158721 142.45915995 198.56632284 150.21477253 198.56962746 157.97050613 C198.57196928 162.59482327 198.5808158 167.21890332 198.60608864 171.84315681 C198.62951213 176.19924884 198.63354579 180.55495006 198.62332726 184.91108894 C198.62283521 186.50046597 198.62905672 188.08986319 198.6428833 189.67918015 C198.76267495 204.27818194 196.51295659 217.46108952 186.0471344 228.33467102 C174.2572278 239.3737574 162.43763961 240.44900918 146.8452301 240.4535675 C145.1902835 240.4611974 143.53534043 240.46962631 141.88040161 240.47879028 C137.40079955 240.50066187 132.92126571 240.50952442 128.4416163 240.51461673 C125.63735102 240.51826937 122.83310336 240.52451416 120.02884483 240.53161812 C110.22967627 240.55608831 100.43056046 240.569159 90.63136292 240.57270813 C81.52339878 240.57634024 72.41577225 240.60621859 63.30791122 240.64811271 C55.4672603 240.68290268 47.62672079 240.69825808 39.78599328 240.69895416 C35.11248022 240.69974409 30.43931139 240.70835104 25.76587868 240.73695183 C21.3653587 240.7632819 16.96546469 240.76525523 12.56490135 240.74929619 C10.95939636 240.74749343 9.35385412 240.75406511 7.74842834 240.7701149 C-3.25544183 240.87332407 -14.10053849 239.8656971 -23.1638031 232.86592102 C-23.90501404 232.13373352 -24.64622498 231.40154602 -25.40989685 230.64717102 C-26.17431091 229.91498352 -26.93872498 229.18279602 -27.7263031 228.42842102 C-31.43372455 224.44106536 -34.29522483 220.69064507 -36.53489685 215.70967102 C-36.95126404 214.80346008 -37.36763123 213.89724915 -37.7966156 212.96357727 C-39.74404411 207.74388971 -39.97432439 202.66099761 -39.98783875 197.12846375 C-39.99080987 196.44576719 -39.99378099 195.76307063 -39.99684215 195.0596863 C-40.00547545 192.78463602 -40.00703283 190.50963869 -40.00852966 188.23457336 C-40.01316171 186.59800607 -40.01818689 184.96143985 -40.02357483 183.32487488 C-40.0366652 178.88654986 -40.04313743 174.44823996 -40.04758549 170.00989866 C-40.05052218 167.23279462 -40.05462815 164.45569466 -40.05908966 161.67859268 C-40.07275691 152.977568 -40.08242685 144.27655269 -40.08629155 135.57551801 C-40.09076788 125.55428894 -40.10829929 115.53319656 -40.13729215 105.51200902 C-40.15896045 97.75125235 -40.16899861 89.99053399 -40.17033267 82.22974741 C-40.17137719 77.60159645 -40.17720921 72.97357411 -40.19515228 68.34545517 C-40.21172181 63.98695069 -40.21374572 59.62867031 -40.20501328 55.27014542 C-40.20424758 53.67874295 -40.20852325 52.08732798 -40.21847153 50.49595642 C-40.31128325 34.71183786 -38.07221086 22.89221075 -27.22239685 10.95967102 C-19.62916393 3.63029561 -10.38865212 0.03600431 0 0 Z " fill="#FCFCFC" transform="translate(100.84739685058594,59.85282897949219)"/>
<path d="M0 0 C0.68844925 -0.00367669 1.37689849 -0.00735338 2.08620983 -0.01114148 C4.39277236 -0.02215286 6.69928979 -0.0260179 9.00587463 -0.02983093 C10.6602289 -0.03609776 12.31458177 -0.04274476 13.96893311 -0.04974365 C19.40384443 -0.07076936 24.83875598 -0.08114817 30.2736969 -0.09111023 C32.14808225 -0.09515906 34.02246745 -0.09927602 35.89685249 -0.10346031 C44.70840828 -0.12251276 53.51995571 -0.13674079 62.33152813 -0.14507228 C72.48241765 -0.15482975 82.63308824 -0.18111002 92.78390068 -0.22157317 C100.64144615 -0.25181271 108.49892918 -0.26654877 116.35653168 -0.26985329 C121.04347551 -0.27219584 125.73018549 -0.28105148 130.41706657 -0.30631447 C134.83386794 -0.32973617 139.25028386 -0.33377229 143.66713142 -0.32355309 C145.27908237 -0.32306094 146.8910532 -0.3292855 148.50294495 -0.34310913 C164.1450033 -0.46963498 175.8546803 2.21452372 187.34010315 13.24873352 C195.67145275 21.9170127 198.25812612 31.30375949 198.29977417 43.15914917 C198.30345086 43.84114016 198.30712755 44.52313115 198.31091565 45.22578853 C198.3218801 47.49850001 198.32578395 49.77116566 198.3296051 52.04389954 C198.33587531 53.67884463 198.34252261 55.31378832 198.34951782 56.94873047 C198.37049739 62.30783609 198.38091572 67.6669418 198.3908844 73.02607727 C198.39493448 74.87632194 198.39905148 76.72656646 198.40323448 78.57681084 C198.42227415 87.27302956 198.43650675 95.96923988 198.44484645 104.66547543 C198.4546092 114.67824488 198.48090872 124.6907927 198.52134734 134.70348412 C198.55158721 142.45915995 198.56632284 150.21477253 198.56962746 157.97050613 C198.57196928 162.59482327 198.5808158 167.21890332 198.60608864 171.84315681 C198.62951213 176.19924884 198.63354579 180.55495006 198.62332726 184.91108894 C198.62283521 186.50046597 198.62905672 188.08986319 198.6428833 189.67918015 C198.76267495 204.27818194 196.51295659 217.46108952 186.0471344 228.33467102 C174.2572278 239.3737574 162.43763961 240.44900918 146.8452301 240.4535675 C145.1902835 240.4611974 143.53534043 240.46962631 141.88040161 240.47879028 C137.40079955 240.50066187 132.92126571 240.50952442 128.4416163 240.51461673 C125.63735102 240.51826937 122.83310336 240.52451416 120.02884483 240.53161812 C110.22967627 240.55608831 100.43056046 240.569159 90.63136292 240.57270813 C81.52339878 240.57634024 72.41577225 240.60621859 63.30791122 240.64811271 C55.4672603 240.68290268 47.62672079 240.69825808 39.78599328 240.69895416 C35.11248022 240.69974409 30.43931139 240.70835104 25.76587868 240.73695183 C21.3653587 240.7632819 16.96546469 240.76525523 12.56490135 240.74929619 C10.95939636 240.74749343 9.35385412 240.75406511 7.74842834 240.7701149 C-3.25544183 240.87332407 -14.10053849 239.8656971 -23.1638031 232.86592102 C-23.90501404 232.13373352 -24.64622498 231.40154602 -25.40989685 230.64717102 C-26.17431091 229.91498352 -26.93872498 229.18279602 -27.7263031 228.42842102 C-31.43372455 224.44106536 -34.29522483 220.69064507 -36.53489685 215.70967102 C-36.95126404 214.80346008 -37.36763123 213.89724915 -37.7966156 212.96357727 C-39.74404411 207.74388971 -39.97432439 202.66099761 -39.98783875 197.12846375 C-39.99080987 196.44576719 -39.99378099 195.76307063 -39.99684215 195.0596863 C-40.00547545 192.78463602 -40.00703283 190.50963869 -40.00852966 188.23457336 C-40.01316171 186.59800607 -40.01818689 184.96143985 -40.02357483 183.32487488 C-40.0366652 178.88654986 -40.04313743 174.44823996 -40.04758549 170.00989866 C-40.05052218 167.23279462 -40.05462815 164.45569466 -40.05908966 161.67859268 C-40.07275691 152.977568 -40.08242685 144.27655269 -40.08629155 135.57551801 C-40.09076788 125.55428894 -40.10829929 115.53319656 -40.13729215 105.51200902 C-40.15896045 97.75125235 -40.16899861 89.99053399 -40.17033267 82.22974741 C-40.17137719 77.60159645 -40.17720921 72.97357411 -40.19515228 68.34545517 C-40.21172181 63.98695069 -40.21374572 59.62867031 -40.20501328 55.27014542 C-40.20424758 53.67874295 -40.20852325 52.08732798 -40.21847153 50.49595642 C-40.31128325 34.71183786 -38.07221086 22.89221075 -27.22239685 10.95967102 C-19.62916393 3.63029561 -10.38865212 0.03600431 0 0 Z M-25.84739685 58.14717102 C-25.95052185 81.98967102 -26.05364685 105.83217102 -26.15989685 130.39717102 C-26.20541687 137.91014954 -26.25093689 145.42312805 -26.2978363 153.16377258 C-26.31456417 159.9308262 -26.31456417 159.9308262 -26.32461548 166.69789124 C-26.32925157 169.69922069 -26.34789849 172.70010263 -26.37527466 175.7013092 C-26.4098405 179.54221582 -26.41980376 183.38248163 -26.41275823 187.22352934 C-26.41422914 188.62523991 -26.4239845 190.02697533 -26.4434725 191.4285512 C-26.57353433 201.2471254 -25.55248628 210.70338633 -18.88672352 218.41566849 C-10.13654849 226.8926153 -0.11725949 226.58719864 11.33985901 226.55122375 C12.98159244 226.55693224 14.62332191 226.56389834 16.26504517 226.57202148 C20.7072404 226.58991495 25.14923768 226.58879174 29.59145808 226.5830791 C33.30659127 226.57998181 37.02168674 226.58608568 40.73681456 226.59211785 C49.50426775 226.60614886 58.27162346 226.60461356 67.03907776 226.59321594 C76.06983356 226.58173513 85.10029237 226.595813 94.13100904 226.62261242 C101.89857154 226.64479625 109.66604099 226.65140078 117.43363291 226.64553601 C122.06670755 226.64217176 126.69959183 226.64454605 131.33263969 226.66178703 C135.69042459 226.67729703 140.04777074 226.67325593 144.40553856 226.65448189 C145.99980844 226.65080724 147.59411112 226.65387155 149.18835068 226.66436768 C159.1534215 226.72493961 166.42676734 225.79088472 174.90260315 220.39717102 C180.15294299 215.14683118 183.78864032 208.61126361 184.39869881 201.12874794 C184.39685522 200.05762449 184.39501163 198.98650105 184.39311218 197.88291931 C184.39586718 196.64876093 184.39862217 195.41460255 184.40146065 194.14304543 C184.39436839 192.78325433 184.38709261 191.42346417 184.37965393 190.06367493 C184.37904081 188.60114744 184.37930901 187.13861937 184.38038445 185.67609215 C184.38083491 181.76885365 184.36926541 177.86173831 184.35516357 173.95452881 C184.34375146 170.28460818 184.34323613 166.61471712 184.34181213 162.94477844 C184.33132847 152.22055974 184.30340606 141.49636381 184.27760315 130.77217102 C184.21572815 94.82279602 184.21572815 94.82279602 184.15260315 58.14717102 C114.85260315 58.14717102 45.55260315 58.14717102 -25.84739685 58.14717102 Z " fill="#0C0C0C" transform="translate(100.84739685058594,59.85282897949219)"/>
<path d="M0 0 C1.64335478 -0.00406952 3.28670682 -0.00941354 4.93005371 -0.01593018 C9.37632504 -0.02956433 13.82238668 -0.0243213 18.2686615 -0.01479292 C22.93074085 -0.00717607 27.59280273 -0.01424755 32.25488281 -0.01895142 C40.08271494 -0.02440307 47.91046204 -0.01723284 55.73828125 -0.00292969 C64.77696675 0.01339569 73.81544921 0.00810676 82.85412979 -0.0084089 C90.62676857 -0.02204059 98.39934638 -0.02393521 106.17199326 -0.0160929 C110.80890987 -0.01142563 115.44573118 -0.01076545 120.0826416 -0.02070236 C124.44283003 -0.02939426 128.80275771 -0.02330967 133.16291809 -0.00601959 C134.759217 -0.0020666 136.35553801 -0.00316839 137.951828 -0.00980759 C149.37024409 -0.05290526 157.46945953 0.55206893 166.10546875 8.63037109 C174.65835927 17.51905639 172.796875 28.48818398 172.796875 40.38818359 C103.496875 40.38818359 34.196875 40.38818359 -37.203125 40.38818359 C-37.203125 15.95321558 -37.203125 15.95321558 -30.37109375 8.34912109 C-21.41277141 -0.23814647 -11.73398849 -0.04880335 0 0 Z " fill="#FCFCFC" transform="translate(112.203125,73.61181640625)"/>
<path d="M0 0 C0.33 0 0.66 0 1 0 C1 55.44 1 110.88 1 168 C-54.44 168 -109.88 168 -167 168 C-167 167.67 -167 167.34 -167 167 C-166.05084717 166.90295776 -166.05084717 166.90295776 -165.08251953 166.80395508 C-144.01379983 164.58428982 -125.78205802 159.59584638 -106.0078125 152.0859375 C-105.13785645 151.7564209 -104.26790039 151.4269043 -103.37158203 151.08740234 C-100.94279227 150.08695897 -100.94279227 150.08695897 -98.93701172 148.36962891 C-97 147 -97 147 -93 147 C-93 146.34 -93 145.68 -93 145 C-92.12859375 144.52691406 -91.2571875 144.05382812 -90.359375 143.56640625 C-61.14646611 127.4563462 -37.63447529 103.42960055 -22 74 C-21.34 74 -20.68 74 -20 74 C-19.82911865 73.46342773 -19.6582373 72.92685547 -19.48217773 72.37402344 C-17.58995461 66.55237775 -15.39033922 60.9090669 -13.0625 55.25 C-5.75080672 37.14295344 -2.18204605 19.30468972 0 0 Z " fill="#FCFCFC" transform="translate(359,192)"/>
<path d="M0 0 C55.44 0 110.88 0 168 0 C168 54.12 168 108.24 168 164 C166.31888541 160.63777083 165.71485895 159.12979789 165.32421875 155.61328125 C165.22149658 154.76628662 165.11877441 153.91929199 165.01293945 153.04663086 C164.85184692 151.69323608 164.85184692 151.69323608 164.6875 150.3125 C160.31340063 117.40086144 145.02521721 85.62655298 122.30078125 61.453125 C120.29192611 59.31125568 118.38869907 57.12197688 116.5 54.875 C105.33583629 42.16740351 90.84756392 32.30163852 76.02734375 24.3046875 C75.02380859 23.65886719 75.02380859 23.65886719 74 23 C74 22.34 74 21.68 74 21 C73.071875 20.773125 72.14375 20.54625 71.1875 20.3125 C67.98580577 19.40046359 65.07424446 18.16488297 62.0625 16.75 C42.23781465 7.56889572 21.82047548 2.47017388 0 1 C0 0.67 0 0.34 0 0 Z " fill="#FCFCFC" transform="translate(192,0)"/>
<path d="M0 0 C0.33 0 0.66 0 1 0 C1.10957031 0.969375 1.21914063 1.93875 1.33203125 2.9375 C3.86607626 24.67823644 9.05800356 43.96446572 17.69750977 64.10351562 C18.12346436 65.09802734 18.54941895 66.09253906 18.98828125 67.1171875 C19.37540283 68.01034668 19.76252441 68.90350586 20.16137695 69.82373047 C21 72 21 72 21 74 C21.66 74 22.32 74 23 74 C23.46148438 74.85980469 23.92296875 75.71960938 24.3984375 76.60546875 C29.20568674 85.38784693 34.64519042 93.26183051 41 101 C41.46422363 101.57250488 41.92844727 102.14500977 42.40673828 102.73486328 C54.6209261 117.73045883 68.28901705 129.40109234 84.5 139.9375 C85.09997803 140.32768311 85.69995605 140.71786621 86.31811523 141.11987305 C88.86693028 142.74897886 91.11642134 144.03880711 94 145 C94 145.66 94 146.32 94 147 C94.83660156 147.26167969 95.67320313 147.52335938 96.53515625 147.79296875 C99.58967247 148.85705614 102.5077371 150.07327936 105.45092773 151.41064453 C124.12344703 159.88751393 143.61578932 164.74326428 164 167 C164 167.33 164 167.66 164 168 C109.88 168 55.76 168 0 168 C0 112.56 0 57.12 0 0 Z " fill="#FCFCFC" transform="translate(0,192)"/>
<path d="M0 0 C54.12 0 108.24 0 164 0 C164 0.33 164 0.66 164 1 C163.33170166 1.09498779 162.66340332 1.18997559 161.97485352 1.2878418 C113.40592183 8.30840025 70.93772585 29.03306399 40 68 C39.40316406 68.72960937 38.80632813 69.45921875 38.19140625 70.2109375 C34.5392797 74.74868365 31.28557509 79.48825504 28.125 84.375 C27.73119141 84.98255127 27.33738281 85.59010254 26.93164062 86.21606445 C25.28877281 88.79549686 23.97141761 91.08574718 23 94 C22.34 94 21.68 94 21 94 C20.73574219 94.84691406 20.47148437 95.69382812 20.19921875 96.56640625 C19.17810492 99.49005139 18.00419087 102.24392668 16.69067383 105.04467773 C7.94973756 123.88495544 3.72004972 143.50238984 1 164 C0.67 164 0.34 164 0 164 C0 109.88 0 55.76 0 0 Z " fill="#FDFDFD" transform="translate(0,0)"/>
<path d="M0 0 C1.11433914 0.00303635 1.11433914 0.00303635 2.25119019 0.00613403 C3.41942825 0.00350555 3.41942825 0.00350555 4.61126709 0.00082397 C7.19829505 -0.00359493 9.78525522 -0.00065643 12.37228394 0.00271606 C14.16207899 0.00204304 15.95187396 0.00107302 17.7416687 -0.00018311 C21.49778105 -0.00166013 25.25386966 0.00049462 29.00997925 0.00515747 C33.83578887 0.01085476 38.66154288 0.00757578 43.48735046 0.00158501 C47.18466616 -0.00202048 50.88196858 -0.00088208 54.57928467 0.0017128 C56.35917162 0.0023821 58.13905975 0.00155353 59.91894531 -0.00076675 C62.40212216 -0.00329309 64.88520768 0.00054702 67.36837769 0.00613403 C68.11127045 0.0041098 68.85416321 0.00208557 69.61956787 0 C74.69552132 0.02126595 74.69552132 0.02126595 75.80978394 1.13552856 C75.9154157 3.58919184 75.95656721 6.01485026 75.95504761 8.4692688 C75.95840622 9.23673431 75.96176483 10.00419983 75.96522522 10.79492188 C75.97476335 13.34467159 75.97667976 15.89435584 75.97775269 18.44412231 C75.98096328 20.20910164 75.98432719 21.97408069 75.98783875 23.73905945 C75.99383718 27.44389463 75.99567791 31.14870645 75.99508667 34.85354614 C75.99498501 39.60979731 76.00863838 44.36589934 76.02585888 49.12211514 C76.03695665 52.76886183 76.03900657 56.41557221 76.03847694 60.06233406 C76.03966038 61.81627987 76.04410237 63.57022653 76.05180931 65.32415581 C76.06156457 67.77367587 76.05874902 70.2228689 76.05270386 72.6723938 C76.05832336 73.40234055 76.06394287 74.13228729 76.06973267 74.88435364 C76.0380996 79.9072129 76.0380996 79.9072129 73.80978394 82.13552856 C71.28554064 82.32857022 68.8715087 82.39788616 66.34664917 82.37844849 C65.57743134 82.38034683 64.8082135 82.38224518 64.01568604 82.38420105 C61.46648044 82.38791369 58.91755807 82.37719866 56.36837769 82.36599731 C54.60243259 82.36480578 52.83648686 82.3643523 51.07054138 82.36460876 C47.36745239 82.36304311 43.66445997 82.35474654 39.96139526 82.34133911 C35.20398835 82.32433674 30.44668754 82.32052507 25.68925381 82.32128429 C22.04254637 82.32101298 18.39586234 82.31553822 14.74916267 82.30828285 C12.99439738 82.30509084 11.23962942 82.30312754 9.48486137 82.30238914 C7.03770255 82.3002319 4.59065852 82.29150148 2.14352417 82.28079224 C1.41155319 82.28124542 0.67958221 82.28169861 -0.0745697 82.28216553 C-5.0757411 82.25000353 -5.0757411 82.25000353 -6.19021606 81.13552856 C-6.29055473 78.6459916 -6.32639549 76.18417903 -6.3196106 73.69412231 C-6.32136292 72.91529694 -6.32311523 72.13647156 -6.32492065 71.33404541 C-6.32933956 68.74701745 -6.32640105 66.16005728 -6.32302856 63.57302856 C-6.32370159 61.78323351 -6.32467161 59.99343854 -6.32592773 58.2036438 C-6.32740476 54.44753145 -6.32525001 50.69144284 -6.32058716 46.93533325 C-6.31488987 42.10952363 -6.31816885 37.28376962 -6.32415962 32.45796204 C-6.32776511 28.76064634 -6.32662671 25.06334392 -6.32403183 21.36602783 C-6.32336253 19.58614088 -6.3241911 17.80625275 -6.32651138 16.02636719 C-6.32903771 13.54319034 -6.32519761 11.06010482 -6.3196106 8.57693481 C-6.32163483 7.83404205 -6.32365906 7.09114929 -6.32574463 6.32574463 C-6.30048017 0.29538913 -6.0303555 0.02526446 0 0 Z " fill="#010101" transform="translate(194.19021606445313,145.86447143554688)"/>
<path d="M0 0 C0.68844925 -0.00367669 1.37689849 -0.00735338 2.08620983 -0.01114148 C4.39277236 -0.02215286 6.69928979 -0.0260179 9.00587463 -0.02983093 C10.6602289 -0.03609776 12.31458177 -0.04274476 13.96893311 -0.04974365 C19.40384443 -0.07076936 24.83875598 -0.08114817 30.2736969 -0.09111023 C32.14808225 -0.09515906 34.02246745 -0.09927602 35.89685249 -0.10346031 C44.70840828 -0.12251276 53.51995571 -0.13674079 62.33152813 -0.14507228 C72.48241765 -0.15482975 82.63308824 -0.18111002 92.78390068 -0.22157317 C100.64144615 -0.25181271 108.49892918 -0.26654877 116.35653168 -0.26985329 C121.04347551 -0.27219584 125.73018549 -0.28105148 130.41706657 -0.30631447 C134.83386794 -0.32973617 139.25028386 -0.33377229 143.66713142 -0.32355309 C145.27908237 -0.32306094 146.8910532 -0.3292855 148.50294495 -0.34310913 C164.1450033 -0.46963498 175.8546803 2.21452372 187.34010315 13.24873352 C195.67145275 21.9170127 198.25812612 31.30375949 198.29977417 43.15914917 C198.30345086 43.84114016 198.30712755 44.52313115 198.31091565 45.22578853 C198.3218801 47.49850001 198.32578395 49.77116566 198.3296051 52.04389954 C198.33587531 53.67884463 198.34252261 55.31378832 198.34951782 56.94873047 C198.37049739 62.30783609 198.38091572 67.6669418 198.3908844 73.02607727 C198.39493448 74.87632194 198.39905148 76.72656646 198.40323448 78.57681084 C198.42227415 87.27302956 198.43650675 95.96923988 198.44484645 104.66547543 C198.4546092 114.67824488 198.48090872 124.6907927 198.52134734 134.70348412 C198.55158721 142.45915995 198.56632284 150.21477253 198.56962746 157.97050613 C198.57196928 162.59482327 198.5808158 167.21890332 198.60608864 171.84315681 C198.62951213 176.19924884 198.63354579 180.55495006 198.62332726 184.91108894 C198.62283521 186.50046597 198.62905672 188.08986319 198.6428833 189.67918015 C198.76267495 204.27818194 196.51295659 217.46108952 186.0471344 228.33467102 C174.2572278 239.3737574 162.43763961 240.44900918 146.8452301 240.4535675 C145.1902835 240.4611974 143.53534043 240.46962631 141.88040161 240.47879028 C137.40079955 240.50066187 132.92126571 240.50952442 128.4416163 240.51461673 C125.63735102 240.51826937 122.83310336 240.52451416 120.02884483 240.53161812 C110.22967627 240.55608831 100.43056046 240.569159 90.63136292 240.57270813 C81.52339878 240.57634024 72.41577225 240.60621859 63.30791122 240.64811271 C55.4672603 240.68290268 47.62672079 240.69825808 39.78599328 240.69895416 C35.11248022 240.69974409 30.43931139 240.70835104 25.76587868 240.73695183 C21.3653587 240.7632819 16.96546469 240.76525523 12.56490135 240.74929619 C10.95939636 240.74749343 9.35385412 240.75406511 7.74842834 240.7701149 C-3.25544183 240.87332407 -14.10053849 239.8656971 -23.1638031 232.86592102 C-23.90501404 232.13373352 -24.64622498 231.40154602 -25.40989685 230.64717102 C-26.17431091 229.91498352 -26.93872498 229.18279602 -27.7263031 228.42842102 C-31.43372455 224.44106536 -34.29522483 220.69064507 -36.53489685 215.70967102 C-36.95126404 214.80346008 -37.36763123 213.89724915 -37.7966156 212.96357727 C-39.74404411 207.74388971 -39.97432439 202.66099761 -39.98783875 197.12846375 C-39.99080987 196.44576719 -39.99378099 195.76307063 -39.99684215 195.0596863 C-40.00547545 192.78463602 -40.00703283 190.50963869 -40.00852966 188.23457336 C-40.01316171 186.59800607 -40.01818689 184.96143985 -40.02357483 183.32487488 C-40.0366652 178.88654986 -40.04313743 174.44823996 -40.04758549 170.00989866 C-40.05052218 167.23279462 -40.05462815 164.45569466 -40.05908966 161.67859268 C-40.07275691 152.977568 -40.08242685 144.27655269 -40.08629155 135.57551801 C-40.09076788 125.55428894 -40.10829929 115.53319656 -40.13729215 105.51200902 C-40.15896045 97.75125235 -40.16899861 89.99053399 -40.17033267 82.22974741 C-40.17137719 77.60159645 -40.17720921 72.97357411 -40.19515228 68.34545517 C-40.21172181 63.98695069 -40.21374572 59.62867031 -40.20501328 55.27014542 C-40.20424758 53.67874295 -40.20852325 52.08732798 -40.21847153 50.49595642 C-40.31128325 34.71183786 -38.07221086 22.89221075 -27.22239685 10.95967102 C-19.62916393 3.63029561 -10.38865212 0.03600431 0 0 Z M-17.84739685 12.14717102 C-18.83739685 12.80717102 -19.82739685 13.46717102 -20.84739685 14.14717102 C-20.84739685 14.80717102 -20.84739685 15.46717102 -20.84739685 16.14717102 C-21.74071716 16.49908508 -21.74071716 16.49908508 -22.65208435 16.85810852 C-25.3807457 18.46034739 -26.36785175 20.05872564 -27.97239685 22.77217102 C-28.46997498 23.58943665 -28.9675531 24.40670227 -29.48020935 25.24873352 C-33.5884283 33.95815769 -33.1385679 42.90391574 -33.12205505 52.31855774 C-33.12640705 53.95866629 -33.13159182 55.59877281 -33.13754272 57.23887634 C-33.15089177 61.6769721 -33.15151595 66.11498248 -33.14897943 70.55309439 C-33.14790689 74.26564054 -33.15280031 77.97816961 -33.15758485 81.69071209 C-33.16866596 90.45339248 -33.16912535 99.21602999 -33.16307068 107.97871399 C-33.15703193 117.00144619 -33.16934261 126.02402242 -33.19064075 135.04672801 C-33.20828651 142.80919951 -33.2142534 150.57162149 -33.21100301 158.33411229 C-33.20919469 162.96327721 -33.21178109 167.59233085 -33.22571754 172.22147751 C-33.23833972 176.57673317 -33.23631049 180.93174659 -33.22330666 185.28699875 C-33.22095083 186.87923771 -33.22363969 188.47149395 -33.23192978 190.06371307 C-33.30388197 204.96531589 -31.21948607 214.20188897 -20.96458435 225.15888977 C-11.83430606 233.97496821 -0.53223319 233.59279576 11.50343323 233.5670929 C13.13897273 233.57444446 14.77450706 233.58303383 16.41003418 233.59275818 C20.82757581 233.6148694 25.24493033 233.61791007 29.66251969 233.61601067 C33.36246648 233.61589047 37.06237433 233.62447447 40.76231021 233.63278818 C49.49831025 233.65198516 58.23421475 233.65491973 66.9702301 233.64814758 C75.95442171 233.64151066 84.93820236 233.66436564 93.92231065 233.70146132 C101.66110419 233.73224458 109.39976613 233.74350899 117.1386196 233.7396245 C121.7494892 233.73756577 126.36003889 233.74289976 130.97084999 233.76751709 C135.31068483 233.78992472 139.64985561 233.78779128 143.9896946 233.76758957 C145.57261684 233.76420405 147.15558503 233.76916125 148.73844528 233.78357315 C160.47556752 233.88297559 171.66311787 232.69877076 180.65260315 224.33467102 C190.73169012 213.00101415 191.45579215 202.42557005 191.47486877 187.73213196 C191.4841374 186.06571011 191.49418835 184.39929246 191.50495911 182.73287964 C191.53109048 178.2223624 191.54407368 173.71190454 191.55298042 169.20132351 C191.5588599 166.37830507 191.56707277 163.55530255 191.57598877 160.73229218 C191.60330597 151.8849765 191.62265608 143.03769757 191.63039255 134.19034266 C191.63935079 124.00425808 191.67444568 113.81871068 191.73239374 103.63278937 C191.775724 95.74035044 191.79580617 87.84806214 191.79847479 79.95550561 C191.8005637 75.25009717 191.81222402 70.54519481 191.84811401 65.83991241 C191.88124515 61.41059538 191.88530642 56.98216032 191.867836 52.55276299 C191.86630428 50.93553988 191.87486101 49.31826765 191.8947525 47.70116615 C192.04032904 35.11954128 189.46176822 25.95388839 181.15260315 16.14717102 C178.88332766 14.16400529 178.88332766 14.16400529 176.40260315 12.45967102 C175.20377502 11.58762024 175.20377502 11.58762024 173.98072815 10.69795227 C165.51304983 6.05476402 156.07610244 6.84348912 146.70582581 6.84077454 C145.03615959 6.83314497 143.36649687 6.82471611 141.69683838 6.81555176 C137.17818285 6.79368205 132.65959496 6.78481834 128.14089251 6.77972531 C125.31386935 6.77607366 122.48686371 6.7698295 119.65984726 6.76272392 C109.78633094 6.73825828 99.91286697 6.7251832 90.0393219 6.72163391 C80.8529105 6.71799803 71.66683305 6.68809151 62.48052371 6.64622933 C54.57792449 6.61148639 46.67543579 6.5960848 38.77276075 6.59538788 C34.05966194 6.59459661 29.34690393 6.58592679 24.63388443 6.55739021 C20.19972312 6.53113982 15.76618357 6.52904296 11.33197975 6.54504585 C9.71070177 6.54685465 8.08938743 6.54022128 6.46818733 6.52422714 C-2.65688404 6.43973581 -10.00944308 6.89751646 -17.84739685 12.14717102 Z " fill="#F5F5F5" transform="translate(100.84739685058594,59.85282897949219)"/>
<path d="M0 0 C10.54381312 -0.02312343 21.08762025 -0.04091509 31.63145351 -0.05181217 C36.52685374 -0.057041 41.42223668 -0.06413864 46.31762695 -0.07543945 C51.03787978 -0.08626834 55.75811592 -0.09227684 60.4783802 -0.09487724 C62.28338954 -0.09673149 64.08839792 -0.10035209 65.89340019 -0.10573006 C68.41259644 -0.11294052 70.9317229 -0.11399094 73.45092773 -0.11352539 C74.20474228 -0.11712067 74.95855682 -0.12071594 75.73521423 -0.12442017 C80.88594784 -0.11405216 80.88594784 -0.11405216 82 1 C82.11317284 3.35228319 82.16416537 5.67411948 82.16796875 8.02734375 C82.17296135 9.08351646 82.17296135 9.08351646 82.17805481 10.161026 C82.18312655 11.65316106 82.18546306 13.1453075 82.18530273 14.63745117 C82.18748759 16.92450607 82.20563549 19.21107753 82.22460938 21.49804688 C82.22754354 22.94531084 82.22952818 24.39257711 82.23046875 25.83984375 C82.23765427 26.52634506 82.24483978 27.21284637 82.25224304 27.92015076 C82.22882369 32.77117631 82.22882369 32.77117631 80 35 C77.4757567 35.19304165 75.06172477 35.26235759 72.53686523 35.24291992 C71.7676474 35.24481827 70.99842957 35.24671661 70.2059021 35.24867249 C67.6566965 35.25238513 65.10777414 35.2416701 62.55859375 35.23046875 C60.79264866 35.22927722 59.02670292 35.22882373 57.26075745 35.2290802 C53.55766846 35.22751454 49.85467603 35.21921797 46.15161133 35.20581055 C41.39420442 35.18880817 36.6369036 35.18499651 31.87946987 35.18575573 C28.23276244 35.18548442 24.58607841 35.18000966 20.93937874 35.17275429 C19.18461344 35.16956228 17.42984548 35.16759898 15.67507744 35.16686058 C13.22791862 35.16470333 10.78087458 35.15597292 8.33374023 35.14526367 C7.60176926 35.14571686 6.86979828 35.14617004 6.11564636 35.14663696 C1.11447497 35.11447497 1.11447497 35.11447497 0 34 C-0.08847743 31.47905924 -0.11527301 28.98569107 -0.09765625 26.46484375 C-0.0962413 25.71159317 -0.09482635 24.95834259 -0.09336853 24.18226624 C-0.08775376 21.7673044 -0.07519883 19.35243399 -0.0625 16.9375 C-0.0574869 15.30403779 -0.05292366 13.67057414 -0.04882812 12.03710938 C-0.03777954 8.02470415 -0.02050506 4.01236759 0 0 Z " fill="#020202" transform="translate(91,193)"/>
<path d="M0 0 C2.475 0.99 2.475 0.99 5 2 C5 8.6 5 15.2 5 22 C74.3 22 143.6 22 215 22 C215 23.32 215 24.64 215 26 C145.7 26 76.4 26 5 26 C5 74.51 5 123.02 5 173 C1 175 1 175 -1 175 C-2.14602338 171.56192986 -2.12877391 168.91588094 -2.13371277 165.28822327 C-2.13597833 164.60244546 -2.13824388 163.91666765 -2.14057809 163.2101087 C-2.1469195 160.90706391 -2.14608864 158.60407795 -2.14526367 156.30102539 C-2.14825506 154.65192081 -2.15165754 153.00281694 -2.15544128 151.35371399 C-2.16428709 146.87029124 -2.16661963 142.38688756 -2.16725707 137.90345693 C-2.16820576 134.16326235 -2.17188354 130.42307225 -2.17542917 126.68287939 C-2.18357576 117.86060545 -2.18601319 109.03834172 -2.18530273 100.21606445 C-2.18470171 91.10871578 -2.1952579 82.0014263 -2.2110464 72.89409262 C-2.22411127 65.08001872 -2.22948708 57.26596419 -2.22884732 49.45187944 C-2.22859205 44.78261164 -2.23145958 40.11339643 -2.24202538 35.44413948 C-2.25168878 31.05372418 -2.25179765 26.66341196 -2.24450874 22.27299309 C-2.24346074 20.66049932 -2.24583851 19.04799919 -2.2518692 17.43551636 C-2.25956176 15.23647557 -2.25496271 13.03779318 -2.24723816 10.83876038 C-2.24778293 9.60745423 -2.24832769 8.37614809 -2.24888897 7.10752964 C-2.01221148 4.1524677 -1.55485373 2.48350402 0 0 Z " fill="#030303" transform="translate(70,92)"/>
<path d="M0 0 C1.04175095 -0.00445668 1.04175095 -0.00445668 2.10454738 -0.0090034 C4.437376 -0.01769166 6.7701533 -0.01919877 9.10299683 -0.02069092 C10.77354543 -0.02531913 12.44409297 -0.03034379 14.11463928 -0.03573608 C18.65830905 -0.04886477 23.20196404 -0.05530636 27.74564981 -0.05974674 C30.5855304 -0.06267768 33.42540694 -0.0667826 36.26528549 -0.07125092 C45.15372579 -0.08492921 54.04215686 -0.09459334 62.93060696 -0.09845281 C73.1845169 -0.10292972 83.43829329 -0.12045918 93.69216263 -0.1494534 C101.62096336 -0.17109306 109.54972658 -0.18115836 117.47855651 -0.18249393 C122.21228981 -0.18354063 126.94589761 -0.18941945 131.67959976 -0.20731354 C136.13654683 -0.22383294 140.59327463 -0.22593099 145.05024147 -0.21717453 C146.68160274 -0.21640613 148.31297599 -0.22072076 149.94430733 -0.23063278 C161.0169292 -0.29393641 169.95723314 0.20238378 179.20797729 7.14044189 C180.03297729 7.67669189 180.85797729 8.21294189 181.70797729 8.76544189 C187.15915244 13.94405828 191.8862613 21.84496792 192.45407295 29.42625141 C192.45222937 30.68265525 192.45038578 31.93905909 192.44848633 33.23353577 C192.45019518 33.93609534 192.45190403 34.63865492 192.45366466 35.36250418 C192.45695175 37.71021894 192.44596891 40.05764616 192.43502808 42.40533447 C192.43446379 44.09077955 192.43478086 45.77622513 192.43591309 47.46166992 C192.43648693 52.03358518 192.42472744 56.60539551 192.41076517 61.17728639 C192.39826315 65.95655933 192.39708773 70.73583468 192.39471436 75.51512146 C192.38849804 84.56375779 192.37208515 93.6123458 192.35201538 102.66096085 C192.32966111 112.96317148 192.31866413 123.26538441 192.30862451 133.56761324 C192.28771907 154.7585831 192.25254012 175.94950945 192.20797729 197.14044189 C191.87797729 197.14044189 191.54797729 197.14044189 191.20797729 197.14044189 C190.87797729 141.04044189 190.54797729 84.94044189 190.20797729 27.14044189 C189.54797729 26.81044189 188.88797729 26.48044189 188.20797729 26.14044189 C187.87797729 27.13044189 187.54797729 28.12044189 187.20797729 29.14044189 C186.21797729 29.14044189 185.22797729 29.14044189 184.20797729 29.14044189 C183.58922729 27.34606689 183.58922729 27.34606689 182.95797729 25.51544189 C180.44832008 18.89695053 177.03751507 14.25540973 171.20797729 10.14044189 C166.37671758 8.47082809 162.15184901 7.88702365 157.05555725 7.87301636 C156.37059514 7.86848524 155.68563303 7.86395413 154.97991449 7.85928571 C152.70324481 7.84670732 150.42681637 7.84825778 148.15011597 7.84991455 C146.51015417 7.84392519 144.87019518 7.83711871 143.23023987 7.82955933 C138.78796069 7.81193364 134.34575863 7.8072054 129.90344787 7.80592775 C127.12450537 7.80450366 124.34558232 7.80022916 121.56664467 7.79493332 C111.86170843 7.77644442 102.15682704 7.76826128 92.45187378 7.76983643 C83.42173895 7.77103753 74.39184324 7.74993841 65.3617689 7.7183491 C57.59507001 7.6921527 49.82844907 7.68147054 42.06170636 7.68274724 C37.42913065 7.68325589 32.79676757 7.67762692 28.16423607 7.65639114 C23.80483863 7.63695194 19.44585544 7.63692287 15.08644295 7.65142441 C13.49258694 7.65350657 11.8987046 7.64884711 10.30489349 7.63670349 C-3.62995897 7.46077588 -3.62995897 7.46077588 -15.65502644 13.78869057 C-19.34841269 17.70132345 -21.57540435 22.28093243 -23.79202271 27.14044189 C-24.45202271 27.14044189 -25.11202271 27.14044189 -25.79202271 27.14044189 C-26.12202271 27.80044189 -26.45202271 28.46044189 -26.79202271 29.14044189 C-27.45202271 28.48044189 -28.11202271 27.82044189 -28.79202271 27.14044189 C-29.45202271 27.14044189 -30.11202271 27.14044189 -30.79202271 27.14044189 C-30.4696688 21.01571766 -27.46342803 15.92100714 -23.79202271 11.14044189 C-21.59280396 9.84356689 -21.59280396 9.84356689 -19.79202271 9.14044189 C-19.79202271 8.48044189 -19.79202271 7.82044189 -19.79202271 7.14044189 C-17.70999146 5.66778564 -17.70999146 5.66778564 -14.97952271 4.07794189 C-14.08620239 3.55071533 -13.19288208 3.02348877 -12.27249146 2.48028564 C-8.01470453 0.18041018 -4.78466319 0.01141765 0 0 Z " fill="#0E0E0E" transform="translate(99.79202270507813,66.85955810546875)"/>
<path d="M0 0 C0.73541016 0.00202423 1.47082031 0.00404846 2.22851562 0.00613403 C2.97939453 0.00517731 3.73027344 0.00422058 4.50390625 0.00323486 C6.09440189 0.00255315 7.6849003 0.00440682 9.27539062 0.00857544 C11.71816217 0.01392386 14.16074984 0.00863019 16.60351562 0.00222778 C18.1451827 0.00288857 19.68684966 0.00416973 21.22851562 0.00613403 C21.96392578 0.0041098 22.69933594 0.00208557 23.45703125 0 C28.61356402 0.02399493 28.61356402 0.02399493 29.72851562 1.13894653 C29.82938774 3.64818807 29.86823595 6.12931037 29.86132812 8.63894653 C29.86228485 9.38982544 29.86324158 10.14070435 29.86422729 10.91433716 C29.86490901 12.5048328 29.86305534 14.09533121 29.85888672 15.68582153 C29.85353829 18.12859308 29.85883196 20.57118075 29.86523438 23.01394653 C29.86457359 24.55561361 29.86329243 26.09728057 29.86132812 27.63894653 C29.86335236 28.37435669 29.86537659 29.10976685 29.86746216 29.86746216 C29.84346723 35.02399493 29.84346723 35.02399493 28.72851562 36.13894653 C26.20757486 36.22742396 23.7142067 36.25421955 21.19335938 36.23660278 C20.06348351 36.23448036 20.06348351 36.23448036 18.91078186 36.23231506 C16.49582003 36.22670029 14.08094962 36.21414536 11.66601562 36.20144653 C10.03255342 36.19643343 8.39908976 36.1918702 6.765625 36.18777466 C2.75321978 36.17672607 -1.25911678 36.1594516 -5.27148438 36.13894653 C-6.77224865 33.13741799 -6.4137003 30.05074644 -6.40429688 26.76004028 C-6.40573196 25.66913841 -6.40573196 25.66913841 -6.40719604 24.55619812 C-6.40787673 23.01875726 -6.40603023 21.48131352 -6.40185547 19.94387817 C-6.39649789 17.58240353 -6.40180815 15.22111843 -6.40820312 12.85964966 C-6.40754248 11.36811278 -6.40626159 9.87657602 -6.40429688 8.38504028 C-6.40632111 7.67464096 -6.40834534 6.96424164 -6.41043091 6.23231506 C-6.3813631 0.20000171 -6.01279618 0.02797938 0 0 Z " fill="#030303" transform="translate(96.271484375,145.86105346679688)"/>
<path d="M0 0 C0.73541016 0.00202423 1.47082031 0.00404846 2.22851562 0.00613403 C2.97939453 0.00517731 3.73027344 0.00422058 4.50390625 0.00323486 C6.09440189 0.00255315 7.6849003 0.00440682 9.27539062 0.00857544 C11.71816217 0.01392386 14.16074984 0.00863019 16.60351562 0.00222778 C18.1451827 0.00288857 19.68684966 0.00416973 21.22851562 0.00613403 C21.96392578 0.0041098 22.69933594 0.00208557 23.45703125 0 C28.61356402 0.02399493 28.61356402 0.02399493 29.72851562 1.13894653 C29.84173996 3.56385024 29.89268438 5.95921515 29.89648438 8.38504028 C29.90147697 9.47450706 29.90147697 9.47450706 29.90657043 10.58598328 C29.91164237 12.12519699 29.91397868 13.66442174 29.91381836 15.2036438 C29.91600329 17.56312124 29.93415128 19.92213014 29.953125 22.28152466 C29.95605914 23.77436159 29.9580438 25.26720076 29.95898438 26.76004028 C29.96616989 27.46841537 29.97335541 28.17679047 29.98075867 28.90663147 C29.957339 33.91012316 29.957339 33.91012316 27.72851562 36.13894653 C25.231077 36.32616505 22.8466288 36.3947442 20.34960938 36.36941528 C19.62234146 36.36895706 18.89507355 36.36849884 18.14576721 36.36802673 C16.60831063 36.36500489 15.0708571 36.35712058 13.53344727 36.34475708 C11.17192827 36.32649226 8.81080102 36.32424744 6.44921875 36.32449341 C4.95767888 36.31957856 3.46614168 36.31375039 1.97460938 36.30691528 C1.26421005 36.30580246 0.55381073 36.30468964 -0.17811584 36.30354309 C-5.15543073 36.25500018 -5.15543073 36.25500018 -6.27148438 35.13894653 C-6.37235649 32.629705 -6.4112047 30.14858269 -6.40429688 27.63894653 C-6.4052536 26.88806763 -6.40621033 26.13718872 -6.40719604 25.36355591 C-6.40787776 23.77306027 -6.40602409 22.18256186 -6.40185547 20.59207153 C-6.39650704 18.14929999 -6.40180071 15.70671232 -6.40820312 13.26394653 C-6.40754234 11.72227946 -6.40626118 10.1806125 -6.40429688 8.63894653 C-6.40632111 7.90353638 -6.40834534 7.16812622 -6.41043091 6.41043091 C-6.38192715 0.28494684 -6.12548407 0.02850375 0 0 Z " fill="#010101" transform="translate(143.271484375,145.86105346679688)"/>
<path d="M0 0 C0.99 0.33 1.98 0.66 3 1 C3 58.75 3 116.5 3 176 C2.01 175.67 1.02 175.34 0 175 C0.495 174.01 0.495 174.01 1 173 C-0.32 173 -1.64 173 -3 173 C-3 116.24 -3 59.48 -3 1 C-2.01 1.495 -2.01 1.495 -1 2 C-0.67 1.34 -0.34 0.68 0 0 Z " fill="#010101" transform="translate(288,93)"/>
<path d="M0 0 C69.3 0 138.6 0 210 0 C210 1.32 210 2.64 210 4 C140.7 4 71.4 4 0 4 C0.99 3.67 1.98 3.34 3 3 C3 2.34 3 1.68 3 1 C2.01 0.67 1.02 0.34 0 0 Z " fill="#2D2D2D" transform="translate(75,114)"/>
<path d="M0 0 C57.42 0 114.84 0 174 0 C174 0.99 174 1.98 174 3 C116.58 3 59.16 3 0 3 C0 2.01 0 1.02 0 0 Z " fill="#070707" transform="translate(93,248)"/>
<path d="M0 0 C2.5 1.625 2.5 1.625 4 4 C4.63656938 7.73984509 4.25584708 9.50962644 2.5 12.875 C-0.52915683 15.44978331 -2.20650771 15.74545844 -6.09375 15.484375 C-8 15 -8 15 -10.5 12.875 C-12.25584708 9.50962644 -12.63656938 7.73984509 -12 4 C-9.04906701 -0.67231057 -5.10537385 -1.0252595 0 0 Z " fill="#0E0E0E" transform="translate(150,89)"/>
<path d="M0 0 C2.5 1.625 2.5 1.625 4 4 C4.63656938 7.73984509 4.25584708 9.50962644 2.5 12.875 C-0.52915683 15.44978331 -2.20650771 15.74545844 -6.09375 15.484375 C-8 15 -8 15 -10.5 12.875 C-12.25584708 9.50962644 -12.63656938 7.73984509 -12 4 C-9.04906701 -0.67231057 -5.10537385 -1.0252595 0 0 Z " fill="#0E0E0E" transform="translate(128,89)"/>
<path d="M0 0 C2.9375 1.625 2.9375 1.625 5 4 C5.625 6.9375 5.625 6.9375 5 10 C2.36788535 13.66900829 0.91145674 14.84009531 -3.5625 15.625 C-7 15 -7 15 -9.4375 12.875 C-11.26836859 9.50620179 -11.64250722 7.77472994 -11 4 C-8.05127687 -0.48205916 -5.14006617 -0.7214128 0 0 Z " fill="#0C0C0C" transform="translate(105,89)"/>
<path d="M0 0 C-0.66 1.32 -1.32 2.64 -2 4 C-9.92 4 -17.84 4 -26 4 C-26 3.67 -26 3.34 -26 3 C-22.04191662 2.49800786 -18.08349396 1.99874328 -14.125 1.5 C-12.99707031 1.35691406 -11.86914062 1.21382813 -10.70703125 1.06640625 C-9.63066406 0.93105469 -8.55429688 0.79570312 -7.4453125 0.65625 C-6.45031738 0.53056641 -5.45532227 0.40488281 -4.43017578 0.27539062 C-2 0 -2 0 0 0 Z " fill="#E0E0E0" transform="translate(218,356)"/>
<path d="M0 0 C0.33 0 0.66 0 1 0 C1.08089542 2.77141717 1.14044062 5.54047819 1.1875 8.3125 C1.21263672 9.09818359 1.23777344 9.88386719 1.26367188 10.69335938 C1.27333984 11.45068359 1.28300781 12.20800781 1.29296875 12.98828125 C1.3086792 13.68477783 1.32438965 14.38127441 1.34057617 15.09887695 C1 17 1 17 -2 20 C-1.34 13.4 -0.68 6.8 0 0 Z " fill="#CFCFCF" transform="translate(359,192)"/>
<path d="M0 0 C0.66 0.33 1.32 0.66 2 1 C-1.57729872 5.66132863 -5.10867301 8.73911534 -10 12 C-8.63055898 9.05043472 -7.12169591 6.47531189 -5 4 C-4.34 4 -3.68 4 -3 4 C-3 3.34 -3 2.68 -3 2 C-2.01 1.34 -1.02 0.68 0 0 Z " fill="#262626" transform="translate(83,72)"/>
<path d="M0 0 C0.66 0.33 1.32 0.66 2 1 C-1.66666667 4.66666667 -5.33333333 8.33333333 -9 12 C-9.33 11.01 -9.66 10.02 -10 9 C-6.7 6.03 -3.4 3.06 0 0 Z " fill="#282828" transform="translate(290,284)"/>
<path d="M0 0 C0.99 0 1.98 0 3 0 C3 0.99 3 1.98 3 3 C2.34 3 1.68 3 1 3 C0.67 3.66 0.34 4.32 0 5 C-0.98020375 6.0194119 -1.97803008 7.02246356 -3 8 C-3.33 6.35 -3.66 4.7 -4 3 C-3.01 2.67 -2.02 2.34 -1 2 C-0.67 1.34 -0.34 0.68 0 0 Z " fill="#1C1C1C" transform="translate(73,264)"/>
<path d="M0 0 C0.33 0 0.66 0 1 0 C1.33 2.64 1.66 5.28 2 8 C0.35 8 -1.3 8 -3 8 C-2.45276317 4.62537285 -1.9451 2.91765 0 0 Z " fill="#141414" transform="translate(61,264)"/>
<path d="M0 0 C-1.28965176 1.37562854 -2.62689293 2.70766393 -4 4 C-4.66 4 -5.32 4 -6 4 C-6 3.34 -6 2.68 -6 2 C-7.32 1.67 -8.64 1.34 -10 1 C-6.52674819 -0.1577506 -3.63932552 -0.06866652 0 0 Z " fill="#3A3A3A" transform="translate(100,67)"/>
</svg>
