<?xml version="1.0" standalone="no"?>
<!DOCTYPE svg PUBLIC "-//W3C//DTD SVG 20010904//EN"
 "http://www.w3.org/TR/2001/REC-SVG-20010904/DTD/svg10.dtd">
<svg version="1.0" xmlns="http://www.w3.org/2000/svg"
 width="612.000000pt" height="612.000000pt" viewBox="0 0 612.000000 612.000000"
 preserveAspectRatio="xMidYMid meet">

<g transform="translate(0.000000,612.000000) scale(0.100000,-0.100000)"
fill="#000000" stroke="none">
<path d="M2811 5003 c-15 -13 -36 -74 -77 -223 -60 -215 -70 -240 -107 -258
-87 -44 -295 -122 -323 -122 -40 0 -64 12 -267 126 -84 48 -159 84 -174 84
-40 0 -353 -313 -353 -353 0 -16 42 -102 105 -212 84 -148 105 -192 105 -223
0 -26 -22 -92 -65 -195 -57 -134 -70 -156 -98 -171 -18 -9 -120 -41 -227 -71
-143 -40 -200 -60 -212 -76 -16 -19 -18 -47 -18 -245 0 -217 1 -224 22 -248
18 -19 63 -36 217 -78 106 -29 206 -61 223 -71 16 -10 37 -36 47 -60 87 -203
111 -269 111 -303 0 -31 -22 -78 -105 -224 -58 -101 -105 -196 -105 -210 0
-19 37 -62 163 -186 89 -89 170 -164 180 -168 21 -7 31 -2 248 120 103 58 178
94 196 94 35 0 330 -123 355 -148 11 -10 41 -100 73 -212 30 -107 60 -207 66
-222 17 -42 57 -49 259 -47 180 1 243 8 263 28 5 5 36 103 68 216 32 114 64
217 73 229 9 14 58 41 131 71 l117 48 -139 138 -138 138 -67 -19 c-159 -44
-365 -50 -533 -15 -222 47 -419 153 -578 312 -103 104 -157 178 -216 298 -96
196 -126 336 -118 560 5 180 32 295 101 440 119 253 293 430 540 550 61 30
156 67 211 82 91 24 117 27 285 27 122 1 204 -4 240 -12 359 -87 628 -292 789
-601 80 -154 131 -359 131 -526 0 -81 -23 -244 -45 -318 l-15 -52 138 -138
139 -139 48 116 c31 75 56 121 71 131 13 8 106 38 206 66 101 27 199 58 218
67 l35 17 3 241 c2 225 1 242 -17 258 -10 9 -112 43 -226 75 -156 44 -213 64
-230 82 -12 13 -51 93 -85 177 -47 116 -61 162 -57 185 3 18 51 113 107 212
63 109 103 191 103 209 0 23 -27 55 -164 192 -121 120 -172 164 -189 164 -13
0 -103 -45 -200 -100 -183 -104 -225 -122 -259 -113 -11 3 -86 33 -167 67 -98
41 -153 69 -166 86 -10 14 -36 91 -59 170 -74 270 -76 276 -104 288 -17 8 -99
12 -244 12 -194 0 -221 -2 -240 -17z"/>
<path d="M2940 3910 c-66 -9 -105 -36 -98 -67 2 -7 103 -113 224 -235 122
-123 227 -234 234 -247 17 -33 6 -82 -40 -176 -73 -150 -174 -251 -326 -325
-44 -22 -101 -43 -127 -46 l-48 -7 -238 237 c-130 130 -242 236 -248 236 -72
0 -93 -213 -42 -429 21 -91 78 -215 134 -291 49 -67 181 -188 248 -228 210
-126 470 -157 705 -84 l53 16 552 -552 c630 -629 603 -607 757 -607 76 0 93 4
152 33 76 37 120 82 157 162 22 46 26 69 26 141 0 145 17 124 -609 750 l-550
549 25 93 c20 79 24 114 23 242 0 141 -2 156 -32 245 -94 283 -329 504 -605
570 -98 24 -238 32 -327 20z"/>
</g>
</svg>
