<?xml version="1.0" encoding="UTF-8"?>
<svg version="1.1" xmlns="http://www.w3.org/2000/svg" width="310" height="163">
<path d="M0 0 C102.3 0 204.6 0 310 0 C310 53.79 310 107.58 310 163 C207.7 163 105.4 163 0 163 C0 109.21 0 55.42 0 0 Z " fill="#FEFEFE" transform="translate(0,0)"/>
<path d="M0 0 C-2.87352015 1.9156801 -5.41932553 3.00749051 -8.625 4.25 C-19.25902771 8.66267253 -27.60411651 14.1633458 -32.3203125 25.046875 C-36.36954812 36.8831022 -36.30312276 47.57907184 -31 59 C-28.86162927 62.50045097 -26.50136695 65.75315176 -24 69 C-23.01 70.485 -23.01 70.485 -22 72 C-33.249843 76.48912004 -46.81112671 75.09813899 -57.79296875 70.546875 C-67.08924974 66.06291974 -75.17682239 60.71990897 -83 54 C-83.845625 53.2884375 -84.69125 52.576875 -85.5625 51.84375 C-99.28342162 39.96343982 -99.28342162 39.96343982 -102.0078125 32.0859375 C-101.9970527 27.83581796 -100.06505934 25.79144061 -97.3125 22.8125 C-96.81210205 22.25079102 -96.3117041 21.68908203 -95.79614258 21.11035156 C-69.44457287 -7.9587622 -36.04675729 -21.31668704 0 0 Z " fill="#030303" transform="translate(178,41)"/>
<path d="M0 0 C6.55845751 4.78679365 10.70371256 11.41987833 13.078125 19.13671875 C13.84677436 27.01537473 12.92589727 33.21003138 10.328125 40.69921875 C9.93625 41.89546875 9.544375 43.09171875 9.140625 44.32421875 C8.8725 45.10796875 8.604375 45.89171875 8.328125 46.69921875 C11.1114505 49.01720856 11.1114505 49.01720856 14.05859375 48.40625 C19.06500491 48.85485315 21.28762915 51.857435 24.640625 55.38671875 C25.27291016 56.01255859 25.90519531 56.63839844 26.55664062 57.28320312 C29.09903698 59.8855488 31.04379416 62.01800944 32.453125 65.39453125 C32.28247003 68.54098217 31.1822131 69.64197717 29.015625 71.88671875 C28.38011719 72.56089844 27.74460937 73.23507813 27.08984375 73.9296875 C23.33934969 77.69681346 23.33934969 77.69681346 20.703125 78.26171875 C15.55025583 77.40290722 12.91355386 74.33282036 9.328125 70.69921875 C8.64621094 70.03921875 7.96429688 69.37921875 7.26171875 68.69921875 C1.8996043 63.15295087 1.8996043 63.15295087 1.890625 58.69921875 C2.035 57.70921875 2.179375 56.71921875 2.328125 55.69921875 C-1.2875101 54.3798877 -3.15454381 55.03045751 -6.609375 56.57421875 C-14.49281172 60.05901458 -21.77513596 60.83203314 -30.046875 58.26171875 C-38.29857285 55.03678538 -45.56089562 48.5785959 -49.671875 40.69921875 C-53.16718974 32.31046336 -53.15090862 21.21702007 -49.765625 12.78515625 C-44.86130507 3.43191752 -38.10304551 -1.35316143 -28.671875 -5.67578125 C-18.03726103 -7.89132583 -9.04740821 -5.7309503 0 0 Z " fill="#040404" transform="translate(201.671875,55.30078125)"/>
<path d="M0 0 C4.86438095 3.4356239 8.87930661 8.79695397 10.30078125 14.625 C11.13449899 22.47710526 9.4953393 28.36451376 5.11328125 34.875 C0.2886138 39.59245262 -5.5764371 42.35579469 -12.32421875 42.9375 C-18.32309878 42.81642169 -23.34788407 40.80646639 -27.75390625 36.71875 C-33.88386968 29.90202718 -35.2275911 25.35005913 -35.07421875 16.109375 C-34.35636391 9.43930709 -31.03699836 5.68570417 -26.26171875 1.25 C-18.0402542 -5.25644937 -8.90709732 -4.87604706 0 0 Z " fill="#F9F9F9" transform="translate(194.69921875,62.375)"/>
<path d="M0 0 C2.78506308 1.97886061 3.81084752 3.15932233 4.5625 6.5 C3.75286265 10.09838821 2.04806839 11.03568926 -1 13 C-2.2684375 13.4640625 -2.2684375 13.4640625 -3.5625 13.9375 C-6.85429877 15.37238664 -8.03742673 16.9991359 -10 20 C-10.58343112 23.47196015 -10.58343112 23.47196015 -10.5625 27.125 C-10.67782631 33.54256971 -10.67782631 33.54256971 -12.33984375 35.90234375 C-14.97808676 37.64668795 -16.93233233 37.4473682 -20 37 C-23.40937166 33.59062834 -24.1615588 30.0072537 -24.25 25.3125 C-24.11963794 17.14709491 -21.51922937 11.72261291 -15.9609375 5.765625 C-11.4369448 1.69222918 -6.20625568 -1.12841012 0 0 Z " fill="#F7F7F7" transform="translate(141,47)"/>
<path d="M0 0 C0.66 0.33 1.32 0.66 2 1 C0.700625 1.86625 0.700625 1.86625 -0.625 2.75 C-6.03640052 7.1973743 -8.82968871 14.48906614 -11 21 C-11.99355062 31.41317481 -8.85943898 39.95138948 -4 49 C-14.94088103 45.10219053 -23.08134238 35.16356456 -31 27 C-23.01999462 15.09487002 -11.8769961 7.58544151 0 0 Z " fill="#F6F6F6" transform="translate(121,46)"/>
<path d="M0 0 C3.22171608 1.24475394 3.41384393 1.88802474 5 4.8125 C7.79342233 9.80652834 11.65475627 11.75354424 16.75 14.0625 C15.875 17.9375 15.875 17.9375 14.75 19.0625 C9.29823459 18.74180792 5.92216371 17.59976923 1.75 14.0625 C-0.98956789 10.61641198 -3.06196585 7.53543414 -3.625 3.125 C-3.10402526 0.25963891 -2.94306819 0.08175189 0 0 Z " fill="#070707" transform="translate(166.25,82.9375)"/>
<path d="M0 0 C0.28488281 0.5775 0.56976563 1.155 0.86328125 1.75 C4.36583087 8.68288171 7.04532674 12.38891965 14 16 C14.33 16.99 14.66 17.98 15 19 C9.08187733 17.6684224 5.07073254 14.34578204 1 10 C-1.27764622 6.33596043 -0.95164657 4.18724493 0 0 Z " fill="#EAEAEA" transform="translate(162,85)"/>
<path d="M0 0 C1.65 0 3.3 0 5 0 C5.625 1.875 5.625 1.875 6 4 C5.34 4.66 4.68 5.32 4 6 C1.875 5.625 1.875 5.625 0 5 C0 3.35 0 1.7 0 0 Z " fill="#0C0C0C" transform="translate(164,73)"/>
</svg>
