<?xml version="1.0" encoding="UTF-8"?>
<svg version="1.1" xmlns="http://www.w3.org/2000/svg" width="800" height="800">
<path d="M0 0 C187.44 0 374.88 0 568 0 C566.75498135 17.43026109 565.46510116 34.83222158 563.91271973 52.23379517 C563.71010614 54.52515806 563.50769742 56.81653908 563.3054719 59.10793626 C562.75733522 65.31187155 562.20624429 71.51554115 561.65458035 77.71916366 C561.11871355 83.75038853 560.58511452 89.78181384 560.05137454 95.8132272 C558.62635726 111.91465629 557.1964393 128.01564894 555.76573911 144.1165739 C555.08855889 151.7377329 554.41190699 159.35893879 553.73528461 166.98014734 C551.41657572 193.09672913 549.09658736 219.21319694 546.77294159 245.32933998 C546.62764867 246.96236993 546.48235616 248.59539991 546.33706406 250.22842994 C546.22899858 251.4430431 546.22899858 251.4430431 546.11874995 252.68219391 C545.75380351 256.78405981 545.38886249 260.8859262 545.02392578 264.98779297 C544.95150578 265.80177412 544.87908578 266.61575526 544.80447123 267.4544025 C542.44909451 293.92875075 540.10086021 320.40372598 537.75674222 346.87907332 C535.2744982 374.91414883 532.78570809 402.94863568 530.28945112 430.98246706 C530.01587405 434.05511591 529.74232461 437.12776723 529.46879578 440.20042038 C529.36777599 441.33516424 529.36777599 441.33516424 529.26471539 442.49283222 C528.18003174 454.67873508 527.10135573 466.86516261 526.02483182 479.05178871 C524.94512994 491.27270923 523.85880792 503.49302699 522.76565659 515.71275194 C522.17338709 522.33540879 521.58429274 528.95832111 521.00288963 535.58194351 C520.47150123 541.6349895 519.9319074 547.68724373 519.38554543 553.73895602 C519.18859442 555.93705109 518.99474914 558.13542691 518.80419523 560.33408578 C518.5463207 563.30439079 518.27751887 566.27350135 518.00576019 569.24256325 C517.93297299 570.11169548 517.86018578 570.98082772 517.78519291 571.8762973 C517.22829481 577.77170519 517.22829481 577.77170519 515 580 C512.49076261 580.82812808 510.00945544 581.56204153 507.46118164 582.2487793 C506.67561732 582.46620663 505.89005301 582.68363396 505.08068371 582.90764999 C502.44221574 583.6362045 499.80122036 584.35513735 497.16015625 585.07421875 C495.28260974 585.5907101 493.40523295 586.10781877 491.52801514 586.62550354 C487.49235559 587.73708147 483.45557903 588.8444721 479.4178772 589.9486084 C473.02575044 591.69660253 466.63607718 593.4534418 460.24682617 595.21191406 C453.67336219 597.02064809 447.09973539 598.82877828 440.52522278 600.63369751 C421.88753281 605.75055956 403.2611617 610.90760423 384.63831615 616.07819176 C378.59398344 617.75621147 372.5488461 619.43130544 366.50317383 621.10449219 C365.66876801 621.3354339 364.8343622 621.56637562 363.97467136 621.80431557 C360.68678618 622.71429389 357.39889496 623.6242504 354.11098671 624.53414536 C344.60274738 627.16583642 335.09749922 629.80782201 325.59672546 632.46633911 C320.7476617 633.82212854 315.89679913 635.17139276 311.04550171 636.51916504 C308.88413044 637.12145961 306.72363336 637.72690206 304.56411743 638.33581543 C301.68555099 639.14732603 298.80419235 639.9480273 295.921875 640.74609375 C295.1063768 640.97918747 294.2908786 641.21228119 293.45066833 641.45243835 C292.31638145 641.76299919 292.31638145 641.76299919 291.15917969 642.07983398 C290.51905945 642.25916977 289.87893921 642.43850555 289.21942139 642.62327576 C283.61801337 643.57405789 278.71269429 642.88532777 273.28979492 641.37719727 C272.65107641 641.20222654 272.0123579 641.02725582 271.35428429 640.84698296 C269.22722614 640.26196114 267.10396644 639.66421133 264.98046875 639.06640625 C263.44462633 638.64115818 261.90856339 638.21670585 260.37229919 637.79298401 C256.18643077 636.63604624 252.00373033 635.46801092 247.8214798 634.29807281 C243.3735284 633.05592505 238.92269444 631.82419146 234.47216797 630.59130859 C226.89537262 628.49091406 219.32035694 626.38420812 211.74658203 624.27294922 C200.07169642 621.01850152 188.39357425 617.77577512 176.71484375 614.53515625 C165.21667153 611.34444515 153.71892501 608.15224561 142.22363281 604.95117188 C126.03622849 600.44439584 109.84774704 595.94341874 93.63536835 591.5271759 C91.49899235 590.94502787 89.36288126 590.36191867 87.22686768 589.77844238 C85.86853212 589.40746394 84.51019475 589.03649213 83.15185547 588.66552734 C82.49936073 588.48730564 81.846866 588.30908394 81.17459869 588.12546158 C76.82844136 586.93933501 72.47923464 585.76481979 68.12939453 584.59228516 C65.95985807 584.00070266 63.79041748 583.40876837 61.62109375 582.81640625 C60.643647 582.55621201 59.66620026 582.29601776 58.65913391 582.02793884 C57.78476181 581.78741287 56.91038971 581.5468869 56.00952148 581.29907227 C55.25283676 581.09468033 54.49615204 580.89028839 53.71653748 580.67970276 C52 580 52 580 51 578 C50.64734651 574.93879862 50.34679498 571.88818219 50.08046627 568.81911755 C49.99320537 567.85086972 49.90594447 566.88262189 49.81603929 565.88503322 C49.52133245 562.60363786 49.23250102 559.32175092 48.94358826 556.0398407 C48.7327078 553.6781364 48.52147044 551.31646394 48.30990463 548.95482093 C47.84904281 543.80101877 47.39073912 538.64699556 46.93464851 533.49276924 C46.25641845 525.82829377 45.57354304 518.16423723 44.88971451 510.50025949 C43.6687091 496.81419797 42.45232732 483.12772844 41.23781653 469.44108923 C40.17481661 457.46212767 39.11015241 445.4833154 38.04384041 433.50464821 C37.97320546 432.71113461 37.90257052 431.917621 37.82979512 431.10006154 C37.54308306 427.87917858 37.25636129 424.65829649 36.96962613 421.43741559 C34.27765975 391.19856359 31.59015109 360.95931692 28.90484585 330.71987274 C26.51780293 303.83942679 24.12765102 276.95925915 21.73461914 250.0793457 C21.58100895 248.3538952 21.4273988 246.62844469 21.27378868 244.90299418 C21.19784761 244.04997531 21.12190654 243.19695644 21.04366423 242.31808851 C20.6614077 238.02432647 20.2791563 233.73056397 19.89691067 229.43680096 C19.82150325 228.58975451 19.74609582 227.74270807 19.66840333 226.86999355 C17.67060622 204.42847226 15.67495035 181.98676057 13.68001038 159.54498512 C13.57358311 158.34775278 13.57358311 158.34775278 13.4650058 157.12633394 C12.87552677 150.49509255 12.87552677 150.49509255 12.60902815 147.49705633 C11.61548267 136.32007485 10.62118339 125.14316065 9.62639035 113.96629013 C8.34435903 99.56208691 7.06380486 85.15775362 5.78582745 70.75319012 C5.109558 63.13116354 4.43208459 55.50924627 3.75287884 47.88748077 C3.24663605 42.20507293 2.74269301 36.52246307 2.23967052 30.83976934 C2.03522218 28.53416888 1.83002253 26.2286349 1.62401729 23.92317303 C1.34521547 20.8017597 1.06910295 17.68012 0.79369259 14.55840588 C0.71215682 13.6528227 0.63062105 12.74723953 0.5466145 11.81421444 C0.47376645 10.98214237 0.40091839 10.15007029 0.32586282 9.29278392 C0.26244647 8.57899612 0.19903011 7.86520832 0.13369205 7.12979059 C-0.01522574 4.75744531 0 2.37701464 0 0 Z " fill="#E44D26" transform="translate(116,157)"/>
<path d="M0 0 C117.15 0 234.3 0 355 0 C355 7.00309933 354.89463853 13.61123731 354.16015625 20.515625 C354.07374374 21.37452332 353.98733124 22.23342163 353.89830017 23.11834717 C353.6248493 25.82945191 353.34420191 28.53974129 353.0625 31.25 C352.69584811 34.81737163 352.33283382 38.38509406 351.97265625 41.953125 C351.88529205 42.8128894 351.79792786 43.67265381 351.70791626 44.55847168 C351.06106655 51.0519641 350.59596318 57.54189115 350.24389648 64.05761719 C350 67 350 67 349 71 C259.57 71 170.14 71 78 71 C79.65 87.83 81.3 104.66 83 122 C84 133 84 133 84 144 C169.14 144 254.28 144 342 144 C342 154.12459499 342 154.12459499 341.56030273 158.93432617 C341.46249512 160.0263736 341.3646875 161.11842102 341.26391602 162.24356079 C341.10040649 164.00051773 341.10040649 164.00051773 340.93359375 165.79296875 C340.7624707 167.68527725 340.7624707 167.68527725 340.58789062 169.61581421 C340.33963612 172.36104724 340.0888781 175.10603572 339.83615112 177.8508606 C339.42903195 182.27316667 339.02770918 186.69598779 338.62719727 191.11889648 C338.05289064 197.45607025 337.47632316 203.79303449 336.8984375 210.12988281 C335.54682305 224.95731219 334.21376979 239.78641468 332.88192749 254.6156311 C332.58591615 257.91137847 332.28953671 261.20709241 331.99282837 264.5027771 C330.45920561 281.53971199 328.93916456 298.57756182 327.48046875 315.62109375 C327.42152121 316.30919191 327.36257366 316.99729008 327.30183983 317.7062397 C326.69919726 324.74325889 326.10102499 331.78063835 325.50952148 338.81860352 C325.32146513 341.03532014 325.13339627 343.2520357 324.9453125 345.46875 C324.82237068 346.95350075 324.82237068 346.95350075 324.69694519 348.46824646 C324.30884421 353.02319665 323.84697065 357.50158226 323 362 C310.65188538 365.67317334 298.26467933 369.18005868 285.84228516 372.59277344 C283.68612977 373.18543266 281.53041255 373.77964494 279.375 374.375 C278.28674927 374.67555298 278.28674927 374.67555298 277.17651367 374.98217773 C270.72303296 376.77616071 264.30000793 378.66951586 257.875 380.5625 C249.94669302 382.8963605 242.01766679 385.03099962 233.984375 386.97265625 C228.40725895 388.36693526 222.92978181 390.10378225 217.43408203 391.78491211 C210.91756807 393.76320679 204.37270726 395.46854171 197.75 397.05078125 C192.92164345 398.272959 188.20020886 399.78677893 183.4765625 401.36328125 C175.39783904 402.84286768 167.71138662 400.5998091 160 398.25 C158.1421248 397.70115318 156.2840485 397.15298671 154.42578125 396.60546875 C153.50877441 396.3326709 152.59176758 396.05987305 151.64697266 395.77880859 C147.84008194 394.65872177 144.01507018 393.6092411 140.1875 392.5625 C134.22718422 390.92286171 128.29119946 389.21087688 122.36206055 387.46191406 C112.26201636 384.48308428 102.13602341 381.68132771 91.93823242 379.05664062 C85.90363395 377.50255054 79.90153011 375.87077125 73.91796875 374.12890625 C70.63534014 373.17576934 67.34388687 372.25610166 64.05078125 371.33984375 C62.96458496 371.03747803 61.87838867 370.7351123 60.75927734 370.42358398 C58.61281723 369.82678415 56.46602943 369.23116107 54.31884766 368.63696289 C48.8921752 367.12572128 43.49168401 365.55243427 38.10961914 363.88867188 C36.95941788 363.53349487 35.80921661 363.17831787 34.62416077 362.81237793 C33.75818771 362.54429321 32.89221466 362.2762085 32 362 C30.84273829 349.31662042 29.68647202 336.63315052 28.53144932 323.94956684 C27.9949999 318.05902586 27.45821763 312.16851561 26.9206543 306.27807617 C26.40113923 300.58526459 25.88252514 294.89237157 25.3645153 289.19942284 C25.16749581 287.03588166 24.97016081 284.87236918 24.77249336 282.7088871 C24.49403939 279.66057551 24.21674449 276.61216042 23.93969727 273.5637207 C23.85913589 272.68473618 23.77857452 271.80575165 23.6955719 270.90013123 C23.06455474 263.93644145 22.53644303 256.97375937 22 250 C45.76 250 69.52 250 94 250 C94.639375 256.991875 95.27875 263.98375 95.9375 271.1875 C96.13722412 273.36625732 96.33694824 275.54501465 96.54272461 277.78979492 C97.43166527 287.52185975 98.3018018 297.25203415 99 307 C99.73822998 307.18062988 100.47645996 307.36125977 101.23706055 307.54736328 C114.39447774 310.77628994 127.50933873 314.05282228 140.51269531 317.86083984 C147.44176748 319.87763172 154.41687655 321.65878451 161.43164062 323.35205078 C164.72884516 324.15301616 167.88112181 324.95578034 171.06640625 326.140625 C178.36415713 328.27844816 184.4807341 326.56801653 191.5 324.375 C199.37222061 322.01544622 207.26558269 319.88388044 215.25 317.9375 C222.97446132 316.0459586 230.61555811 314.00270689 238.2253418 311.69433594 C244.42423012 309.82906133 250.67052761 308.3539567 257 307 C256.96156982 305.23571655 256.96156982 305.23571655 256.92236328 303.43579102 C256.92651968 296.60341295 257.6207653 289.82558716 258.2421875 283.02734375 C258.37218609 281.57640443 258.50191095 280.12544056 258.63137817 278.67445374 C258.90293051 275.64088958 259.17722743 272.60759039 259.45361328 269.57446289 C259.80333273 265.73502855 260.14708938 261.89509024 260.48882866 258.05493832 C260.75610247 255.05769009 261.02621398 252.06070254 261.29715347 249.06378365 C261.42464898 247.6508308 261.55141666 246.23781204 261.67736435 244.82472038 C262.56947637 234.84467128 263.75613302 224.95093581 265 215 C183.82 215 102.64 215 19 215 C7.7755777 93.7762392 7.7755777 93.7762392 3.64892578 45.43212891 C3.17560121 39.9535202 2.68060908 34.47719032 2.17529297 29.00146484 C2.10564677 28.24490317 2.03600058 27.4883415 1.96424389 26.70885372 C1.62471554 23.02376326 1.28261113 19.33894248 0.93617249 15.65449524 C0.81275939 14.32264908 0.68941888 12.99079619 0.56616211 11.65893555 C0.45678818 10.49234909 0.34741425 9.32576263 0.23472595 8.12382507 C0.03173703 5.42236889 0 2.7090718 0 0 Z " fill="#FEFEFE" transform="translate(222,275)"/>
<path d="M0 0 C76.23 0 152.46 0 231 0 C229.91311723 29.3458349 229.91311723 29.3458349 228.46875 40.16796875 C227.98664395 44.10918567 227.70865717 48.0374413 227.5 52 C227.18040467 57.96505472 226.56172684 63.85152214 225.80297852 69.77661133 C224.7660058 78.28247356 224.25312281 86.83146808 223.69750977 95.37988281 C223.62072998 96.53713867 223.5439502 97.69439453 223.46484375 98.88671875 C223.399021 99.92014404 223.33319824 100.95356934 223.26538086 102.01831055 C222.99548938 105.05067914 222.51435036 108.00065575 222 111 C221.82815713 113.43580452 221.68456485 115.87369419 221.5625 118.3125 C221.21996482 124.5080427 220.59199383 130.61675717 219.80322266 136.77392578 C218.76646097 145.28073749 218.25318283 153.83054458 217.69750977 162.37988281 C217.62072998 163.53713867 217.5439502 164.69439453 217.46484375 165.88671875 C217.399021 166.92014404 217.33319824 167.95356934 217.26538086 169.01831055 C216.99548938 172.05067914 216.51435036 175.00065575 216 178 C215.82815713 180.43580452 215.68456485 182.87369419 215.5625 185.3125 C215.21996482 191.5080427 214.59199383 197.61675717 213.80322266 203.77392578 C212.76646097 212.28073749 212.25318283 220.83054458 211.69750977 229.37988281 C211.62072998 230.53713867 211.5439502 231.69439453 211.46484375 232.88671875 C211.399021 233.92014404 211.33319824 234.95356934 211.26538086 236.01831055 C210.99548938 239.05067914 210.51435036 242.00065575 210 245 C209.82815713 247.43580452 209.68456485 249.87369419 209.5625 252.3125 C209.21996482 258.5080427 208.59199383 264.61675717 207.80322266 270.77392578 C206.76646097 279.28073749 206.25318283 287.83054458 205.69750977 296.37988281 C205.62072998 297.53713867 205.5439502 298.69439453 205.46484375 299.88671875 C205.399021 300.92014404 205.33319824 301.95356934 205.26538086 303.01831055 C204.99548938 306.05067914 204.51435036 309.00065575 204 312 C203.82815713 314.43580452 203.68456485 316.87369419 203.5625 319.3125 C203.21996482 325.5080427 202.59199383 331.61675717 201.80322266 337.77392578 C200.76646097 346.28073749 200.25318283 354.83054458 199.69750977 363.37988281 C199.62072998 364.53713867 199.5439502 365.69439453 199.46484375 366.88671875 C199.399021 367.92014404 199.33319824 368.95356934 199.26538086 370.01831055 C198.99548938 373.05067914 198.51435036 376.00065575 198 379 C197.82815713 381.43580452 197.68456485 383.87369419 197.5625 386.3125 C197.21996482 392.5080427 196.59199383 398.61675717 195.80322266 404.77392578 C194.76646097 413.28073749 194.25318283 421.83054458 193.69750977 430.37988281 C193.62072998 431.53713867 193.5439502 432.69439453 193.46484375 433.88671875 C193.399021 434.92014404 193.33319824 435.95356934 193.26538086 437.01831055 C192.99548938 440.05067914 192.51435036 443.00065575 192 446 C191.82815713 448.43580452 191.68456485 450.87369419 191.5625 453.3125 C191.20370435 459.83011412 190.5441873 466.26949536 189.73510742 472.74511719 C188.90654939 479.48311696 188.4081287 486.22291548 188 493 C181.23910514 495.6731032 174.36837195 497.71221687 167.375 499.6875 C166.14571777 500.03707764 164.91643555 500.38665527 163.64990234 500.74682617 C153.77067378 503.54539752 143.84910544 506.17425377 133.91943359 508.7878418 C123.5660217 511.53475994 113.28112709 514.49499413 103 517.5 C90.44941263 521.16815967 77.8783288 524.6823492 65.23046875 528.00292969 C53.11668557 531.19816893 41.07715505 534.64190434 29.03840637 538.10743713 C27.67106005 538.50098634 26.30353982 538.89393186 24.93583679 539.28623962 C21.63029051 540.23566565 18.32945439 541.19774705 15.03515625 542.18554688 C13.79636719 542.55228516 12.55757813 542.91902344 11.28125 543.296875 C10.18876953 543.62526367 9.09628906 543.95365234 7.97070312 544.29199219 C5 545 5 545 0 545 C-0.33 520.91 -0.66 496.82 -1 472 C14.3743328 467.60733349 29.62643534 463.27226403 45.08984375 459.296875 C49.93916731 458.03493525 54.70644512 456.57121079 59.48046875 455.05078125 C64.22567749 453.63406521 69.01586966 452.41691521 73.8125 451.1875 C82.92908689 448.84868975 91.96114178 446.29110301 100.98388672 443.61499023 C109.02904692 441.24455298 117.11915957 439.08973461 125.25195312 437.04101562 C130.29616828 435.75883712 135.21053267 434.32151756 140.10961914 432.55957031 C142 432 142 432 145 432 C145.06151245 430.68781494 145.06151245 430.68781494 145.12426758 429.34912109 C145.87200885 415.13061423 147.19747285 400.9648705 148.49060059 386.78775024 C148.82714759 383.09110581 149.16052775 379.39417581 149.49414062 375.69726562 C149.98127626 370.30156932 150.4692302 364.90594833 150.95828438 359.51042557 C152.31796774 344.50805891 153.65820938 329.50398064 155 314.5 C158 281 161 247.5 164 214 C78.86 214 -6.28 214 -94 214 C-100 150 -100 150 -100 141 C-10.57 141 78.86 141 171 141 C171.66 131.1 172.32 121.2 173 111 C174.32 97.47 175.64 83.94 177 70 C118.59 70 60.18 70 0 70 C0 46.9 0 23.8 0 0 Z " fill="#F16529" transform="translate(400,205)"/>
<path d="M0 0 C117.15 0 234.3 0 355 0 C355 7.00309933 354.89463853 13.61123731 354.16015625 20.515625 C354.07374374 21.37452332 353.98733124 22.23342163 353.89830017 23.11834717 C353.6248493 25.82945191 353.34420191 28.53974129 353.0625 31.25 C352.69584811 34.81737163 352.33283382 38.38509406 351.97265625 41.953125 C351.88529205 42.8128894 351.79792786 43.67265381 351.70791626 44.55847168 C351.06106655 51.0519641 350.59596318 57.54189115 350.24389648 64.05761719 C350 67 350 67 349 71 C259.57 71 170.14 71 78 71 C79.65 87.83 81.3 104.66 83 122 C84 133 84 133 84 144 C115.02 144 146.04 144 178 144 C178 167.43 178 190.86 178 215 C125.53 215 73.06 215 19 215 C8.53374088 102.55843248 8.53374088 102.55843248 4.89013672 59.96020508 C4.73058502 58.09497444 4.73058502 58.09497444 4.56781006 56.19206238 C4.36219915 53.78650866 4.15698407 51.38092107 3.95220947 48.97529602 C3.38212758 42.31521019 2.78954034 35.65759531 2.17529297 29.00146484 C2.10564677 28.24490317 2.03600058 27.4883415 1.96424389 26.70885372 C1.62471554 23.02376326 1.28261113 19.33894248 0.93617249 15.65449524 C0.81275939 14.32264908 0.68941888 12.99079619 0.56616211 11.65893555 C0.45678818 10.49234909 0.34741425 9.32576263 0.23472595 8.12382507 C0.03173703 5.42236889 0 2.7090718 0 0 Z " fill="#EBE9E9" transform="translate(222,275)"/>
<path d="M0 0 C23.76 0 47.52 0 72 0 C72.639375 6.991875 73.27875 13.98375 73.9375 21.1875 C74.13722412 23.36625732 74.33694824 25.54501465 74.54272461 27.78979492 C75.43166527 37.52185975 76.3018018 47.25203415 77 57 C77.73822998 57.18062988 78.47645996 57.36125977 79.23706055 57.54736328 C92.39833347 60.77723617 105.51519801 64.0587761 118.52368164 67.86303711 C125.30633442 69.83510053 132.1297031 71.59242045 138.9921875 73.26416016 C145.03275325 74.73706171 150.99327111 76.36180121 157 78 C156.67 102.42 156.34 126.84 156 152 C147.00373923 150.8754674 147.00373923 150.8754674 143.2578125 149.765625 C142.42918701 149.52400635 141.60056152 149.2823877 140.74682617 149.03344727 C139.88162354 148.77490967 139.0164209 148.51637207 138.125 148.25 C136.24888222 147.70119248 134.37257701 147.15302531 132.49609375 146.60546875 C131.56651855 146.3326709 130.63694336 146.05987305 129.67919922 145.77880859 C125.85901434 144.66833021 122.02427171 143.61391669 118.1875 142.5625 C112.22727474 140.92251878 106.29120687 139.21087907 100.36206055 137.46191406 C90.26201636 134.48308428 80.13602341 131.68132771 69.93823242 129.05664062 C63.90363395 127.50255054 57.90153011 125.87077125 51.91796875 124.12890625 C48.63534014 123.17576934 45.34388687 122.25610166 42.05078125 121.33984375 C40.96458496 121.03747803 39.87838867 120.7351123 38.75927734 120.42358398 C36.61281723 119.82678415 34.46602943 119.23116107 32.31884766 118.63696289 C26.8921752 117.12572128 21.49168401 115.55243427 16.10961914 113.88867188 C14.95941788 113.53349487 13.80921661 113.17831787 12.62416077 112.81237793 C11.32520119 112.41025085 11.32520119 112.41025085 10 112 C8.84273829 99.31662042 7.68647202 86.63315052 6.53144932 73.94956684 C5.9949999 68.05902586 5.45821763 62.16851561 4.9206543 56.27807617 C4.40113923 50.58526459 3.88252514 44.89237157 3.3645153 39.19942284 C3.16749581 37.03588166 2.97016081 34.87236918 2.77249336 32.7088871 C2.49403939 29.66057551 2.21674449 26.61216042 1.93969727 23.5637207 C1.85913589 22.68473618 1.77857452 21.80575165 1.6955719 20.90013123 C1.06455474 13.93644145 0.53644303 6.97375937 0 0 Z " fill="#EAEAE9" transform="translate(244,525)"/>
<path d="M0 0 C58.41 0 116.82 0 177 0 C177 6.61986577 176.85075522 12.88384633 176.16015625 19.41796875 C176.07374374 20.27828201 175.98733124 21.13859528 175.89830017 22.02497864 C175.62437479 24.74631787 175.34393844 27.46692839 175.0625 30.1875 C174.69593571 33.76399605 174.33277596 37.34081814 173.97265625 40.91796875 C173.88529205 41.78082489 173.79792786 42.64368103 173.70791626 43.53268433 C173.06257861 50.03554732 172.59662995 56.53492633 172.24389648 63.05981445 C172 66 172 66 171 70 C114.57 70 58.14 70 0 70 C0 46.9 0 23.8 0 0 Z " fill="#FEFEFE" transform="translate(400,276)"/>
<path d="M0 0 C12.87 0 25.74 0 39 0 C47.4389654 9.18159435 47.4389654 9.18159435 49.97705078 16.37744141 C51.65412604 20.67699806 54.20544867 24.35991891 56.75 28.1875 C57.5826186 29.51150768 58.41123076 30.8380501 59.234375 32.16796875 C60.10835938 33.56982422 60.10835938 33.56982422 61 35 C63.99779605 31.41378155 66.45737701 27.74126458 68.8203125 23.7109375 C69.16504608 23.12583405 69.50977966 22.54073059 69.86495972 21.93789673 C70.95532385 20.08573367 72.0403606 18.23052019 73.125 16.375 C74.21784028 14.51298127 75.31177939 12.65161514 76.40646362 10.79067993 C77.39549432 9.10818593 78.38166156 7.42400965 79.36767578 5.73974609 C80.52656389 3.79463057 81.74406075 1.88390888 83 0 C96.2 0 109.4 0 123 0 C123 35.64 123 71.28 123 108 C110.79 108 98.58 108 86 108 C85.67 91.5 85.34 75 85 58 C81.37 63.61 77.74 69.22 74 75 C71.82110242 78.33988176 69.63892742 81.6752724 67.4375 85 C66.93154297 85.7734375 66.42558594 86.546875 65.90429688 87.34375 C65.41896484 88.0759375 64.93363281 88.808125 64.43359375 89.5625 C64.01134521 90.20316406 63.58909668 90.84382813 63.15405273 91.50390625 C62 93 62 93 60 94 C59.42894531 93.07703125 58.85789062 92.1540625 58.26953125 91.203125 C51.3248857 80.02986379 44.17413173 69.03712573 37 58 C36.67 74.5 36.34 91 36 108 C24.12 108 12.24 108 0 108 C0 72.36 0 36.72 0 0 Z " fill="#000000" transform="translate(405,0)"/>
<path d="M0 0 C12.21 0 24.42 0 37 0 C37 11.55 37 23.1 37 35 C47.56 35 58.12 35 69 35 C69 23.45 69 11.9 69 0 C81.21 0 93.42 0 106 0 C106 35.64 106 71.28 106 108 C93.79 108 81.58 108 69 108 C69 96.12 69 84.24 69 72 C58.44 72 47.88 72 37 72 C37 83.88 37 95.76 37 108 C24.79 108 12.58 108 0 108 C0 72.36 0 36.72 0 0 Z " fill="#000000" transform="translate(169,0)"/>
<path d="M0 0 C28.71 0 57.42 0 87 0 C84.6983617 31.07211707 84.6983617 31.07211707 83.74609375 41.5703125 C83.64031509 42.75374237 83.53453644 43.93717224 83.42555237 45.15646362 C83.20728566 47.59381731 82.98805697 50.03108507 82.76782227 52.46826172 C82.43202026 56.18566195 82.09957995 59.90335236 81.76757812 63.62109375 C81.55227477 66.02085052 81.33678708 68.42059075 81.12109375 70.8203125 C81.02316025 71.9140921 80.92522675 73.0078717 80.82432556 74.13479614 C80.28424123 80.09900357 79.68414358 86.05055381 79 92 C73.32969753 94.24355183 67.74162445 95.91322663 61.8125 97.3125 C54.65668282 99.04805267 47.56860386 100.93821377 40.5 103 C32.56709798 105.31141183 24.60248649 107.41276188 16.5703125 109.3515625 C13.20916752 110.16808025 9.95841999 111.01430078 6.68359375 112.140625 C4 113 4 113 0 113 C0 75.71 0 38.42 0 0 Z " fill="#F16529" transform="translate(400,490)"/>
<path d="M0 0 C33 0 66 0 100 0 C100 23.76 100 47.52 100 72 C68.98 72 37.96 72 6 72 C5.01 61.605 4.02 51.21 3 40.5 C2.68675781 37.23158203 2.37351562 33.96316406 2.05078125 30.59570312 C1.80439077 27.99091347 1.55827834 25.38609749 1.3125 22.78125 C1.24796631 22.11379761 1.18343262 21.44634521 1.11694336 20.75866699 C0.92469176 18.76718341 0.73766974 16.77519716 0.55078125 14.78320312 C0.44419189 13.66401489 0.33760254 12.54482666 0.2277832 11.39172363 C-0.02671167 7.60225953 0 3.79800024 0 0 Z " fill="#E44D26" transform="translate(300,347)"/>
<path d="M0 0 C33 0 66 0 100 0 C100 11.88 100 23.76 100 36 C89.44 36 78.88 36 68 36 C68 59.76 68 83.52 68 108 C55.79 108 43.58 108 31 108 C31 84.24 31 60.48 31 36 C20.77 36 10.54 36 0 36 C0 24.12 0 12.24 0 0 Z " fill="#000000" transform="translate(290,0)"/>
<path d="M0 0 C12.21 0 24.42 0 37 0 C37 23.76 37 47.52 37 72 C53.83 72 70.66 72 88 72 C88 83.88 88 95.76 88 108 C58.96 108 29.92 108 0 108 C0 72.36 0 36.72 0 0 Z " fill="#000000" transform="translate(544,0)"/>
</svg>
