<?xml version="1.0" encoding="UTF-8"?>
<svg version="1.1" xmlns="http://www.w3.org/2000/svg" width="500" height="500">
<path d="M0 0 C0.99 0.66 1.98 1.32 3 2 C3 2.66 3 3.32 3 4 C3.99 4.33 4.98 4.66 6 5 C7.875 7.046875 7.875 7.046875 10 9.75 C11.18335938 11.23306641 11.18335938 11.23306641 12.390625 12.74609375 C12.81150391 13.27444824 13.23238281 13.80280273 13.66601562 14.34716797 C15.97741146 17.2110314 18.36496921 20.00992635 20.75 22.8125 C22.50178859 24.873502 24.25148019 26.93621677 26 29 C26.47501953 29.54446777 26.95003906 30.08893555 27.43945312 30.64990234 C31 34.78259054 31 34.78259054 31 37 C31.66 37 32.32 37 33 37 C34.9383786 39.23341339 36.76186519 41.47236642 38.5625 43.8125 C39.06974609 44.45509766 39.57699219 45.09769531 40.09960938 45.75976562 C42.27052883 48.54929594 43.86992232 50.60976696 45 54 C45.99 54.33 46.98 54.66 48 55 C49.81320497 57.13249309 51.51077627 59.26484911 53.1875 61.5 C56.3972096 65.69258718 59.61335408 69.7942339 63.1875 73.6875 C66.83882568 77.69049024 69.95449687 81.97447549 73.04296875 86.421875 C75.15890328 89.20933366 77.52121063 91.5325121 80 94 C81.68243977 96.04354879 83.32335003 98.09204868 84.9375 100.1875 C85.90361067 101.43231896 86.86975836 102.67710919 87.8359375 103.921875 C88.34608398 104.58123047 88.85623047 105.24058594 89.38183594 105.91992188 C91.06761355 108.08691421 92.770355 110.23968937 94.4765625 112.390625 C108.42466189 130.03064411 121.77542567 148.49318137 129 170 C129.24347168 170.69963867 129.48694336 171.39927734 129.73779297 172.12011719 C141.13099503 204.99623395 140.54487147 237.24949659 129 270 C128.57460938 271.23105469 128.14921875 272.46210938 127.7109375 273.73046875 C125.18066438 280.6928009 122.02462225 286.79619205 118 293 C117.43023437 293.9178125 116.86046875 294.835625 116.2734375 295.78125 C108.55330322 308.16067238 108.55330322 308.16067238 105 312 C104.34 312 103.68 312 103 312 C102.72414063 312.59167969 102.44828125 313.18335938 102.1640625 313.79296875 C98.76428828 320.2388494 92.79975737 325.70243204 87 330 C86.34 330 85.68 330 85 330 C85 330.66 85 331.32 85 332 C83.68 332.33 82.36 332.66 81 333 C81 333.66 81 334.32 81 335 C79.00864829 336.47893917 77.03606007 337.81274147 74.9375 339.125 C74.3077124 339.52243408 73.6779248 339.91986816 73.02905273 340.3293457 C38.78455764 361.65011147 -0.08251528 369.87770007 -40 361 C-70.94710586 353.72973237 -101.85952704 335.95465494 -121 310 C-121 309.34 -121 308.68 -121 308 C-121.66 308 -122.32 308 -123 308 C-123 307.01 -123 306.02 -123 305 C-123.99 304.67 -124.98 304.34 -126 304 C-127.39453125 302.1015625 -127.39453125 302.1015625 -128.8125 299.625 C-129.33585937 298.71234375 -129.85921875 297.7996875 -130.3984375 296.859375 C-130.92695313 295.91578125 -131.45546875 294.9721875 -132 294 C-132.73089844 292.73929687 -132.73089844 292.73929687 -133.4765625 291.453125 C-140.32068672 279.37525873 -145.65441004 267.03074506 -148.4921875 253.41577148 C-148.89077362 251.51961298 -149.31878923 249.62963765 -149.7578125 247.74243164 C-151.85092221 238.27297905 -152.55898679 229.24763418 -152.5 219.5625 C-152.49923462 218.82964783 -152.49846924 218.09679565 -152.49768066 217.34173584 C-152.44700791 203.79118134 -150.69587917 191.06992285 -147 178 C-146.65453125 176.76378906 -146.3090625 175.52757812 -145.953125 174.25390625 C-144.16042018 168.48639279 -141.82400668 162.97266062 -139.18359375 157.54296875 C-137.96641342 155.07940193 -137.96641342 155.07940193 -137.28515625 152.67578125 C-136.45731216 150.25489663 -135.72659033 148.90403677 -134 147 C-124.92566635 142.99578562 -115.58054767 142.41039148 -105.82128906 142.58837891 C-103.7371359 142.62522744 -101.65476032 142.62939395 -99.5703125 142.62890625 C-92.18557373 142.66891949 -85.1679422 143.13839158 -78 145 C-76.74684977 142.49369953 -76.56430442 140.31545283 -76.203125 137.53125 C-74.37441984 123.99805285 -72.24493184 110.98955282 -68 98 C-67.77586426 97.29230469 -67.55172852 96.58460938 -67.32080078 95.85546875 C-63.86306195 85.02105773 -59.36303988 75.01458469 -54 65 C-53.6076416 64.25540527 -53.2152832 63.51081055 -52.81103516 62.74365234 C-47.57894036 52.84279119 -42.10084543 43.69344652 -35 35 C-33.80697266 33.50339844 -33.80697266 33.50339844 -32.58984375 31.9765625 C-27.17249473 25.29762481 -21.30457936 19.10368117 -15.25 13 C-14.18652344 11.92262573 -14.18652344 11.92262573 -13.1015625 10.82348633 C-8.98155686 6.72807342 -4.82711637 3.23492616 0 0 Z " fill="#DC2C00" transform="translate(255,67)"/>
<path d="M0 0 C1.47783987 0.02013317 2.9557068 0.03837168 4.43359375 0.0546875 C7.99797344 0.09805785 11.56130293 0.16669113 15.125 0.25 C15.125 0.91 15.125 1.57 15.125 2.25 C15.92421875 2.34796875 16.7234375 2.4459375 17.546875 2.546875 C34.31985214 4.83051978 52.33833665 10.7747893 65.125 22.25 C69.22853279 25.88535575 69.22853279 25.88535575 74.125 28.25 C75.7734375 30.140625 75.7734375 30.140625 77.5 32.5 C79.41163372 35.10121848 81.28581801 37.40953965 83.58203125 39.6875 C99.17875921 55.4040185 108.661055 80.28993663 109.125 102.25 C109.17527344 103.43335938 109.22554687 104.61671875 109.27734375 105.8359375 C109.82592352 128.17410584 103.73783972 148.719863 93.125 168.25 C93.69605469 168.4975 94.26710937 168.745 94.85546875 169 C97.48023969 170.44565697 99.28356226 172.16674416 101.4375 174.25 C108.66657718 180.89730346 117.17807002 187.13621059 126.125 191.25 C126.125 191.91 126.125 192.57 126.125 193.25 C126.95128906 193.49878906 127.77757812 193.74757813 128.62890625 194.00390625 C132.63179586 195.4306345 136.29170326 197.24323867 140.0625 199.1875 C145.01992899 201.72989222 149.97937516 204.1099031 155.125 206.25 C154.795 206.91 154.465 207.57 154.125 208.25 C153.073125 208.476875 152.02125 208.70375 150.9375 208.9375 C146.73949365 209.86210531 143.39275678 211.63784031 139.625 213.6875 C132.03096374 217.72348405 124.6208655 219.11137885 116.125 220.25 C114.89007813 220.43304688 113.65515625 220.61609375 112.3828125 220.8046875 C75.11839757 225.32623555 36.97063452 214.87388776 7.38330078 191.89746094 C-1.74681967 184.61716654 -10.92427885 176.67524092 -17.875 167.25 C-17.875 166.59 -17.875 165.93 -17.875 165.25 C-18.535 165.25 -19.195 165.25 -19.875 165.25 C-19.875 164.26 -19.875 163.27 -19.875 162.25 C-20.865 161.92 -21.855 161.59 -22.875 161.25 C-24.26953125 159.3515625 -24.26953125 159.3515625 -25.6875 156.875 C-26.21085937 155.96234375 -26.73421875 155.0496875 -27.2734375 154.109375 C-27.80195312 153.16578125 -28.33046875 152.2221875 -28.875 151.25 C-29.36226562 150.40953125 -29.84953125 149.5690625 -30.3515625 148.703125 C-37.19568672 136.62525873 -42.52941004 124.28074506 -45.3671875 110.66577148 C-45.76577362 108.76961298 -46.19378923 106.87963765 -46.6328125 104.99243164 C-48.72592221 95.52297905 -49.43398679 86.49763418 -49.375 76.8125 C-49.37423462 76.07964783 -49.37346924 75.34679565 -49.37268066 74.59173584 C-49.32200791 61.04118134 -47.57087917 48.31992285 -43.875 35.25 C-43.35679688 33.39568359 -43.35679688 33.39568359 -42.828125 31.50390625 C-41.03542018 25.73639279 -38.69900668 20.22266062 -36.05859375 14.79296875 C-34.84141342 12.32940193 -34.84141342 12.32940193 -34.16015625 9.92578125 C-33.33289616 7.50660443 -32.59849995 6.15401746 -30.875 4.25 C-20.8524538 -0.22455986 -10.72518264 -0.25855569 0 0 Z " fill="#FCC200" transform="translate(151.875,209.75)"/>
<path d="M0 0 C6.32949147 0.53757325 11.57011831 2.62060818 17.375 5.125 C18.26960938 5.49109375 19.16421875 5.8571875 20.0859375 6.234375 C27.27172767 9.30504696 32.8658236 13.47265433 38.77636719 18.515625 C41.21213208 20.58684353 42.92566402 21.97522134 46 23 C47.6484375 24.890625 47.6484375 24.890625 49.375 27.25 C51.28663372 29.85121848 53.16081801 32.15953965 55.45703125 34.4375 C71.05375921 50.1540185 80.536055 75.03993663 81 97 C81.05027344 98.18335938 81.10054688 99.36671875 81.15234375 100.5859375 C81.70092352 122.92410584 75.61283972 143.469863 65 163 C65.57105469 163.2475 66.14210938 163.495 66.73046875 163.75 C69.35523969 165.19565697 71.15856226 166.91674416 73.3125 169 C80.54157718 175.64730346 89.05307002 181.88621059 98 186 C98 186.66 98 187.32 98 188 C98.82628906 188.24878906 99.65257812 188.49757813 100.50390625 188.75390625 C104.50679586 190.1806345 108.16670326 191.99323867 111.9375 193.9375 C116.89492899 196.47989222 121.85437516 198.8599031 127 201 C126.67 201.66 126.34 202.32 126 203 C124.948125 203.226875 123.89625 203.45375 122.8125 203.6875 C118.61449365 204.61210531 115.26775678 206.38784031 111.5 208.4375 C103.90596374 212.47348405 96.4958655 213.86137885 88 215 C86.76507813 215.18304688 85.53015625 215.36609375 84.2578125 215.5546875 C52.76162634 219.37633663 16.06113712 212.94603302 -10 194 C-10 193.67 -10 193.34 -10 193 C-8.02 193 -6.04 193 -4 193 C-3.67 194.32 -3.34 195.64 -3 197 C-1.0509375 197.185625 -1.0509375 197.185625 0.9375 197.375 C3.15234375 197.5859375 3.15234375 197.5859375 5 198 C5.33 198.66 5.66 199.32 6 200 C11.49532523 201.80019275 15.2525163 202.19287398 21 201 C21.969375 200.814375 22.93875 200.62875 23.9375 200.4375 C24.9584375 200.2209375 24.9584375 200.2209375 26 200 C26 199.34 26 198.68 26 198 C27.55898938 196.91142134 29.17600644 195.90566332 30.8125 194.9375 C42.83745987 187.47800109 52.23849009 178.76427473 59.73828125 166.78515625 C61 165 61 165 63 164 C62.4987676 159.75426673 61.35632655 157.896124 58.25 155 C57.52683594 154.31292969 56.80367188 153.62585938 56.05859375 152.91796875 C55.37925781 152.28503906 54.69992188 151.65210938 54 151 C52.33333333 149.33333333 50.66666667 147.66666667 49 146 C48.0925 145.13375 47.185 144.2675 46.25 143.375 C44 141 44 141 43 138 C41.81904625 136.85278779 40.63757261 135.70610459 39.453125 134.5625 C34.35081752 129.07614788 30.88012959 122.14602931 27.39453125 115.578125 C25.20227775 111.52521936 22.8217913 107.73177607 20.125 104 C14.45961521 95.52996927 11.77345361 85.59192183 8.90234375 75.90625 C8.18255769 73.58797801 7.3813296 71.41748082 6.4375 69.1875 C4.37638557 63.93389855 3.66231197 58.28448515 2.69140625 52.75 C2.19865928 50.07747407 1.65511271 47.58881848 0.875 45 C-1.54212755 35.79477257 -1.08095909 25.46145485 -1.125 16 C-1.12967285 15.31881104 -1.1343457 14.63762207 -1.13916016 13.93579102 C-1.12413295 9.20511085 -0.65730171 4.67414547 0 0 Z " fill="#FE8F00" transform="translate(180,215)"/>
<path d="M0 0 C0.99 0.495 0.99 0.495 2 1 C0.68 3.97 -0.64 6.94 -2 10 C-0.68 10.66 0.64 11.32 2 12 C3.46911429 13.2984172 4.90317386 14.63692118 6.3125 16 C13.54157718 22.64730346 22.05307002 28.88621059 31 33 C31 33.66 31 34.32 31 35 C31.82628906 35.24878906 32.65257812 35.49757813 33.50390625 35.75390625 C37.50679586 37.1806345 41.16670326 38.99323867 44.9375 40.9375 C49.89492899 43.47989222 54.85437516 45.8599031 60 48 C59.67 48.66 59.34 49.32 59 50 C57.948125 50.226875 56.89625 50.45375 55.8125 50.6875 C51.61449365 51.61210531 48.26775678 53.38784031 44.5 55.4375 C36.90596374 59.47348405 29.4958655 60.86137885 21 62 C19.76507813 62.18304688 18.53015625 62.36609375 17.2578125 62.5546875 C-14.23837366 66.37633663 -50.93886288 59.94603302 -77 41 C-77 40.67 -77 40.34 -77 40 C-75.02 40 -73.04 40 -71 40 C-70.67 41.32 -70.34 42.64 -70 44 C-68.0509375 44.185625 -68.0509375 44.185625 -66.0625 44.375 C-63.84765625 44.5859375 -63.84765625 44.5859375 -62 45 C-61.67 45.66 -61.34 46.32 -61 47 C-55.50467477 48.80019275 -51.7474837 49.19287398 -46 48 C-45.030625 47.814375 -44.06125 47.62875 -43.0625 47.4375 C-42.381875 47.293125 -41.70125 47.14875 -41 47 C-41 46.34 -41 45.68 -41 45 C-39.44101062 43.91142134 -37.82399356 42.90566332 -36.1875 41.9375 C-24.16254013 34.47800109 -14.76150991 25.76427473 -7.26171875 13.78515625 C-6 12 -6 12 -4 11 C-3.12606483 8.68858179 -3.12606483 8.68858179 -2.4375 6 C-1.09197652 1.09197652 -1.09197652 1.09197652 0 0 Z " fill="#FB8F02" transform="translate(247,368)"/>
<path d="M0 0 C0.33 0 0.66 0 1 0 C1.1261761 7.57056616 1.1261761 7.57056616 0.50439453 9.68676758 C-0.62781195 14.87924405 -0.18588072 20.38494917 -0.18530273 25.68676758 C-0.18746222 27.89880413 -0.2055558 30.11031903 -0.22460938 32.32226562 C-0.25886794 41.00528861 0.07732909 49.48252346 2 58 C2.33 58.33 2.66 58.66 3 59 C3.18425439 60.57932331 3.32254756 62.16412556 3.4375 63.75 C3.69624394 66.69634223 3.94825284 68.87215408 5.0625 71.625 C6.44723859 75.13300444 6.12727734 78.2453184 6 82 C3.31336549 79.31336549 2.91063629 76.39919682 2.0625 72.8125 C1.90587891 72.18408203 1.74925781 71.55566406 1.58789062 70.90820312 C1.02878231 68.61162676 0.51473991 66.30693963 0 64 C-0.2587793 62.91122559 -0.51755859 61.82245117 -0.78417969 60.70068359 C-2.77926604 51.73940096 -3.47172115 43.31810931 -3.39111328 34.16601562 C-3.37500492 32.00066196 -3.39108519 29.83717349 -3.41015625 27.671875 C-3.42234083 18.10291984 -2.23179769 9.31356122 0 0 Z " fill="#8D7010" transform="translate(106,254)"/>
<path d="M0 0 C12.24233132 12.24233132 12.35227954 42.22700787 12.38037109 58.17407227 C12.27393901 65.26116266 11.33688498 72.04481356 10 79 C9.67 79 9.34 79 9 79 C9.10828125 77.72382813 9.10828125 77.72382813 9.21875 76.421875 C10.79408758 55.85496767 10.30076852 37.58756829 3.8515625 17.796875 C2.85031908 14.50838743 2.31766774 11.41492824 2 8 C1.34 8 0.68 8 0 8 C0 5.36 0 2.72 0 0 Z " fill="#461508" transform="translate(381,232)"/>
<path d="M0 0 C-18.92484959 6.01425305 -40.40252093 6.94433279 -60 4 C-60 3.67 -60 3.34 -60 3 C-59.42668945 2.97494385 -58.85337891 2.9498877 -58.26269531 2.92407227 C-44.24173 2.31386112 -44.24173 2.31386112 -30.25 1.25 C-24.76254545 0.82788811 -19.26233732 0.61347835 -13.76342773 0.39257812 C-12.93270752 0.35583984 -12.1019873 0.31910156 -11.24609375 0.28125 C-10.50029053 0.25095703 -9.7544873 0.22066406 -8.98608398 0.18945312 C-1.64573387 -0.51074499 -1.64573387 -0.51074499 0 0 Z " fill="#8B540B" transform="translate(287,426)"/>
<path d="M0 0 C1.38620204 4.62547531 0.7122007 8.76698548 0.1875 13.5 C0.10435547 14.35464844 0.02121094 15.20929688 -0.06445312 16.08984375 C-0.15275391 16.91613281 -0.24105469 17.74242187 -0.33203125 18.59375 C-0.41171143 19.34333984 -0.4913916 20.09292969 -0.57348633 20.86523438 C-1.03680702 23.18422469 -1.91685935 24.90949287 -3 27 C-3.45275278 29.81496741 -3.45275278 29.81496741 -3.625 32.75 C-3.69976562 33.73484375 -3.77453125 34.7196875 -3.8515625 35.734375 C-3.90054688 36.48203125 -3.94953125 37.2296875 -4 38 C-5.60495567 37.88557539 -7.20898119 37.75805306 -8.8125 37.625 C-9.70582031 37.55539063 -10.59914062 37.48578125 -11.51953125 37.4140625 C-14 37 -14 37 -17 35 C-10.375 34.875 -10.375 34.875 -7 36 C-5.69948694 33.39897389 -5.49870234 31.02916919 -5.09765625 28.14453125 C-4.92943359 26.96439453 -4.76121094 25.78425781 -4.58789062 24.56835938 C-4.24038485 22.0841452 -3.8940122 19.59977222 -3.54882812 17.11523438 C-2.71233791 11.25980288 -1.85772106 5.62314672 0 0 Z " fill="#68270B" transform="translate(184,176)"/>
<path d="M0 0 C0.66 0 1.32 0 2 0 C3.9383786 2.23341339 5.76186519 4.47236642 7.5625 6.8125 C8.32336914 7.77639648 8.32336914 7.77639648 9.09960938 8.75976562 C11.27052883 11.54929594 12.86992232 13.60976696 14 17 C14.99 17.33 15.98 17.66 17 18 C18.62531648 19.79935728 20.18078244 21.66272568 21.6875 23.5625 C22.89986328 25.08037109 22.89986328 25.08037109 24.13671875 26.62890625 C24.75160156 27.41136719 25.36648438 28.19382813 26 29 C25.67 29.66 25.34 30.32 25 31 C23.49405319 29.38050958 21.99539332 27.75424026 20.5 26.125 C19.6646875 25.22007812 18.829375 24.31515625 17.96875 23.3828125 C16 21 16 21 16 19 C15.43667969 18.94585937 14.87335938 18.89171875 14.29296875 18.8359375 C10.92793579 17.60916228 9.51898688 15.40407934 7.3125 12.625 C6.52488281 11.64789063 5.73726563 10.67078125 4.92578125 9.6640625 C3 7 3 7 2 4 C1.34 4 0.68 4 0 4 C0 2.68 0 1.36 0 0 Z " fill="#631F0C" transform="translate(286,104)"/>
<path d="M0 0 C0 3 0 3 -1.94140625 5.1640625 C-3.23884766 6.38222656 -3.23884766 6.38222656 -4.5625 7.625 C-10.52879894 13.42204223 -16.12383865 19.0767286 -19 27 C-19.66 27 -20.32 27 -21 27 C-21.268125 27.78375 -21.53625 28.5675 -21.8125 29.375 C-23 32 -23 32 -26 34 C-26.33 34.99 -26.66 35.98 -27 37 C-27.66 37 -28.32 37 -29 37 C-24.02852908 23.14913574 -10.56576421 10.02082508 0 0 Z " fill="#4F1808" transform="translate(239,81)"/>
<path d="M0 0 C0.66 0 1.32 0 2 0 C1.07456541 10.64249775 -4.18396309 21.13746757 -10 30 C-10.33 30 -10.66 30 -11 30 C-11 28.02 -11 26.04 -11 24 C-10.34 24 -9.68 24 -9 24 C-8.87625 23.4225 -8.7525 22.845 -8.625 22.25 C-7.99351176 19.97664233 -7.11141809 18.0746471 -6 16 C-5.34 16 -4.68 16 -4 16 C-3.96261719 15.26394531 -3.92523438 14.52789062 -3.88671875 13.76953125 C-3.20990485 3.72348963 -3.20990485 3.72348963 0 0 Z " fill="#77240E" transform="translate(384,328)"/>
<path d="M0 0 C0.33 0 0.66 0 1 0 C2.69056593 7.42641464 3.19310579 14.66256071 3.1875 22.25 C3.18814453 23.08885742 3.18878906 23.92771484 3.18945312 24.79199219 C3.14473959 29.94014564 2.7338406 34.90421084 2 40 C1.67 40 1.34 40 1 40 C0.20468835 26.65012592 -0.12803877 13.37293838 0 0 Z " fill="#B52E10" transform="translate(389,264)"/>
<path d="M0 0 C1.45551681 4.46423613 -0.01507373 6.80960011 -2 11 C-2.67276716 12.6642135 -3.34206835 14.32986582 -4 16 C-4.99 16 -5.98 16 -7 16 C-7 17.32 -7 18.64 -7 20 C-7.66 20 -8.32 20 -9 20 C-9 20.66 -9 21.32 -9 22 C-9.66 22 -10.32 22 -11 22 C-11.12375 22.804375 -11.2475 23.60875 -11.375 24.4375 C-11.684375 25.7059375 -11.684375 25.7059375 -12 27 C-12.66 27.33 -13.32 27.66 -14 28 C-12.53302505 21.30576621 -9.33265673 15.93088955 -5.875 10.0625 C-5.31167969 9.09248047 -4.74835938 8.12246094 -4.16796875 7.12304688 C-2.78543664 4.74462299 -1.39600503 2.37053251 0 0 Z " fill="#92270B" transform="translate(209,118)"/>
<path d="M0 0 C0.99 0 1.98 0 3 0 C1.45730076 4.72065967 -0.07794619 9.41664092 -2 14 C-2.66 14 -3.32 14 -4 14 C-4.33 15.65 -4.66 17.3 -5 19 C-5.99 19.33 -6.98 19.66 -8 20 C-8.12375 20.94875 -8.2475 21.8975 -8.375 22.875 C-9 26 -9 26 -11 28 C-10.09352073 19.38844698 -5.94281089 11.587426 -2 4 C-1.33146396 2.66760299 -0.66431408 1.33450704 0 0 Z " fill="#917411" transform="translate(121,214)"/>
<path d="M0 0 C0.33 0 0.66 0 1 0 C1.72786324 7.56977767 -0.70134534 13.24046176 -4 20 C-4.33 20.33 -4.66 20.66 -5 21 C-5.39148761 22.51165654 -5.73972457 24.03469632 -6.0625 25.5625 C-6.23910156 26.38878906 -6.41570312 27.21507812 -6.59765625 28.06640625 C-6.73042969 28.70449219 -6.86320313 29.34257812 -7 30 C-7.66 30 -8.32 30 -9 30 C-8.18609794 19.4192732 -4.04253922 9.71929641 0 0 Z " fill="#71210E" transform="translate(194,146)"/>
<path d="M0 0 C2.475 0.495 2.475 0.495 5 1 C2.18657878 5.65296587 -0.6965464 8.57480224 -5 12 C-5.886875 12.9075 -6.77375 13.815 -7.6875 14.75 C-10 17 -10 17 -13 18 C-13 18.66 -13 19.32 -13 20 C-14.32 20.33 -15.64 20.66 -17 21 C-16.67 20.34 -16.34 19.68 -16 19 C-15.34 19 -14.68 19 -14 19 C-14 17.35 -14 15.7 -14 14 C-13.34 13.67 -12.68 13.34 -12 13 C-12 13.66 -12 14.32 -12 15 C-10.84775972 14.07038578 -9.70340824 13.1309875 -8.5625 12.1875 C-7.92441406 11.66542969 -7.28632813 11.14335937 -6.62890625 10.60546875 C-4.7451725 8.99165589 -4.7451725 8.99165589 -4 6 C-3.01 5.67 -2.02 5.34 -1 5 C-0.67 3.35 -0.34 1.7 0 0 Z " fill="#751F0B" transform="translate(353,379)"/>
<path d="M0 0 C3.0052656 3.0052656 3.79463016 6.6466213 5.125 10.625 C5.40214844 11.40746094 5.67929687 12.18992188 5.96484375 12.99609375 C7.72026454 18.21047176 8.2893631 22.50210115 8 28 C4.07486585 22.11229878 2.75681223 14.9626725 2 8 C1.34 8 0.68 8 0 8 C0 5.36 0 2.72 0 0 Z " fill="#7C230C" transform="translate(381,232)"/>
<path d="M0 0 C3.81397517 1.27132506 4.83673229 2.986462 7.3125 6.125 C8.49585938 7.60806641 8.49585938 7.60806641 9.703125 9.12109375 C10.84007812 10.54615234 10.84007812 10.54615234 12 12 C13.97878085 14.35281869 15.98649429 16.67672418 18 19 C17.67 19.66 17.34 20.32 17 21 C16.566875 20.525625 16.13375 20.05125 15.6875 19.5625 C13.97690387 17.76313043 13.97690387 17.76313043 11 17 C9.24609375 15.00390625 9.24609375 15.00390625 7.4375 12.5625 C5.69368046 10.22615683 4.06251649 8.06251649 2 6 C1.28591666 4.01643517 0.61382258 2.01684563 0 0 Z " fill="#76230A" transform="translate(258,71)"/>
<path d="M0 0 C6.04727256 5.66931803 12.24164001 12.07855594 15 20 C10.23852051 18.16033747 8.23710172 16.3378051 5.94140625 11.765625 C4.94555181 9.75366299 4.94555181 9.75366299 2.8125 7.375 C0.87415748 4.8351029 0.3587373 3.13895134 0 0 Z " fill="#7B220B" transform="translate(350,182)"/>
<path d="M0 0 C0.66 0.33 1.32 0.66 2 1 C-20.65500682 13.59630609 -20.65500682 13.59630609 -26.30078125 12.58984375 C-26.86152344 12.39519531 -27.42226563 12.20054687 -28 12 C-26 11 -24 10 -22 9 C-21.05125 8.484375 -20.1025 7.96875 -19.125 7.4375 C-16.13472598 6.06197395 -13.29562271 5.32363891 -10.09375 4.609375 C-7.05446135 3.72480592 -4.4125354 2.25646916 -1.6640625 0.70703125 C-1.11492187 0.47371094 -0.56578125 0.24039062 0 0 Z " fill="#733D0D" transform="translate(316,412)"/>
<path d="M0 0 C10.07079514 3.02123854 22.01540325 9.02310488 28 18 C24.80647721 16.5204321 22.09066432 14.69669468 19.25 12.625 C14.98756768 9.60368768 10.73243364 7.18420014 6 5 C4 4 2 3 0 2 C0 1.34 0 0.68 0 0 Z " fill="#FD830F" transform="translate(195,220)"/>
<path d="M0 0 C5.58490476 4.44512827 9.79211991 9.24454091 14 15 C13.67 15.66 13.34 16.32 13 17 C10.5 15.625 10.5 15.625 8 14 C8 13.34 8 12.68 8 12 C7.34 12 6.68 12 6 12 C3.09196486 8.18320388 1.31551124 4.60428934 0 0 Z " fill="#7C2210" transform="translate(325,151)"/>
<path d="M0 0 C0.33 0.66 0.66 1.32 1 2 C-1.24567681 3.48610965 -3.49609454 4.96396459 -5.75 6.4375 C-6.38421875 6.85837891 -7.0184375 7.27925781 -7.671875 7.71289062 C-8.6 8.31713867 -8.6 8.31713867 -9.546875 8.93359375 C-10.11245117 9.30540771 -10.67802734 9.67722168 -11.26074219 10.06030273 C-13.15049862 11.08131235 -14.90392138 11.56432082 -17 12 C-16.67 11.01 -16.34 10.02 -16 9 C-14.35 8.67 -12.7 8.34 -11 8 C-11.33 6.68 -11.66 5.36 -12 4 C-11.38511719 3.87882812 -10.77023437 3.75765625 -10.13671875 3.6328125 C-9.32847656 3.46523438 -8.52023437 3.29765625 -7.6875 3.125 C-6.88699219 2.96257812 -6.08648437 2.80015625 -5.26171875 2.6328125 C-2.74698882 2.05521001 -2.74698882 2.05521001 0 0 Z " fill="#88240B" transform="translate(335,400)"/>
<path d="M0 0 C1.98 0 3.96 0 6 0 C6.33 1.32 6.66 2.64 7 4 C8.2375 4.061875 9.475 4.12375 10.75 4.1875 C14.30550124 4.60356929 14.84639125 4.84255104 17.5 7.5625 C17.995 8.366875 18.49 9.17125 19 10 C14.2128572 9.42334609 10.74871176 7.35917004 6.6875 4.9375 C5.71973633 4.37192383 5.71973633 4.37192383 4.73242188 3.79492188 C3.15121848 2.86962507 1.5750854 1.93567319 0 1 C0 0.67 0 0.34 0 0 Z " fill="#82630E" transform="translate(170,408)"/>
<path d="M0 0 C0.61875 0.350625 1.2375 0.70125 1.875 1.0625 C2.57625 1.371875 3.2775 1.68125 4 2 C4.66 1.67 5.32 1.34 6 1 C6 1.66 6 2.32 6 3 C6.804375 3.37125 6.804375 3.37125 7.625 3.75 C10.5966724 5.3140381 13.31168617 6.98376462 16 9 C16 9.99 16 10.98 16 12 C11.66923089 10.55113209 8.68128855 8.351329 5.1875 5.4375 C4.21167969 4.63183594 3.23585937 3.82617188 2.23046875 2.99609375 C1.49441406 2.33738281 0.75835937 1.67867188 0 1 C0 0.67 0 0.34 0 0 Z " fill="#886C0F" transform="translate(154,396)"/>
<path d="M0 0 C2 0.66666667 4 1.33333333 6 2 C6.94921875 4.50390625 6.94921875 4.50390625 7.6875 7.5625 C8.06455078 9.08037109 8.06455078 9.08037109 8.44921875 10.62890625 C8.63097656 11.41136719 8.81273437 12.19382812 9 13 C8.34 13 7.68 13 7 13 C7 12.01 7 11.02 7 10 C6.01 9.67 5.02 9.34 4 9 C2.00603743 6.33916031 0 3.38757675 0 0 Z " fill="#9B7B0F" transform="translate(125,362)"/>
<path d="M0 0 C3.91939465 3.80411834 7.49102731 7.81576108 11 12 C10.67 12.66 10.34 13.32 10 14 C6.17294086 10.95574841 2.74008781 8.11013171 0 4 C0 2.68 0 1.36 0 0 Z " fill="#7E230D" transform="translate(339,168)"/>
<path d="M0 0 C0.66 0 1.32 0 2 0 C1.49202991 4.3177458 0.80317221 8.03302114 -1 12 C-1.66 12 -2.32 12 -3 12 C-3.33 12.66 -3.66 13.32 -4 14 C-3.38029501 4.19156581 -3.38029501 4.19156581 0 0 Z " fill="#8E280C" transform="translate(384,328)"/>
<path d="M0 0 C3.87051275 3.07881696 7.02911382 6.00073014 10 10 C9.67 10.66 9.34 11.32 9 12 C8.236875 11.525625 7.47375 11.05125 6.6875 10.5625 C4.03589452 8.89893903 4.03589452 8.89893903 1 8 C1.020625 7.236875 1.04125 6.47375 1.0625 5.6875 C1.12942841 2.89814214 1.12942841 2.89814214 0 0 Z " fill="#80200A" transform="translate(312,135)"/>
<path d="M0 0 C0.33 0.99 0.66 1.98 1 3 C-0.11878383 4.17262904 -1.24523051 5.33795138 -2.375 6.5 C-3.00148437 7.1496875 -3.62796875 7.799375 -4.2734375 8.46875 C-6 10 -6 10 -8 10 C-8.268125 10.61875 -8.53625 11.2375 -8.8125 11.875 C-10 14 -10 14 -13 16 C-11.43636055 12.34584258 -9.17824958 9.7880312 -6.5 6.875 C-5.7059375 6.00617188 -4.911875 5.13734375 -4.09375 4.2421875 C-2.75256247 2.80591578 -1.38954317 1.38954317 0 0 Z " fill="#C3320F" transform="translate(237,85)"/>
<path d="M0 0 C5.33333333 4 10.66666667 8 16 12 C14.68 12.33 13.36 12.66 12 13 C12 12.34 12 11.68 12 11 C11.2575 10.731875 10.515 10.46375 9.75 10.1875 C7.10938051 9.04723249 5.14447156 7.90619694 3 6 C3 5.34 3 4.68 3 4 C2.34 4 1.68 4 1 4 C0.67 2.68 0.34 1.36 0 0 Z " fill="#FD820E" transform="translate(249,381)"/>
<path d="M0 0 C3.50778211 4.20933853 7 9.4255442 7 15 C4 14 4 14 2.83203125 11.85546875 C2.49558594 10.97503906 2.15914063 10.09460938 1.8125 9.1875 C1.46832031 8.31480469 1.12414062 7.44210938 0.76953125 6.54296875 C0 4 0 4 0 0 Z " fill="#77240C" transform="translate(374,217)"/>
<path d="M0 0 C0.99 0.66 1.98 1.32 3 2 C2.67 2.66 2.34 3.32 2 4 C0.89591797 4.16822266 0.89591797 4.16822266 -0.23046875 4.33984375 C-3.89307794 5.21287754 -5.59632313 6.9911859 -8.3125 9.5625 C-9.19550781 10.38878906 -10.07851562 11.21507813 -10.98828125 12.06640625 C-11.65214844 12.70449219 -12.31601563 13.34257813 -13 14 C-13.66 13.67 -14.32 13.34 -15 13 C-10.30165217 8.08198915 -5.66492467 3.77661644 0 0 Z " fill="#521708" transform="translate(255,67)"/>
<path d="M0 0 C0.33 0.66 0.66 1.32 1 2 C0.67 2.66 0.34 3.32 0 4 C-0.66 4 -1.32 4 -2 4 C-2.4021875 5.175625 -2.4021875 5.175625 -2.8125 6.375 C-4 9 -4 9 -7 11 C-7.33 11.99 -7.66 12.98 -8 14 C-8.66 14 -9.32 14 -10 14 C-8.09041888 8.27125665 -5.03687382 3.35791588 0 0 Z " fill="#721F0D" transform="translate(220,104)"/>
<path d="M0 0 C0.33 1.32 0.66 2.64 1 4 C1.66 4 2.32 4 3 4 C5.24828052 8.49656104 5.16682272 12.07872966 5 17 C2.71636622 14.71636622 2.2847151 13.25204532 1.375 10.1875 C1.11460938 9.33542969 0.85421875 8.48335938 0.5859375 7.60546875 C-0.0044509 4.98020834 -0.10588413 2.68079363 0 0 Z " fill="#7D610F" transform="translate(107,319)"/>
<path d="M0 0 C3.87051275 3.07881696 7.02911382 6.00073014 10 10 C9.67 10.66 9.34 11.32 9 12 C7.48826565 10.76421715 5.9909084 9.51082994 4.5 8.25 C3.6646875 7.55390625 2.829375 6.8578125 1.96875 6.140625 C0 4 0 4 0 0 Z " fill="#7F200F" transform="translate(276,92)"/>
<path d="M0 0 C0.66 0.33 1.32 0.66 2 1 C1.071875 1.886875 0.14375 2.77375 -0.8125 3.6875 C-3.38358652 6.24643008 -5.29232337 8.77438858 -7 12 C-8.32 11.67 -9.64 11.34 -11 11 C-7.33333333 7.33333333 -3.66666667 3.66666667 0 0 Z " fill="#C1320F" transform="translate(249,73)"/>
<path d="M0 0 C-5.75 2 -5.75 2 -8 2 C-8 3.32 -8 4.64 -8 6 C-9.65 6.33 -11.3 6.66 -13 7 C-11.6000198 2.18756805 -11.6000198 2.18756805 -10 0 C-6.65270969 -1.26635728 -3.28261543 -1.64130771 0 0 Z " fill="#F7C20D" transform="translate(134,214)"/>
<path d="M0 0 C1.65 0.33 3.3 0.66 5 1 C2.48592381 5.28324091 0.87685861 7.64531705 -4 9 C-4 8.01 -4 7.02 -4 6 C-3.01 5.67 -2.02 5.34 -1 5 C-0.67 3.35 -0.34 1.7 0 0 Z " fill="#8D260C" transform="translate(353,379)"/>
<path d="M0 0 C0.33 0 0.66 0 1 0 C1 1.98 1 3.96 1 6 C0.34 6 -0.32 6 -1 6 C-1 6.66 -1 7.32 -1 8 C-1.66 8 -2.32 8 -3 8 C-3.12375 8.804375 -3.2475 9.60875 -3.375 10.4375 C-3.58125 11.283125 -3.7875 12.12875 -4 13 C-4.99 13.495 -4.99 13.495 -6 14 C-4.7023817 8.70139194 -2.84984298 4.65474354 0 0 Z " fill="#681D09" transform="translate(201,132)"/>
<path d="M0 0 C0.33 0 0.66 0 1 0 C1.29341888 5.67276511 1.00559652 8.99067246 -2 14 C-3.34538868 11.30922264 -2.74352138 9.91467608 -2.125 7 C-1.94195312 6.113125 -1.75890625 5.22625 -1.5703125 4.3125 C-1 2 -1 2 0 0 Z " fill="#89250D" transform="translate(194,146)"/>
<path d="M0 0 C2.375 0.1875 2.375 0.1875 5 1 C6.3125 3.5625 6.3125 3.5625 7 6 C7.66 6 8.32 6 9 6 C8.67 6.99 8.34 7.98 8 9 C6.5 7.625 6.5 7.625 5 6 C5 5.34 5 4.68 5 4 C4.360625 3.896875 3.72125 3.79375 3.0625 3.6875 C2.381875 3.460625 1.70125 3.23375 1 3 C0.67 2.01 0.34 1.02 0 0 Z " fill="#BF9917" transform="translate(134,375)"/>
<path d="M0 0 C0.66 0 1.32 0 2 0 C2.042721 1.66611905 2.04063832 3.33382885 2 5 C1.67 5.33 1.34 5.66 1 6 C0.72046781 8.0587768 0.55265649 10.11728432 0.37890625 12.1875 C0.25386719 12.785625 0.12882813 13.38375 0 14 C-0.99 14.495 -0.99 14.495 -2 15 C-1.34 10.05 -0.68 5.1 0 0 Z " fill="#BE3212" transform="translate(185,176)"/>
<path d="M0 0 C5.21979128 -0.1799928 9.07262981 0.02905192 14 2 C14 2.33 14 2.66 14 3 C8.80790596 3.21192221 4.873261 2.5912689 0 1 C0 0.67 0 0.34 0 0 Z " fill="#5E3C07" transform="translate(212,426)"/>
<path d="M0 0 C4.97093824 0.41153737 9.44508386 0.79600832 14 3 C14 3.33 14 3.66 14 4 C8.34605369 4.34615998 4.96993194 3.43425238 0 1 C0 0.67 0 0.34 0 0 Z " fill="#C07A1B" transform="translate(202,422)"/>
<path d="M0 0 C1.65 0 3.3 0 5 0 C5.33 0.99 5.66 1.98 6 3 C5 4 5 4 1.9375 4.0625 C0.4834375 4.0315625 0.4834375 4.0315625 -1 4 C-0.67 2.68 -0.34 1.36 0 0 Z " fill="#F4C008" transform="translate(171,404)"/>
<path d="M0 0 C0.33 0.66 0.66 1.32 1 2 C-0.12029017 3.48273699 -1.24638618 4.96108886 -2.375 6.4375 C-3.31472656 7.67306641 -3.31472656 7.67306641 -4.2734375 8.93359375 C-6 11 -6 11 -8 12 C-7.52584717 7.73262454 -5.00349628 5.85698427 -2 3 C-1.34 2.01 -0.68 1.02 0 0 Z " fill="#FFB909" transform="translate(240,380)"/>
<path d="M0 0 C0.33 0 0.66 0 1 0 C1.22577402 5.4185766 0.46670113 9.77487721 -1 15 C-1.33 15 -1.66 15 -2 15 C-2.21755666 9.5610835 -2.10428384 5.12919186 0 0 Z " fill="#BA3015" transform="translate(389,305)"/>
<path d="M0 0 C1.1549921 0.73581742 2.29874185 1.48930039 3.4375 2.25 C4.07558594 2.66765625 4.71367187 3.0853125 5.37109375 3.515625 C7.29902057 5.27248877 7.61479436 6.46089803 8 9 C4.20620942 7.50958227 2.31656242 5.30937488 0 2 C0 1.34 0 0.68 0 0 Z " fill="#992D0F" transform="translate(293,114)"/>
<path d="M0 0 C3.48331435 3.01887244 4.79157144 5.56909529 6 10 C2.46413986 6.82679218 0.41421969 4.83256305 0 0 Z " fill="#691E0A" transform="translate(368,207)"/>
<path d="M0 0 C0.66 0 1.32 0 2 0 C3.7143618 1.95927063 5.38405168 3.95880212 7 6 C6.67 6.66 6.34 7.32 6 8 C5.566875 7.525625 5.13375 7.05125 4.6875 6.5625 C2.97690387 4.76313043 2.97690387 4.76313043 0 4 C0 2.68 0 1.36 0 0 Z " fill="#5F1B08" transform="translate(286,104)"/>
<path d="M0 0 C0.66 0 1.32 0 2 0 C2.75 1.75 2.75 1.75 3 4 C1.0625 6.25 1.0625 6.25 -1 8 C-0.67 5.36 -0.34 2.72 0 0 Z " fill="#85240C" transform="translate(365,364)"/>
<path d="M0 0 C2.35448165 2.55068845 2.98327924 3.71017358 3.1875 7.25 C3.125625 8.1575 3.06375 9.065 3 10 C-0.00617269 6.99382731 0.40414684 4.17618402 0 0 Z " fill="#D53800" transform="translate(257,288)"/>
<path d="M0 0 C0.99 0.66 1.98 1.32 3 2 C2.67 2.66 2.34 3.32 2 4 C0.34385343 4.38218767 -1.32457024 4.71395102 -3 5 C-3.99 5.495 -3.99 5.495 -5 6 C-3.63016497 2.83884224 -3.0109362 2.0072908 0 0 Z " fill="#5F1E0B" transform="translate(255,67)"/>
</svg>
