<?xml version="1.0" encoding="UTF-8"?>
<svg version="1.1" xmlns="http://www.w3.org/2000/svg" width="1300" height="1300">
<path d="M0 0 C0.66 0 1.32 0 2 0 C2.35602295 0.63687744 2.7120459 1.27375488 3.07885742 1.92993164 C9.52950445 13.46640784 15.98827117 24.99786124 22.5 36.5 C27.02201879 44.48777447 31.51959509 52.48881099 36 60.5 C42.63040428 72.35394284 49.30830048 84.18057699 56 96 C63.28700801 108.8709052 70.54975233 121.75468342 77.76928711 134.66357422 C81.66137612 141.61939576 85.57324817 148.56369385 89.5 155.5 C94.02200788 163.48778034 98.51963524 171.48878861 103 179.5 C107.03616354 186.71668059 111.08072451 193.92835712 115.15209961 201.12524414 C116.24533104 203.05917553 117.33605593 204.99452632 118.42407227 206.93139648 C120.85427251 211.25112188 123.3109991 215.54406746 125.8828125 219.78125 C126.31746826 220.51077881 126.75212402 221.24030762 127.19995117 221.99194336 C127.99570277 223.32332417 128.80722436 224.64547193 129.63793945 225.95532227 C131.34066831 228.83322425 132.07760172 230.50739776 131.55078125 233.8515625 C129.45197224 238.11262059 127.15316555 242.21638807 124.75 246.3125 C123.65781091 248.19861502 122.56670991 250.08536044 121.4765625 251.97265625 C120.90583008 252.9589502 120.33509766 253.94524414 119.74707031 254.96142578 C116.83060514 260.03385808 113.9777925 265.14156698 111.125 270.25 C110.24968628 271.81560669 110.24968628 271.81560669 109.35668945 273.4128418 C108.16633972 275.54229774 106.97631802 277.67193709 105.78662109 279.80175781 C97.85575386 293.99885548 89.90569362 308.18460567 81.89428711 322.33642578 C77.90941754 329.37975964 73.95001133 336.43706584 70 343.5 C64.98940497 352.4593421 59.95170949 361.40281974 54.89453125 370.3359375 C50.90963231 377.37946347 46.95010006 384.43690717 43 391.5 C37.99340079 400.45219726 32.96215592 409.38993888 27.90551758 418.31396484 C25.03779216 423.37927629 22.18616342 428.45295062 19.35546875 433.5390625 C18.43701172 435.18745117 18.43701172 435.18745117 17.5 436.86914062 C16.33737247 438.95761055 15.17701214 441.04734516 14.01953125 443.13867188 C12.96046068 445.04018495 11.87455213 446.92708996 10.75777245 448.79529381 C8.91937894 451.94938651 8.91937894 451.94938651 7.79015541 455.3659153 C6.08619224 459.3557143 4.57958522 462.44217214 1 465 C-6.81936251 467.58563146 -15.65349235 466.73293737 -23.77197266 466.61865234 C-26.33484277 466.62972277 -28.89769393 466.6463841 -31.460495 466.66821289 C-37.69215374 466.70600258 -43.92105721 466.68333031 -50.15253903 466.63174848 C-57.41154504 466.57392104 -64.67003154 466.58216203 -71.92920594 466.59224255 C-84.881632 466.60767782 -97.83302585 466.55858221 -110.78515625 466.47509766 C-123.34897439 466.39413392 -135.91153273 466.36584131 -148.47558594 466.39306641 C-162.1649996 466.42265574 -175.85385056 466.42404074 -189.54323041 466.37551081 C-191.00306722 466.3703632 -192.46290406 466.36522489 -193.92274094 466.36009598 C-194.64096954 466.35752755 -195.35919815 466.35495912 -196.09919126 466.35231286 C-201.15753402 466.33594096 -206.21565382 466.33896035 -211.27400589 466.34891891 C-218.08236735 466.36139801 -224.88882946 466.32495827 -231.69692421 466.25578308 C-234.19703405 466.23747322 -236.69730927 466.23447977 -239.19745064 466.24780655 C-242.6080462 466.26340887 -246.0136353 466.22374687 -249.42373657 466.16976929 C-250.91264182 466.19579131 -250.91264182 466.19579131 -252.43162596 466.22233903 C-256.50206018 466.10710728 -258.99176377 466.03412452 -261.91549659 463.03531957 C-263.46281573 460.74774908 -264.76182464 458.46623594 -266 456 C-266.96208374 454.35717041 -266.96208374 454.35717041 -267.94360352 452.68115234 C-268.77782837 451.149021 -268.77782837 451.149021 -269.62890625 449.5859375 C-269.94009903 449.01769257 -270.25129181 448.44944763 -270.57191467 447.86398315 C-271.23182968 446.65819609 -271.88998565 445.4514448 -272.54644775 444.24377441 C-274.30219551 441.0145148 -276.07192786 437.79292138 -277.83984375 434.5703125 C-278.19425537 433.92348511 -278.54866699 433.27665771 -278.91381836 432.61022949 C-282.10279539 426.79613953 -285.35167662 421.01701818 -288.625 415.25 C-293.10835867 407.34715395 -297.56600701 399.43065963 -302 391.5 C-306.48023727 383.4887178 -310.97799253 375.48777962 -315.5 367.5 C-320.61734803 358.46059691 -325.6993318 349.40185704 -330.76953125 340.3359375 C-334.66158055 333.38030171 -338.57339742 326.43618197 -342.5 319.5 C-349.96932638 306.30362291 -357.36936445 293.068682 -364.77050781 279.83398438 C-366.53409364 276.68075913 -368.29822445 273.52783938 -370.0625 270.375 C-370.63307129 269.35470703 -371.20364258 268.33441406 -371.79150391 267.28320312 C-374.75625953 261.98677761 -377.73472743 256.6986273 -380.734375 251.421875 C-381.33499756 250.36436035 -381.93562012 249.3068457 -382.55444336 248.21728516 C-383.70133522 246.1999914 -384.85048243 244.18397771 -386.00219727 242.16943359 C-386.76874634 240.82099365 -386.76874634 240.82099365 -387.55078125 239.4453125 C-388.00106689 238.65656738 -388.45135254 237.86782227 -388.9152832 237.05517578 C-390 235 -390 235 -391 232 C-304.87 231.67 -218.74 231.34 -130 231 C-123.07 218.625 -123.07 218.625 -116 206 C-109.5 194.5 -109.5 194.5 -106.28125 188.8125 C-102.83661138 182.71813937 -99.41700892 176.6098835 -96 170.5 C-90.98940497 161.5406579 -85.95170949 152.59718026 -80.89453125 143.6640625 C-76.90963231 136.62053653 -72.95010006 129.56309283 -69 122.5 C-63.98940497 113.5406579 -58.95170949 104.59718026 -53.89453125 95.6640625 C-49.90963231 88.62053653 -45.95010006 81.56309283 -42 74.5 C-36.99308621 65.54724024 -31.95948229 56.61010997 -26.90551758 47.68383789 C-22.81098172 40.44723009 -18.74530881 33.19475587 -14.6875 25.9375 C-9.83795968 17.26466788 -4.95978894 8.61031683 0 0 Z " fill="#FFFFFF" transform="translate(774,602)"/>
<path d="M0 0 C1.93463558 -0.05874946 3.87140827 -0.06257773 5.80653572 -0.02323246 C7.41059483 -0.04980737 7.41059483 -0.04980737 9.04705918 -0.07691914 C12.63177855 -0.12384807 16.21239846 -0.09926271 19.79728889 -0.07476139 C22.36647452 -0.09322283 24.93563284 -0.11589434 27.50474739 -0.14246464 C33.75941572 -0.19847279 40.01295948 -0.20003742 46.26780711 -0.18141329 C51.35256832 -0.16702316 56.43699917 -0.17106057 61.5217495 -0.18818188 C62.24577142 -0.19058038 62.96979334 -0.19297888 63.71575532 -0.19545006 C65.18667435 -0.20036429 66.6575933 -0.20530354 68.12851216 -0.21026755 C81.91979234 -0.2542939 95.71043844 -0.23470476 109.50169457 -0.19491155 C122.11270192 -0.16035649 134.72213588 -0.20084525 147.33291601 -0.27755009 C160.28777363 -0.35575536 173.24190128 -0.3859065 186.19698822 -0.36306244 C193.46795371 -0.35100847 200.73773721 -0.35742262 208.00852776 -0.41335201 C214.84673443 -0.46527163 221.68192209 -0.44883704 228.52002907 -0.38654232 C231.02902867 -0.37414909 233.53825035 -0.38390907 236.0470562 -0.41746235 C254.55442062 -0.64582158 254.55442062 -0.64582158 258.97501481 2.55935097 C262.13231843 6.00861732 263.67299855 9.86087462 265.19230843 14.26679134 C265.88315558 15.54269877 266.59986809 16.80568379 267.36296272 18.03974056 C267.90863899 19.0402142 268.45431526 20.04068783 269.01652718 21.07147884 C269.64575081 22.21971127 270.27497444 23.36794369 270.92326546 24.55097103 C271.24216743 25.13632626 271.56106941 25.72168148 271.88963509 26.32477474 C273.61976669 29.49965102 275.36165729 32.66807245 277.10246468 35.83710384 C277.45069283 36.47156429 277.79892097 37.10602474 278.15770149 37.75971127 C281.33257254 43.53762967 284.5639658 49.28269952 287.81730843 55.01679134 C292.27691215 62.87955966 296.71584683 70.7532952 301.12980843 78.64179134 C302.00101326 80.19857601 302.00101326 80.19857601 302.88981819 81.78681087 C305.24806685 86.00181713 307.60542185 90.2173229 309.96281624 94.43280697 C316.71462635 106.50478993 323.48387143 118.5663016 330.29802132 130.60321712 C334.87794351 138.69831799 339.42198504 146.81323298 343.96183968 154.93085384 C348.38273933 162.83161907 352.83194355 170.71600982 357.29338264 178.59393978 C361.91809657 186.76609123 366.49942859 194.96217527 371.07170296 203.163764 C373.8437735 208.12344652 376.64228775 213.06309608 379.52043343 217.96210384 C380.03589729 218.84027767 380.55136116 219.7184515 381.08244514 220.62323666 C382.04681497 222.25895502 383.01688001 223.89133384 383.99357796 225.51972103 C384.6294886 226.59721615 384.6294886 226.59721615 385.27824593 227.69647884 C385.83584602 228.62822933 385.83584602 228.62822933 386.40471077 229.57880306 C387.19230843 231.26679134 387.19230843 231.26679134 387.19230843 234.26679134 C301.06230843 234.59679134 214.93230843 234.92679134 126.19230843 235.26679134 C118.27230843 249.62179134 118.27230843 249.62179134 110.19230843 264.26679134 C103.56730843 276.01679134 103.56730843 276.01679134 100.40324593 281.59491634 C96.97621007 287.63915312 93.58303125 293.70212939 90.19230843 299.76679134 C85.18183835 308.72620294 80.14401754 317.66961175 75.08683968 326.60272884 C71.10194073 333.64625482 67.14240849 340.70369851 63.19230843 347.76679134 C58.1817134 356.72613344 53.14401791 365.66961108 48.08683968 374.60272884 C44.10194073 381.64625482 40.14240849 388.70369851 36.19230843 395.76679134 C31.1869929 404.71669327 26.15597383 413.65153133 21.10222054 422.57416439 C18.21318994 427.67874977 15.33717242 432.79024368 12.47746468 437.91132259 C11.85613655 439.02378353 11.23480843 440.13624447 10.59465218 441.28241634 C9.40704115 443.41053461 8.22074682 445.53938846 7.03605843 447.66913509 C3.53627729 453.94061052 -0.07251054 460.13252992 -3.80769157 466.26679134 C-6.41191981 463.91138698 -7.97820594 461.45015468 -9.67097282 458.38397884 C-10.49577141 456.89970394 -10.49577141 456.89970394 -11.33723259 455.38544369 C-11.92560905 454.31503841 -12.51398552 453.24463314 -13.12019157 452.14179134 C-14.38569894 449.86047609 -15.6513273 447.57922794 -16.91706657 445.29804134 C-17.57018378 444.11711945 -18.22317844 442.93612978 -18.87605095 441.75507259 C-21.8559395 436.37379761 -24.8627088 431.00767814 -27.87019157 425.64179134 C-28.44938347 424.60715755 -29.02857536 423.57252377 -29.62531853 422.50653744 C-34.0333584 414.63569701 -38.46921827 406.78083769 -42.91340446 398.93036556 C-47.49332666 390.8352647 -52.03736819 382.72034971 -56.57722282 374.60272884 C-60.46927194 367.6470934 -64.3810293 360.70293931 -68.30769157 353.76679134 C-73.42503961 344.72738825 -78.50702338 335.66864839 -83.57722282 326.60272884 C-87.46927194 319.6470934 -91.3810293 312.70293931 -95.30769157 305.76679134 C-99.82969998 297.77901007 -104.32715894 289.77790944 -108.80769157 281.76679134 C-113.46253815 273.4476153 -118.12481399 265.13272705 -122.80769157 256.82929134 C-123.32331657 255.91276791 -123.83894157 254.99624447 -124.37019157 254.05194759 C-124.86519157 253.17538509 -125.36019157 252.29882259 -125.87019157 251.39569759 C-126.58562126 250.12170101 -126.58562126 250.12170101 -127.31550407 248.82196712 C-128.34827672 247.05347915 -129.43028891 245.31317743 -130.54987907 243.59833431 C-131.1093322 242.73482357 -131.66878532 241.87131283 -132.24519157 240.98163509 C-132.75952751 240.21842953 -133.27386345 239.45522396 -133.80378532 238.66889095 C-135.15563485 235.43424906 -134.72329187 233.62047816 -133.80769157 230.26679134 C-132.6311779 227.68744564 -132.6311779 227.68744564 -131.13972282 225.09101009 C-130.58349236 224.11132259 -130.02726189 223.13163509 -129.45417595 222.12226009 C-128.84896111 221.07683041 -128.24374626 220.03140072 -127.62019157 218.95429134 C-126.33479761 216.69791633 -125.04964808 214.44140205 -123.76472282 212.18476009 C-123.0990517 211.02238386 -122.43319882 209.86011169 -121.76716423 208.69794369 C-118.74565225 203.40709776 -115.77786794 198.0865668 -112.80769157 192.76679134 C-111.64260481 190.6859066 -110.47723925 188.60517793 -109.31159782 186.52460384 C-106.96399356 182.33259378 -104.61777314 178.13981326 -102.27253532 173.94647884 C-96.10790246 162.92651568 -89.92259447 151.9188275 -83.70197868 140.93036556 C-79.71710912 133.8870317 -75.7577029 126.8297255 -71.80769157 119.76679134 C-66.79709655 110.80744924 -61.75940106 101.86397161 -56.70222282 92.93085384 C-52.71732388 85.88732787 -48.75779164 78.82988417 -44.80769157 71.76679134 C-39.80237605 62.81688942 -34.77135697 53.88205135 -29.71760368 44.9594183 C-26.82857309 39.85483291 -23.95255556 34.74333901 -21.09284782 29.62226009 C-20.4715197 28.50979916 -19.85019157 27.39733822 -19.21003532 26.25116634 C-18.0224243 24.12304807 -16.83612997 21.99419423 -15.65144157 19.86444759 C-15.10616814 18.88733822 -14.5608947 17.91022884 -13.99909782 16.90351009 C-13.52673698 16.05490414 -13.05437614 15.20629818 -12.56770134 14.33197689 C-11.98689812 13.32046566 -11.40609489 12.30895443 -10.80769157 11.26679134 C-10.44098913 10.46110224 -10.07428669 9.65541314 -9.69647205 8.82530922 C-7.27578548 3.98632574 -5.63966604 0.72977712 0 0 Z " fill="#FFFFFF" transform="translate(516.8076915740967,251.73320865631104)"/>
</svg>
